<svg width="196" height="239" viewBox="0 0 196 239" fill="none" xmlns="http://www.w3.org/2000/svg">
<g clip-path="url(#clip0_1092_88)">
<path d="M192.942 2.47656H2.96094V171.182L97.9513 234.771L192.942 171.182V2.47656Z" fill="white" stroke="#F8A832" stroke-width="4.31774"/>
<g filter="url(#filter0_d_1092_88)">
<path d="M190.782 4.63574L5.11914 170.005L97.9506 232.181L190.782 170.005V4.63574Z" fill="url(#paint0_linear_1092_88)"/>
</g>
<path d="M37.9266 78.6265V60.9122H51.5413V64.1008H41.6213V68.1498H48.1503V71.2371H41.6213V75.4379H51.6425V78.6265H37.9266ZM59.3668 78.8036C58.1183 78.8036 56.9796 78.5084 55.9504 77.9179C54.9382 77.3106 54.1368 76.4923 53.5464 75.4632C52.9559 74.4341 52.6607 73.2869 52.6607 72.0216C52.6607 70.7563 52.9559 69.6175 53.5464 68.6053C54.1537 67.5762 54.9719 66.7664 56.0011 66.1759C57.0302 65.5685 58.1858 65.2649 59.468 65.2649C60.1091 65.2649 60.7333 65.3577 61.3406 65.5432C61.9648 65.7119 62.5384 65.965 63.0614 66.3024V60.9122L66.5284 60.3302V78.6265H63.1121V77.5383C62.0323 78.3818 60.7839 78.8036 59.3668 78.8036ZM59.9235 75.8428C60.5646 75.8428 61.1466 75.7331 61.6696 75.5138C62.2095 75.2945 62.6734 74.9824 63.0614 74.5775V69.4404C62.6734 69.0523 62.2095 68.7487 61.6696 68.5294C61.1297 68.31 60.5477 68.2004 59.9235 68.2004C59.1981 68.2004 58.5401 68.3691 57.9496 68.7065C57.376 69.027 56.9205 69.4825 56.5831 70.073C56.2457 70.6466 56.077 71.2961 56.077 72.0216C56.077 72.747 56.2457 73.3965 56.5831 73.9702C56.9205 74.5438 57.3845 74.9993 57.9749 75.3367C58.5654 75.6741 59.2149 75.8428 59.9235 75.8428ZM75.8875 84.042C74.8752 84.042 73.8967 83.9323 72.952 83.713C72.0241 83.5105 71.1721 83.2153 70.396 82.8273L71.6107 80.1195C72.3362 80.4907 73.0447 80.7606 73.7364 80.9293C74.4281 81.098 75.1198 81.1824 75.8115 81.1824C76.8406 81.1824 77.6167 80.9631 78.1397 80.5244C78.6796 80.0858 78.9495 79.4278 78.9495 78.5505V77.513C77.8698 78.3059 76.6635 78.7024 75.3307 78.7024C74.0823 78.7024 72.952 78.4071 71.9397 77.8167C70.9275 77.2093 70.1261 76.3911 69.5356 75.362C68.9452 74.3329 68.6499 73.1941 68.6499 71.9457C68.6499 70.6972 68.9452 69.5669 69.5356 68.5547C70.143 67.5255 70.9612 66.7158 71.9903 66.1253C73.0194 65.5348 74.1666 65.2396 75.4319 65.2396C76.0899 65.2396 76.7141 65.3324 77.3046 65.5179C77.9119 65.7035 78.4771 65.965 79.0001 66.3024V65.442H82.4164V78.5759C82.4164 80.3304 81.8512 81.6801 80.7209 82.6248C79.6074 83.5696 77.9963 84.042 75.8875 84.042ZM75.8621 75.7669C76.5032 75.7669 77.0853 75.6657 77.6083 75.4632C78.1313 75.2439 78.5783 74.9402 78.9495 74.5522V69.3898C78.5783 69.0355 78.1228 68.7487 77.583 68.5294C77.06 68.31 76.4948 68.2004 75.8875 68.2004C75.162 68.2004 74.5125 68.3691 73.9389 68.7065C73.3653 69.0439 72.9098 69.4994 72.5724 70.073C72.2349 70.6298 72.0662 71.254 72.0662 71.9457C72.0662 72.6711 72.2265 73.3206 72.5471 73.8942C72.8845 74.4678 73.34 74.9233 73.9136 75.2608C74.5041 75.5982 75.1536 75.7669 75.8621 75.7669ZM91.6007 78.8795C90.2848 78.8795 89.087 78.5759 88.0073 77.9685C86.9444 77.3612 86.1009 76.5429 85.4767 75.5138C84.8524 74.4847 84.5403 73.3291 84.5403 72.0469C84.5403 70.7647 84.8356 69.6091 85.4261 68.58C86.0334 67.5509 86.8516 66.7326 87.8807 66.1253C88.9098 65.5179 90.0571 65.2143 91.3224 65.2143C92.5877 65.2143 93.7096 65.5264 94.6881 66.1506C95.6666 66.7579 96.4342 67.6015 96.9909 68.6812C97.5645 69.744 97.8513 70.9503 97.8513 72.3V73.211H88.0832C88.235 73.734 88.4796 74.2063 88.8171 74.6281C89.1713 75.0499 89.6015 75.3789 90.1077 75.615C90.6307 75.8344 91.1874 75.944 91.7779 75.944C92.3683 75.944 92.9082 75.8597 93.3975 75.691C93.9036 75.5054 94.3338 75.2439 94.6881 74.9065L96.9656 76.9816C96.1558 77.6395 95.3207 78.1203 94.4603 78.424C93.6168 78.7277 92.6636 78.8795 91.6007 78.8795ZM88.0326 70.731H94.435C94.3169 70.208 94.0976 69.7525 93.777 69.3645C93.4734 68.9596 93.1022 68.6474 92.6636 68.4281C92.2418 68.1919 91.7694 68.0738 91.2464 68.0738C90.7234 68.0738 90.2426 68.1835 89.804 68.4028C89.3654 68.6221 88.9942 68.9343 88.6905 69.3391C88.3869 69.7272 88.1675 70.1911 88.0326 70.731ZM108.989 75.362H112.076C112.852 75.362 113.578 75.227 114.252 74.9571C114.944 74.6703 115.543 74.2738 116.049 73.7677C116.555 73.2616 116.952 72.6711 117.239 71.9963C117.525 71.3215 117.669 70.5876 117.669 69.7947C117.669 69.0017 117.525 68.2679 117.239 67.593C116.952 66.9013 116.555 66.3024 116.049 65.7963C115.543 65.2902 114.944 64.8937 114.252 64.6069C113.578 64.3201 112.852 64.1767 112.076 64.1767H108.989V75.362ZM105.294 78.6265V60.9122H112.101C113.434 60.9122 114.666 61.14 115.796 61.5955C116.926 62.0341 117.913 62.6584 118.757 63.4681C119.6 64.2779 120.258 65.2227 120.731 66.3024C121.22 67.3821 121.465 68.5462 121.465 69.7947C121.465 71.0431 121.228 72.2072 120.756 73.2869C120.284 74.3497 119.617 75.2861 118.757 76.0959C117.913 76.8888 116.926 77.513 115.796 77.9685C114.666 78.4071 113.434 78.6265 112.101 78.6265H105.294ZM127.703 78.8542C126.758 78.8542 125.923 78.6855 125.198 78.3481C124.472 77.9938 123.907 77.513 123.502 76.9057C123.097 76.2983 122.895 75.5982 122.895 74.8053C122.895 73.54 123.367 72.5614 124.312 71.8698C125.274 71.1612 126.589 70.8069 128.26 70.8069C129.407 70.8069 130.487 70.984 131.499 71.3383V70.3767C131.499 69.6175 131.263 69.0523 130.79 68.6812C130.318 68.2932 129.626 68.0992 128.715 68.0992C128.158 68.0992 127.56 68.1835 126.918 68.3522C126.277 68.5209 125.535 68.7908 124.692 69.162L123.426 66.6061C124.472 66.1168 125.468 65.7626 126.412 65.5432C127.374 65.3071 128.336 65.189 129.297 65.189C131.086 65.189 132.469 65.6192 133.447 66.4796C134.426 67.3231 134.915 68.5209 134.915 70.073V78.6265H131.499V77.6901C130.959 78.095 130.377 78.3903 129.753 78.5759C129.129 78.7614 128.445 78.8542 127.703 78.8542ZM126.185 74.7293C126.185 75.2355 126.404 75.6404 126.843 75.944C127.281 76.2308 127.872 76.3742 128.614 76.3742C129.171 76.3742 129.694 76.3067 130.183 76.1718C130.672 76.0199 131.111 75.7922 131.499 75.4885V73.5906C131.077 73.4219 130.638 73.2953 130.183 73.211C129.727 73.1266 129.238 73.0844 128.715 73.0844C127.922 73.0844 127.298 73.2363 126.843 73.54C126.404 73.8268 126.185 74.2232 126.185 74.7293ZM143.444 78.8289C141.976 78.8289 140.862 78.4999 140.103 77.842C139.361 77.1671 138.99 76.1886 138.99 74.9065V68.3522H136.282V65.442H138.99V62.051L142.457 61.2918V65.442H146.227V68.3522H142.457V74.1979C142.457 74.8053 142.592 75.2439 142.862 75.5138C143.132 75.7669 143.604 75.8934 144.279 75.8934C144.616 75.8934 144.92 75.8765 145.19 75.8428C145.477 75.7922 145.789 75.7078 146.126 75.5897V78.4493C145.772 78.5674 145.333 78.6602 144.81 78.7277C144.287 78.7952 143.832 78.8289 143.444 78.8289ZM152.144 78.8542C151.199 78.8542 150.364 78.6855 149.639 78.3481C148.913 77.9938 148.348 77.513 147.943 76.9057C147.538 76.2983 147.336 75.5982 147.336 74.8053C147.336 73.54 147.808 72.5614 148.753 71.8698C149.715 71.1612 151.031 70.8069 152.701 70.8069C153.848 70.8069 154.928 70.984 155.94 71.3383V70.3767C155.94 69.6175 155.704 69.0523 155.231 68.6812C154.759 68.2932 154.067 68.0992 153.156 68.0992C152.6 68.0992 152.001 68.1835 151.36 68.3522C150.718 68.5209 149.976 68.7908 149.133 69.162L147.867 66.6061C148.913 66.1168 149.909 65.7626 150.853 65.5432C151.815 65.3071 152.777 65.189 153.738 65.189C155.527 65.189 156.91 65.6192 157.889 66.4796C158.867 67.3231 159.356 68.5209 159.356 70.073V78.6265H155.94V77.6901C155.4 78.095 154.818 78.3903 154.194 78.5759C153.57 78.7614 152.886 78.8542 152.144 78.8542ZM150.626 74.7293C150.626 75.2355 150.845 75.6404 151.284 75.944C151.722 76.2308 152.313 76.3742 153.055 76.3742C153.612 76.3742 154.135 76.3067 154.624 76.1718C155.113 76.0199 155.552 75.7922 155.94 75.4885V73.5906C155.518 73.4219 155.08 73.2953 154.624 73.211C154.169 73.1266 153.679 73.0844 153.156 73.0844C152.363 73.0844 151.739 73.2363 151.284 73.54C150.845 73.8268 150.626 74.2232 150.626 74.7293ZM67.4902 111.88C66.1743 111.88 64.9427 111.652 63.7955 111.196C62.6483 110.724 61.6445 110.074 60.7841 109.248C59.9406 108.421 59.2742 107.459 58.7849 106.363C58.3125 105.249 58.0763 104.052 58.0763 102.769C58.0763 101.47 58.3125 100.272 58.7849 99.1759C59.2742 98.0624 59.949 97.0924 60.8094 96.2657C61.6698 95.439 62.6652 94.7979 63.7955 94.3424C64.9427 93.8701 66.1743 93.6339 67.4902 93.6339C68.4687 93.6339 69.4135 93.7688 70.3245 94.0388C71.2355 94.3087 72.079 94.6883 72.8551 95.1775C73.648 95.6668 74.3228 96.2573 74.8796 96.949L72.3996 99.4036C71.7585 98.6107 71.0162 98.0118 70.1726 97.6069C69.346 97.202 68.4518 96.9996 67.4902 96.9996C66.6973 96.9996 65.955 97.1514 65.2633 97.4551C64.5716 97.7419 63.9727 98.1468 63.4665 98.6698C62.9604 99.1759 62.564 99.7832 62.2771 100.492C61.9903 101.184 61.8469 101.943 61.8469 102.769C61.8469 103.579 61.9903 104.33 62.2771 105.022C62.5808 105.713 62.9857 106.321 63.4918 106.844C64.0148 107.367 64.6306 107.772 65.3392 108.058C66.0477 108.345 66.8069 108.489 67.6167 108.489C68.5446 108.489 69.4135 108.295 70.2232 107.906C71.033 107.518 71.7416 106.962 72.349 106.236L74.7783 108.615C74.2216 109.29 73.5552 109.872 72.7792 110.361C72.0031 110.85 71.1596 111.23 70.2486 111.5C69.3544 111.753 68.435 111.88 67.4902 111.88ZM82.7782 111.88C81.4623 111.88 80.2645 111.576 79.1848 110.969C78.1219 110.361 77.2784 109.543 76.6541 108.514C76.0299 107.485 75.7178 106.329 75.7178 105.047C75.7178 103.765 76.0131 102.609 76.6035 101.58C77.2109 100.551 78.0291 99.7326 79.0582 99.1253C80.0873 98.5179 81.2345 98.2143 82.4998 98.2143C83.7651 98.2143 84.887 98.5264 85.8655 99.1506C86.844 99.7579 87.6117 100.601 88.1684 101.681C88.742 102.744 89.0288 103.95 89.0288 105.3V106.211H79.2607C79.4125 106.734 79.6571 107.206 79.9945 107.628C80.3488 108.05 80.779 108.379 81.2852 108.615C81.8081 108.834 82.3649 108.944 82.9554 108.944C83.5458 108.944 84.0857 108.86 84.5749 108.691C85.0811 108.505 85.5113 108.244 85.8655 107.906L88.1431 109.982C87.3333 110.64 86.4982 111.12 85.6378 111.424C84.7943 111.728 83.8411 111.88 82.7782 111.88ZM79.2101 103.731H85.6125C85.4944 103.208 85.2751 102.752 84.9545 102.364C84.6509 101.96 84.2797 101.647 83.8411 101.428C83.4193 101.192 82.9469 101.074 82.4239 101.074C81.9009 101.074 81.4201 101.184 80.9815 101.403C80.5428 101.622 80.1717 101.934 79.868 102.339C79.5643 102.727 79.345 103.191 79.2101 103.731ZM91.1529 111.626V98.442H94.6199V99.5049C95.6321 98.6276 96.8637 98.189 98.3145 98.189C99.3436 98.189 100.246 98.4083 101.022 98.8469C101.815 99.2856 102.431 99.9013 102.87 100.694C103.308 101.487 103.528 102.407 103.528 103.453V111.626H100.061V103.959C100.061 103.098 99.816 102.424 99.3268 101.934C98.8375 101.428 98.1711 101.175 97.3276 101.175C96.7371 101.175 96.2141 101.293 95.7586 101.529C95.32 101.749 94.9404 102.069 94.6199 102.491V111.626H91.1529ZM112.058 111.829C110.591 111.829 109.477 111.5 108.718 110.842C107.976 110.167 107.604 109.189 107.604 107.906V101.352H104.897V98.442H107.604V95.051L111.071 94.2918V98.442H114.842V101.352H111.071V107.198C111.071 107.805 111.206 108.244 111.476 108.514C111.746 108.767 112.219 108.893 112.893 108.893C113.231 108.893 113.534 108.877 113.804 108.843C114.091 108.792 114.403 108.708 114.741 108.59V111.449C114.386 111.567 113.948 111.66 113.425 111.728C112.902 111.795 112.446 111.829 112.058 111.829ZM116.558 111.626V98.442H120.025V99.9098C120.447 99.3362 120.953 98.8975 121.543 98.5939C122.134 98.2902 122.8 98.1383 123.542 98.1383C124.183 98.1552 124.664 98.248 124.985 98.4167V101.479C124.732 101.361 124.453 101.276 124.15 101.226C123.846 101.158 123.534 101.124 123.213 101.124C122.538 101.124 121.923 101.293 121.366 101.631C120.809 101.968 120.362 102.449 120.025 103.073V111.626H116.558ZM132.797 111.88C131.481 111.88 130.283 111.576 129.204 110.969C128.141 110.361 127.297 109.543 126.673 108.514C126.049 107.485 125.737 106.329 125.737 105.047C125.737 103.765 126.032 102.609 126.623 101.58C127.23 100.551 128.048 99.7326 129.077 99.1253C130.106 98.5179 131.254 98.2143 132.519 98.2143C133.784 98.2143 134.906 98.5264 135.885 99.1506C136.863 99.7579 137.631 100.601 138.187 101.681C138.761 102.744 139.048 103.95 139.048 105.3V106.211H129.28C129.431 106.734 129.676 107.206 130.014 107.628C130.368 108.05 130.798 108.379 131.304 108.615C131.827 108.834 132.384 108.944 132.974 108.944C133.565 108.944 134.105 108.86 134.594 108.691C135.1 108.505 135.53 108.244 135.885 107.906L138.162 109.982C137.352 110.64 136.517 111.12 135.657 111.424C134.813 111.728 133.86 111.88 132.797 111.88ZM129.229 103.731H135.631C135.513 103.208 135.294 102.752 134.974 102.364C134.67 101.96 134.299 101.647 133.86 101.428C133.438 101.192 132.966 101.074 132.443 101.074C131.92 101.074 131.439 101.184 131 101.403C130.562 101.622 130.191 101.934 129.887 102.339C129.583 102.727 129.364 103.191 129.229 103.731Z" fill="#734708"/>
<path d="M121.775 4.2041H73.2734V37.3803L97.5243 49.8851L121.775 37.3803V4.2041Z" fill="#F8A832"/>
<path d="M93.3972 19.8856V17.9075C93.5929 17.8953 93.7886 17.8831 93.9844 17.8831C99.4159 17.7122 102.976 22.5475 102.976 22.5475C102.976 22.5475 99.1346 27.8712 95.012 27.8712C94.4615 27.8712 93.9232 27.7858 93.4094 27.6148V21.6073C95.5258 21.8637 95.9539 22.7917 97.2139 24.9041L100.04 22.5353C100.04 22.5353 97.9724 19.8368 94.4982 19.8368C94.1312 19.8246 93.7642 19.849 93.3972 19.8856ZM93.3972 13.3408V16.2957L93.9844 16.2591C101.532 16.0027 106.462 22.4376 106.462 22.4376C106.462 22.4376 100.811 29.2998 94.9263 29.2998C94.4125 29.2998 93.911 29.251 93.4094 29.1655V30.9971C93.8253 31.0459 94.2535 31.0826 94.6694 31.0826C100.15 31.0826 104.113 28.2864 107.955 24.9896C108.591 25.5024 111.197 26.7357 111.735 27.2729C108.089 30.3255 99.5872 32.7798 94.7673 32.7798C94.3024 32.7798 93.862 32.7554 93.4216 32.7066V35.283H114.243V13.3408H93.3972ZM93.3972 27.6148V29.1777C88.3326 28.2742 86.9258 23.0115 86.9258 23.0115C86.9258 23.0115 89.3602 20.3252 93.3972 19.8856V21.5951H93.3849C91.2686 21.3386 89.6049 23.3167 89.6049 23.3167C89.6049 23.3167 90.5468 26.6502 93.3972 27.6148ZM84.4057 22.7917C84.4057 22.7917 87.4029 18.3715 93.4094 17.9075V16.2957C86.7545 16.833 81.0049 22.4498 81.0049 22.4498C81.0049 22.4498 84.2589 31.8518 93.3972 32.7066V30.9971C86.6933 30.1668 84.4057 22.7917 84.4057 22.7917Z" fill="white"/>
<path fill-rule="evenodd" clip-rule="evenodd" d="M121.166 156.555C120.368 156.896 119.49 157.236 118.612 157.509C118.452 157.577 118.293 157.577 118.053 157.577C117.495 157.577 116.936 157.305 116.697 156.76C116.377 156.078 116.776 155.397 117.495 155.125C118.293 154.852 119.091 154.58 119.809 154.239C120.528 153.899 121.406 154.171 121.805 154.784C122.204 155.465 121.885 156.215 121.166 156.555ZM85.0094 158.531C84.8498 159.144 84.2911 159.553 83.5727 159.553C83.4929 159.553 83.4131 159.553 83.2535 159.553C82.1361 159.348 81.0186 159.144 79.981 158.939C79.1828 158.735 78.7039 158.054 78.9434 157.373C79.1828 156.691 79.981 156.283 80.6994 156.487C81.6572 156.691 82.6948 156.896 83.8122 157.1C84.6104 157.168 85.0893 157.85 85.0094 158.531ZM77.1076 156.828C76.8682 157.305 76.3095 157.645 75.7507 157.645C75.5911 157.645 75.3517 157.645 75.192 157.577C74.314 157.236 73.4361 156.964 72.6379 156.623C71.9196 156.283 71.6003 155.533 71.9994 154.92C72.3985 154.307 73.2764 154.035 73.9948 154.375C74.7131 154.716 75.5113 154.988 76.3095 155.261C77.0278 155.465 77.4269 156.215 77.1076 156.828ZM120.608 149.948C123.72 148.789 126.115 147.359 127.871 145.86V155.465C126.993 157.713 124.04 159.961 119.41 161.732C113.504 163.98 105.442 165.275 96.9021 165.275C88.3617 165.275 80.3003 164.049 74.314 161.732C69.6847 159.961 66.7315 157.713 65.8535 155.465V145.86C67.6095 147.359 70.0838 148.789 73.1168 149.948C79.5819 152.332 87.9626 153.694 96.9021 153.694C105.842 153.694 114.222 152.332 120.608 149.948ZM118.293 131.759C124.519 133.803 127.951 136.664 127.951 139.866C127.951 143.067 124.519 145.928 118.293 147.972C112.546 149.948 104.964 150.969 96.9021 150.969C88.8406 150.969 81.2581 149.948 75.5113 148.04C69.2856 145.997 65.8535 143.135 65.8535 139.934C65.8535 136.732 69.2856 133.871 75.5113 131.827C81.2581 129.852 88.8406 128.83 96.9021 128.83C104.964 128.83 112.546 129.852 118.293 131.759ZM121.805 168.953C122.204 169.566 121.885 170.316 121.166 170.656C120.368 170.997 119.49 171.337 118.612 171.61C118.452 171.678 118.293 171.678 118.053 171.678C117.495 171.678 116.936 171.406 116.697 170.861C116.377 170.179 116.776 169.498 117.495 169.226C118.293 168.953 119.091 168.681 119.809 168.34C120.608 168.068 121.486 168.272 121.805 168.953ZM85.0094 172.564C84.8498 173.177 84.2911 173.585 83.5727 173.585C83.4929 173.585 83.4131 173.585 83.2535 173.585C82.1361 173.381 81.0186 173.177 79.981 172.972C79.1828 172.768 78.7039 172.087 78.9434 171.406C79.1828 170.724 79.981 170.316 80.6994 170.52C81.6572 170.724 82.6948 170.929 83.8122 171.133C84.6104 171.201 85.0893 171.882 85.0094 172.564ZM77.1076 170.929C76.8682 171.406 76.3095 171.746 75.7507 171.746C75.5911 171.746 75.3517 171.746 75.192 171.678C74.314 171.337 73.4361 171.065 72.6379 170.724C71.9196 170.384 71.6003 169.634 71.9994 169.021C72.3985 168.408 73.2764 168.136 73.9948 168.476C74.7131 168.817 75.5113 169.089 76.3095 169.362C77.0278 169.498 77.4269 170.248 77.1076 170.929ZM96.9021 167.931C87.9626 167.931 79.5819 166.569 73.1966 164.185C70.0838 163.027 67.6893 161.596 65.9333 160.098V169.703C66.8113 171.951 69.7645 174.199 74.3939 175.97C80.3801 178.286 88.4415 179.512 96.9819 179.512C105.522 179.512 113.584 178.286 119.57 175.97C124.199 174.199 127.152 171.951 128.03 169.703V160.098C126.274 161.596 123.8 163.027 120.767 164.185C114.222 166.569 105.842 167.931 96.9021 167.931ZM121.805 183.463C122.204 184.076 121.885 184.825 121.166 185.166C120.368 185.507 119.49 185.847 118.612 186.12C118.452 186.188 118.293 186.188 118.053 186.188C117.495 186.188 116.936 185.915 116.697 185.37C116.377 184.689 116.776 184.008 117.495 183.735C118.293 183.463 119.091 183.19 119.809 182.85C120.608 182.577 121.486 182.85 121.805 183.463ZM85.0094 187.141C84.8498 187.755 84.2911 188.163 83.5727 188.163C83.4929 188.163 83.4131 188.163 83.2535 188.163C82.1361 187.959 81.0186 187.755 79.981 187.55C79.1828 187.346 78.7039 186.665 78.9434 185.983C79.1828 185.302 79.981 184.894 80.6994 185.098C81.6572 185.302 82.6948 185.507 83.8122 185.711C84.6104 185.779 85.0893 186.46 85.0094 187.141ZM77.1076 185.438C76.8682 185.915 76.3095 186.256 75.7507 186.256C75.5911 186.256 75.3517 186.256 75.192 186.188C74.314 185.847 73.4361 185.575 72.6379 185.234C71.9196 184.894 71.6003 184.144 71.9994 183.531C72.3985 182.918 73.2764 182.646 73.9948 182.986C74.7131 183.327 75.5113 183.599 76.3095 183.872C77.0278 184.076 77.4269 184.825 77.1076 185.438ZM96.9021 181.964C87.9626 181.964 79.5819 180.602 73.1966 178.218C70.0838 177.06 67.6893 175.629 65.9333 174.13V183.735C66.8113 185.983 69.7645 188.231 74.3939 190.003C80.3801 192.319 88.4415 193.545 96.9819 193.545C105.522 193.545 113.584 192.319 119.57 190.003C124.199 188.231 127.152 185.983 128.03 183.735V174.13C126.274 175.629 123.8 177.06 120.767 178.218C114.222 180.602 105.842 181.964 96.9021 181.964Z" fill="#F8A832" fill-opacity="0.5"/>
<g filter="url(#filter1_d_1092_88)">
<path d="M97.9506 188.14L5.11914 170.005L97.9506 232.181L190.782 170.005L97.9506 188.14Z" fill="url(#paint1_linear_1092_88)"/>
</g>
</g>
<defs>
<filter id="filter0_d_1092_88" x="1.66495" y="2.90865" width="196.026" height="237.908" filterUnits="userSpaceOnUse" color-interpolation-filters="sRGB">
<feFlood flood-opacity="0" result="BackgroundImageFix"/>
<feColorMatrix in="SourceAlpha" type="matrix" values="0 0 0 0 0 0 0 0 0 0 0 0 0 0 0 0 0 0 127 0" result="hardAlpha"/>
<feOffset dx="1.7271" dy="3.45419"/>
<feGaussianBlur stdDeviation="2.59065"/>
<feComposite in2="hardAlpha" operator="out"/>
<feColorMatrix type="matrix" values="0 0 0 0 0 0 0 0 0 0 0 0 0 0 0 0 0 0 0.25 0"/>
<feBlend mode="normal" in2="BackgroundImageFix" result="effect1_dropShadow_1092_88"/>
<feBlend mode="normal" in="SourceGraphic" in2="effect1_dropShadow_1092_88" result="shape"/>
</filter>
<filter id="filter1_d_1092_88" x="-12.1518" y="145.826" width="220.205" height="96.7172" filterUnits="userSpaceOnUse" color-interpolation-filters="sRGB">
<feFlood flood-opacity="0" result="BackgroundImageFix"/>
<feColorMatrix in="SourceAlpha" type="matrix" values="0 0 0 0 0 0 0 0 0 0 0 0 0 0 0 0 0 0 127 0" result="hardAlpha"/>
<feOffset dy="-6.90839"/>
<feGaussianBlur stdDeviation="8.63549"/>
<feComposite in2="hardAlpha" operator="out"/>
<feColorMatrix type="matrix" values="0 0 0 0 0.972549 0 0 0 0 0.658824 0 0 0 0 0.196078 0 0 0 0.35 0"/>
<feBlend mode="normal" in2="BackgroundImageFix" result="effect1_dropShadow_1092_88"/>
<feBlend mode="normal" in="SourceGraphic" in2="effect1_dropShadow_1092_88" result="shape"/>
</filter>
<linearGradient id="paint0_linear_1092_88" x1="191.214" y1="5.06752" x2="97.9506" y2="232.181" gradientUnits="userSpaceOnUse">
<stop stop-color="#FFF5E0"/>
<stop offset="1" stop-color="#FFFDFA"/>
</linearGradient>
<linearGradient id="paint1_linear_1092_88" x1="191.214" y1="170.005" x2="97.9506" y2="232.181" gradientUnits="userSpaceOnUse">
<stop stop-color="#DEA835"/>
<stop offset="1" stop-color="#FFFAED"/>
</linearGradient>
<clipPath id="clip0_1092_88">
<rect width="196" height="239" fill="white"/>
</clipPath>
</defs>
</svg>
