<svg width="196" height="239" viewBox="0 0 196 239" fill="none" xmlns="http://www.w3.org/2000/svg">
<g clip-path="url(#clip0_1092_89)">
<path d="M192.922 2.68652H2.94141V171.392L97.9317 234.981L192.922 171.392V2.68652Z" fill="white" stroke="#46D185" stroke-width="4.31774"/>
<g filter="url(#filter0_d_1092_89)">
<path d="M190.763 4.8457L5.09961 170.215L97.9311 232.391L190.763 170.215V4.8457Z" fill="url(#paint0_linear_1092_89)"/>
</g>
<path d="M63.3275 89.25V71.5358H67.0222V78.6468H75.1454V71.5358H78.8148V89.25H75.1454V82.0125H67.0222V89.25H63.3275ZM88.2351 89.5031C86.9192 89.5031 85.7214 89.1994 84.6417 88.592C83.5788 87.9847 82.7353 87.1665 82.1111 86.1374C81.5037 85.1082 81.2001 83.9526 81.2001 82.6704C81.2001 81.3883 81.5037 80.2326 82.1111 79.2035C82.7353 78.1575 83.5788 77.3309 84.6417 76.7235C85.7214 76.1162 86.9192 75.8125 88.2351 75.8125C89.5511 75.8125 90.7404 76.1162 91.8033 76.7235C92.883 77.3309 93.7266 78.1575 94.3339 79.2035C94.9581 80.2326 95.2702 81.3883 95.2702 82.6704C95.2702 83.9526 94.9581 85.1082 94.3339 86.1374C93.7266 87.1665 92.883 87.9847 91.8033 88.592C90.7404 89.1994 89.5511 89.5031 88.2351 89.5031ZM88.2351 86.4916C88.9268 86.4916 89.5426 86.3229 90.0825 85.9855C90.6392 85.6312 91.0779 85.1673 91.3984 84.5937C91.7189 84.0201 91.8792 83.379 91.8792 82.6704C91.8792 81.945 91.7189 81.2955 91.3984 80.7219C91.0779 80.1483 90.6392 79.6928 90.0825 79.3553C89.5426 79.0011 88.9268 78.8239 88.2351 78.8239C87.5603 78.8239 86.9445 79.0011 86.3878 79.3553C85.8311 79.6928 85.3924 80.1483 85.0719 80.7219C84.7513 81.2955 84.5911 81.945 84.5911 82.6704C84.5911 83.379 84.7513 84.0201 85.0719 84.5937C85.3924 85.1673 85.8311 85.6312 86.3878 85.9855C86.9445 86.3229 87.5603 86.4916 88.2351 86.4916ZM97.4013 89.25V76.0656H100.868V77.0778C101.813 76.2343 102.96 75.8125 104.31 75.8125C105.17 75.8125 105.938 75.9896 106.613 76.3439C107.304 76.6813 107.861 77.1621 108.283 77.7864C108.823 77.1453 109.464 76.656 110.206 76.3186C110.948 75.9812 111.758 75.8125 112.636 75.8125C113.631 75.8125 114.5 76.0318 115.242 76.4704C116.001 76.9091 116.592 77.5249 117.013 78.3178C117.452 79.1107 117.671 80.0302 117.671 81.0761V89.25H114.23V81.5823C114.23 80.7219 114.002 80.047 113.547 79.5578C113.091 79.0517 112.484 78.7986 111.724 78.7986C111.201 78.7986 110.721 78.9083 110.282 79.1276C109.86 79.3469 109.498 79.6759 109.194 80.1145C109.211 80.2664 109.228 80.4182 109.244 80.57C109.261 80.7219 109.27 80.8906 109.27 81.0761V89.25H105.803V81.5823C105.803 80.7219 105.575 80.047 105.12 79.5578C104.681 79.0517 104.082 78.7986 103.323 78.7986C102.8 78.7986 102.328 78.8998 101.906 79.1023C101.501 79.3047 101.155 79.6084 100.868 80.0133V89.25H97.4013ZM126.788 89.5031C125.472 89.5031 124.274 89.1994 123.194 88.592C122.132 87.9847 121.288 87.1665 120.664 86.1374C120.04 85.1082 119.728 83.9526 119.728 82.6704C119.728 81.3883 120.023 80.2326 120.613 79.2035C121.221 78.1744 122.039 77.3562 123.068 76.7488C124.097 76.1415 125.244 75.8378 126.51 75.8378C127.775 75.8378 128.897 76.1499 129.875 76.7741C130.854 77.3815 131.621 78.225 132.178 79.3047C132.752 80.3676 133.039 81.5738 133.039 82.9235V83.8345H123.27C123.422 84.3575 123.667 84.8299 124.004 85.2516C124.359 85.6734 124.789 86.0024 125.295 86.2386C125.818 86.4579 126.375 86.5676 126.965 86.5676C127.556 86.5676 128.095 86.4832 128.585 86.3145C129.091 86.1289 129.521 85.8674 129.875 85.53L132.153 87.6051C131.343 88.2631 130.508 88.7439 129.647 89.0476C128.804 89.3512 127.851 89.5031 126.788 89.5031ZM123.22 81.3545H129.622C129.504 80.8315 129.285 80.376 128.964 79.988C128.661 79.5831 128.289 79.271 127.851 79.0517C127.429 78.8155 126.957 78.6974 126.434 78.6974C125.911 78.6974 125.43 78.807 124.991 79.0264C124.553 79.2457 124.181 79.5578 123.878 79.9627C123.574 80.3507 123.355 80.8147 123.22 81.3545Z" fill="#1C6C40"/>
<path d="M121.756 4.41309H73.2539V37.5892L97.5047 50.0941L121.756 37.5892V4.41309Z" fill="#46D185"/>
<path d="M93.3757 20.0946V18.1165C93.5714 18.1043 93.7671 18.0921 93.9629 18.0921C99.3944 17.9211 102.954 22.7565 102.954 22.7565C102.954 22.7565 99.1131 28.0802 94.9905 28.0802C94.44 28.0802 93.9017 27.9947 93.3879 27.8238V21.8163C95.5043 22.0727 95.9324 23.0007 97.1925 25.1131L100.018 22.7443C100.018 22.7443 97.9509 20.0458 94.4767 20.0458C94.1097 20.0335 93.7427 20.058 93.3757 20.0946ZM93.3757 13.5498V16.5047L93.9629 16.4681C101.511 16.2117 106.441 22.6466 106.441 22.6466C106.441 22.6466 100.789 29.5088 94.9048 29.5088C94.391 29.5088 93.8895 29.46 93.3879 29.3745V31.2061C93.8038 31.2549 94.232 31.2916 94.6479 31.2916C100.128 31.2916 104.092 28.4954 107.933 25.1986C108.569 25.7114 111.175 26.9446 111.713 27.4819C108.068 30.5345 99.5657 32.9888 94.7458 32.9888C94.2809 32.9888 93.8405 32.9644 93.4001 32.9155V35.4919H114.221V13.5498H93.3757ZM93.3757 27.8238V29.3867C88.3111 28.4832 86.9043 23.2205 86.9043 23.2205C86.9043 23.2205 89.3387 20.5342 93.3757 20.0946V21.8041H93.3634C91.2471 21.5476 89.5834 23.5257 89.5834 23.5257C89.5834 23.5257 90.5253 26.8592 93.3757 27.8238ZM84.3842 23.0007C84.3842 23.0007 87.3814 18.5805 93.3879 18.1165V16.5047C86.733 17.042 80.9834 22.6588 80.9834 22.6588C80.9834 22.6588 84.2374 32.0608 93.3757 32.9155V31.2061C86.6719 30.3758 84.3842 23.0007 84.3842 23.0007Z" fill="white"/>
<path d="M144.124 146.636L135.16 140.235C131.874 137.888 129.094 132.575 129.094 128.629V122.311C129.094 120.029 128.176 117.879 126.501 116.255C126.442 116.201 126.383 116.142 126.324 116.088C125.612 115.104 124.581 114.484 123.24 114.238C122.297 113.908 121.29 113.736 120.258 113.736C117.97 113.736 115.799 114.331 114.148 115.414C112.39 116.565 111.422 118.124 111.422 119.802C111.422 121.106 110.735 121.273 110.135 121.273C110.072 121.273 110.003 121.268 109.934 121.263C109.207 120.963 108.176 120.545 106.992 120.097C106.805 119.979 106.614 119.851 106.422 119.714L104.713 118.493C102.851 117.165 100.376 116.432 97.7532 116.432C95.1255 116.432 92.6549 117.165 90.7933 118.493L51.3819 146.636C48.7592 148.511 48.5724 149.957 48.8721 150.843C49.1766 151.728 50.2227 152.786 53.4841 152.786H53.6855C57.6001 152.786 60.7877 155.856 60.7877 159.635C60.7877 159.669 60.7926 159.709 60.7926 159.743L65.2672 193.386C65.2819 195.649 66.2102 197.775 67.8801 199.388C69.5747 201.007 71.8045 201.902 74.1719 201.902H120.636C123.003 201.902 125.233 201.007 126.918 199.383C128.588 197.775 129.511 195.649 129.531 193.396L134.899 159.763C134.904 159.719 134.909 159.674 134.909 159.63C134.909 155.856 138.097 152.781 142.016 152.781C145.278 152.781 146.324 151.724 146.628 150.838C146.933 149.957 146.747 148.505 144.124 146.636ZM50.8125 150.557C50.9696 150.636 51.1317 150.714 51.3036 150.783C51.0875 150.714 50.9303 150.631 50.8125 150.557ZM74.1721 200.176C73.2782 200.176 72.4236 200.013 71.6328 199.723C72.3843 199.885 73.2389 200.033 74.1819 200.176H74.1721ZM109.374 188.938C109.374 192.072 106.834 194.616 103.706 194.616H91.7998C88.6711 194.616 86.1318 192.072 86.1318 188.938V164.899C86.1318 161.765 88.6711 159.222 91.7998 159.222H103.711C106.839 159.222 109.379 161.765 109.379 164.899L109.374 188.938Z" fill="#46D185" fill-opacity="0.5"/>
<g filter="url(#filter1_d_1092_89)">
<path d="M97.9311 188.35L5.09961 170.215L97.9311 232.391L190.763 170.215L97.9311 188.35Z" fill="url(#paint1_linear_1092_89)"/>
</g>
</g>
<defs>
<filter id="filter0_d_1092_89" x="1.64542" y="3.11861" width="196.026" height="237.908" filterUnits="userSpaceOnUse" color-interpolation-filters="sRGB">
<feFlood flood-opacity="0" result="BackgroundImageFix"/>
<feColorMatrix in="SourceAlpha" type="matrix" values="0 0 0 0 0 0 0 0 0 0 0 0 0 0 0 0 0 0 127 0" result="hardAlpha"/>
<feOffset dx="1.7271" dy="3.45419"/>
<feGaussianBlur stdDeviation="2.59065"/>
<feComposite in2="hardAlpha" operator="out"/>
<feColorMatrix type="matrix" values="0 0 0 0 0 0 0 0 0 0 0 0 0 0 0 0 0 0 0.25 0"/>
<feBlend mode="normal" in2="BackgroundImageFix" result="effect1_dropShadow_1092_89"/>
<feBlend mode="normal" in="SourceGraphic" in2="effect1_dropShadow_1092_89" result="shape"/>
</filter>
<filter id="filter1_d_1092_89" x="-12.1714" y="146.036" width="220.205" height="96.7172" filterUnits="userSpaceOnUse" color-interpolation-filters="sRGB">
<feFlood flood-opacity="0" result="BackgroundImageFix"/>
<feColorMatrix in="SourceAlpha" type="matrix" values="0 0 0 0 0 0 0 0 0 0 0 0 0 0 0 0 0 0 127 0" result="hardAlpha"/>
<feOffset dy="-6.90839"/>
<feGaussianBlur stdDeviation="8.63549"/>
<feComposite in2="hardAlpha" operator="out"/>
<feColorMatrix type="matrix" values="0 0 0 0 0.27451 0 0 0 0 0.819608 0 0 0 0 0.521569 0 0 0 0.3 0"/>
<feBlend mode="normal" in2="BackgroundImageFix" result="effect1_dropShadow_1092_89"/>
<feBlend mode="normal" in="SourceGraphic" in2="effect1_dropShadow_1092_89" result="shape"/>
</filter>
<linearGradient id="paint0_linear_1092_89" x1="191.194" y1="5.27748" x2="97.9311" y2="232.391" gradientUnits="userSpaceOnUse">
<stop stop-color="#E0FFF0"/>
<stop offset="1" stop-color="#FAFFFD"/>
</linearGradient>
<linearGradient id="paint1_linear_1092_89" x1="191.194" y1="170.215" x2="97.9311" y2="232.391" gradientUnits="userSpaceOnUse">
<stop stop-color="#5CC793"/>
<stop offset="1" stop-color="#EDFFF7"/>
</linearGradient>
<clipPath id="clip0_1092_89">
<rect width="196" height="239" fill="white"/>
</clipPath>
</defs>
</svg>
