<svg width="394" height="168" viewBox="0 0 394 168" fill="none" xmlns="http://www.w3.org/2000/svg">
<path d="M142.266 61.645V124.718H160.065V61.645H142.266ZM2.22266 61.5381V124.664H20.1824V75.6493L34.1867 75.7027C38.7835 75.7027 41.9906 76.8252 44.1821 79.1771C47.0151 82.1704 48.1375 87.0345 48.1375 95.854V124.664H65.5627V89.814C65.5627 64.9055 49.6876 61.5381 34.1867 61.5381H2.22266ZM170.969 61.645V124.718H199.833C215.227 124.718 220.252 122.152 225.65 116.433C229.499 112.424 231.957 103.551 231.957 93.8763C231.957 85.0033 229.873 77.0925 226.185 72.1749C219.664 63.3554 210.149 61.645 195.931 61.645H170.969ZM188.608 75.3286H196.252C207.37 75.3286 214.532 80.2996 214.532 93.2349C214.532 106.17 207.37 111.195 196.252 111.195H188.608V75.3286ZM116.609 61.645L101.749 111.622L87.5313 61.645H68.2888L88.6004 124.718H114.257L134.783 61.645H116.609ZM240.296 124.718H258.095V61.645H240.296V124.718ZM290.22 61.645L265.365 124.664H282.897L286.852 113.493H316.251L319.992 124.611H339.074L314.006 61.645H290.22ZM301.765 73.1371L312.562 102.642H290.647L301.765 73.1371Z" fill="#76B900"/>
<path d="M3.12423 43V13.4465H16.3389C18.281 13.4465 19.9698 13.8124 21.4052 14.5442C22.8407 15.2478 23.9524 16.2611 24.7405 17.5839C25.5568 18.8787 25.9649 20.3845 25.9649 22.1014C25.9649 23.8465 25.5568 25.3664 24.7405 26.6611C23.9524 27.9558 22.8266 28.9691 21.363 29.7009C19.9275 30.4327 18.2528 30.7986 16.3389 30.7986H6.92397V43H3.12423ZM6.92397 27.5477H16.0011C17.8869 27.5477 19.3787 27.0692 20.4764 26.1123C21.6022 25.1271 22.1652 23.8043 22.1652 22.1436C22.1652 20.5112 21.6022 19.2164 20.4764 18.2595C19.3787 17.3025 17.8869 16.824 16.0011 16.824H6.92397V27.5477ZM37.7728 43.4222C35.7463 43.4222 33.8886 42.9296 32.1998 41.9445C30.5392 40.9594 29.2163 39.6365 28.2312 37.9759C27.2743 36.3153 26.7958 34.4435 26.7958 32.3607C26.7958 30.306 27.2743 28.4484 28.2312 26.7878C29.2163 25.099 30.5392 23.762 32.1998 22.7769C33.8886 21.7918 35.7463 21.2993 37.7728 21.2993C39.8275 21.2993 41.6851 21.7918 43.3458 22.7769C45.0064 23.762 46.3293 25.099 47.3144 26.7878C48.2995 28.4484 48.792 30.306 48.792 32.3607C48.792 34.4435 48.2995 36.3153 47.3144 37.9759C46.3293 39.6365 45.0064 40.9594 43.3458 41.9445C41.6851 42.9296 39.8275 43.4222 37.7728 43.4222ZM37.7728 40.2135C39.152 40.2135 40.4045 39.8617 41.5303 39.158C42.6562 38.4544 43.5428 37.5115 44.1901 36.3293C44.8657 35.1472 45.2034 33.8243 45.2034 32.3607C45.2034 30.869 44.8657 29.5461 44.1901 28.3921C43.5428 27.21 42.6562 26.2671 41.5303 25.5634C40.4045 24.8598 39.152 24.5079 37.7728 24.5079C36.3936 24.5079 35.1411 24.8598 34.0153 25.5634C32.9176 26.2671 32.031 27.21 31.3555 28.3921C30.7081 29.5461 30.3844 30.869 30.3844 32.3607C30.3844 33.8243 30.7081 35.1472 31.3555 36.3293C32.031 37.5115 32.9176 38.4544 34.0153 39.158C35.1411 39.8617 36.3936 40.2135 37.7728 40.2135ZM56.5146 43L50.5194 21.6792H54.0658L58.4567 38.0603L63.5652 21.6792H66.7316L71.798 38.0603L76.231 21.6792H79.6508L73.6134 43H70.1514L65.0851 26.6189L60.0188 43H56.5146ZM92.4455 43.38C90.3909 43.38 88.5191 42.9015 86.8304 41.9445C85.1697 40.9594 83.8469 39.6365 82.8617 37.9759C81.8766 36.2871 81.3841 34.4013 81.3841 32.3185C81.3841 30.292 81.8485 28.4484 82.7773 26.7878C83.7343 25.1271 85.0149 23.8043 86.6193 22.8191C88.2236 21.834 90.0109 21.3415 91.9811 21.3415C93.9232 21.3415 95.6542 21.834 97.1741 22.8191C98.694 23.8043 99.9043 25.1412 100.805 26.83C101.706 28.4906 102.156 30.3483 102.156 32.4029V33.5006H85.0149C85.1838 34.7672 85.6201 35.9212 86.3237 36.9626C87.0274 37.9759 87.914 38.7781 88.9836 39.3691C90.0813 39.9602 91.2915 40.2557 92.6144 40.2557C93.684 40.2557 94.7113 40.0869 95.6964 39.7491C96.7097 39.4114 97.5682 38.9329 98.2718 38.3137L100.552 40.6779C99.3414 41.5786 98.0748 42.2541 96.7519 42.7045C95.4572 43.1548 94.0217 43.38 92.4455 43.38ZM85.0572 30.6719H98.5673C98.3703 29.4898 97.9481 28.4343 97.3008 27.5055C96.6815 26.5485 95.9075 25.8026 94.9787 25.2679C94.0499 24.7331 93.0225 24.4657 91.8967 24.4657C90.7427 24.4657 89.6872 24.7331 88.7302 25.2679C87.7733 25.7745 86.9711 26.5063 86.3237 27.4633C85.6764 28.3921 85.2542 29.4617 85.0572 30.6719ZM106.351 43V21.6792H109.982V24.5924C110.657 23.5228 111.488 22.6925 112.473 22.1014C113.458 21.5103 114.598 21.2148 115.892 21.2148C116.681 21.2148 117.37 21.3274 117.961 21.5526V24.8457C117.595 24.6768 117.215 24.5642 116.821 24.5079C116.427 24.4516 116.033 24.4235 115.639 24.4235C114.373 24.4235 113.247 24.7753 112.262 25.479C111.305 26.1826 110.545 27.21 109.982 28.561V43H106.351ZM130.212 43.38C128.157 43.38 126.286 42.9015 124.597 41.9445C122.936 40.9594 121.613 39.6365 120.628 37.9759C119.643 36.2871 119.151 34.4013 119.151 32.3185C119.151 30.292 119.615 28.4484 120.544 26.7878C121.501 25.1271 122.781 23.8043 124.386 22.8191C125.99 21.834 127.777 21.3415 129.748 21.3415C131.69 21.3415 133.421 21.834 134.941 22.8191C136.461 23.8043 137.671 25.1412 138.572 26.83C139.472 28.4906 139.923 30.3483 139.923 32.4029V33.5006H122.781C122.95 34.7672 123.387 35.9212 124.09 36.9626C124.794 37.9759 125.681 38.7781 126.75 39.3691C127.848 39.9602 129.058 40.2557 130.381 40.2557C131.451 40.2557 132.478 40.0869 133.463 39.7491C134.476 39.4114 135.335 38.9329 136.038 38.3137L138.318 40.6779C137.108 41.5786 135.841 42.2541 134.518 42.7045C133.224 43.1548 131.788 43.38 130.212 43.38ZM122.824 30.6719H136.334C136.137 29.4898 135.715 28.4343 135.067 27.5055C134.448 26.5485 133.674 25.8026 132.745 25.2679C131.816 24.7331 130.789 24.4657 129.663 24.4657C128.509 24.4657 127.454 24.7331 126.497 25.2679C125.54 25.7745 124.738 26.5063 124.09 27.4633C123.443 28.3921 123.021 29.4617 122.824 30.6719ZM153.954 43.3378C151.955 43.3378 150.14 42.8452 148.507 41.8601C146.875 40.875 145.58 39.5662 144.623 37.9337C143.666 36.273 143.188 34.4013 143.188 32.3185C143.188 30.2638 143.666 28.4203 144.623 26.7878C145.58 25.1271 146.875 23.8043 148.507 22.8191C150.14 21.834 151.969 21.3415 153.996 21.3415C155.206 21.3415 156.374 21.5385 157.5 21.9325C158.626 22.3266 159.667 22.8895 160.624 23.6213V13.4465L164.255 12.6865V43H160.666V40.8468C158.809 42.5074 156.571 43.3378 153.954 43.3378ZM154.333 40.1713C155.628 40.1713 156.81 39.9321 157.88 39.4536C158.978 38.9469 159.892 38.2574 160.624 37.3848V27.2522C159.892 26.4078 158.978 25.7464 157.88 25.2679C156.81 24.7612 155.628 24.5079 154.333 24.5079C152.926 24.5079 151.646 24.8457 150.492 25.5212C149.338 26.1967 148.423 27.1255 147.747 28.3077C147.1 29.4617 146.776 30.7845 146.776 32.2763C146.776 33.768 147.1 35.105 147.747 36.2871C148.423 37.4693 149.338 38.4122 150.492 39.1158C151.646 39.8195 152.926 40.1713 154.333 40.1713ZM178.338 43V13.4465L181.969 12.6865V23.8324C183.77 22.1718 185.994 21.3415 188.64 21.3415C190.666 21.3415 192.482 21.834 194.086 22.8191C195.718 23.8043 197.013 25.1271 197.97 26.7878C198.927 28.4203 199.406 30.2638 199.406 32.3185C199.406 34.4013 198.927 36.273 197.97 37.9337C197.013 39.5662 195.718 40.875 194.086 41.8601C192.454 42.8452 190.624 43.3378 188.597 43.3378C187.387 43.3378 186.205 43.1407 185.051 42.7467C183.925 42.3245 182.884 41.7475 181.927 41.0157V43H178.338ZM188.217 40.1713C189.681 40.1713 190.976 39.8335 192.102 39.158C193.256 38.4544 194.156 37.5256 194.804 36.3716C195.479 35.1894 195.817 33.8525 195.817 32.3607C195.817 30.869 195.479 29.532 194.804 28.3499C194.156 27.1677 193.256 26.2389 192.102 25.5634C190.976 24.8598 189.681 24.5079 188.217 24.5079C186.951 24.5079 185.769 24.7612 184.671 25.2679C183.602 25.7464 182.701 26.4219 181.969 27.2944V37.427C182.701 38.2714 183.616 38.9469 184.713 39.4536C185.811 39.9321 186.979 40.1713 188.217 40.1713ZM204.092 52.0349C203.67 52.0349 203.276 52.0068 202.91 51.9505C202.544 51.9224 202.235 51.8801 201.981 51.8238V48.573C202.488 48.6855 203.093 48.7418 203.797 48.7418C205.711 48.7418 207.132 47.6723 208.061 45.5332L209.159 43L200.546 21.6792H204.557L211.143 38.6092L218.32 21.6792H222.247L211.776 45.9976C211.129 47.433 210.439 48.587 209.707 49.4596C209.004 50.3602 208.188 51.0076 207.259 51.4017C206.358 51.8238 205.303 52.0349 204.092 52.0349Z" fill="#27332D"/>
<path d="M128.955 167L141.915 135.5H148.395L161.265 167H155.235L151.77 158.225H138.18L134.715 167H128.955ZM139.98 153.68H150.06L145.02 140.9L139.98 153.68ZM173.438 167.405C171.188 167.405 169.148 166.88 167.318 165.83C165.518 164.78 164.078 163.355 162.998 161.555C161.948 159.725 161.422 157.685 161.422 155.435C161.422 153.155 161.948 151.115 162.998 149.315C164.078 147.515 165.518 146.075 167.318 144.995C169.148 143.915 171.188 143.375 173.438 143.375C175.238 143.375 176.963 143.72 178.613 144.41C180.263 145.1 181.688 146.09 182.888 147.38L179.648 150.89C178.778 149.93 177.833 149.225 176.813 148.775C175.793 148.295 174.713 148.055 173.573 148.055C172.283 148.055 171.113 148.385 170.063 149.045C169.013 149.675 168.173 150.545 167.543 151.655C166.943 152.765 166.643 154.025 166.643 155.435C166.643 156.815 166.943 158.075 167.543 159.215C168.173 160.325 169.028 161.21 170.108 161.87C171.188 162.5 172.373 162.815 173.663 162.815C174.773 162.815 175.808 162.59 176.768 162.14C177.758 161.69 178.688 161.015 179.558 160.115L182.753 163.445C181.553 164.705 180.143 165.68 178.523 166.37C176.903 167.06 175.208 167.405 173.438 167.405ZM196.465 167.405C194.215 167.405 192.175 166.88 190.345 165.83C188.545 164.78 187.105 163.355 186.025 161.555C184.975 159.725 184.45 157.685 184.45 155.435C184.45 153.155 184.975 151.115 186.025 149.315C187.105 147.515 188.545 146.075 190.345 144.995C192.175 143.915 194.215 143.375 196.465 143.375C198.265 143.375 199.99 143.72 201.64 144.41C203.29 145.1 204.715 146.09 205.915 147.38L202.675 150.89C201.805 149.93 200.86 149.225 199.84 148.775C198.82 148.295 197.74 148.055 196.6 148.055C195.31 148.055 194.14 148.385 193.09 149.045C192.04 149.675 191.2 150.545 190.57 151.655C189.97 152.765 189.67 154.025 189.67 155.435C189.67 156.815 189.97 158.075 190.57 159.215C191.2 160.325 192.055 161.21 193.135 161.87C194.215 162.5 195.4 162.815 196.69 162.815C197.8 162.815 198.835 162.59 199.795 162.14C200.785 161.69 201.715 161.015 202.585 160.115L205.78 163.445C204.58 164.705 203.17 165.68 201.55 166.37C199.93 167.06 198.235 167.405 196.465 167.405ZM219.762 167.405C217.452 167.405 215.367 166.88 213.507 165.83C211.677 164.78 210.207 163.355 209.097 161.555C208.017 159.725 207.477 157.685 207.477 155.435C207.477 153.185 208.002 151.16 209.052 149.36C210.102 147.56 211.512 146.135 213.282 145.085C215.052 144.005 217.032 143.465 219.222 143.465C221.412 143.465 223.347 144.005 225.027 145.085C226.737 146.165 228.087 147.635 229.077 149.495C230.067 151.325 230.562 153.41 230.562 155.75V157.145H212.832C213.072 158.285 213.522 159.29 214.182 160.16C214.842 161.03 215.682 161.72 216.702 162.23C217.722 162.71 218.817 162.95 219.987 162.95C221.067 162.95 222.087 162.785 223.047 162.455C224.037 162.125 224.862 161.645 225.522 161.015L228.942 164.255C227.562 165.335 226.137 166.13 224.667 166.64C223.197 167.15 221.562 167.405 219.762 167.405ZM212.787 153.32H225.342C225.132 152.24 224.727 151.295 224.127 150.485C223.527 149.675 222.792 149.045 221.922 148.595C221.082 148.115 220.152 147.875 219.132 147.875C218.082 147.875 217.107 148.1 216.207 148.55C215.337 149 214.602 149.63 214.002 150.44C213.432 151.25 213.027 152.21 212.787 153.32ZM234.617 167V135.5L239.882 134.555V167H234.617ZM256.193 167.405C253.883 167.405 251.798 166.88 249.938 165.83C248.108 164.78 246.638 163.355 245.528 161.555C244.448 159.725 243.908 157.685 243.908 155.435C243.908 153.185 244.433 151.16 245.483 149.36C246.533 147.56 247.943 146.135 249.713 145.085C251.483 144.005 253.463 143.465 255.653 143.465C257.843 143.465 259.778 144.005 261.458 145.085C263.168 146.165 264.518 147.635 265.508 149.495C266.498 151.325 266.993 153.41 266.993 155.75V157.145H249.263C249.503 158.285 249.953 159.29 250.613 160.16C251.273 161.03 252.113 161.72 253.133 162.23C254.153 162.71 255.248 162.95 256.418 162.95C257.498 162.95 258.518 162.785 259.478 162.455C260.468 162.125 261.293 161.645 261.953 161.015L265.373 164.255C263.993 165.335 262.568 166.13 261.098 166.64C259.628 167.15 257.993 167.405 256.193 167.405ZM249.218 153.32H261.773C261.563 152.24 261.158 151.295 260.558 150.485C259.958 149.675 259.223 149.045 258.353 148.595C257.513 148.115 256.583 147.875 255.563 147.875C254.513 147.875 253.538 148.1 252.638 148.55C251.768 149 251.033 149.63 250.433 150.44C249.863 151.25 249.458 152.21 249.218 153.32ZM271.047 167V143.825H276.312V146.615C277.032 145.565 277.917 144.755 278.967 144.185C280.047 143.615 281.247 143.33 282.567 143.33C283.617 143.33 284.427 143.48 284.997 143.78V148.46C284.577 148.25 284.112 148.1 283.602 148.01C283.122 147.92 282.627 147.875 282.117 147.875C280.857 147.875 279.717 148.205 278.697 148.865C277.707 149.525 276.912 150.47 276.312 151.7V167H271.047ZM295.038 167.405C293.388 167.405 291.918 167.105 290.628 166.505C289.368 165.905 288.378 165.08 287.658 164.03C286.938 162.95 286.578 161.72 286.578 160.34C286.578 158.12 287.403 156.395 289.053 155.165C290.733 153.935 293.028 153.32 295.938 153.32C298.098 153.32 300.108 153.68 301.968 154.4V152.33C301.968 150.83 301.518 149.705 300.618 148.955C299.748 148.205 298.443 147.83 296.703 147.83C295.683 147.83 294.603 147.98 293.463 148.28C292.323 148.58 291.018 149.075 289.548 149.765L287.658 145.805C289.428 144.995 291.108 144.395 292.698 144.005C294.288 143.585 295.893 143.375 297.513 143.375C300.573 143.375 302.943 144.11 304.623 145.58C306.303 147.05 307.143 149.12 307.143 151.79V167H301.968V165.155C300.978 165.935 299.913 166.505 298.773 166.865C297.633 167.225 296.388 167.405 295.038 167.405ZM291.573 160.205C291.573 161.225 292.008 162.05 292.878 162.68C293.748 163.28 294.903 163.58 296.343 163.58C297.453 163.58 298.473 163.43 299.403 163.13C300.363 162.8 301.218 162.32 301.968 161.69V158C301.158 157.61 300.303 157.325 299.403 157.145C298.533 156.935 297.573 156.83 296.523 156.83C294.993 156.83 293.778 157.13 292.878 157.73C292.008 158.33 291.573 159.155 291.573 160.205ZM321.872 167.405C319.472 167.405 317.642 166.85 316.382 165.74C315.152 164.63 314.537 163.01 314.537 160.88V148.28H309.677V143.825H314.537V137.93L319.802 136.715V143.825H326.507V148.28H319.802V159.755C319.802 160.895 320.042 161.705 320.522 162.185C321.032 162.665 321.887 162.905 323.087 162.905C323.717 162.905 324.272 162.86 324.752 162.77C325.262 162.68 325.802 162.545 326.372 162.365V166.73C325.772 166.94 325.037 167.105 324.167 167.225C323.297 167.345 322.532 167.405 321.872 167.405ZM340.522 167.45C338.242 167.45 336.172 166.925 334.312 165.875C332.482 164.795 331.027 163.355 329.947 161.555C328.867 159.725 328.327 157.685 328.327 155.435C328.327 153.185 328.867 151.16 329.947 149.36C331.027 147.53 332.482 146.09 334.312 145.04C336.172 143.96 338.242 143.42 340.522 143.42C342.832 143.42 344.902 143.96 346.732 145.04C348.592 146.09 350.062 147.53 351.142 149.36C352.222 151.16 352.762 153.185 352.762 155.435C352.762 157.685 352.222 159.725 351.142 161.555C350.062 163.355 348.592 164.795 346.732 165.875C344.902 166.925 342.832 167.45 340.522 167.45ZM340.522 162.86C341.842 162.86 343.027 162.53 344.077 161.87C345.157 161.21 346.012 160.325 346.642 159.215C347.272 158.075 347.587 156.815 347.587 155.435C347.587 154.025 347.272 152.765 346.642 151.655C346.012 150.545 345.157 149.66 344.077 149C343.027 148.34 341.842 148.01 340.522 148.01C339.232 148.01 338.047 148.34 336.967 149C335.887 149.66 335.032 150.545 334.402 151.655C333.802 152.765 333.502 154.025 333.502 155.435C333.502 156.815 333.802 158.075 334.402 159.215C335.032 160.325 335.887 161.21 336.967 161.87C338.047 162.53 339.232 162.86 340.522 162.86ZM356.829 167V143.825H362.094V146.615C362.814 145.565 363.699 144.755 364.749 144.185C365.829 143.615 367.029 143.33 368.349 143.33C369.399 143.33 370.209 143.48 370.779 143.78V148.46C370.359 148.25 369.894 148.1 369.384 148.01C368.904 147.92 368.409 147.875 367.899 147.875C366.639 147.875 365.499 148.205 364.479 148.865C363.489 149.525 362.694 150.47 362.094 151.7V167H356.829ZM382.643 167.45C380.573 167.45 378.653 167.165 376.883 166.595C375.113 166.025 373.583 165.2 372.293 164.12L374.993 160.61C376.283 161.57 377.543 162.29 378.773 162.77C380.033 163.22 381.293 163.445 382.553 163.445C384.053 163.445 385.268 163.175 386.198 162.635C387.128 162.065 387.593 161.33 387.593 160.43C387.593 159.71 387.323 159.14 386.783 158.72C386.243 158.3 385.403 158 384.263 157.82L379.943 157.19C377.633 156.86 375.893 156.14 374.723 155.03C373.553 153.89 372.968 152.405 372.968 150.575C372.968 149.135 373.343 147.89 374.093 146.84C374.873 145.76 375.968 144.92 377.378 144.32C378.788 143.72 380.438 143.42 382.328 143.42C384.008 143.42 385.628 143.66 387.188 144.14C388.778 144.62 390.278 145.355 391.688 146.345L389.123 149.81C387.833 149 386.603 148.415 385.433 148.055C384.263 147.665 383.078 147.47 381.878 147.47C380.618 147.47 379.598 147.725 378.818 148.235C378.068 148.715 377.693 149.375 377.693 150.215C377.693 150.965 377.963 151.55 378.503 151.97C379.043 152.36 379.943 152.645 381.203 152.825L385.478 153.455C387.788 153.755 389.543 154.475 390.743 155.615C391.943 156.725 392.543 158.18 392.543 159.98C392.543 161.42 392.108 162.71 391.238 163.85C390.368 164.96 389.183 165.845 387.683 166.505C386.213 167.135 384.533 167.45 382.643 167.45Z" fill="#27332D"/>
</svg>
