<svg width="196" height="239" viewBox="0 0 196 239" fill="none" xmlns="http://www.w3.org/2000/svg">
<g clip-path="url(#clip0_1092_86)">
<path d="M192.981 2.47656H3V171.182L97.9903 234.771L192.981 171.182V2.47656Z" fill="white" stroke="#F43333" stroke-width="4.31774"/>
<g filter="url(#filter0_d_1092_86)">
<path d="M190.821 4.63623L5.1582 170.006L97.9897 232.181L190.821 170.006V4.63623Z" fill="url(#paint0_linear_1092_86)"/>
</g>
<path d="M70.1824 89.168C68.8665 89.168 67.6434 88.9403 66.513 88.4848C65.3827 88.0124 64.3873 87.3629 63.5269 86.5362C62.6665 85.6927 62.0001 84.7226 61.5277 83.626C61.0554 82.5125 60.8192 81.3147 60.8192 80.0325C60.8192 78.7504 61.0554 77.561 61.5277 76.4644C62.0001 75.3509 62.6665 74.3809 63.5269 73.5542C64.3873 72.7107 65.3827 72.0611 66.513 71.6056C67.6434 71.1332 68.8665 70.8971 70.1824 70.8971C71.4983 70.8971 72.7214 71.1332 73.8518 71.6056C74.999 72.0611 75.9944 72.7107 76.8379 73.5542C77.6983 74.3809 78.3647 75.3509 78.8371 76.4644C79.3094 77.561 79.5456 78.7504 79.5456 80.0325C79.5456 81.3147 79.3094 82.5125 78.8371 83.626C78.3647 84.7226 77.6983 85.6927 76.8379 86.5362C75.9944 87.3629 74.999 88.0124 73.8518 88.4848C72.7214 88.9403 71.4983 89.168 70.1824 89.168ZM70.1824 85.8023C70.9922 85.8023 71.7345 85.6589 72.4093 85.3721C73.0842 85.0684 73.6746 84.6635 74.1808 84.1574C74.6869 83.6344 75.0749 83.0186 75.3448 82.3101C75.6316 81.6015 75.775 80.8423 75.775 80.0325C75.775 79.2059 75.6316 78.4467 75.3448 77.755C75.0749 77.0464 74.6869 76.4391 74.1808 75.933C73.6746 75.41 73.0842 75.0051 72.4093 74.7183C71.7345 74.4146 71.0006 74.2628 70.2077 74.2628C69.3979 74.2628 68.6556 74.4146 67.9808 74.7183C67.3059 75.0051 66.7155 75.41 66.2094 75.933C65.7032 76.4391 65.3068 77.0464 65.02 77.755C64.7332 78.4467 64.5898 79.2059 64.5898 80.0325C64.5898 80.8423 64.7332 81.6015 65.02 82.3101C65.3068 83.0186 65.7032 83.6344 66.2094 84.1574C66.7155 84.6635 67.3059 85.0684 67.9808 85.3721C68.6556 85.6589 69.3895 85.8023 70.1824 85.8023ZM83.885 88.8896V78.6154H80.9495V75.7052H83.885V74.4399C83.885 72.9553 84.3152 71.8249 85.1756 71.0489C86.0529 70.256 87.2929 69.8595 88.8956 69.8595C89.2499 69.8595 89.6126 69.8764 89.9838 69.9101C90.3549 69.9439 90.6755 70.0029 90.9454 70.0873V72.9975C90.6417 72.93 90.3634 72.8794 90.1103 72.8456C89.8741 72.8119 89.6211 72.795 89.3511 72.795C88.6932 72.795 88.1955 72.9384 87.8581 73.2252C87.5207 73.4951 87.352 73.9253 87.352 74.5158V75.7052H90.9454V78.6154H87.352V88.8896H83.885ZM94.8576 88.8896V78.6154H91.9221V75.7052H94.8576V74.4399C94.8576 72.9553 95.2878 71.8249 96.1482 71.0489C97.0255 70.256 98.2655 69.8595 99.8682 69.8595C100.222 69.8595 100.585 69.8764 100.956 69.9101C101.327 69.9439 101.648 70.0029 101.918 70.0873V72.9975C101.614 72.93 101.336 72.8794 101.083 72.8456C100.847 72.8119 100.594 72.795 100.324 72.795C99.6657 72.795 99.168 72.9384 98.8306 73.2252C98.4932 73.4951 98.3245 73.9253 98.3245 74.5158V75.7052H101.918V78.6154H98.3245V88.8896H94.8576ZM103.74 88.8896V75.7052H107.207V88.8896H103.74ZM105.461 74.1362C104.921 74.1362 104.457 73.9422 104.069 73.5542C103.681 73.1662 103.487 72.7022 103.487 72.1624C103.487 71.6056 103.681 71.1417 104.069 70.7705C104.457 70.3825 104.921 70.1885 105.461 70.1885C106.018 70.1885 106.481 70.3825 106.853 70.7705C107.241 71.1417 107.435 71.6056 107.435 72.1624C107.435 72.7022 107.241 73.1662 106.853 73.5542C106.481 73.9422 106.018 74.1362 105.461 74.1362ZM116.211 89.1427C114.912 89.1427 113.739 88.8475 112.693 88.257C111.647 87.6497 110.821 86.8314 110.213 85.8023C109.606 84.7563 109.302 83.5922 109.302 82.3101C109.302 81.011 109.606 79.847 110.213 78.8178C110.821 77.7887 111.647 76.9705 112.693 76.3632C113.739 75.7558 114.912 75.4521 116.211 75.4521C117.257 75.4521 118.261 75.6546 119.222 76.0595C120.184 76.4644 121.002 77.0464 121.677 77.8056L119.551 80.0578C119.062 79.518 118.548 79.1215 118.008 78.8685C117.485 78.6154 116.911 78.4889 116.287 78.4889C115.629 78.4889 115.03 78.6576 114.49 78.995C113.95 79.3155 113.52 79.7626 113.2 80.3362C112.896 80.9098 112.744 81.5678 112.744 82.3101C112.744 83.0186 112.904 83.6682 113.225 84.2586C113.545 84.8322 113.976 85.2878 114.515 85.6252C115.072 85.9457 115.688 86.106 116.363 86.106C116.953 86.106 117.502 85.9879 118.008 85.7517C118.531 85.4986 119.028 85.1275 119.501 84.6382L121.576 86.8146C120.901 87.54 120.091 88.1136 119.146 88.5354C118.202 88.9403 117.223 89.1427 116.211 89.1427ZM129.461 89.1427C128.145 89.1427 126.947 88.839 125.867 88.2317C124.804 87.6243 123.961 86.8061 123.337 85.777C122.712 84.7479 122.4 83.5922 122.4 82.3101C122.4 81.0279 122.695 79.8723 123.286 78.8431C123.893 77.814 124.712 76.9958 125.741 76.3885C126.77 75.7811 127.917 75.4774 129.182 75.4774C130.448 75.4774 131.569 75.7896 132.548 76.4138C133.526 77.0211 134.294 77.8646 134.851 78.9444C135.424 80.0072 135.711 81.2135 135.711 82.5631V83.4742H125.943C126.095 83.9971 126.34 84.4695 126.677 84.8913C127.031 85.3131 127.461 85.642 127.968 85.8782C128.491 86.0975 129.047 86.2072 129.638 86.2072C130.228 86.2072 130.768 86.1229 131.257 85.9541C131.763 85.7686 132.194 85.5071 132.548 85.1697L134.825 87.2448C134.016 87.9027 133.181 88.3835 132.32 88.6872C131.477 88.9909 130.523 89.1427 129.461 89.1427ZM125.892 80.9942H132.295C132.177 80.4712 131.957 80.0157 131.637 79.6276C131.333 79.2227 130.962 78.9106 130.523 78.6913C130.102 78.4551 129.629 78.337 129.106 78.337C128.583 78.337 128.103 78.4467 127.664 78.666C127.225 78.8853 126.854 79.1974 126.55 79.6023C126.247 79.9904 126.027 80.4543 125.892 80.9942Z" fill="#862020"/>
<path d="M121.813 4.20459H73.3115V37.3807L97.5623 49.8856L121.813 37.3807V4.20459Z" fill="#F43333"/>
<path d="M93.4353 19.8861V17.908C93.631 17.8958 93.8267 17.8836 94.0224 17.8836C99.454 17.7126 103.014 22.548 103.014 22.548C103.014 22.548 99.1726 27.8717 95.05 27.8717C94.4995 27.8717 93.9613 27.7862 93.4475 27.6153V21.6078C95.5638 21.8642 95.992 22.7922 97.252 24.9046L100.078 22.5358C100.078 22.5358 98.0105 19.8373 94.5362 19.8373C94.1692 19.825 93.8023 19.8495 93.4353 19.8861ZM93.4353 13.3413V16.2962L94.0224 16.2596C101.57 16.0032 106.5 22.4381 106.5 22.4381C106.5 22.4381 100.849 29.3003 94.9644 29.3003C94.4506 29.3003 93.949 29.2515 93.4475 29.166V30.9976C93.8634 31.0464 94.2916 31.0831 94.7075 31.0831C100.188 31.0831 104.152 28.2869 107.993 24.9901C108.629 25.5029 111.235 26.7361 111.773 27.2734C108.127 30.326 99.6253 32.7803 94.8054 32.7803C94.3405 32.7803 93.9001 32.7559 93.4597 32.707V35.2834H114.281V13.3413H93.4353ZM93.4353 27.6153V29.1782C88.3707 28.2747 86.9639 23.012 86.9639 23.012C86.9639 23.012 89.3983 20.3257 93.4353 19.8861V21.5956H93.423C91.3067 21.3391 89.6429 23.3172 89.6429 23.3172C89.6429 23.3172 90.5849 26.6507 93.4353 27.6153ZM84.4438 22.7922C84.4438 22.7922 87.441 18.372 93.4475 17.908V16.2962C86.7926 16.8335 81.043 22.4503 81.043 22.4503C81.043 22.4503 84.297 31.8523 93.4353 32.707V30.9976C86.7314 30.1673 84.4438 22.7922 84.4438 22.7922Z" fill="white"/>
<path d="M134.893 193.193V154.893L124.055 148.754V193.19H122.686V137.45L106.841 126.674H94.9227V193.189H93.5537L93.5496 125.99C93.5496 125.612 93.8552 125.307 94.2341 125.307H106.36V111.604H94.474L78.5956 124.774V193.193H77.2266V138.359L64.8278 146.793V193.192C64.3633 193.192 63.9844 193.571 63.9844 194.034C63.9844 194.498 64.3633 194.876 64.8278 194.876H134.888C135.352 194.876 135.731 194.498 135.731 194.034C135.731 193.571 135.352 193.192 134.888 193.192L134.893 193.193ZM83.8564 129.63C83.8564 129.252 84.162 128.947 84.5409 128.947H89.0758C89.4547 128.947 89.7603 129.252 89.7603 129.63V134.156C89.7603 134.534 89.4547 134.839 89.0758 134.839H84.5409C84.162 134.839 83.8564 134.534 83.8564 134.156V129.63ZM83.8564 138.678C83.8564 138.3 84.162 137.995 84.5409 137.995H89.0758C89.4547 137.995 89.7603 138.3 89.7603 138.678V143.204C89.7603 143.582 89.4547 143.887 89.0758 143.887H84.5409C84.162 143.887 83.8564 143.582 83.8564 143.204V138.678ZM83.8564 147.725C83.8564 147.347 84.162 147.042 84.5409 147.042H89.0758C89.4547 147.042 89.7603 147.347 89.7603 147.725V152.251C89.7603 152.629 89.4547 152.934 89.0758 152.934H84.5409C84.162 152.934 83.8564 152.629 83.8564 152.251V147.725ZM83.8564 156.773C83.8564 156.394 84.162 156.09 84.5409 156.09H89.0758C89.4547 156.09 89.7603 156.394 89.7603 156.773V161.298C89.7603 161.677 89.4547 161.982 89.0758 161.982H84.5409C84.162 161.982 83.8564 161.677 83.8564 161.298V156.773ZM110.311 144.208C110.311 143.83 110.617 143.525 110.996 143.525H115.531C115.91 143.525 116.215 143.83 116.215 144.208V148.734C116.215 149.112 115.91 149.417 115.531 149.417H110.996C110.617 149.417 110.311 149.112 110.311 148.734V144.208ZM110.311 153.256C110.311 152.877 110.617 152.573 110.996 152.573H115.531C115.91 152.573 116.215 152.877 116.215 153.256V157.781C116.215 158.16 115.91 158.465 115.531 158.465H110.996C110.617 158.465 110.311 158.16 110.311 157.781V153.256ZM110.311 162.303C110.311 161.925 110.617 161.62 110.996 161.62H115.531C115.91 161.62 116.215 161.925 116.215 162.303V166.829C116.215 167.207 115.91 167.512 115.531 167.512H110.996C110.617 167.512 110.311 167.207 110.311 166.829V162.303ZM101.242 135.161C101.242 134.783 101.547 134.478 101.926 134.478H106.461C106.84 134.478 107.146 134.783 107.146 135.161V139.687C107.146 140.065 106.84 140.37 106.461 140.37H101.926C101.547 140.37 101.242 140.065 101.242 139.687V135.161ZM101.242 144.208C101.242 143.83 101.547 143.525 101.926 143.525H106.461C106.84 143.525 107.146 143.83 107.146 144.208V148.734C107.146 149.112 106.84 149.417 106.461 149.417H101.926C101.547 149.417 101.242 149.112 101.242 148.734V144.208ZM101.242 153.256C101.242 152.878 101.547 152.573 101.926 152.573H106.461C106.84 152.573 107.146 152.878 107.146 153.256V157.782C107.146 158.16 106.84 158.465 106.461 158.465H101.926C101.547 158.465 101.242 158.16 101.242 157.782V153.256ZM101.242 162.303C101.242 161.925 101.547 161.62 101.926 161.62H106.461C106.84 161.62 107.146 161.925 107.146 162.303V166.829C107.146 167.207 106.84 167.512 106.461 167.512H101.926C101.547 167.512 101.242 167.207 101.242 166.829V162.303ZM104.334 182.24C104.334 181.862 104.64 181.557 105.019 181.557H112.585C112.964 181.557 113.269 181.862 113.269 182.24V193.194H104.33V182.24H104.334Z" fill="#F43333" fill-opacity="0.5"/>
<g filter="url(#filter1_d_1092_86)">
<path d="M97.9897 188.14L5.1582 170.006L97.9897 232.181L190.821 170.006L97.9897 188.14Z" fill="url(#paint1_linear_1092_86)"/>
</g>
</g>
<defs>
<filter id="filter0_d_1092_86" x="1.70401" y="2.90913" width="196.026" height="237.908" filterUnits="userSpaceOnUse" color-interpolation-filters="sRGB">
<feFlood flood-opacity="0" result="BackgroundImageFix"/>
<feColorMatrix in="SourceAlpha" type="matrix" values="0 0 0 0 0 0 0 0 0 0 0 0 0 0 0 0 0 0 127 0" result="hardAlpha"/>
<feOffset dx="1.7271" dy="3.45419"/>
<feGaussianBlur stdDeviation="2.59065"/>
<feComposite in2="hardAlpha" operator="out"/>
<feColorMatrix type="matrix" values="0 0 0 0 0 0 0 0 0 0 0 0 0 0 0 0 0 0 0.25 0"/>
<feBlend mode="normal" in2="BackgroundImageFix" result="effect1_dropShadow_1092_86"/>
<feBlend mode="normal" in="SourceGraphic" in2="effect1_dropShadow_1092_86" result="shape"/>
</filter>
<filter id="filter1_d_1092_86" x="-12.1128" y="145.826" width="220.205" height="96.7172" filterUnits="userSpaceOnUse" color-interpolation-filters="sRGB">
<feFlood flood-opacity="0" result="BackgroundImageFix"/>
<feColorMatrix in="SourceAlpha" type="matrix" values="0 0 0 0 0 0 0 0 0 0 0 0 0 0 0 0 0 0 127 0" result="hardAlpha"/>
<feOffset dy="-6.90839"/>
<feGaussianBlur stdDeviation="8.63549"/>
<feComposite in2="hardAlpha" operator="out"/>
<feColorMatrix type="matrix" values="0 0 0 0 0.956863 0 0 0 0 0.2 0 0 0 0 0.2 0 0 0 0.3 0"/>
<feBlend mode="normal" in2="BackgroundImageFix" result="effect1_dropShadow_1092_86"/>
<feBlend mode="normal" in="SourceGraphic" in2="effect1_dropShadow_1092_86" result="shape"/>
</filter>
<linearGradient id="paint0_linear_1092_86" x1="191.253" y1="5.06801" x2="97.9897" y2="232.181" gradientUnits="userSpaceOnUse">
<stop stop-color="#FFE0E0"/>
<stop offset="1" stop-color="#FFFAFA"/>
</linearGradient>
<linearGradient id="paint1_linear_1092_86" x1="191.253" y1="170.006" x2="97.9897" y2="232.181" gradientUnits="userSpaceOnUse">
<stop stop-color="#C75C5C"/>
<stop offset="1" stop-color="#FFEDED"/>
</linearGradient>
<clipPath id="clip0_1092_86">
<rect width="196" height="239" fill="white"/>
</clipPath>
</defs>
</svg>
