<svg width="196" height="239" viewBox="0 0 196 239" fill="none" xmlns="http://www.w3.org/2000/svg">
<g clip-path="url(#clip0_1092_87)">
<path d="M192.961 2.68652H2.98047V171.392L97.9708 234.981L192.961 171.392V2.68652Z" fill="white" stroke="#3F4EDA" stroke-width="4.31774"/>
<g filter="url(#filter0_d_1092_87)">
<path d="M190.802 4.8457L5.13867 170.215L97.9702 232.391L190.802 170.215V4.8457Z" fill="url(#paint0_linear_1092_87)"/>
</g>
<path d="M47.8784 78.2516C46.4444 78.2516 45.0441 77.9901 43.6776 77.4671C42.311 76.9272 41.0963 76.1681 40.0335 75.1896L42.1339 72.5577C43.1799 73.4519 44.1752 74.1098 45.12 74.5316C46.0648 74.9365 47.0686 75.139 48.1314 75.139C48.8737 75.139 49.5148 75.0546 50.0547 74.8859C50.5945 74.7003 51.0079 74.4388 51.2947 74.1014C51.5984 73.764 51.7502 73.3675 51.7502 72.912C51.7502 72.3047 51.5309 71.8407 51.0922 71.5202C50.6536 71.1828 49.9028 70.9213 48.84 70.7357L45.3225 70.1537C43.821 69.8837 42.6738 69.3439 41.8808 68.5341C41.1048 67.7243 40.7168 66.6783 40.7168 65.3961C40.7168 64.2995 40.9951 63.3463 41.5519 62.5365C42.1255 61.7267 42.9268 61.111 43.9559 60.6892C45.0019 60.2506 46.2419 60.0312 47.6759 60.0312C48.975 60.0312 50.274 60.2506 51.573 60.6892C52.8721 61.1278 54.0109 61.7352 54.9894 62.5112L53.0155 65.2443C51.1597 63.8272 49.3039 63.1186 47.4482 63.1186C46.7733 63.1186 46.1913 63.2029 45.702 63.3716C45.2128 63.5403 44.8332 63.7765 44.5633 64.0802C44.3102 64.367 44.1837 64.7129 44.1837 65.1178C44.1837 65.6576 44.3777 66.0794 44.7657 66.3831C45.1706 66.6699 45.8201 66.8892 46.7143 67.041L50.0547 67.5978C51.8261 67.8846 53.1505 68.4497 54.0277 69.2933C54.9219 70.1199 55.369 71.2165 55.369 72.583C55.369 73.7302 55.0568 74.7341 54.4326 75.5945C53.8253 76.438 52.9564 77.096 51.8261 77.5683C50.7126 78.0238 49.3967 78.2516 47.8784 78.2516ZM57.3134 77.9985V60.2843L60.7803 59.5251V65.8769C61.7925 64.9997 63.0241 64.561 64.475 64.561C65.5041 64.561 66.4067 64.7803 67.1827 65.219C67.9756 65.6576 68.5914 66.2734 69.0301 67.0663C69.4687 67.8592 69.688 68.7787 69.688 69.8247V77.9985H66.2211V70.3308C66.2211 69.4704 65.9765 68.7956 65.4872 68.3063C64.998 67.8002 64.3316 67.5471 63.488 67.5471C62.8976 67.5471 62.3746 67.6652 61.9191 67.9014C61.4804 68.1207 61.1008 68.4413 60.7803 68.8631V77.9985H57.3134ZM78.7666 78.2516C77.4506 78.2516 76.2528 77.9479 75.1731 77.3406C74.1103 76.7332 73.2667 75.915 72.6425 74.8859C72.0352 73.8568 71.7315 72.7011 71.7315 71.419C71.7315 70.1368 72.0352 68.9811 72.6425 67.952C73.2667 66.9061 74.1103 66.0794 75.1731 65.472C76.2528 64.8647 77.4506 64.561 78.7666 64.561C80.0825 64.561 81.2719 64.8647 82.3347 65.472C83.4144 66.0794 84.258 66.9061 84.8653 67.952C85.4895 68.9811 85.8016 70.1368 85.8016 71.419C85.8016 72.7011 85.4895 73.8568 84.8653 74.8859C84.258 75.915 83.4144 76.7332 82.3347 77.3406C81.2719 77.9479 80.0825 78.2516 78.7666 78.2516ZM78.7666 75.2402C79.4583 75.2402 80.074 75.0715 80.6139 74.7341C81.1706 74.3798 81.6093 73.9158 81.9298 73.3422C82.2504 72.7686 82.4106 72.1275 82.4106 71.419C82.4106 70.6935 82.2504 70.044 81.9298 69.4704C81.6093 68.8968 81.1706 68.4413 80.6139 68.1039C80.074 67.7496 79.4583 67.5724 78.7666 67.5724C78.0917 67.5724 77.476 67.7496 76.9192 68.1039C76.3625 68.4413 75.9239 68.8968 75.6033 69.4704C75.2828 70.044 75.1225 70.6935 75.1225 71.419C75.1225 72.1275 75.2828 72.7686 75.6033 73.3422C75.9239 73.9158 76.3625 74.3798 76.9192 74.7341C77.476 75.0715 78.0917 75.2402 78.7666 75.2402ZM87.9327 83.161V64.8141H91.349V65.9022C92.4287 65.0587 93.6772 64.6369 95.0943 64.6369C96.3427 64.6369 97.4731 64.9406 98.4853 65.548C99.4975 66.1553 100.299 66.9735 100.889 68.0026C101.497 69.0149 101.8 70.1537 101.8 71.419C101.8 72.6843 101.497 73.8315 100.889 74.8606C100.282 75.8728 99.4638 76.6826 98.4347 77.29C97.4225 77.8804 96.2752 78.1757 94.9931 78.1757C94.3351 78.1757 93.7025 78.0913 93.0951 77.9226C92.4878 77.737 91.9226 77.4755 91.3996 77.1381V83.161H87.9327ZM94.5376 75.2402C95.263 75.2402 95.9125 75.0715 96.4861 74.7341C97.0766 74.3966 97.5405 73.9411 97.878 73.3675C98.2154 72.7939 98.3841 72.1444 98.3841 71.419C98.3841 70.6935 98.2154 70.044 97.878 69.4704C97.5405 68.8968 97.0766 68.4413 96.4861 68.1039C95.9125 67.7665 95.263 67.5978 94.5376 67.5978C93.8965 67.5978 93.306 67.7074 92.7661 67.9267C92.2432 68.146 91.7876 68.4582 91.3996 68.8631V74.0002C91.7708 74.3713 92.2263 74.675 92.7661 74.9112C93.3229 75.1305 93.9134 75.2402 94.5376 75.2402ZM103.922 83.161V64.8141H107.338V65.9022C108.418 65.0587 109.666 64.6369 111.084 64.6369C112.332 64.6369 113.462 64.9406 114.475 65.548C115.487 66.1553 116.288 66.9735 116.879 68.0026C117.486 69.0149 117.79 70.1537 117.79 71.419C117.79 72.6843 117.486 73.8315 116.879 74.8606C116.271 75.8728 115.453 76.6826 114.424 77.29C113.412 77.8804 112.265 78.1757 110.982 78.1757C110.324 78.1757 109.692 78.0913 109.084 77.9226C108.477 77.737 107.912 77.4755 107.389 77.1381V83.161H103.922ZM110.527 75.2402C111.252 75.2402 111.902 75.0715 112.475 74.7341C113.066 74.3966 113.53 73.9411 113.867 73.3675C114.205 72.7939 114.373 72.1444 114.373 71.419C114.373 70.6935 114.205 70.044 113.867 69.4704C113.53 68.8968 113.066 68.4413 112.475 68.1039C111.902 67.7665 111.252 67.5978 110.527 67.5978C109.886 67.5978 109.295 67.7074 108.755 67.9267C108.232 68.146 107.777 68.4582 107.389 68.8631V74.0002C107.76 74.3713 108.216 74.675 108.755 74.9112C109.312 75.1305 109.903 75.2402 110.527 75.2402ZM119.911 77.9985V64.8141H123.378V77.9985H119.911ZM121.632 63.2451C121.092 63.2451 120.628 63.0511 120.24 62.6631C119.852 62.275 119.658 61.8111 119.658 61.2712C119.658 60.7145 119.852 60.2506 120.24 59.8794C120.628 59.4914 121.092 59.2974 121.632 59.2974C122.189 59.2974 122.653 59.4914 123.024 59.8794C123.412 60.2506 123.606 60.7145 123.606 61.2712C123.606 61.8111 123.412 62.275 123.024 62.6631C122.653 63.0511 122.189 63.2451 121.632 63.2451ZM126.114 77.9985V64.8141H129.581V65.8769C130.593 64.9997 131.825 64.561 133.276 64.561C134.305 64.561 135.207 64.7803 135.984 65.219C136.776 65.6576 137.392 66.2734 137.831 67.0663C138.27 67.8592 138.489 68.7787 138.489 69.8247V77.9985H135.022V70.3308C135.022 69.4704 134.777 68.7956 134.288 68.3063C133.799 67.8002 133.132 67.5471 132.289 67.5471C131.698 67.5471 131.175 67.6652 130.72 67.9014C130.281 68.1207 129.902 68.4413 129.581 68.8631V77.9985H126.114ZM147.77 83.414C146.758 83.414 145.779 83.3044 144.834 83.085C143.906 82.8826 143.054 82.5874 142.278 82.1993L143.493 79.4916C144.219 79.8627 144.927 80.1327 145.619 80.3014C146.31 80.4701 147.002 80.5544 147.694 80.5544C148.723 80.5544 149.499 80.3351 150.022 79.8965C150.562 79.4579 150.832 78.7999 150.832 77.9226V76.8851C149.752 77.678 148.546 78.0745 147.213 78.0745C145.965 78.0745 144.834 77.7792 143.822 77.1887C142.81 76.5814 142.008 75.7632 141.418 74.7341C140.828 73.7049 140.532 72.5662 140.532 71.3177C140.532 70.0693 140.828 68.939 141.418 67.9267C142.025 66.8976 142.844 66.0878 143.873 65.4974C144.902 64.9069 146.049 64.6116 147.314 64.6116C147.972 64.6116 148.596 64.7044 149.187 64.89C149.794 65.0756 150.359 65.3371 150.882 65.6745V64.8141H154.299V77.9479C154.299 79.7025 153.734 81.0521 152.603 81.9969C151.49 82.9416 149.879 83.414 147.77 83.414ZM147.745 75.139C148.386 75.139 148.968 75.0377 149.491 74.8353C150.014 74.616 150.461 74.3123 150.832 73.9243V68.7618C150.461 68.4075 150.005 68.1207 149.465 67.9014C148.942 67.6821 148.377 67.5724 147.77 67.5724C147.044 67.5724 146.395 67.7412 145.821 68.0786C145.248 68.416 144.792 68.8715 144.455 69.4451C144.117 70.0018 143.949 70.626 143.949 71.3177C143.949 72.0432 144.109 72.6927 144.429 73.2663C144.767 73.8399 145.222 74.2954 145.796 74.6328C146.386 74.9702 147.036 75.139 147.745 75.139ZM60.5383 111.252C59.2224 111.252 57.9908 111.024 56.8436 110.568C55.6964 110.096 54.6926 109.446 53.8322 108.62C52.9887 107.793 52.3223 106.831 51.833 105.735C51.3606 104.621 51.1245 103.424 51.1245 102.141C51.1245 100.842 51.3606 99.6446 51.833 98.548C52.3223 97.4345 52.9971 96.4644 53.8575 95.6378C54.7179 94.8111 55.7133 94.17 56.8436 93.7145C57.9908 93.2421 59.2224 93.0059 60.5383 93.0059C61.5168 93.0059 62.4616 93.1409 63.3726 93.4108C64.2836 93.6808 65.1271 94.0604 65.9032 94.5496C66.6961 95.0389 67.3709 95.6293 67.9277 96.321L65.4477 98.7757C64.8066 97.9828 64.0643 97.3839 63.2207 96.979C62.3941 96.5741 61.4999 96.3716 60.5383 96.3716C59.7454 96.3716 59.0031 96.5235 58.3114 96.8272C57.6197 97.114 57.0208 97.5188 56.5146 98.0418C56.0085 98.548 55.6121 99.1553 55.3253 99.8639C55.0385 100.556 54.8951 101.315 54.8951 102.141C54.8951 102.951 55.0385 103.702 55.3253 104.394C55.6289 105.085 56.0338 105.693 56.54 106.216C57.0629 106.739 57.6787 107.144 58.3873 107.43C59.0959 107.717 59.855 107.861 60.6648 107.861C61.5927 107.861 62.4616 107.667 63.2714 107.279C64.0812 106.891 64.7897 106.334 65.3971 105.608L67.8264 107.987C67.2697 108.662 66.6033 109.244 65.8273 109.733C65.0512 110.222 64.2077 110.602 63.2967 110.872C62.4025 111.125 61.4831 111.252 60.5383 111.252ZM75.8263 111.252C74.5104 111.252 73.3126 110.948 72.2329 110.341C71.17 109.733 70.3265 108.915 69.7023 107.886C69.078 106.857 68.7659 105.701 68.7659 104.419C68.7659 103.137 69.0612 101.981 69.6516 100.952C70.259 99.9229 71.0772 99.1047 72.1063 98.4974C73.1354 97.89 74.2826 97.5863 75.548 97.5863C76.8133 97.5863 77.9352 97.8984 78.9137 98.5227C79.8922 99.13 80.6598 99.9735 81.2165 101.053C81.7901 102.116 82.0769 103.322 82.0769 104.672V105.583H72.3088C72.4606 106.106 72.7052 106.578 73.0427 107C73.3969 107.422 73.8271 107.751 74.3333 107.987C74.8563 108.206 75.413 108.316 76.0035 108.316C76.5939 108.316 77.1338 108.232 77.623 108.063C78.1292 107.877 78.5594 107.616 78.9137 107.279L81.1912 109.354C80.3814 110.012 79.5463 110.492 78.6859 110.796C77.8424 111.1 76.8892 111.252 75.8263 111.252ZM72.2582 103.103H78.6606C78.5425 102.58 78.3232 102.125 78.0026 101.737C77.699 101.332 77.3278 101.02 76.8892 100.8C76.4674 100.564 75.995 100.446 75.472 100.446C74.949 100.446 74.4682 100.556 74.0296 100.775C73.591 100.994 73.2198 101.306 72.9161 101.711C72.6124 102.099 72.3931 102.563 72.2582 103.103ZM84.201 110.999V97.8141H87.668V98.8769C88.6802 97.9997 89.9118 97.561 91.3626 97.561C92.3918 97.561 93.2943 97.7803 94.0704 98.219C94.8633 98.6576 95.4791 99.2734 95.9177 100.066C96.3564 100.859 96.5757 101.779 96.5757 102.825V110.999H93.1088V103.331C93.1088 102.47 92.8641 101.796 92.3749 101.306C91.8856 100.8 91.2192 100.547 90.3757 100.547C89.7852 100.547 89.2622 100.665 88.8067 100.901C88.3681 101.121 87.9885 101.441 87.668 101.863V110.999H84.201ZM105.106 111.201C103.639 111.201 102.525 110.872 101.766 110.214C101.024 109.539 100.653 108.561 100.653 107.279V100.724H97.9448V97.8141H100.653V94.4231L104.119 93.6639V97.8141H107.89V100.724H104.119V106.57C104.119 107.177 104.254 107.616 104.524 107.886C104.794 108.139 105.267 108.265 105.941 108.265C106.279 108.265 106.583 108.249 106.853 108.215C107.139 108.164 107.451 108.08 107.789 107.962V110.821C107.435 110.939 106.996 111.032 106.473 111.1C105.95 111.167 105.494 111.201 105.106 111.201ZM109.606 110.999V97.8141H113.073V99.2818C113.495 98.7082 114.001 98.2696 114.591 97.9659C115.182 97.6622 115.848 97.5104 116.59 97.5104C117.231 97.5273 117.712 97.6201 118.033 97.7888V100.851C117.78 100.733 117.501 100.648 117.198 100.598C116.894 100.53 116.582 100.497 116.261 100.497C115.587 100.497 114.971 100.665 114.414 101.003C113.857 101.34 113.41 101.821 113.073 102.445V110.999H109.606ZM125.845 111.252C124.529 111.252 123.332 110.948 122.252 110.341C121.189 109.733 120.345 108.915 119.721 107.886C119.097 106.857 118.785 105.701 118.785 104.419C118.785 103.137 119.08 101.981 119.671 100.952C120.278 99.9229 121.096 99.1047 122.125 98.4974C123.154 97.89 124.302 97.5863 125.567 97.5863C126.832 97.5863 127.954 97.8984 128.933 98.5227C129.911 99.13 130.679 99.9735 131.235 101.053C131.809 102.116 132.096 103.322 132.096 104.672V105.583H122.328C122.48 106.106 122.724 106.578 123.062 107C123.416 107.422 123.846 107.751 124.352 107.987C124.875 108.206 125.432 108.316 126.022 108.316C126.613 108.316 127.153 108.232 127.642 108.063C128.148 107.877 128.578 107.616 128.933 107.279L131.21 109.354C130.4 110.012 129.565 110.492 128.705 110.796C127.861 111.1 126.908 111.252 125.845 111.252ZM122.277 103.103H128.68C128.561 102.58 128.342 102.125 128.022 101.737C127.718 101.332 127.347 101.02 126.908 100.8C126.486 100.564 126.014 100.446 125.491 100.446C124.968 100.446 124.487 100.556 124.049 100.775C123.61 100.994 123.239 101.306 122.935 101.711C122.631 102.099 122.412 102.563 122.277 103.103ZM139.278 111.252C138.08 111.252 136.959 111.1 135.913 110.796C134.883 110.476 133.989 110.02 133.23 109.43L134.951 107.127C135.727 107.633 136.461 108.012 137.153 108.265C137.844 108.502 138.536 108.62 139.228 108.62C140.004 108.62 140.619 108.493 141.075 108.24C141.547 107.987 141.784 107.65 141.784 107.228C141.784 106.891 141.649 106.621 141.379 106.418C141.126 106.216 140.712 106.072 140.139 105.988L137.608 105.608C136.292 105.406 135.297 104.984 134.622 104.343C133.947 103.685 133.61 102.825 133.61 101.762C133.61 100.901 133.829 100.159 134.268 99.5349C134.723 98.9107 135.356 98.4299 136.166 98.0925C136.992 97.755 137.971 97.5863 139.101 97.5863C140.063 97.5863 140.999 97.7213 141.91 97.9912C142.838 98.2612 143.707 98.6745 144.517 99.2312L142.846 101.483C142.121 101.045 141.429 100.724 140.771 100.522C140.113 100.303 139.447 100.193 138.772 100.193C138.148 100.193 137.642 100.311 137.254 100.547C136.883 100.783 136.697 101.095 136.697 101.483C136.697 101.838 136.832 102.116 137.102 102.319C137.389 102.521 137.853 102.664 138.494 102.749L141.024 103.128C142.323 103.314 143.319 103.736 144.01 104.394C144.702 105.035 145.048 105.87 145.048 106.899C145.048 107.742 144.795 108.493 144.289 109.151C143.783 109.792 143.099 110.307 142.239 110.695C141.379 111.066 140.392 111.252 139.278 111.252Z" fill="#242D84"/>
<path d="M121.795 4.41455H73.293V37.5907L97.5438 50.0956L121.795 37.5907V4.41455Z" fill="#3F4EDA"/>
<path d="M93.4157 20.0946V18.1165C93.6115 18.1043 93.8072 18.0921 94.0029 18.0921C99.4345 17.9211 102.994 22.7565 102.994 22.7565C102.994 22.7565 99.1531 28.0802 95.0305 28.0802C94.48 28.0802 93.9418 27.9947 93.428 27.8238V21.8163C95.5443 22.0727 95.9725 23.0007 97.2325 25.1131L100.058 22.7443C100.058 22.7443 97.991 20.0458 94.5167 20.0458C94.1497 20.0335 93.7827 20.058 93.4157 20.0946ZM93.4157 13.5498V16.5047L94.0029 16.4681C101.551 16.2117 106.481 22.6466 106.481 22.6466C106.481 22.6466 100.829 29.5088 94.9449 29.5088C94.4311 29.5088 93.9295 29.46 93.428 29.3745V31.2061C93.8439 31.2549 94.272 31.2916 94.688 31.2916C100.168 31.2916 104.132 28.4954 107.973 25.1986C108.609 25.7114 111.215 26.9446 111.753 27.4819C108.108 30.5345 99.6057 32.9888 94.7858 32.9888C94.321 32.9888 93.8806 32.9644 93.4402 32.9155V35.4919H114.261V13.5498H93.4157ZM93.4157 27.8238V29.3867C88.3512 28.4832 86.9443 23.2205 86.9443 23.2205C86.9443 23.2205 89.3787 20.5342 93.4157 20.0946V21.8041H93.4035C91.2871 21.5476 89.6234 23.5257 89.6234 23.5257C89.6234 23.5257 90.5654 26.8592 93.4157 27.8238ZM84.4243 23.0007C84.4243 23.0007 87.4214 18.5805 93.428 18.1165V16.5047C86.7731 17.042 81.0234 22.6588 81.0234 22.6588C81.0234 22.6588 84.2775 32.0608 93.4157 32.9155V31.2061C86.7119 30.3758 84.4243 23.0007 84.4243 23.0007Z" fill="white"/>
<path d="M96.5146 142.177V189.448H132.449V154.146L96.5146 142.177ZM113.153 182.078C112.679 182.078 112.216 181.938 111.822 181.674C111.428 181.41 111.121 181.036 110.94 180.597C110.759 180.159 110.711 179.676 110.804 179.211C110.896 178.745 111.124 178.317 111.459 177.982C111.794 177.646 112.221 177.417 112.685 177.325C113.15 177.232 113.631 177.279 114.069 177.461C114.507 177.642 114.881 177.95 115.144 178.344C115.407 178.739 115.548 179.203 115.548 179.678C115.548 180.314 115.296 180.925 114.847 181.375C114.397 181.825 113.788 182.078 113.153 182.078ZM122.218 182.078C121.745 182.078 121.282 181.938 120.888 181.674C120.494 181.41 120.187 181.036 120.006 180.597C119.824 180.159 119.777 179.676 119.869 179.211C119.962 178.745 120.19 178.317 120.525 177.982C120.859 177.646 121.286 177.417 121.751 177.325C122.215 177.232 122.697 177.279 123.135 177.461C123.572 177.642 123.946 177.95 124.21 178.344C124.473 178.739 124.613 179.203 124.614 179.678C124.614 180.314 124.361 180.925 123.912 181.375C123.463 181.825 122.854 182.078 122.218 182.078ZM124.574 176.913H109.531L104.021 163.716H100.65C100.443 163.71 100.247 163.623 100.103 163.474C99.9593 163.325 99.8788 163.126 99.8788 162.919C99.8788 162.712 99.9593 162.512 100.103 162.364C100.247 162.215 100.443 162.128 100.65 162.121H105.081L110.592 175.321H124.57C124.677 175.318 124.783 175.336 124.883 175.375C124.982 175.413 125.073 175.472 125.15 175.546C125.226 175.62 125.287 175.709 125.329 175.808C125.37 175.906 125.392 176.012 125.392 176.119C125.392 176.226 125.37 176.332 125.329 176.43C125.287 176.528 125.226 176.618 125.15 176.692C125.073 176.766 124.982 176.825 124.883 176.863C124.783 176.902 124.677 176.92 124.57 176.916L124.574 176.913ZM124.38 174.35H111.475L108.449 167.145H127.404L124.38 174.35Z" fill="#3F4EDA" fill-opacity="0.5"/>
<path d="M91.2281 133.148V136.11C91.1543 136.053 91.0797 135.997 91.0044 135.942C87.8672 133.625 83.716 132.348 79.3196 132.348C74.9232 132.348 70.769 133.625 67.6348 135.942C67.5595 135.997 67.4849 136.053 67.4111 136.11V133.148C67.4111 128.47 72.7438 124.678 79.3265 124.678C85.9092 124.678 91.2281 128.47 91.2281 133.148Z" fill="#3F4EDA" fill-opacity="0.5"/>
<path d="M69.955 135.849V146.917C68.9781 147.077 68.0773 147.248 67.2716 147.415C65.8942 147.7 64.7955 147.973 64.0723 148.166V144.296C64.0723 144.25 64.0723 144.203 64.0723 144.157C64.0723 144.111 64.0723 144.077 64.0723 144.036C64.0723 144.008 64.0723 143.979 64.0723 143.95C64.0723 143.921 64.0762 143.874 64.0785 143.835C64.0809 143.797 64.0833 143.759 64.0864 143.721C64.095 143.603 64.1068 143.486 64.121 143.369C64.1249 143.335 64.1296 143.301 64.1343 143.267C64.139 143.232 64.1406 143.218 64.1445 143.194C64.1508 143.15 64.1579 143.107 64.1649 143.063C64.172 143.019 64.1775 142.987 64.1846 142.949C64.1987 142.866 64.2152 142.783 64.2333 142.701C64.2395 142.671 64.2458 142.641 64.2529 142.611C64.26 142.582 64.2662 142.552 64.2733 142.522C64.2804 142.492 64.2922 142.445 64.3024 142.407C64.3251 142.315 64.3503 142.223 64.3809 142.136C64.3927 142.095 64.4052 142.053 64.4186 142.011C64.4814 141.808 64.5537 141.605 64.6338 141.402C64.6471 141.368 64.6605 141.334 64.6746 141.301C64.7484 141.123 64.8317 140.947 64.9157 140.772C64.9502 140.705 64.9856 140.637 65.0217 140.569C65.0578 140.502 65.0947 140.434 65.1332 140.366C65.1646 140.311 65.1968 140.256 65.229 140.201C65.2439 140.175 65.2596 140.149 65.2754 140.124C65.3005 140.081 65.3272 140.039 65.3539 139.997C65.3712 139.968 65.39 139.939 65.4089 139.91C65.4874 139.792 65.562 139.677 65.6444 139.561C65.679 139.513 65.7136 139.464 65.7497 139.415C65.9067 139.201 66.0737 138.991 66.2507 138.785C66.2955 138.732 66.3418 138.68 66.3881 138.628C66.447 138.56 66.5075 138.493 66.568 138.431C66.6088 138.387 66.6504 138.344 66.6928 138.3L66.7352 138.257C66.7894 138.201 66.8452 138.145 66.9009 138.09C66.9441 138.048 66.9873 138.006 67.0321 137.964C67.0572 137.94 67.0823 137.916 67.1106 137.892C67.1632 137.842 67.2166 137.794 67.2677 137.745C67.3187 137.696 67.3705 137.653 67.4247 137.609C67.4789 137.566 67.5198 137.527 67.5677 137.486C67.5724 137.486 67.5763 137.479 67.5802 137.475L67.7208 137.358C68.1186 137.031 68.5381 136.724 68.9773 136.439C69.0173 136.413 69.0558 136.386 69.0998 136.36C69.316 136.225 69.5375 136.092 69.7642 135.962C69.8231 135.928 69.882 135.894 69.9409 135.863L69.955 135.849Z" fill="#3F4EDA" fill-opacity="0.5"/>
<path d="M79.0144 133.564V146.1C76.2627 146.134 73.5188 146.36 70.8096 146.777V135.413L71.0028 135.322C71.1598 135.249 71.3198 135.179 71.4826 135.111C71.5611 135.078 71.6349 135.043 71.7119 135.015C71.7888 134.987 71.8611 134.955 71.9365 134.926C72.1799 134.831 72.4268 134.74 72.677 134.655C72.7493 134.629 72.8223 134.605 72.8953 134.581L72.9472 134.564C73.0932 134.517 73.2401 134.471 73.3893 134.429C73.4718 134.404 73.5542 134.379 73.6375 134.356L73.8566 134.295C73.9563 134.267 74.0568 134.241 74.1573 134.215C74.2359 134.195 74.3144 134.175 74.3968 134.156C74.4605 134.14 74.5241 134.125 74.5885 134.11C74.6827 134.088 74.7769 134.067 74.8712 134.047L75.0526 134.008C75.1091 133.996 75.1657 133.984 75.2222 133.974C75.3876 133.941 75.5544 133.909 75.7224 133.88C75.8049 133.866 75.8874 133.852 75.9706 133.839L76.1599 133.809C76.2156 133.8 76.2714 133.792 76.3279 133.785C76.346 133.785 76.3648 133.779 76.3829 133.776C76.4324 133.769 76.4826 133.762 76.5321 133.756L76.7206 133.732L76.9106 133.709C77.0368 133.694 77.164 133.68 77.2923 133.668L77.4085 133.657L77.5483 133.644C77.7195 133.629 77.8915 133.617 78.0642 133.606L78.2527 133.596C78.5048 133.579 78.7592 133.57 79.0144 133.564Z" fill="#3F4EDA" fill-opacity="0.5"/>
<path d="M88.0711 135.413V146.782C85.3619 146.365 82.6179 146.139 79.8662 146.105V133.564C80.1214 133.569 80.3759 133.579 80.628 133.592L80.8164 133.603C80.9892 133.614 81.1612 133.626 81.3324 133.641L81.4722 133.654L81.5884 133.665C81.7167 133.677 81.8439 133.69 81.97 133.705L82.1601 133.728C82.2229 133.736 82.2857 133.744 82.3486 133.753C82.398 133.759 82.4483 133.766 82.4978 133.773C82.5158 133.773 82.5347 133.778 82.5527 133.781C82.6093 133.789 82.665 133.797 82.7208 133.806L82.9101 133.835C82.9933 133.848 83.0758 133.862 83.1582 133.877C83.3263 133.906 83.493 133.937 83.6584 133.97C83.715 133.981 83.7715 133.993 83.8281 134.005L84.0071 134.044C84.1014 134.064 84.1956 134.085 84.2898 134.108C84.3542 134.122 84.4178 134.137 84.4814 134.153C84.56 134.172 84.6385 134.192 84.721 134.213C84.8215 134.238 84.922 134.265 85.0217 134.292L85.2408 134.353C85.3241 134.377 85.4065 134.401 85.489 134.426C85.6382 134.471 85.7851 134.517 85.9311 134.561L85.983 134.578C86.056 134.602 86.129 134.626 86.2013 134.652C86.4515 134.738 86.6984 134.828 86.9418 134.923C87.0203 134.952 87.0918 134.982 87.1664 135.013C87.241 135.043 87.3195 135.076 87.3957 135.108C87.5575 135.177 87.7174 135.247 87.8755 135.319L88.0711 135.413Z" fill="#3F4EDA" fill-opacity="0.5"/>
<path d="M94.8075 144.296V148.166C94.0843 147.973 92.9856 147.7 91.6082 147.415C90.8025 147.248 89.9017 147.076 88.9248 146.917V135.849L88.935 135.855C88.9939 135.887 89.0528 135.923 89.1117 135.953C89.3384 136.082 89.5599 136.215 89.7761 136.352C89.8177 136.378 89.8585 136.405 89.8986 136.431C90.3377 136.716 90.7573 137.023 91.1551 137.35L91.2956 137.467L91.3082 137.478C91.3561 137.519 91.404 137.56 91.4511 137.601C91.4982 137.643 91.5548 137.693 91.6082 137.737C91.6616 137.781 91.715 137.834 91.7653 137.884C91.7912 137.907 91.8163 137.932 91.8438 137.956C91.8885 137.998 91.9317 138.04 91.9749 138.082C92.0307 138.137 92.0864 138.193 92.1406 138.249L92.183 138.292C92.2254 138.336 92.2671 138.379 92.3079 138.423C92.3684 138.491 92.4288 138.554 92.4877 138.62C92.5341 138.672 92.5804 138.724 92.6252 138.777C92.8026 138.983 92.9696 139.193 93.1262 139.407C93.1623 139.456 93.1969 139.505 93.2314 139.553C93.3099 139.668 93.3885 139.784 93.467 139.902C93.4859 139.931 93.5047 139.96 93.522 139.989C93.5487 140.031 93.5754 140.073 93.6005 140.115C93.6162 140.141 93.6319 140.167 93.6468 140.193C93.679 140.248 93.7112 140.302 93.7426 140.358C93.7811 140.426 93.8212 140.493 93.8542 140.561C93.8871 140.629 93.9256 140.697 93.9602 140.764C94.0466 140.938 94.1275 141.114 94.2013 141.293C94.2154 141.326 94.2288 141.361 94.2421 141.394C94.3206 141.597 94.3945 141.796 94.4573 142.003C94.4706 142.044 94.4832 142.086 94.495 142.128C94.5217 142.218 94.5478 142.308 94.5735 142.399L94.6018 142.514C94.6088 142.544 94.6159 142.573 94.6222 142.603C94.6285 142.633 94.6355 142.663 94.6418 142.693C94.6599 142.775 94.6764 142.858 94.6905 142.941C94.6976 142.979 94.7039 143.017 94.7101 143.055C94.7164 143.093 94.7243 143.142 94.7306 143.186C94.7345 143.21 94.7376 143.234 94.7408 143.259C94.7439 143.283 94.7502 143.327 94.7541 143.361C94.7683 143.478 94.78 143.595 94.7887 143.713C94.7887 143.751 94.7942 143.789 94.7965 143.827C94.7989 143.865 94.8012 143.904 94.8028 143.942C94.8044 143.979 94.8028 144 94.8067 144.028V144.149C94.8067 144.204 94.8075 144.25 94.8075 144.296Z" fill="#3F4EDA" fill-opacity="0.5"/>
<path d="M94.8075 148.936V162.369C94.096 162.266 92.9966 162.118 91.6082 161.963C90.804 161.873 89.9033 161.78 88.9248 161.692V147.665C89.9072 147.829 90.8095 148.004 91.6082 148.17C93.0422 148.47 94.1479 148.755 94.8075 148.936Z" fill="#3F4EDA" fill-opacity="0.5"/>
<path d="M88.0711 147.529V161.617C85.6523 161.419 82.8307 161.262 79.8662 161.248V146.838C82.6185 146.874 85.3628 147.105 88.0711 147.529Z" fill="#3F4EDA" fill-opacity="0.5"/>
<path d="M79.0144 146.838V161.251C76.0499 161.266 73.2283 161.422 70.8096 161.621V147.533C73.5177 147.107 76.262 146.875 79.0144 146.838Z" fill="#3F4EDA" fill-opacity="0.5"/>
<path d="M69.955 147.665V161.693C68.9765 161.779 68.0758 161.872 67.2716 161.964C65.8832 162.119 64.7838 162.268 64.0723 162.37V148.936C64.7319 148.755 65.8376 148.472 67.2716 148.17C68.071 148.002 68.9726 147.829 69.955 147.665Z" fill="#3F4EDA" fill-opacity="0.5"/>
<path d="M69.955 162.431V175.872H64.0723V163.115C64.7476 163.016 65.8518 162.865 67.2716 162.704C68.0726 162.613 68.9734 162.52 69.955 162.431Z" fill="#3F4EDA" fill-opacity="0.5"/>
<path d="M79.0144 161.986V175.871H70.8096V162.355C73.2212 162.159 76.0444 162.001 79.0144 161.986Z" fill="#3F4EDA" fill-opacity="0.5"/>
<path d="M88.0711 162.355V175.872H79.8662V161.987C82.8354 162 85.6563 162.159 88.0711 162.355Z" fill="#3F4EDA" fill-opacity="0.5"/>
<path d="M94.8075 163.116V175.872H88.9248V162.432C89.9064 162.52 90.8095 162.613 91.6082 162.703C93.028 162.864 94.1322 163.016 94.8075 163.116Z" fill="#3F4EDA" fill-opacity="0.5"/>
<path d="M94.8075 176.608H88.9248V189.445H94.8075V176.608Z" fill="#3F4EDA" fill-opacity="0.5"/>
<path d="M88.0711 176.608H79.8662V189.445H88.0711V176.608Z" fill="#3F4EDA" fill-opacity="0.5"/>
<path d="M79.0144 176.608H70.8096V189.445H79.0144V176.608Z" fill="#3F4EDA" fill-opacity="0.5"/>
<path d="M69.955 176.608H64.0723V189.445H69.955V176.608Z" fill="#3F4EDA" fill-opacity="0.5"/>
<path d="M113.153 180.656C113.692 180.656 114.128 180.219 114.128 179.679C114.128 179.139 113.692 178.702 113.153 178.702C112.614 178.702 112.178 179.139 112.178 179.679C112.178 180.219 112.614 180.656 113.153 180.656Z" fill="#3F4EDA" fill-opacity="0.5"/>
<path d="M122.218 180.656C122.756 180.656 123.193 180.219 123.193 179.679C123.193 179.139 122.756 178.702 122.218 178.702C121.679 178.702 121.242 179.139 121.242 179.679C121.242 180.219 121.679 180.656 122.218 180.656Z" fill="#3F4EDA" fill-opacity="0.5"/>
<path d="M135.783 190.299H60.7412V193.484H135.783V190.299Z" fill="#3F4EDA" fill-opacity="0.5"/>
<g filter="url(#filter1_d_1092_87)">
<path d="M97.9702 188.35L5.13867 170.215L97.9702 232.391L190.802 170.215L97.9702 188.35Z" fill="url(#paint1_linear_1092_87)"/>
</g>
</g>
<defs>
<filter id="filter0_d_1092_87" x="1.68448" y="3.11861" width="196.026" height="237.908" filterUnits="userSpaceOnUse" color-interpolation-filters="sRGB">
<feFlood flood-opacity="0" result="BackgroundImageFix"/>
<feColorMatrix in="SourceAlpha" type="matrix" values="0 0 0 0 0 0 0 0 0 0 0 0 0 0 0 0 0 0 127 0" result="hardAlpha"/>
<feOffset dx="1.7271" dy="3.45419"/>
<feGaussianBlur stdDeviation="2.59065"/>
<feComposite in2="hardAlpha" operator="out"/>
<feColorMatrix type="matrix" values="0 0 0 0 0 0 0 0 0 0 0 0 0 0 0 0 0 0 0.25 0"/>
<feBlend mode="normal" in2="BackgroundImageFix" result="effect1_dropShadow_1092_87"/>
<feBlend mode="normal" in="SourceGraphic" in2="effect1_dropShadow_1092_87" result="shape"/>
</filter>
<filter id="filter1_d_1092_87" x="-12.1323" y="146.036" width="220.205" height="96.7172" filterUnits="userSpaceOnUse" color-interpolation-filters="sRGB">
<feFlood flood-opacity="0" result="BackgroundImageFix"/>
<feColorMatrix in="SourceAlpha" type="matrix" values="0 0 0 0 0 0 0 0 0 0 0 0 0 0 0 0 0 0 127 0" result="hardAlpha"/>
<feOffset dy="-6.90839"/>
<feGaussianBlur stdDeviation="8.63549"/>
<feComposite in2="hardAlpha" operator="out"/>
<feColorMatrix type="matrix" values="0 0 0 0 0.247059 0 0 0 0 0.305882 0 0 0 0 0.854902 0 0 0 0.3 0"/>
<feBlend mode="normal" in2="BackgroundImageFix" result="effect1_dropShadow_1092_87"/>
<feBlend mode="normal" in="SourceGraphic" in2="effect1_dropShadow_1092_87" result="shape"/>
</filter>
<linearGradient id="paint0_linear_1092_87" x1="191.233" y1="5.27748" x2="97.9702" y2="232.391" gradientUnits="userSpaceOnUse">
<stop stop-color="#E1E0FF"/>
<stop offset="1" stop-color="#FAFAFF"/>
</linearGradient>
<linearGradient id="paint1_linear_1092_87" x1="191.233" y1="170.215" x2="97.9701" y2="232.391" gradientUnits="userSpaceOnUse">
<stop stop-color="#615CC7"/>
<stop offset="1" stop-color="#EDEDFF"/>
</linearGradient>
<clipPath id="clip0_1092_87">
<rect width="196" height="239" fill="white"/>
</clipPath>
</defs>
</svg>
