<svg width="16" height="18" viewBox="0 0 16 18" fill="none" xmlns="http://www.w3.org/2000/svg">
<path d="M5.12598 16.1538C5.48569 17.2249 6.50532 17.9998 7.70772 17.9998C8.90934 17.9998 9.92982 17.2249 10.2895 16.1538H5.12598Z" fill="white"/>
<path d="M15.0122 12.2399L13.9143 10.8549C13.7144 10.6025 13.6039 10.2862 13.6039 9.96558V8.5722C13.6039 5.83684 11.6709 3.54305 9.08741 2.9466C9.35445 2.63361 9.52197 2.23561 9.52197 1.79471C9.52197 0.804367 8.70813 0 7.70806 0C6.70713 0 5.89416 0.805229 5.89416 1.79471C5.89416 2.23477 6.06169 2.63358 6.32871 2.9466C3.74523 3.54399 1.81224 5.83684 1.81224 8.5722V9.96558C1.81224 10.2862 1.70169 10.6017 1.50184 10.8549L0.403958 12.2399C-0.0450551 12.8062 -0.125845 13.5601 0.192207 14.2079C0.51025 14.8558 1.15996 15.2572 1.88792 15.2572H13.5292C14.2563 15.2572 14.9068 14.855 15.2249 14.2079C15.5429 13.5609 15.4613 12.8062 15.0131 12.2399H15.0122ZM7.708 2.69166C7.20795 2.69166 6.80061 2.28946 6.80061 1.79387C6.80061 1.29912 7.20711 0.896084 7.708 0.896084C8.20804 0.896084 8.61539 1.29828 8.61539 1.79387C8.61539 2.28862 8.20889 2.69166 7.708 2.69166ZM11.3519 8.31553C11.3222 8.32142 11.2924 8.32394 11.2635 8.32394C11.0509 8.32394 10.8612 8.17586 10.8187 7.96214C10.6078 6.90618 9.83565 6.02354 8.80325 5.6593C8.56685 5.576 8.44439 5.31938 8.52858 5.08545C8.61277 4.85155 8.87044 4.73039 9.10856 4.81368C10.4403 5.28319 11.4369 6.4233 11.7099 7.78814C11.7584 8.0313 11.5985 8.26775 11.3527 8.31569L11.3519 8.31553Z" fill="white"/>
</svg>
