<svg width="1440" height="541" viewBox="0 0 1440 541" fill="none" xmlns="http://www.w3.org/2000/svg">
<g clip-path="url(#clip0_608_3316)">
<mask id="mask0_608_3316" style="mask-type:alpha" maskUnits="userSpaceOnUse" x="62" y="-121" width="1316" height="573">
<rect x="62" y="-120.09" width="1316" height="571.181" fill="url(#paint0_radial_608_3316)"/>
</mask>
<g mask="url(#mask0_608_3316)">
<rect x="62.6644" y="-56.8238" width="62.6433" height="62.6433" stroke="white" stroke-width="1.32889"/>
<rect x="125.308" y="-56.8238" width="62.6433" height="62.6433" stroke="white" stroke-width="1.32889"/>
<rect x="187.952" y="-56.8238" width="62.6433" height="62.6433" stroke="white" stroke-width="1.32889"/>
<rect x="250.594" y="-56.8238" width="62.6433" height="62.6433" stroke="white" stroke-width="1.32889"/>
<rect x="313.238" y="-56.8238" width="62.6433" height="62.6433" stroke="white" stroke-width="1.32889"/>
<rect x="375.881" y="-56.8238" width="62.6433" height="62.6433" stroke="white" stroke-width="1.32889"/>
<rect x="438.525" y="-56.8238" width="62.6433" height="62.6433" stroke="white" stroke-width="1.32889"/>
<rect x="501.167" y="-56.8238" width="62.6433" height="62.6433" stroke="white" stroke-width="1.32889"/>
<rect x="563.811" y="-56.8238" width="62.6433" height="62.6433" stroke="white" stroke-width="1.32889"/>
<rect x="626.454" y="-56.8238" width="62.6433" height="62.6433" stroke="white" stroke-width="1.32889"/>
<rect x="689.098" y="-56.8238" width="62.6433" height="62.6433" stroke="white" stroke-width="1.32889"/>
<rect x="751.741" y="-56.8238" width="62.6433" height="62.6433" stroke="white" stroke-width="1.32889"/>
<rect x="814.384" y="-56.8238" width="62.6433" height="62.6433" stroke="white" stroke-width="1.32889"/>
<rect x="877.028" y="-56.8238" width="62.6433" height="62.6433" stroke="white" stroke-width="1.32889"/>
<rect x="939.671" y="-56.8238" width="62.6433" height="62.6433" stroke="white" stroke-width="1.32889"/>
<rect x="1002.31" y="-56.8238" width="62.6433" height="62.6433" stroke="white" stroke-width="1.32889"/>
<rect x="1064.96" y="-56.8238" width="62.6433" height="62.6433" stroke="white" stroke-width="1.32889"/>
<rect x="1127.6" y="-56.8238" width="62.6433" height="62.6433" stroke="white" stroke-width="1.32889"/>
<rect x="1190.24" y="-56.8238" width="62.6433" height="62.6433" stroke="white" stroke-width="1.32889"/>
<rect x="1252.89" y="-56.8238" width="62.6433" height="62.6433" stroke="white" stroke-width="1.32889"/>
<rect x="1315.53" y="-56.8238" width="62.6433" height="62.6433" stroke="white" stroke-width="1.32889"/>
<rect x="1378.17" y="-56.8238" width="62.6433" height="62.6433" stroke="white" stroke-width="1.32889"/>
<rect x="62.6644" y="5.77773" width="62.6433" height="62.6433" stroke="white" stroke-width="1.32889"/>
<rect x="125.308" y="5.77773" width="62.6433" height="62.6433" stroke="white" stroke-width="1.32889"/>
<rect x="187.952" y="5.77773" width="62.6433" height="62.6433" stroke="white" stroke-width="1.32889"/>
<rect x="250.594" y="5.77773" width="62.6433" height="62.6433" stroke="white" stroke-width="1.32889"/>
<rect x="313.238" y="5.77773" width="62.6433" height="62.6433" stroke="white" stroke-width="1.32889"/>
<rect x="375.881" y="5.77773" width="62.6433" height="62.6433" stroke="white" stroke-width="1.32889"/>
<rect x="438.525" y="5.77773" width="62.6433" height="62.6433" stroke="white" stroke-width="1.32889"/>
<rect x="501.167" y="5.77773" width="62.6433" height="62.6433" stroke="white" stroke-width="1.32889"/>
<rect x="563.811" y="5.77773" width="62.6433" height="62.6433" stroke="white" stroke-width="1.32889"/>
<rect x="626.454" y="5.77773" width="62.6433" height="62.6433" stroke="white" stroke-width="1.32889"/>
<rect x="689.098" y="5.77773" width="62.6433" height="62.6433" stroke="white" stroke-width="1.32889"/>
<rect x="751.741" y="5.77773" width="62.6433" height="62.6433" stroke="white" stroke-width="1.32889"/>
<rect x="814.384" y="5.77773" width="62.6433" height="62.6433" stroke="white" stroke-width="1.32889"/>
<rect x="877.028" y="5.77773" width="62.6433" height="62.6433" stroke="white" stroke-width="1.32889"/>
<rect x="939.671" y="5.77773" width="62.6433" height="62.6433" stroke="white" stroke-width="1.32889"/>
<rect x="1002.31" y="5.77773" width="62.6433" height="62.6433" stroke="white" stroke-width="1.32889"/>
<rect x="1064.96" y="5.77773" width="62.6433" height="62.6433" stroke="white" stroke-width="1.32889"/>
<rect x="1127.6" y="5.77773" width="62.6433" height="62.6433" stroke="white" stroke-width="1.32889"/>
<rect x="1190.24" y="5.77773" width="62.6433" height="62.6433" stroke="white" stroke-width="1.32889"/>
<rect x="1252.89" y="5.77773" width="62.6433" height="62.6433" stroke="white" stroke-width="1.32889"/>
<rect x="1315.53" y="5.77773" width="62.6433" height="62.6433" stroke="white" stroke-width="1.32889"/>
<rect x="1378.17" y="5.77773" width="62.6433" height="62.6433" stroke="white" stroke-width="1.32889"/>
<rect x="62.6644" y="68.3793" width="62.6433" height="62.6433" stroke="white" stroke-width="1.32889"/>
<rect x="125.308" y="68.3793" width="62.6433" height="62.6433" stroke="white" stroke-width="1.32889"/>
<rect x="187.952" y="68.3793" width="62.6433" height="62.6433" stroke="white" stroke-width="1.32889"/>
<rect x="250.594" y="68.3793" width="62.6433" height="62.6433" stroke="white" stroke-width="1.32889"/>
<rect x="313.238" y="68.3793" width="62.6433" height="62.6433" stroke="white" stroke-width="1.32889"/>
<rect x="375.881" y="68.3793" width="62.6433" height="62.6433" stroke="white" stroke-width="1.32889"/>
<rect x="438.525" y="68.3793" width="62.6433" height="62.6433" stroke="white" stroke-width="1.32889"/>
<rect x="501.167" y="68.3793" width="62.6433" height="62.6433" stroke="white" stroke-width="1.32889"/>
<rect x="563.811" y="68.3793" width="62.6433" height="62.6433" stroke="white" stroke-width="1.32889"/>
<rect x="626.454" y="68.3793" width="62.6433" height="62.6433" fill="#ABABAB" stroke="white" stroke-width="1.32889"/>
<rect x="689.098" y="68.3793" width="62.6433" height="62.6433" stroke="white" stroke-width="1.32889"/>
<rect x="751.741" y="68.3793" width="62.6433" height="62.6433" stroke="white" stroke-width="1.32889"/>
<rect x="814.384" y="68.3793" width="62.6433" height="62.6433" stroke="white" stroke-width="1.32889"/>
<rect x="877.028" y="68.3793" width="62.6433" height="62.6433" stroke="white" stroke-width="1.32889"/>
<rect x="939.671" y="68.3793" width="62.6433" height="62.6433" fill="#ABABAB" stroke="white" stroke-width="1.32889"/>
<rect x="1002.31" y="68.3793" width="62.6433" height="62.6433" stroke="white" stroke-width="1.32889"/>
<rect x="1064.96" y="68.3793" width="62.6433" height="62.6433" stroke="white" stroke-width="1.32889"/>
<rect x="1127.6" y="68.3793" width="62.6433" height="62.6433" stroke="white" stroke-width="1.32889"/>
<rect x="1190.24" y="68.3793" width="62.6433" height="62.6433" stroke="white" stroke-width="1.32889"/>
<rect x="1252.89" y="68.3793" width="62.6433" height="62.6433" stroke="white" stroke-width="1.32889"/>
<rect x="1315.53" y="68.3793" width="62.6433" height="62.6433" stroke="white" stroke-width="1.32889"/>
<rect x="1378.17" y="68.3793" width="62.6433" height="62.6433" stroke="white" stroke-width="1.32889"/>
<rect x="62.6644" y="130.98" width="62.6433" height="62.6433" stroke="white" stroke-width="1.32889"/>
<rect x="125.308" y="130.98" width="62.6433" height="62.6433" stroke="white" stroke-width="1.32889"/>
<rect x="187.952" y="130.98" width="62.6433" height="62.6433" stroke="white" stroke-width="1.32889"/>
<rect x="250.594" y="130.98" width="62.6433" height="62.6433" stroke="white" stroke-width="1.32889"/>
<rect x="313.238" y="130.98" width="62.6433" height="62.6433" stroke="white" stroke-width="1.32889"/>
<rect x="375.881" y="130.98" width="62.6433" height="62.6433" stroke="white" stroke-width="1.32889"/>
<rect x="438.525" y="130.98" width="62.6433" height="62.6433" fill="#ABABAB" stroke="white" stroke-width="1.32889"/>
<rect x="501.167" y="130.98" width="62.6433" height="62.6433" stroke="white" stroke-width="1.32889"/>
<rect x="563.811" y="130.98" width="62.6433" height="62.6433" stroke="white" stroke-width="1.32889"/>
<rect x="626.454" y="130.98" width="62.6433" height="62.6433" stroke="white" stroke-width="1.32889"/>
<rect x="689.098" y="130.98" width="62.6433" height="62.6433" stroke="white" stroke-width="1.32889"/>
<rect x="751.741" y="130.98" width="62.6433" height="62.6433" stroke="white" stroke-width="1.32889"/>
<rect x="814.384" y="130.98" width="62.6433" height="62.6433" fill="#ABABAB" stroke="white" stroke-width="1.32889"/>
<rect x="877.028" y="130.98" width="62.6433" height="62.6433" stroke="white" stroke-width="1.32889"/>
<rect x="939.671" y="130.98" width="62.6433" height="62.6433" stroke="white" stroke-width="1.32889"/>
<rect x="1002.31" y="130.98" width="62.6433" height="62.6433" stroke="white" stroke-width="1.32889"/>
<rect x="1064.96" y="130.98" width="62.6433" height="62.6433" stroke="white" stroke-width="1.32889"/>
<rect x="1127.6" y="130.98" width="62.6433" height="62.6433" stroke="white" stroke-width="1.32889"/>
<rect x="1190.24" y="130.98" width="62.6433" height="62.6433" stroke="white" stroke-width="1.32889"/>
<rect x="1252.89" y="130.98" width="62.6433" height="62.6433" stroke="white" stroke-width="1.32889"/>
<rect x="1315.53" y="130.98" width="62.6433" height="62.6433" stroke="white" stroke-width="1.32889"/>
<rect x="1378.17" y="130.98" width="62.6433" height="62.6433" stroke="white" stroke-width="1.32889"/>
<rect x="62.6644" y="193.581" width="62.6433" height="62.6433" stroke="white" stroke-width="1.32889"/>
<rect x="125.308" y="193.581" width="62.6433" height="62.6433" stroke="white" stroke-width="1.32889"/>
<rect x="187.952" y="193.581" width="62.6433" height="62.6433" stroke="white" stroke-width="1.32889"/>
<rect x="250.594" y="193.581" width="62.6433" height="62.6433" stroke="white" stroke-width="1.32889"/>
<rect x="313.238" y="193.581" width="62.6433" height="62.6433" stroke="white" stroke-width="1.32889"/>
<rect x="375.881" y="193.581" width="62.6433" height="62.6433" stroke="white" stroke-width="1.32889"/>
<rect x="438.525" y="193.581" width="62.6433" height="62.6433" stroke="white" stroke-width="1.32889"/>
<rect x="501.167" y="193.581" width="62.6433" height="62.6433" stroke="white" stroke-width="1.32889"/>
<rect x="563.811" y="193.581" width="62.6433" height="62.6433" fill="#ABABAB" stroke="white" stroke-width="1.32889"/>
<rect x="626.454" y="193.581" width="62.6433" height="62.6433" stroke="white" stroke-width="1.32889"/>
<rect x="689.098" y="193.581" width="62.6433" height="62.6433" stroke="white" stroke-width="1.32889"/>
<path d="M751.741 193.581H814.384V256.225H751.741V193.581Z" fill="#ABABAB" stroke="white" stroke-width="1.32889"/>
<rect x="814.384" y="193.581" width="62.6433" height="62.6433" stroke="white" stroke-width="1.32889"/>
<rect x="877.028" y="193.581" width="62.6433" height="62.6433" stroke="white" stroke-width="1.32889"/>
<rect x="939.671" y="193.581" width="62.6433" height="62.6433" stroke="white" stroke-width="1.32889"/>
<rect x="1002.31" y="193.581" width="62.6433" height="62.6433" stroke="white" stroke-width="1.32889"/>
<rect x="1064.96" y="193.581" width="62.6433" height="62.6433" stroke="white" stroke-width="1.32889"/>
<rect x="1127.6" y="193.581" width="62.6433" height="62.6433" stroke="white" stroke-width="1.32889"/>
<rect x="1190.24" y="193.581" width="62.6433" height="62.6433" stroke="white" stroke-width="1.32889"/>
<rect x="1252.89" y="193.581" width="62.6433" height="62.6433" stroke="white" stroke-width="1.32889"/>
<rect x="1315.53" y="193.581" width="62.6433" height="62.6433" stroke="white" stroke-width="1.32889"/>
<rect x="1378.17" y="193.581" width="62.6433" height="62.6433" stroke="white" stroke-width="1.32889"/>
<rect x="62.6644" y="256.183" width="62.6433" height="62.6433" stroke="white" stroke-width="1.32889"/>
<rect x="125.308" y="256.183" width="62.6433" height="62.6433" stroke="white" stroke-width="1.32889"/>
<rect x="187.952" y="256.183" width="62.6433" height="62.6433" stroke="white" stroke-width="1.32889"/>
<rect x="250.594" y="256.183" width="62.6433" height="62.6433" stroke="white" stroke-width="1.32889"/>
<rect x="313.238" y="256.183" width="62.6433" height="62.6433" stroke="white" stroke-width="1.32889"/>
<rect x="375.881" y="256.183" width="62.6433" height="62.6433" stroke="white" stroke-width="1.32889"/>
<rect x="438.525" y="256.183" width="62.6433" height="62.6433" stroke="white" stroke-width="1.32889"/>
<rect x="501.167" y="256.183" width="62.6433" height="62.6433" stroke="white" stroke-width="1.32889"/>
<rect x="563.811" y="256.183" width="62.6433" height="62.6433" stroke="white" stroke-width="1.32889"/>
<rect x="626.454" y="256.183" width="62.6433" height="62.6433" stroke="white" stroke-width="1.32889"/>
<rect x="689.098" y="256.183" width="62.6433" height="62.6433" stroke="white" stroke-width="1.32889"/>
<rect x="751.741" y="256.183" width="62.6433" height="62.6433" stroke="white" stroke-width="1.32889"/>
<rect x="814.384" y="256.183" width="62.6433" height="62.6433" stroke="white" stroke-width="1.32889"/>
<rect x="877.028" y="256.183" width="62.6433" height="62.6433" stroke="white" stroke-width="1.32889"/>
<rect x="939.671" y="256.183" width="62.6433" height="62.6433" stroke="white" stroke-width="1.32889"/>
<rect x="1002.31" y="256.183" width="62.6433" height="62.6433" stroke="white" stroke-width="1.32889"/>
<rect x="1064.96" y="256.183" width="62.6433" height="62.6433" stroke="white" stroke-width="1.32889"/>
<rect x="1127.6" y="256.183" width="62.6433" height="62.6433" stroke="white" stroke-width="1.32889"/>
<rect x="1190.24" y="256.183" width="62.6433" height="62.6433" stroke="white" stroke-width="1.32889"/>
<rect x="1252.89" y="256.183" width="62.6433" height="62.6433" stroke="white" stroke-width="1.32889"/>
<rect x="1315.53" y="256.183" width="62.6433" height="62.6433" stroke="white" stroke-width="1.32889"/>
<rect x="1378.17" y="256.183" width="62.6433" height="62.6433" stroke="white" stroke-width="1.32889"/>
<rect x="62.6644" y="318.785" width="62.6433" height="62.6433" stroke="white" stroke-width="1.32889"/>
<rect x="125.308" y="318.785" width="62.6433" height="62.6433" stroke="white" stroke-width="1.32889"/>
<rect x="187.952" y="318.785" width="62.6433" height="62.6433" stroke="white" stroke-width="1.32889"/>
<rect x="250.594" y="318.785" width="62.6433" height="62.6433" stroke="white" stroke-width="1.32889"/>
<rect x="313.238" y="318.785" width="62.6433" height="62.6433" stroke="white" stroke-width="1.32889"/>
<rect x="375.881" y="318.785" width="62.6433" height="62.6433" stroke="white" stroke-width="1.32889"/>
<rect x="438.525" y="318.785" width="62.6433" height="62.6433" stroke="white" stroke-width="1.32889"/>
<rect x="501.167" y="318.785" width="62.6433" height="62.6433" stroke="white" stroke-width="1.32889"/>
<rect x="563.811" y="318.785" width="62.6433" height="62.6433" stroke="white" stroke-width="1.32889"/>
<rect x="626.454" y="318.785" width="62.6433" height="62.6433" stroke="white" stroke-width="1.32889"/>
<rect x="689.098" y="318.785" width="62.6433" height="62.6433" stroke="white" stroke-width="1.32889"/>
<rect x="751.741" y="318.785" width="62.6433" height="62.6433" stroke="white" stroke-width="1.32889"/>
<rect x="814.384" y="318.785" width="62.6433" height="62.6433" stroke="white" stroke-width="1.32889"/>
<rect x="877.028" y="318.785" width="62.6433" height="62.6433" stroke="white" stroke-width="1.32889"/>
<rect x="939.671" y="318.785" width="62.6433" height="62.6433" stroke="white" stroke-width="1.32889"/>
<rect x="1002.31" y="318.785" width="62.6433" height="62.6433" stroke="white" stroke-width="1.32889"/>
<rect x="1064.96" y="318.785" width="62.6433" height="62.6433" stroke="white" stroke-width="1.32889"/>
<rect x="1127.6" y="318.785" width="62.6433" height="62.6433" stroke="white" stroke-width="1.32889"/>
<rect x="1190.24" y="318.785" width="62.6433" height="62.6433" stroke="white" stroke-width="1.32889"/>
<rect x="1252.89" y="318.785" width="62.6433" height="62.6433" stroke="white" stroke-width="1.32889"/>
<rect x="1315.53" y="318.785" width="62.6433" height="62.6433" stroke="white" stroke-width="1.32889"/>
<rect x="1378.17" y="318.785" width="62.6433" height="62.6433" stroke="white" stroke-width="1.32889"/>
<rect x="62.6644" y="381.386" width="62.6433" height="62.6433" stroke="white" stroke-width="1.32889"/>
<rect x="125.308" y="381.386" width="62.6433" height="62.6433" stroke="white" stroke-width="1.32889"/>
<rect x="187.952" y="381.386" width="62.6433" height="62.6433" stroke="white" stroke-width="1.32889"/>
<rect x="250.594" y="381.386" width="62.6433" height="62.6433" stroke="white" stroke-width="1.32889"/>
<rect x="313.238" y="381.386" width="62.6433" height="62.6433" stroke="white" stroke-width="1.32889"/>
<rect x="375.881" y="381.386" width="62.6433" height="62.6433" stroke="white" stroke-width="1.32889"/>
<rect x="438.525" y="381.386" width="62.6433" height="62.6433" stroke="white" stroke-width="1.32889"/>
<rect x="501.167" y="381.386" width="62.6433" height="62.6433" stroke="white" stroke-width="1.32889"/>
<rect x="563.811" y="381.386" width="62.6433" height="62.6433" stroke="white" stroke-width="1.32889"/>
<rect x="626.454" y="381.386" width="62.6433" height="62.6433" stroke="white" stroke-width="1.32889"/>
<rect x="689.098" y="381.386" width="62.6433" height="62.6433" stroke="white" stroke-width="1.32889"/>
<rect x="751.741" y="381.386" width="62.6433" height="62.6433" stroke="white" stroke-width="1.32889"/>
<rect x="814.384" y="381.386" width="62.6433" height="62.6433" stroke="white" stroke-width="1.32889"/>
<rect x="877.028" y="381.386" width="62.6433" height="62.6433" stroke="white" stroke-width="1.32889"/>
<rect x="939.671" y="381.386" width="62.6433" height="62.6433" stroke="white" stroke-width="1.32889"/>
<rect x="1002.31" y="381.386" width="62.6433" height="62.6433" stroke="white" stroke-width="1.32889"/>
<rect x="1064.96" y="381.386" width="62.6433" height="62.6433" stroke="white" stroke-width="1.32889"/>
<rect x="1127.6" y="381.386" width="62.6433" height="62.6433" stroke="white" stroke-width="1.32889"/>
<rect x="1190.24" y="381.386" width="62.6433" height="62.6433" stroke="white" stroke-width="1.32889"/>
<rect x="1252.89" y="381.386" width="62.6433" height="62.6433" stroke="white" stroke-width="1.32889"/>
<rect x="1315.53" y="381.386" width="62.6433" height="62.6433" stroke="white" stroke-width="1.32889"/>
<rect x="1378.17" y="381.386" width="62.6433" height="62.6433" stroke="white" stroke-width="1.32889"/>
<rect x="62.6644" y="443.987" width="62.6433" height="62.6433" stroke="white" stroke-width="1.32889"/>
<rect x="125.308" y="443.987" width="62.6433" height="62.6433" stroke="white" stroke-width="1.32889"/>
<rect x="187.952" y="443.987" width="62.6433" height="62.6433" stroke="white" stroke-width="1.32889"/>
<rect x="250.594" y="443.987" width="62.6433" height="62.6433" stroke="white" stroke-width="1.32889"/>
<rect x="313.238" y="443.987" width="62.6433" height="62.6433" stroke="white" stroke-width="1.32889"/>
<rect x="375.881" y="443.987" width="62.6433" height="62.6433" stroke="white" stroke-width="1.32889"/>
<rect x="438.525" y="443.987" width="62.6433" height="62.6433" stroke="white" stroke-width="1.32889"/>
<rect x="501.167" y="443.987" width="62.6433" height="62.6433" stroke="white" stroke-width="1.32889"/>
<rect x="563.811" y="443.987" width="62.6433" height="62.6433" stroke="white" stroke-width="1.32889"/>
<rect x="626.454" y="443.987" width="62.6433" height="62.6433" stroke="white" stroke-width="1.32889"/>
<rect x="689.098" y="443.987" width="62.6433" height="62.6433" stroke="white" stroke-width="1.32889"/>
<rect x="751.741" y="443.987" width="62.6433" height="62.6433" stroke="white" stroke-width="1.32889"/>
<rect x="814.384" y="443.987" width="62.6433" height="62.6433" stroke="white" stroke-width="1.32889"/>
<rect x="877.028" y="443.987" width="62.6433" height="62.6433" stroke="white" stroke-width="1.32889"/>
<rect x="939.671" y="443.987" width="62.6433" height="62.6433" stroke="white" stroke-width="1.32889"/>
<rect x="1002.31" y="443.987" width="62.6433" height="62.6433" stroke="white" stroke-width="1.32889"/>
<rect x="1064.96" y="443.987" width="62.6433" height="62.6433" stroke="white" stroke-width="1.32889"/>
<rect x="1127.6" y="443.987" width="62.6433" height="62.6433" stroke="white" stroke-width="1.32889"/>
<rect x="1190.24" y="443.987" width="62.6433" height="62.6433" stroke="white" stroke-width="1.32889"/>
<rect x="1252.89" y="443.987" width="62.6433" height="62.6433" stroke="white" stroke-width="1.32889"/>
<rect x="1315.53" y="443.987" width="62.6433" height="62.6433" stroke="white" stroke-width="1.32889"/>
<rect x="1378.17" y="443.987" width="62.6433" height="62.6433" stroke="white" stroke-width="1.32889"/>
</g>
</g>
<defs>
<radialGradient id="paint0_radial_608_3316" cx="0" cy="0" r="1" gradientUnits="userSpaceOnUse" gradientTransform="translate(720 165.5) rotate(90) scale(352.068 811.166)">
<stop stop-color="#27332D" stop-opacity="0.15"/>
<stop offset="0.50482" stop-color="#27332D" stop-opacity="0"/>
</radialGradient>
<clipPath id="clip0_608_3316">
<rect width="1440" height="541" fill="white"/>
</clipPath>
</defs>
</svg>
