<svg width="335" height="485" viewBox="0 0 335 485" fill="none" xmlns="http://www.w3.org/2000/svg">
<g opacity="0.05">
<path fill-rule="evenodd" clip-rule="evenodd" d="M228.634 42.0338C188.373 14.5927 140.749 -0.0588228 92.0058 0.000177492H86.5019C84.3728 30.0551 77.8275 59.6337 67.0762 87.7857C124.843 94.168 182.82 77.7493 228.634 42.0338ZM53.8137 3.07183C47.3385 58.8472 26.456 110.096 -15.7951 142.429L-31.3358 154.555C-42.9269 124.321 -59.3257 96.1518 -79.9002 71.1339C-43.6437 34.9148 3.16405 11.089 53.8137 3.07183ZM48.9487 379.274C56.2038 379.276 63.4506 379.762 70.6407 380.729L99.2938 387.519C84.7286 418.068 75.4771 450.87 71.9358 484.52C19.2656 480.233 -30.5462 458.824 -69.8725 423.571C-36.201 396.193 5.54933 380.628 48.9487 379.274ZM-58.5369 249.291C-52.1346 194.36 -67.5345 139.111 -101.436 95.3838C-131.186 134.79 -148.134 182.353 -150 231.67C-118.911 235.076 -88.5138 243.143 -59.832 255.596L-58.5369 249.291ZM-148.705 268.045C-97.9448 274.123 -51.5222 299.622 -19.2 339.179L-8.67781 358.903C-38.166 369.047 -65.865 383.779 -90.7515 402.553C-123.486 364.752 -143.727 317.774 -148.705 268.045ZM331.115 202.73C274.456 198.204 217.798 182.037 185.421 140.973L167.776 117.37C200.14 105.066 230.024 87.0498 256.002 64.1811C295.852 100.674 322.299 149.457 331.115 202.73ZM227.829 239.918C220.382 294.239 242.075 351.631 278.012 398.676C314.922 355.062 335.117 299.771 334.995 242.667V236.362C300.059 234.118 265.775 225.859 233.657 211.95L227.829 239.918ZM105.132 485C111.121 431.488 129.738 385.089 171.342 352.756L201.613 334.002C213.164 366.998 230.363 397.74 252.444 424.86C211.56 460.962 159.632 482.162 105.132 485Z" fill="url(#paint0_linear_537_26)"/>
</g>
<defs>
<linearGradient id="paint0_linear_537_26" x1="92.4976" y1="0" x2="92.4976" y2="485" gradientUnits="userSpaceOnUse">
<stop stop-color="#27332D" stop-opacity="0.5"/>
<stop offset="1" stop-color="#27332D"/>
</linearGradient>
</defs>
</svg>
