<svg width="318" height="273" viewBox="0 0 318 273" fill="none" xmlns="http://www.w3.org/2000/svg">
<g style="mix-blend-mode:luminosity">
<path d="M426.904 -309.193L426.904 -354.974L374.663 -354.974M426.904 -309.193L374.663 -309.193M426.904 -309.193L426.904 -263.413M374.663 -309.193L374.663 -354.974M374.663 -309.193L374.663 -263.413M374.663 -309.193L322.422 -309.193M374.663 -354.974L322.422 -354.974M426.904 -263.413L374.663 -263.413M426.904 -263.413L426.904 -217.633M374.663 -263.413L374.663 -217.633M374.663 -263.413L322.422 -263.413M426.904 -217.633L374.663 -217.633M426.904 -217.633L426.904 -171.853M374.663 -217.633L374.663 -171.853M374.663 -217.633L322.422 -217.633M426.904 -171.853L374.663 -171.853M426.904 -171.853L426.904 -126.073M374.663 -171.853L374.663 -126.073M374.663 -171.853L322.422 -171.853M426.904 -126.073L374.663 -126.073M426.904 -126.073L426.904 -80.2927M374.663 -126.073L374.663 -80.2927M374.663 -126.073L322.422 -126.073M426.904 -80.2927L374.663 -80.2927M426.904 -80.2927L426.904 -34.5126M374.663 -80.2927L374.663 -34.5126M374.663 -80.2927L322.422 -80.2927M426.904 -34.5126L374.663 -34.5126M426.904 -34.5126L426.904 11.2676M374.663 -34.5126L374.663 11.2676M374.663 -34.5126L322.422 -34.5126M426.904 11.2676L374.663 11.2676M426.904 11.2676L426.904 57.0477M374.663 11.2676L374.663 57.0477M374.663 11.2676L322.422 11.2676M426.904 57.0477L374.663 57.0477M426.904 57.0477L426.904 102.828M374.663 57.0477L374.663 102.828M374.663 57.0477L322.422 57.0477M426.904 102.828L374.663 102.828M426.904 102.828L426.904 148.608M374.663 102.828L374.663 148.608M374.663 102.828L322.422 102.828M426.904 148.608L374.663 148.608M426.904 148.608L426.904 194.388M374.663 148.608L374.663 194.388M374.663 148.608L322.422 148.608M426.904 194.388L374.663 194.388M426.904 194.388L426.904 240.168M374.663 194.388L374.663 240.168M374.663 194.388L322.422 194.388M426.904 240.168L374.663 240.168M426.904 240.168L426.904 285.948M374.663 240.168L374.663 285.948M374.663 240.168L322.422 240.168M426.904 285.948L374.663 285.948M426.904 285.948L426.904 331.729M374.663 285.948L374.663 331.729M374.663 285.948L322.422 285.948M426.904 331.729L374.663 331.729M426.904 331.729L426.904 377.509M374.663 331.729L374.663 377.509M374.663 331.729L322.422 331.729M426.904 377.509L374.663 377.509M426.904 377.509L426.904 423.289L374.663 423.289M374.663 377.509L374.663 423.289M374.663 377.509L322.422 377.509M374.663 423.289L322.422 423.289M322.422 -309.193L322.422 -354.974M322.422 -309.193L322.422 -263.413M322.422 -309.193L270.18 -309.193M322.422 -354.974L270.18 -354.974M322.422 -263.413L322.422 -217.633M322.422 -263.413L270.18 -263.413M322.422 -217.633L322.422 -171.853M322.422 -217.633L270.18 -217.633M322.422 -171.853L322.422 -126.073M322.422 -171.853L270.18 -171.853M322.422 -126.073L322.422 -80.2927M322.422 -126.073L270.18 -126.073M322.422 -80.2927L322.422 -34.5126M322.422 -80.2927L270.18 -80.2927M322.422 -34.5126L322.422 11.2676M322.422 -34.5126L270.18 -34.5126M322.422 11.2676L322.422 57.0477M322.422 11.2676L270.18 11.2676M322.422 57.0477L322.422 102.828M322.422 57.0477L270.18 57.0477M322.422 102.828L322.422 148.608M322.422 102.828L270.18 102.828M322.422 148.608L322.422 194.388M322.422 148.608L270.18 148.608M322.422 194.388L322.422 240.168M322.422 194.388L270.18 194.388M322.422 240.168L322.422 285.948M322.422 240.168L270.18 240.168M322.422 285.948L322.422 331.729M322.422 285.948L270.18 285.948M322.422 331.729L322.422 377.509M322.422 331.729L270.18 331.729M322.422 377.509L322.422 423.289M322.422 377.509L270.18 377.509M322.422 423.289L270.18 423.289M270.18 -309.193L270.18 -354.974M270.18 -309.193L270.18 -263.413M270.18 -309.193L217.939 -309.193M270.18 -354.974L217.939 -354.974M270.18 -263.413L270.18 -217.633M270.18 -263.413L217.939 -263.413M270.18 -217.633L270.18 -171.853M270.18 -217.633L217.939 -217.633M270.18 -171.853L270.18 -126.073M270.18 -171.853L217.939 -171.853M270.18 -126.073L270.18 -80.2927M270.18 -126.073L217.939 -126.073M270.18 -80.2927L270.18 -34.5126M270.18 -80.2927L217.939 -80.2927M270.18 -34.5126L270.18 11.2676M270.18 -34.5126L217.939 -34.5126M270.18 11.2676L270.18 57.0477M270.18 11.2676L217.939 11.2676M270.18 57.0477L270.18 102.828M270.18 57.0477L217.939 57.0477M270.18 102.828L270.18 148.608M270.18 102.828L217.939 102.828M270.18 148.608L270.18 194.388M270.18 148.608L217.939 148.608M270.18 194.388L270.18 240.168M270.18 194.388L217.939 194.388M270.18 240.168L270.18 285.948M270.18 240.168L217.939 240.168M270.18 285.948L270.18 331.729M270.18 285.948L217.939 285.948M270.18 331.729L270.18 377.509M270.18 331.729L217.939 331.729M270.18 377.509L270.18 423.289M270.18 377.509L217.939 377.509M270.18 423.289L217.939 423.289M217.939 -309.193L217.939 -354.974M217.939 -309.193L217.939 -263.413M217.939 -309.193L165.697 -309.193M217.939 -354.974L165.697 -354.974M217.939 -263.413L217.939 -217.633M217.939 -263.413L165.697 -263.413M217.939 -217.633L217.939 -171.853M217.939 -217.633L165.697 -217.633M217.939 -171.853L217.939 -126.073M217.939 -171.853L165.697 -171.853M217.939 -126.073L217.939 -80.2927M217.939 -126.073L165.697 -126.073M217.939 -80.2927L217.939 -34.5126M217.939 -80.2927L165.697 -80.2927M217.939 -34.5126L217.939 11.2676M217.939 -34.5126L165.697 -34.5126M217.939 11.2676L217.939 57.0477M217.939 11.2676L165.697 11.2676M217.939 57.0477L217.939 102.828M217.939 57.0477L165.697 57.0477M217.939 102.828L217.939 148.608M217.939 102.828L165.697 102.828M217.939 148.608L217.939 194.388M217.939 148.608L165.697 148.608M217.939 194.388L217.939 240.168M217.939 194.388L165.697 194.388M217.939 240.168L217.939 285.948M217.939 240.168L165.697 240.168M217.939 285.948L217.939 331.729M217.939 285.948L165.697 285.948M217.939 331.729L217.939 377.509M217.939 331.729L165.697 331.729M217.939 377.509L217.939 423.289M217.939 377.509L165.697 377.509M217.939 423.289L165.697 423.289M165.697 -309.193L165.697 -354.974M165.697 -309.193L165.697 -263.413M165.697 -309.193L113.456 -309.193M165.697 -354.974L113.456 -354.974M165.697 -263.413L165.697 -217.633M165.697 -263.413L113.456 -263.413M165.697 -217.633L165.697 -171.853M165.697 -217.633L113.456 -217.633M165.697 -171.853L165.697 -126.073M165.697 -171.853L113.456 -171.853M165.697 -126.073L165.697 -80.2927M165.697 -126.073L113.456 -126.073M165.697 -80.2927L165.697 -34.5126M165.697 -80.2927L113.456 -80.2927M165.697 -34.5126L165.697 11.2676M165.697 -34.5126L113.456 -34.5126M165.697 11.2676L165.697 57.0477M165.697 11.2676L113.456 11.2676M165.697 57.0477L165.697 102.828M165.697 57.0477L113.456 57.0477M165.697 102.828L165.697 148.608M165.697 102.828L113.456 102.828M165.697 148.608L165.697 194.388M165.697 148.608L113.456 148.608M165.697 194.388L165.697 240.168M165.697 194.388L113.456 194.388M165.697 240.168L165.697 285.948M165.697 240.168L113.456 240.168M165.697 285.948L165.697 331.729M165.697 285.948L113.456 285.948M165.697 331.729L165.697 377.509M165.697 331.729L113.456 331.729M165.697 377.509L165.697 423.289M165.697 377.509L113.456 377.509M165.697 423.289L113.456 423.289M113.456 -309.193L113.456 -354.974M113.456 -309.193L113.456 -263.413M113.456 -309.193L61.2147 -309.193M113.456 -354.974L61.2147 -354.974M113.456 -263.413L113.456 -217.633M113.456 -263.413L61.2147 -263.413M113.456 -217.633L113.456 -171.853M113.456 -217.633L61.2147 -217.633M113.456 -171.853L113.456 -126.073M113.456 -171.853L61.2147 -171.853M113.456 -126.073L113.456 -80.2927M113.456 -126.073L61.2147 -126.073M113.456 -80.2927L113.456 -34.5126M113.456 -80.2927L61.2147 -80.2927M113.456 -34.5126L113.456 11.2676M113.456 -34.5126L61.2147 -34.5126M113.456 11.2676L113.456 57.0477M113.456 11.2676L61.2147 11.2676M113.456 57.0477L113.456 102.828M113.456 57.0477L61.2147 57.0477M113.456 102.828L113.456 148.608M113.456 102.828L61.2147 102.828M113.456 148.608L113.456 194.388M113.456 148.608L61.2147 148.608M113.456 194.388L113.456 240.168M113.456 194.388L61.2147 194.388M113.456 240.168L113.456 285.948M113.456 240.168L61.2147 240.168M113.456 285.948L113.456 331.729M113.456 285.948L61.2147 285.948M113.456 331.729L113.456 377.509M113.456 331.729L61.2147 331.729M113.456 377.509L113.456 423.289M113.456 377.509L61.2147 377.509M113.456 423.289L61.2147 423.289M61.2147 -309.193L61.2147 -354.974M61.2147 -309.193L61.2147 -263.413M61.2147 -309.193L8.97332 -309.193M61.2147 -354.974L8.97332 -354.974M61.2147 -263.413L61.2147 -217.633M61.2147 -263.413L8.97332 -263.413M61.2147 -217.633L61.2147 -171.853M61.2147 -217.633L8.97331 -217.633M61.2147 -171.853L61.2147 -126.073M61.2147 -171.853L8.97331 -171.853M61.2147 -126.073L61.2147 -80.2927M61.2147 -126.073L8.97331 -126.073M61.2147 -80.2927L61.2147 -34.5126M61.2147 -80.2927L8.97331 -80.2927M61.2147 -34.5126L61.2147 11.2676M61.2147 -34.5126L8.97331 -34.5126M61.2147 11.2676L61.2147 57.0477M61.2147 11.2676L8.9733 11.2676M61.2147 57.0477L61.2147 102.828M61.2147 57.0477L8.9733 57.0477M61.2147 102.828L61.2147 148.608M61.2147 102.828L8.9733 102.828M61.2147 148.608L61.2147 194.388M61.2147 148.608L8.9733 148.608M61.2147 194.388L61.2147 240.168M61.2147 194.388L8.9733 194.388M61.2147 240.168L61.2147 285.948M61.2147 240.168L8.97329 240.168M61.2147 285.948L61.2147 331.729M61.2147 285.948L8.97329 285.948M61.2147 331.729L61.2147 377.509M61.2147 331.729L8.97329 331.729M61.2147 377.509L61.2147 423.289M61.2147 377.509L8.97329 377.509M61.2147 423.289L8.97329 423.289M8.97332 -309.193L8.97332 -354.974M8.97332 -309.193L8.97332 -263.413M8.97332 -309.193L-43.2681 -309.194M8.97332 -354.974L-43.2681 -354.974M8.97332 -263.413L8.97331 -217.633M8.97332 -263.413L-43.2681 -263.413M8.97331 -217.633L8.97331 -171.853M8.97331 -217.633L-43.2681 -217.633M8.97331 -171.853L8.97331 -126.073M8.97331 -171.853L-43.2681 -171.853M8.97331 -126.073L8.97331 -80.2927M8.97331 -126.073L-43.2681 -126.073M8.97331 -80.2927L8.97331 -34.5126M8.97331 -80.2927L-43.2681 -80.2927M8.97331 -34.5126L8.9733 11.2676M8.97331 -34.5126L-43.2681 -34.5126M8.9733 11.2676L8.9733 57.0477M8.9733 11.2676L-43.2681 11.2676M8.9733 57.0477L8.9733 102.828M8.9733 57.0477L-43.2681 57.0477M8.9733 102.828L8.9733 148.608M8.9733 102.828L-43.2681 102.828M8.9733 148.608L8.9733 194.388M8.9733 148.608L-43.2681 148.608M8.9733 194.388L8.97329 240.168M8.9733 194.388L-43.2681 194.388M8.97329 240.168L8.97329 285.948M8.97329 240.168L-43.2681 240.168M8.97329 285.948L8.97329 331.729M8.97329 285.948L-43.2681 285.948M8.97329 331.729L8.97329 377.509M8.97329 331.729L-43.2681 331.729M8.97329 377.509L8.97329 423.289M8.97329 377.509L-43.2681 377.509M8.97329 423.289L-43.2681 423.289M-43.2681 -309.194L-43.2681 -354.974M-43.2681 -309.194L-43.2681 -263.413M-43.2681 -309.194L-95.5094 -309.194M-43.2681 -354.974L-95.5094 -354.974M-43.2681 -263.413L-43.2681 -217.633M-43.2681 -263.413L-95.5094 -263.413M-43.2681 -217.633L-43.2681 -171.853M-43.2681 -217.633L-95.5094 -217.633M-43.2681 -171.853L-43.2681 -126.073M-43.2681 -171.853L-95.5094 -171.853M-43.2681 -126.073L-43.2681 -80.2927M-43.2681 -126.073L-95.5094 -126.073M-43.2681 -80.2927L-43.2681 -34.5126M-43.2681 -80.2927L-95.5094 -80.2927M-43.2681 -34.5126L-43.2681 11.2676M-43.2681 -34.5126L-95.5094 -34.5126M-43.2681 11.2676L-43.2681 57.0477M-43.2681 11.2676L-95.5094 11.2676M-43.2681 57.0477L-43.2681 102.828M-43.2681 57.0477L-95.5094 57.0477M-43.2681 102.828L-43.2681 148.608M-43.2681 102.828L-95.5094 102.828M-43.2681 148.608L-43.2681 194.388M-43.2681 148.608L-95.5094 148.608M-43.2681 194.388L-43.2681 240.168M-43.2681 194.388L-95.5094 194.388M-43.2681 240.168L-43.2681 285.948M-43.2681 240.168L-95.5095 240.168M-43.2681 285.948L-43.2681 331.729M-43.2681 285.948L-95.5095 285.948M-43.2681 331.729L-43.2681 377.509M-43.2681 331.729L-95.5095 331.729M-43.2681 377.509L-43.2681 423.289M-43.2681 377.509L-95.5095 377.509M-43.2681 423.289L-95.5095 423.289M-95.5094 -309.194L-95.5094 -354.974M-95.5094 -309.194L-95.5094 -263.413M-95.5094 -309.194L-147.751 -309.194M-95.5094 -354.974L-147.751 -354.974M-95.5094 -263.413L-95.5094 -217.633M-95.5094 -263.413L-147.751 -263.413M-95.5094 -217.633L-95.5094 -171.853M-95.5094 -217.633L-147.751 -217.633M-95.5094 -171.853L-95.5094 -126.073M-95.5094 -171.853L-147.751 -171.853M-95.5094 -126.073L-95.5094 -80.2927M-95.5094 -126.073L-147.751 -126.073M-95.5094 -80.2927L-95.5094 -34.5126M-95.5094 -80.2927L-147.751 -80.2927M-95.5094 -34.5126L-95.5094 11.2676M-95.5094 -34.5126L-147.751 -34.5126M-95.5094 11.2676L-95.5094 57.0477M-95.5094 11.2676L-147.751 11.2676M-95.5094 57.0477L-95.5094 102.828M-95.5094 57.0477L-147.751 57.0477M-95.5094 102.828L-95.5094 148.608M-95.5094 102.828L-147.751 102.828M-95.5094 148.608L-95.5094 194.388M-95.5094 148.608L-147.751 148.608M-95.5094 194.388L-95.5095 240.168M-95.5094 194.388L-147.751 194.388M-95.5095 240.168L-95.5095 285.948M-95.5095 240.168L-147.751 240.168M-95.5095 285.948L-95.5095 331.729M-95.5095 285.948L-147.751 285.948M-95.5095 331.729L-95.5095 377.509M-95.5095 331.729L-147.751 331.729M-95.5095 377.509L-95.5095 423.289M-95.5095 377.509L-147.751 377.509M-95.5095 423.289L-147.751 423.289M-147.751 -309.194L-147.751 -354.974M-147.751 -309.194L-147.751 -263.413M-147.751 -309.194L-199.992 -309.194M-147.751 -354.974L-199.992 -354.974L-199.992 -309.194M-147.751 -263.413L-147.751 -217.633M-147.751 -263.413L-199.992 -263.413M-147.751 -217.633L-147.751 -171.853M-147.751 -217.633L-199.992 -217.633M-147.751 -171.853L-147.751 -126.073M-147.751 -171.853L-199.992 -171.853M-147.751 -126.073L-147.751 -80.2927M-147.751 -126.073L-199.992 -126.073M-147.751 -80.2927L-147.751 -34.5126M-147.751 -80.2927L-199.992 -80.2927M-147.751 -34.5126L-147.751 11.2676M-147.751 -34.5126L-199.992 -34.5126M-147.751 11.2676L-147.751 57.0477M-147.751 11.2676L-199.992 11.2676M-147.751 57.0477L-147.751 102.828M-147.751 57.0477L-199.992 57.0477M-147.751 102.828L-147.751 148.608M-147.751 102.828L-199.992 102.828M-147.751 148.608L-147.751 194.388M-147.751 148.608L-199.992 148.608M-147.751 194.388L-147.751 240.168M-147.751 194.388L-199.992 194.388M-147.751 240.168L-147.751 285.948M-147.751 240.168L-199.992 240.168M-147.751 285.948L-147.751 331.729M-147.751 285.948L-199.992 285.948M-147.751 331.729L-147.751 377.509M-147.751 331.729L-199.992 331.729M-147.751 377.509L-147.751 423.289M-147.751 377.509L-199.992 377.509M-147.751 423.289L-199.992 423.289L-199.992 377.509M-199.992 -309.194L-199.992 -263.413M-199.992 -263.413L-199.992 -217.633M-199.992 -217.633L-199.992 -171.853M-199.992 -171.853L-199.992 -126.073M-199.992 -126.073L-199.992 -80.2927M-199.992 -80.2927L-199.992 -34.5126M-199.992 -34.5126L-199.992 11.2676M-199.992 11.2676L-199.992 57.0477M-199.992 57.0477L-199.992 102.828M-199.992 102.828L-199.992 148.608M-199.992 148.608L-199.992 194.388M-199.992 194.388L-199.992 240.168M-199.992 240.168L-199.992 285.948M-199.992 285.948L-199.992 331.729M-199.992 331.729L-199.992 377.509" stroke="url(#paint0_linear_556_845)" stroke-width="1.33952"/>
</g>
<defs>
<linearGradient id="paint0_linear_556_845" x1="-0.403404" y1="1.33934" x2="323.761" y2="290.676" gradientUnits="userSpaceOnUse">
<stop offset="0.418017" stop-color="#01DA63" stop-opacity="0"/>
<stop offset="1" stop-color="#01DA63" stop-opacity="0.25"/>
</linearGradient>
</defs>
</svg>
