<svg width="108" height="129" viewBox="0 0 108 129" fill="none" xmlns="http://www.w3.org/2000/svg">
<path d="M16.3018 83.4584L5.39127 86.3957L16.3018 89.333C30.1225 93.055 40.9194 103.85 44.6402 117.67L47.5723 128.579L50.5098 117.67C54.2321 103.85 65.0278 93.0536 78.8482 89.333L89.7588 86.3957L78.8482 83.4584C65.0275 79.7363 54.2307 68.9413 50.5098 55.1218L47.5723 44.2119L44.6348 55.1218C40.918 68.9472 30.1236 79.7419 16.3018 83.4584Z" fill="url(#paint0_linear_556_837)"/>
<path d="M7.02304 23.1637L0.83057 24.8308L7.02304 26.4979C14.8672 28.6104 20.9952 34.7374 23.107 42.5809L24.7712 48.7729L26.4384 42.5809C28.551 34.7372 34.6783 28.6096 42.5224 26.4979L48.7148 24.8308L42.5224 23.1637C34.6782 21.0512 28.5502 14.9243 26.4384 7.08075L24.7712 0.888672L23.1039 7.08075C20.9944 14.9276 14.8679 21.0543 7.02304 23.1637Z" fill="url(#paint1_linear_556_837)"/>
<path d="M70.2788 39.2825L64.6761 40.7908L70.2788 42.2992C77.376 44.2105 82.9203 49.7539 84.831 56.8504L86.3367 62.4528L87.8451 56.8504C89.7566 49.7538 95.3003 44.2098 102.397 42.2992L108 40.7908L102.397 39.2825C95.3002 37.3712 89.7558 31.8278 87.8451 24.7313L86.3367 19.1289L84.8282 24.7313C82.9196 31.8308 77.3765 37.374 70.2788 39.2825Z" fill="#D8FFE9"/>
<defs>
<linearGradient id="paint0_linear_556_837" x1="47.575" y1="128.579" x2="47.575" y2="44.2119" gradientUnits="userSpaceOnUse">
<stop stop-color="#00D25F"/>
<stop offset="1" stop-color="#56FFA2"/>
</linearGradient>
<linearGradient id="paint1_linear_556_837" x1="24.7727" y1="0.888672" x2="24.7727" y2="48.7729" gradientUnits="userSpaceOnUse">
<stop stop-color="#E0FFEE"/>
<stop offset="1" stop-color="#43FF98"/>
</linearGradient>
</defs>
</svg>
