<svg width="1440" height="883" viewBox="0 0 1440 883" fill="none" xmlns="http://www.w3.org/2000/svg">
<g clip-path="url(#clip0_958_81)">
<rect width="1440" height="883" fill="url(#paint0_linear_958_81)"/>
<g filter="url(#filter0_f_958_81)">
<path fill-rule="evenodd" clip-rule="evenodd" d="M1145.84 176.425C1103.98 76.6762 1052.97 -44.8557 745.966 -138.314C402.095 -242.997 252.447 -413.297 220.607 -485.361H-54.0128C-147.487 -431.074 -244.608 -315.553 -96.3564 -196.19H-106.303C-209.85 -136.029 -243.8 -39.7084 148.485 87.5612C637.799 246.31 654.407 274.423 871.833 642.457L873.225 644.815C1048.23 941.033 1008.91 740.006 941.688 558.281C936.095 546.142 929.823 529.742 922.384 510.288C877.177 392.075 788.831 161.057 547.506 87.5612C431.548 52.2462 342.613 7.798 276.315 -36.3734C404.485 0.182251 507.135 20.6069 593.075 37.7064C845.081 87.8488 953.386 109.398 1140.06 425.254C1354.19 787.549 1243.21 433.599 1160.96 211.337C1155.77 200.071 1150.87 188.405 1145.84 176.425ZM-319.399 177.927C-38.3589 263.518 111.052 456.717 150.628 542.617C217.852 724.343 308.55 1013.74 133.55 717.52C-31.6958 437.811 -196.478 395.412 -478.581 322.826L-478.583 322.825C-569.921 299.323 -673.558 272.657 -793.492 233.747C-1185.78 106.477 -1076.75 -45.6631 -973.208 -105.825H-748.766C-722.744 -46.9036 -600.439 92.3362 -319.399 177.927ZM544.797 457.456C519.165 401.831 422.392 276.724 240.364 221.3C58.3365 165.875 -20.8793 75.7103 -37.7336 37.5558H-183.103C-250.17 76.5135 -320.783 175.032 -66.7021 257.446C10.9786 282.643 78.104 299.911 137.263 315.129C319.979 362.133 426.708 389.588 533.737 570.714C647.083 762.531 588.338 575.132 544.797 457.456Z" fill="url(#paint1_linear_958_81)" fill-opacity="0.5"/>
</g>
<path d="M334.114 298H258V368.524H334.114V298Z" fill="url(#paint2_linear_958_81)" stroke="url(#paint3_radial_958_81)" stroke-width="1.90286"/>
<path d="M1182.11 447H1106V517.524H1182.11V447Z" fill="url(#paint4_linear_958_81)" stroke="url(#paint5_radial_958_81)" stroke-width="1.90286"/>
<path d="M419.114 74H343V144.524H419.114V74Z" fill="url(#paint6_linear_958_81)" stroke="url(#paint7_radial_958_81)" stroke-width="1.90286"/>
<path d="M674.114 224H598V294.524H674.114V224Z" fill="url(#paint8_linear_958_81)" stroke="url(#paint9_radial_958_81)" stroke-width="1.90286"/>
<path d="M927.114 372H851V442.524H927.114V372Z" fill="url(#paint10_linear_958_81)" stroke="url(#paint11_radial_958_81)" stroke-width="1.90286"/>
<path d="M1012.11 149H936V219.524H1012.11V149Z" fill="url(#paint12_linear_958_81)" stroke="url(#paint13_radial_958_81)" stroke-width="1.90286"/>
<path d="M84.7059 0H0V74.5575M84.7059 0V74.5575M84.7059 0H169.412M84.7059 74.5575H0M84.7059 74.5575H169.412M84.7059 74.5575V149.115M0 74.5575V149.115M169.412 0V74.5575M169.412 0H254.118M169.412 74.5575H254.118M169.412 74.5575V149.115M254.118 0V74.5575M254.118 0H338.824M254.118 74.5575H338.824M254.118 74.5575V149.115M338.824 0V74.5575M338.824 0H423.529M338.824 74.5575H423.529M338.824 74.5575V149.115M423.529 0V74.5575M423.529 0H508.235M423.529 74.5575H508.235M423.529 74.5575V149.115M508.235 0V74.5575M508.235 0H592.941M508.235 74.5575H592.941M508.235 74.5575V149.115M592.941 0V74.5575M592.941 0H677.647M592.941 74.5575H677.647M592.941 74.5575V149.115M677.647 0V74.5575M677.647 0H762.353M677.647 74.5575H762.353M677.647 74.5575V149.115M762.353 0V74.5575M762.353 0H847.059M762.353 74.5575H847.059M762.353 74.5575V149.115M847.059 0V74.5575M847.059 0H931.765M847.059 74.5575H931.765M847.059 74.5575V149.115M931.765 0V74.5575M931.765 0H1016.47M931.765 74.5575H1016.47M931.765 74.5575V149.115M1016.47 0V74.5575M1016.47 0H1101.18M1016.47 74.5575H1101.18M1016.47 74.5575V149.115M1101.18 0V74.5575M1101.18 0H1185.88M1101.18 74.5575H1185.88M1101.18 74.5575V149.115M1185.88 0V74.5575M1185.88 0H1270.59M1185.88 74.5575H1270.59M1185.88 74.5575V149.115M1270.59 0V74.5575M1270.59 0H1355.29M1270.59 74.5575H1355.29M1270.59 74.5575V149.115M1355.29 0V74.5575M1355.29 0H1440V74.5575M1355.29 74.5575H1440M1355.29 74.5575V149.115M1440 74.5575V149.115M84.7059 149.115H0M84.7059 149.115H169.412M84.7059 149.115V223.673M0 149.115V223.673M169.412 149.115H254.118M169.412 149.115V223.673M254.118 149.115H338.824M254.118 149.115V223.673M338.824 149.115H423.529M338.824 149.115V223.673M423.529 149.115H508.235M423.529 149.115V223.673M508.235 149.115H592.941M508.235 149.115V223.673M592.941 149.115H677.647M592.941 149.115V223.673M677.647 149.115H762.353M677.647 149.115V223.673M762.353 149.115H847.059M762.353 149.115V223.673M847.059 149.115H931.765M847.059 149.115V223.673M931.765 149.115H1016.47M931.765 149.115V223.673M1016.47 149.115H1101.18M1016.47 149.115V223.673M1101.18 149.115H1185.88M1101.18 149.115V223.673M1185.88 149.115H1270.59M1185.88 149.115V223.673M1270.59 149.115H1355.29M1270.59 149.115V223.673M1355.29 149.115H1440M1355.29 149.115V223.673M1440 149.115V223.673M84.7059 223.673H0M84.7059 223.673H169.412M84.7059 223.673V298.23M0 223.673V298.23M169.412 223.673H254.118M169.412 223.673V298.23M254.118 223.673H338.824M254.118 223.673V298.23M338.824 223.673H423.529M338.824 223.673V298.23M423.529 223.673H508.235M423.529 223.673V298.23M508.235 223.673H592.941M508.235 223.673V298.23M592.941 223.673H677.647M592.941 223.673V298.23M677.647 223.673H762.353M677.647 223.673V298.23M762.353 223.673H847.059M762.353 223.673V298.23M847.059 223.673H931.765M847.059 223.673V298.23M931.765 223.673H1016.47M931.765 223.673V298.23M1016.47 223.673H1101.18M1016.47 223.673V298.23M1101.18 223.673H1185.88M1101.18 223.673V298.23M1185.88 223.673H1270.59M1185.88 223.673V298.23M1270.59 223.673H1355.29M1270.59 223.673V298.23M1355.29 223.673H1440M1355.29 223.673V298.23M1440 223.673V298.23M84.7059 298.23H0M84.7059 298.23H169.412M84.7059 298.23V372.788M0 298.23V372.788M169.412 298.23H254.118M169.412 298.23V372.788M254.118 298.23H338.824M254.118 298.23V372.788M338.824 298.23H423.529M338.824 298.23V372.788M423.529 298.23H508.235M423.529 298.23V372.788M508.235 298.23H592.941M508.235 298.23V372.788M592.941 298.23H677.647M592.941 298.23V372.788M677.647 298.23H762.353M677.647 298.23V372.788M762.353 298.23H847.059M762.353 298.23V372.788M847.059 298.23H931.765M847.059 298.23V372.788M931.765 298.23H1016.47M931.765 298.23V372.788M1016.47 298.23H1101.18M1016.47 298.23V372.788M1101.18 298.23H1185.88M1101.18 298.23V372.788M1185.88 298.23H1270.59M1185.88 298.23V372.788M1270.59 298.23H1355.29M1270.59 298.23V372.788M1355.29 298.23H1440M1355.29 298.23V372.788M1440 298.23V372.788M84.7059 372.788H0M84.7059 372.788H169.412M84.7059 372.788V447.345M0 372.788V447.345M169.412 372.788H254.118M169.412 372.788V447.345M254.118 372.788H338.824M254.118 372.788V447.345M338.824 372.788H423.529M338.824 372.788V447.345M423.529 372.788H508.235M423.529 372.788V447.345M508.235 372.788H592.941M508.235 372.788V447.345M592.941 372.788H677.647M592.941 372.788V447.345M677.647 372.788H762.353M677.647 372.788V447.345M762.353 372.788H847.059M762.353 372.788V447.345M847.059 372.788H931.765M847.059 372.788V447.345M931.765 372.788H1016.47M931.765 372.788V447.345M1016.47 372.788H1101.18M1016.47 372.788V447.345M1101.18 372.788H1185.88M1101.18 372.788V447.345M1185.88 372.788H1270.59M1185.88 372.788V447.345M1270.59 372.788H1355.29M1270.59 372.788V447.345M1355.29 372.788H1440M1355.29 372.788V447.345M1440 372.788V447.345M84.7059 447.345H0M84.7059 447.345H169.412M84.7059 447.345V521.903M0 447.345V521.903M169.412 447.345H254.118M169.412 447.345V521.903M254.118 447.345H338.824M254.118 447.345V521.903M338.824 447.345H423.529M338.824 447.345V521.903M423.529 447.345H508.235M423.529 447.345V521.903M508.235 447.345H592.941M508.235 447.345V521.903M592.941 447.345H677.647M592.941 447.345V521.903M677.647 447.345H762.353M677.647 447.345V521.903M762.353 447.345H847.059M762.353 447.345V521.903M847.059 447.345H931.765M847.059 447.345V521.903M931.765 447.345H1016.47M931.765 447.345V521.903M1016.47 447.345H1101.18M1016.47 447.345V521.903M1101.18 447.345H1185.88M1101.18 447.345V521.903M1185.88 447.345H1270.59M1185.88 447.345V521.903M1270.59 447.345H1355.29M1270.59 447.345V521.903M1355.29 447.345H1440M1355.29 447.345V521.903M1440 447.345V521.903M84.7059 521.903H0M84.7059 521.903H169.412M84.7059 521.903V596.46M0 521.903V596.46M169.412 521.903H254.118M169.412 521.903V596.46M254.118 521.903H338.824M254.118 521.903V596.46M338.824 521.903H423.529M338.824 521.903V596.46M423.529 521.903H508.235M423.529 521.903V596.46M508.235 521.903H592.941M508.235 521.903V596.46M592.941 521.903H677.647M592.941 521.903V596.46M677.647 521.903H762.353M677.647 521.903V596.46M762.353 521.903H847.059M762.353 521.903V596.46M847.059 521.903H931.765M847.059 521.903V596.46M931.765 521.903H1016.47M931.765 521.903V596.46M1016.47 521.903H1101.18M1016.47 521.903V596.46M1101.18 521.903H1185.88M1101.18 521.903V596.46M1185.88 521.903H1270.59M1185.88 521.903V596.46M1270.59 521.903H1355.29M1270.59 521.903V596.46M1355.29 521.903H1440M1355.29 521.903V596.46M1440 521.903V596.46M84.7059 596.46H0M84.7059 596.46H169.412M84.7059 596.46V671.018M0 596.46V671.018M169.412 596.46H254.118M169.412 596.46V671.018M254.118 596.46H338.824M254.118 596.46V671.018M338.824 596.46H423.529M338.824 596.46V671.018M423.529 596.46H508.235M423.529 596.46V671.018M508.235 596.46H592.941M508.235 596.46V671.018M592.941 596.46H677.647M592.941 596.46V671.018M677.647 596.46H762.353M677.647 596.46V671.018M762.353 596.46H847.059M762.353 596.46V671.018M847.059 596.46H931.765M847.059 596.46V671.018M931.765 596.46H1016.47M931.765 596.46V671.018M1016.47 596.46H1101.18M1016.47 596.46V671.018M1101.18 596.46H1185.88M1101.18 596.46V671.018M1185.88 596.46H1270.59M1185.88 596.46V671.018M1270.59 596.46H1355.29M1270.59 596.46V671.018M1355.29 596.46H1440M1355.29 596.46V671.018M1440 596.46V671.018M84.7059 671.018H0M84.7059 671.018H169.412M84.7059 671.018V745.575M0 671.018V745.575M169.412 671.018H254.118M169.412 671.018V745.575M254.118 671.018H338.824M254.118 671.018V745.575M338.824 671.018H423.529M338.824 671.018V745.575M423.529 671.018H508.235M423.529 671.018V745.575M508.235 671.018H592.941M508.235 671.018V745.575M592.941 671.018H677.647M592.941 671.018V745.575M677.647 671.018H762.353M677.647 671.018V745.575M762.353 671.018H847.059M762.353 671.018V745.575M847.059 671.018H931.765M847.059 671.018V745.575M931.765 671.018H1016.47M931.765 671.018V745.575M1016.47 671.018H1101.18M1016.47 671.018V745.575M1101.18 671.018H1185.88M1101.18 671.018V745.575M1185.88 671.018H1270.59M1185.88 671.018V745.575M1270.59 671.018H1355.29M1270.59 671.018V745.575M1355.29 671.018H1440M1355.29 671.018V745.575M1440 671.018V745.575M84.7059 745.575H0M84.7059 745.575H169.412M84.7059 745.575V820.133M0 745.575V820.133M169.412 745.575H254.118M169.412 745.575V820.133M254.118 745.575H338.824M254.118 745.575V820.133M338.824 745.575H423.529M338.824 745.575V820.133M423.529 745.575H508.235M423.529 745.575V820.133M508.235 745.575H592.941M508.235 745.575V820.133M592.941 745.575H677.647M592.941 745.575V820.133M677.647 745.575H762.353M677.647 745.575V820.133M762.353 745.575H847.059M762.353 745.575V820.133M847.059 745.575H931.765M847.059 745.575V820.133M931.765 745.575H1016.47M931.765 745.575V820.133M1016.47 745.575H1101.18M1016.47 745.575V820.133M1101.18 745.575H1185.88M1101.18 745.575V820.133M1185.88 745.575H1270.59M1185.88 745.575V820.133M1270.59 745.575H1355.29M1270.59 745.575V820.133M1355.29 745.575H1440M1355.29 745.575V820.133M1440 745.575V820.133M84.7059 820.133H0M84.7059 820.133H169.412M84.7059 820.133V894.69M0 820.133V894.69H84.7059M169.412 820.133H254.118M169.412 820.133V894.69M254.118 820.133H338.824M254.118 820.133V894.69M338.824 820.133H423.529M338.824 820.133V894.69M423.529 820.133H508.235M423.529 820.133V894.69M508.235 820.133H592.941M508.235 820.133V894.69M592.941 820.133H677.647M592.941 820.133V894.69M677.647 820.133H762.353M677.647 820.133V894.69M762.353 820.133H847.059M762.353 820.133V894.69M847.059 820.133H931.765M847.059 820.133V894.69M931.765 820.133H1016.47M931.765 820.133V894.69M1016.47 820.133H1101.18M1016.47 820.133V894.69M1101.18 820.133H1185.88M1101.18 820.133V894.69M1185.88 820.133H1270.59M1185.88 820.133V894.69M1270.59 820.133H1355.29M1270.59 820.133V894.69M1355.29 820.133H1440M1355.29 820.133V894.69M1440 820.133V894.69H1355.29M84.7059 894.69H169.412M169.412 894.69H254.118M254.118 894.69H338.824M338.824 894.69H423.529M423.529 894.69H508.235M508.235 894.69H592.941M592.941 894.69H677.647M677.647 894.69H762.353M762.353 894.69H847.059M847.059 894.69H931.765M931.765 894.69H1016.47M1016.47 894.69H1101.18M1101.18 894.69H1185.88M1185.88 894.69H1270.59M1270.59 894.69H1355.29" stroke="url(#paint14_radial_958_81)" stroke-opacity="0.7" stroke-width="1.90286"/>
</g>
<g clip-path="url(#clip1_958_81)">
<g filter="url(#filter1_d_958_81)">
<ellipse cx="720.792" cy="974.421" rx="848.208" ry="864.182" fill="url(#paint15_linear_958_81)" fill-opacity="0.1" shape-rendering="crispEdges"/>
</g>
</g>
<defs>
<filter id="filter0_f_958_81" x="-1277.61" y="-692.718" width="2749.05" height="1744.9" filterUnits="userSpaceOnUse" color-interpolation-filters="sRGB">
<feFlood flood-opacity="0" result="BackgroundImageFix"/>
<feBlend mode="normal" in="SourceGraphic" in2="BackgroundImageFix" result="shape"/>
<feGaussianBlur stdDeviation="103.678" result="effect1_foregroundBlur_958_81"/>
</filter>
<filter id="filter1_d_958_81" x="-187.416" y="0.239258" width="1816.42" height="1848.36" filterUnits="userSpaceOnUse" color-interpolation-filters="sRGB">
<feFlood flood-opacity="0" result="BackgroundImageFix"/>
<feColorMatrix in="SourceAlpha" type="matrix" values="0 0 0 0 0 0 0 0 0 0 0 0 0 0 0 0 0 0 127 0" result="hardAlpha"/>
<feOffset dy="-50"/>
<feGaussianBlur stdDeviation="30"/>
<feComposite in2="hardAlpha" operator="out"/>
<feColorMatrix type="matrix" values="0 0 0 0 0.00392157 0 0 0 0 0.854902 0 0 0 0 0.388235 0 0 0 0.07 0"/>
<feBlend mode="normal" in2="BackgroundImageFix" result="effect1_dropShadow_958_81"/>
<feBlend mode="normal" in="SourceGraphic" in2="effect1_dropShadow_958_81" result="shape"/>
</filter>
<linearGradient id="paint0_linear_958_81" x1="0" y1="0" x2="1535.49" y2="661.281" gradientUnits="userSpaceOnUse">
<stop stop-color="#F5F9FC" stop-opacity="0.25"/>
<stop offset="0.49" stop-color="#F5F9FC" stop-opacity="0.5"/>
<stop offset="1" stop-color="#F5F9FC" stop-opacity="0.75"/>
</linearGradient>
<linearGradient id="paint1_linear_958_81" x1="1437.09" y1="1088.21" x2="-208.319" y2="265.175" gradientUnits="userSpaceOnUse">
<stop stop-color="#56FFAB" stop-opacity="0.5"/>
<stop offset="0.525" stop-color="#74ECCC"/>
<stop offset="1" stop-color="#C0FFF0" stop-opacity="0.5"/>
</linearGradient>
<linearGradient id="paint2_linear_958_81" x1="296.057" y1="298" x2="296.057" y2="368.524" gradientUnits="userSpaceOnUse">
<stop stop-color="white" stop-opacity="0"/>
<stop offset="1" stop-color="white"/>
</linearGradient>
<radialGradient id="paint3_radial_958_81" cx="0" cy="0" r="1" gradientUnits="userSpaceOnUse" gradientTransform="translate(296.057 340.42) rotate(90) scale(26.3711 30.1812)">
<stop stop-color="white"/>
<stop offset="1" stop-color="white" stop-opacity="0"/>
</radialGradient>
<linearGradient id="paint4_linear_958_81" x1="1144.06" y1="447" x2="1144.06" y2="517.524" gradientUnits="userSpaceOnUse">
<stop stop-color="white" stop-opacity="0"/>
<stop offset="1" stop-color="white"/>
</linearGradient>
<radialGradient id="paint5_radial_958_81" cx="0" cy="0" r="1" gradientUnits="userSpaceOnUse" gradientTransform="translate(1144.06 489.42) rotate(90) scale(26.3711 30.1812)">
<stop stop-color="white"/>
<stop offset="1" stop-color="white" stop-opacity="0"/>
</radialGradient>
<linearGradient id="paint6_linear_958_81" x1="381.057" y1="74" x2="381.057" y2="144.524" gradientUnits="userSpaceOnUse">
<stop stop-color="white" stop-opacity="0"/>
<stop offset="1" stop-color="white"/>
</linearGradient>
<radialGradient id="paint7_radial_958_81" cx="0" cy="0" r="1" gradientUnits="userSpaceOnUse" gradientTransform="translate(381.057 116.42) rotate(90) scale(26.3711 30.1812)">
<stop stop-color="white"/>
<stop offset="1" stop-color="white" stop-opacity="0"/>
</radialGradient>
<linearGradient id="paint8_linear_958_81" x1="636.057" y1="224" x2="636.057" y2="294.524" gradientUnits="userSpaceOnUse">
<stop stop-color="white" stop-opacity="0"/>
<stop offset="1" stop-color="white"/>
</linearGradient>
<radialGradient id="paint9_radial_958_81" cx="0" cy="0" r="1" gradientUnits="userSpaceOnUse" gradientTransform="translate(636.057 266.42) rotate(90) scale(26.3711 30.1812)">
<stop stop-color="white"/>
<stop offset="1" stop-color="white" stop-opacity="0"/>
</radialGradient>
<linearGradient id="paint10_linear_958_81" x1="889.057" y1="372" x2="889.057" y2="442.524" gradientUnits="userSpaceOnUse">
<stop stop-color="white" stop-opacity="0"/>
<stop offset="1" stop-color="white"/>
</linearGradient>
<radialGradient id="paint11_radial_958_81" cx="0" cy="0" r="1" gradientUnits="userSpaceOnUse" gradientTransform="translate(889.057 414.42) rotate(90) scale(26.3711 30.1812)">
<stop stop-color="white"/>
<stop offset="1" stop-color="white" stop-opacity="0"/>
</radialGradient>
<linearGradient id="paint12_linear_958_81" x1="974.057" y1="149" x2="974.057" y2="219.524" gradientUnits="userSpaceOnUse">
<stop stop-color="white" stop-opacity="0"/>
<stop offset="1" stop-color="white"/>
</linearGradient>
<radialGradient id="paint13_radial_958_81" cx="0" cy="0" r="1" gradientUnits="userSpaceOnUse" gradientTransform="translate(974.057 191.42) rotate(90) scale(26.3711 30.1812)">
<stop stop-color="white"/>
<stop offset="1" stop-color="white" stop-opacity="0"/>
</radialGradient>
<radialGradient id="paint14_radial_958_81" cx="0" cy="0" r="1" gradientUnits="userSpaceOnUse" gradientTransform="translate(720 1.36718e-05) rotate(90) scale(734 1198.03)">
<stop offset="0.0678606" stop-color="white" stop-opacity="0"/>
<stop offset="0.5" stop-color="white" stop-opacity="0.7"/>
<stop offset="1" stop-color="white" stop-opacity="0"/>
</radialGradient>
<linearGradient id="paint15_linear_958_81" x1="720.792" y1="110.239" x2="721.325" y2="1217.75" gradientUnits="userSpaceOnUse">
<stop stop-color="white"/>
<stop offset="0.19292" stop-color="white" stop-opacity="0"/>
</linearGradient>
<clipPath id="clip0_958_81">
<rect width="1440" height="883" fill="white"/>
</clipPath>
<clipPath id="clip1_958_81">
<rect width="1440" height="883" fill="white"/>
</clipPath>
</defs>
</svg>
