<svg width="1440" height="886" viewBox="0 0 1440 886" fill="none" xmlns="http://www.w3.org/2000/svg">
<g clip-path="url(#clip0_550_37)">
<rect width="1440" height="886" fill="url(#paint0_linear_550_37)"/>
<g filter="url(#filter0_f_550_37)">
<path fill-rule="evenodd" clip-rule="evenodd" d="M1145.84 176.425C1103.98 76.6762 1052.97 -44.8557 745.966 -138.314C402.095 -242.997 252.447 -413.297 220.607 -485.361H-54.0128C-147.487 -431.074 -244.608 -315.553 -96.3564 -196.19H-106.302C-209.849 -136.029 -243.8 -39.7084 148.486 87.5612C637.799 246.31 654.408 274.423 871.833 642.457L873.226 644.815C1048.23 941.033 1008.91 740.006 941.688 558.281C936.095 546.142 929.824 529.742 922.384 510.288C877.177 392.075 788.831 161.057 547.506 87.5612C431.548 52.2463 342.614 7.79813 276.316 -36.3731C404.485 0.182312 507.136 20.6069 593.075 37.7064C845.081 87.8488 953.386 109.398 1140.06 425.254C1354.19 787.549 1243.21 433.599 1160.96 211.337C1155.77 200.071 1150.87 188.405 1145.84 176.425ZM-319.399 177.927C-38.3589 263.518 111.052 456.717 150.628 542.617C217.852 724.343 308.55 1013.74 133.55 717.52C-31.6958 437.811 -196.478 395.412 -478.581 322.826L-478.582 322.826C-569.92 299.324 -673.557 272.657 -793.492 233.747C-1185.78 106.477 -1076.75 -45.6631 -973.208 -105.825H-748.766C-722.744 -46.9036 -600.439 92.3362 -319.399 177.927ZM544.797 457.456C519.165 401.831 422.392 276.724 240.364 221.3C58.3364 165.875 -20.8792 75.7103 -37.7336 37.5558H-183.103C-250.17 76.5135 -320.783 175.032 -66.7021 257.446C10.9786 282.643 78.104 299.911 137.263 315.129C319.979 362.133 426.708 389.588 533.737 570.714C647.083 762.531 588.338 575.132 544.797 457.456Z" fill="url(#paint1_linear_550_37)" fill-opacity="0.5"/>
</g>
<path d="M334.114 295.105H258V364.944H334.114V295.105Z" fill="url(#paint2_linear_550_37)" stroke="url(#paint3_radial_550_37)" stroke-width="1.90286"/>
<path d="M1182.11 442.658H1106V512.497H1182.11V442.658Z" fill="url(#paint4_linear_550_37)" stroke="url(#paint5_radial_550_37)" stroke-width="1.90286"/>
<path d="M419.114 73.2812H343V143.12H419.114V73.2812Z" fill="url(#paint6_linear_550_37)" stroke="url(#paint7_radial_550_37)" stroke-width="1.90286"/>
<path d="M674.114 221.824H598V291.663H674.114V221.824Z" fill="url(#paint8_linear_550_37)" stroke="url(#paint9_radial_550_37)" stroke-width="1.90286"/>
<path d="M927.114 368.387H851V438.226H927.114V368.387Z" fill="url(#paint10_linear_550_37)" stroke="url(#paint11_radial_550_37)" stroke-width="1.90286"/>
<path d="M1266.11 222.814H1190V292.653H1266.11V222.814Z" fill="url(#paint12_linear_550_37)" stroke="url(#paint13_radial_550_37)" stroke-width="1.90286"/>
<path d="M1012.11 147.553H936V217.392H1012.11V147.553Z" fill="url(#paint14_linear_550_37)" stroke="url(#paint15_radial_550_37)" stroke-width="1.90286"/>
<path d="M84.7059 0H0V73.8333M84.7059 0V73.8333M84.7059 0H169.412M84.7059 73.8333H0M84.7059 73.8333H169.412M84.7059 73.8333V147.667M0 73.8333V147.667M169.412 0V73.8333M169.412 0H254.118M169.412 73.8333H254.118M169.412 73.8333V147.667M254.118 0V73.8333M254.118 0H338.824M254.118 73.8333H338.824M254.118 73.8333V147.667M338.824 0V73.8333M338.824 0H423.529M338.824 73.8333H423.529M338.824 73.8333V147.667M423.529 0V73.8333M423.529 0H508.235M423.529 73.8333H508.235M423.529 73.8333V147.667M508.235 0V73.8333M508.235 0H592.941M508.235 73.8333H592.941M508.235 73.8333V147.667M592.941 0V73.8333M592.941 0H677.647M592.941 73.8333H677.647M592.941 73.8333V147.667M677.647 0V73.8333M677.647 0H762.353M677.647 73.8333H762.353M677.647 73.8333V147.667M762.353 0V73.8333M762.353 0H847.059M762.353 73.8333H847.059M762.353 73.8333V147.667M847.059 0V73.8333M847.059 0H931.765M847.059 73.8333H931.765M847.059 73.8333V147.667M931.765 0V73.8333M931.765 0H1016.47M931.765 73.8333H1016.47M931.765 73.8333V147.667M1016.47 0V73.8333M1016.47 0H1101.18M1016.47 73.8333H1101.18M1016.47 73.8333V147.667M1101.18 0V73.8333M1101.18 0H1185.88M1101.18 73.8333H1185.88M1101.18 73.8333V147.667M1185.88 0V73.8333M1185.88 0H1270.59M1185.88 73.8333H1270.59M1185.88 73.8333V147.667M1270.59 0V73.8333M1270.59 0H1355.29M1270.59 73.8333H1355.29M1270.59 73.8333V147.667M1355.29 0V73.8333M1355.29 0H1440V73.8333M1355.29 73.8333H1440M1355.29 73.8333V147.667M1440 73.8333V147.667M84.7059 147.667H0M84.7059 147.667H169.412M84.7059 147.667V221.5M0 147.667V221.5M169.412 147.667H254.118M169.412 147.667V221.5M254.118 147.667H338.824M254.118 147.667V221.5M338.824 147.667H423.529M338.824 147.667V221.5M423.529 147.667H508.235M423.529 147.667V221.5M508.235 147.667H592.941M508.235 147.667V221.5M592.941 147.667H677.647M592.941 147.667V221.5M677.647 147.667H762.353M677.647 147.667V221.5M762.353 147.667H847.059M762.353 147.667V221.5M847.059 147.667H931.765M847.059 147.667V221.5M931.765 147.667H1016.47M931.765 147.667V221.5M1016.47 147.667H1101.18M1016.47 147.667V221.5M1101.18 147.667H1185.88M1101.18 147.667V221.5M1185.88 147.667H1270.59M1185.88 147.667V221.5M1270.59 147.667H1355.29M1270.59 147.667V221.5M1355.29 147.667H1440M1355.29 147.667V221.5M1440 147.667V221.5M84.7059 221.5H0M84.7059 221.5H169.412M84.7059 221.5V295.333M0 221.5V295.333M169.412 221.5H254.118M169.412 221.5V295.333M254.118 221.5H338.824M254.118 221.5V295.333M338.824 221.5H423.529M338.824 221.5V295.333M423.529 221.5H508.235M423.529 221.5V295.333M508.235 221.5H592.941M508.235 221.5V295.333M592.941 221.5H677.647M592.941 221.5V295.333M677.647 221.5H762.353M677.647 221.5V295.333M762.353 221.5H847.059M762.353 221.5V295.333M847.059 221.5H931.765M847.059 221.5V295.333M931.765 221.5H1016.47M931.765 221.5V295.333M1016.47 221.5H1101.18M1016.47 221.5V295.333M1101.18 221.5H1185.88M1101.18 221.5V295.333M1185.88 221.5H1270.59M1185.88 221.5V295.333M1270.59 221.5H1355.29M1270.59 221.5V295.333M1355.29 221.5H1440M1355.29 221.5V295.333M1440 221.5V295.333M84.7059 295.333H0M84.7059 295.333H169.412M84.7059 295.333V369.167M0 295.333V369.167M169.412 295.333H254.118M169.412 295.333V369.167M254.118 295.333H338.824M254.118 295.333V369.167M338.824 295.333H423.529M338.824 295.333V369.167M423.529 295.333H508.235M423.529 295.333V369.167M508.235 295.333H592.941M508.235 295.333V369.167M592.941 295.333H677.647M592.941 295.333V369.167M677.647 295.333H762.353M677.647 295.333V369.167M762.353 295.333H847.059M762.353 295.333V369.167M847.059 295.333H931.765M847.059 295.333V369.167M931.765 295.333H1016.47M931.765 295.333V369.167M1016.47 295.333H1101.18M1016.47 295.333V369.167M1101.18 295.333H1185.88M1101.18 295.333V369.167M1185.88 295.333H1270.59M1185.88 295.333V369.167M1270.59 295.333H1355.29M1270.59 295.333V369.167M1355.29 295.333H1440M1355.29 295.333V369.167M1440 295.333V369.167M84.7059 369.167H0M84.7059 369.167H169.412M84.7059 369.167V443M0 369.167V443M169.412 369.167H254.118M169.412 369.167V443M254.118 369.167H338.824M254.118 369.167V443M338.824 369.167H423.529M338.824 369.167V443M423.529 369.167H508.235M423.529 369.167V443M508.235 369.167H592.941M508.235 369.167V443M592.941 369.167H677.647M592.941 369.167V443M677.647 369.167H762.353M677.647 369.167V443M762.353 369.167H847.059M762.353 369.167V443M847.059 369.167H931.765M847.059 369.167V443M931.765 369.167H1016.47M931.765 369.167V443M1016.47 369.167H1101.18M1016.47 369.167V443M1101.18 369.167H1185.88M1101.18 369.167V443M1185.88 369.167H1270.59M1185.88 369.167V443M1270.59 369.167H1355.29M1270.59 369.167V443M1355.29 369.167H1440M1355.29 369.167V443M1440 369.167V443M84.7059 443H0M84.7059 443H169.412M84.7059 443V516.833M0 443V516.833M169.412 443H254.118M169.412 443V516.833M254.118 443H338.824M254.118 443V516.833M338.824 443H423.529M338.824 443V516.833M423.529 443H508.235M423.529 443V516.833M508.235 443H592.941M508.235 443V516.833M592.941 443H677.647M592.941 443V516.833M677.647 443H762.353M677.647 443V516.833M762.353 443H847.059M762.353 443V516.833M847.059 443H931.765M847.059 443V516.833M931.765 443H1016.47M931.765 443V516.833M1016.47 443H1101.18M1016.47 443V516.833M1101.18 443H1185.88M1101.18 443V516.833M1185.88 443H1270.59M1185.88 443V516.833M1270.59 443H1355.29M1270.59 443V516.833M1355.29 443H1440M1355.29 443V516.833M1440 443V516.833M84.7059 516.833H0M84.7059 516.833H169.412M84.7059 516.833V590.667M0 516.833V590.667M169.412 516.833H254.118M169.412 516.833V590.667M254.118 516.833H338.824M254.118 516.833V590.667M338.824 516.833H423.529M338.824 516.833V590.667M423.529 516.833H508.235M423.529 516.833V590.667M508.235 516.833H592.941M508.235 516.833V590.667M592.941 516.833H677.647M592.941 516.833V590.667M677.647 516.833H762.353M677.647 516.833V590.667M762.353 516.833H847.059M762.353 516.833V590.667M847.059 516.833H931.765M847.059 516.833V590.667M931.765 516.833H1016.47M931.765 516.833V590.667M1016.47 516.833H1101.18M1016.47 516.833V590.667M1101.18 516.833H1185.88M1101.18 516.833V590.667M1185.88 516.833H1270.59M1185.88 516.833V590.667M1270.59 516.833H1355.29M1270.59 516.833V590.667M1355.29 516.833H1440M1355.29 516.833V590.667M1440 516.833V590.667M84.7059 590.667H0M84.7059 590.667H169.412M84.7059 590.667V664.5M0 590.667V664.5M169.412 590.667H254.118M169.412 590.667V664.5M254.118 590.667H338.824M254.118 590.667V664.5M338.824 590.667H423.529M338.824 590.667V664.5M423.529 590.667H508.235M423.529 590.667V664.5M508.235 590.667H592.941M508.235 590.667V664.5M592.941 590.667H677.647M592.941 590.667V664.5M677.647 590.667H762.353M677.647 590.667V664.5M762.353 590.667H847.059M762.353 590.667V664.5M847.059 590.667H931.765M847.059 590.667V664.5M931.765 590.667H1016.47M931.765 590.667V664.5M1016.47 590.667H1101.18M1016.47 590.667V664.5M1101.18 590.667H1185.88M1101.18 590.667V664.5M1185.88 590.667H1270.59M1185.88 590.667V664.5M1270.59 590.667H1355.29M1270.59 590.667V664.5M1355.29 590.667H1440M1355.29 590.667V664.5M1440 590.667V664.5M84.7059 664.5H0M84.7059 664.5H169.412M84.7059 664.5V738.333M0 664.5V738.333M169.412 664.5H254.118M169.412 664.5V738.333M254.118 664.5H338.824M254.118 664.5V738.333M338.824 664.5H423.529M338.824 664.5V738.333M423.529 664.5H508.235M423.529 664.5V738.333M508.235 664.5H592.941M508.235 664.5V738.333M592.941 664.5H677.647M592.941 664.5V738.333M677.647 664.5H762.353M677.647 664.5V738.333M762.353 664.5H847.059M762.353 664.5V738.333M847.059 664.5H931.765M847.059 664.5V738.333M931.765 664.5H1016.47M931.765 664.5V738.333M1016.47 664.5H1101.18M1016.47 664.5V738.333M1101.18 664.5H1185.88M1101.18 664.5V738.333M1185.88 664.5H1270.59M1185.88 664.5V738.333M1270.59 664.5H1355.29M1270.59 664.5V738.333M1355.29 664.5H1440M1355.29 664.5V738.333M1440 664.5V738.333M84.7059 738.333H0M84.7059 738.333H169.412M84.7059 738.333V812.167M0 738.333V812.167M169.412 738.333H254.118M169.412 738.333V812.167M254.118 738.333H338.824M254.118 738.333V812.167M338.824 738.333H423.529M338.824 738.333V812.167M423.529 738.333H508.235M423.529 738.333V812.167M508.235 738.333H592.941M508.235 738.333V812.167M592.941 738.333H677.647M592.941 738.333V812.167M677.647 738.333H762.353M677.647 738.333V812.167M762.353 738.333H847.059M762.353 738.333V812.167M847.059 738.333H931.765M847.059 738.333V812.167M931.765 738.333H1016.47M931.765 738.333V812.167M1016.47 738.333H1101.18M1016.47 738.333V812.167M1101.18 738.333H1185.88M1101.18 738.333V812.167M1185.88 738.333H1270.59M1185.88 738.333V812.167M1270.59 738.333H1355.29M1270.59 738.333V812.167M1355.29 738.333H1440M1355.29 738.333V812.167M1440 738.333V812.167M84.7059 812.167H0M84.7059 812.167H169.412M84.7059 812.167V886M0 812.167V886H84.7059M169.412 812.167H254.118M169.412 812.167V886M254.118 812.167H338.824M254.118 812.167V886M338.824 812.167H423.529M338.824 812.167V886M423.529 812.167H508.235M423.529 812.167V886M508.235 812.167H592.941M508.235 812.167V886M592.941 812.167H677.647M592.941 812.167V886M677.647 812.167H762.353M677.647 812.167V886M762.353 812.167H847.059M762.353 812.167V886M847.059 812.167H931.765M847.059 812.167V886M931.765 812.167H1016.47M931.765 812.167V886M1016.47 812.167H1101.18M1016.47 812.167V886M1101.18 812.167H1185.88M1101.18 812.167V886M1185.88 812.167H1270.59M1185.88 812.167V886M1270.59 812.167H1355.29M1270.59 812.167V886M1355.29 812.167H1440M1355.29 812.167V886M1440 812.167V886H1355.29M84.7059 886H169.412M169.412 886H254.118M254.118 886H338.824M338.824 886H423.529M423.529 886H508.235M508.235 886H592.941M592.941 886H677.647M677.647 886H762.353M762.353 886H847.059M847.059 886H931.765M931.765 886H1016.47M1016.47 886H1101.18M1101.18 886H1185.88M1185.88 886H1270.59M1270.59 886H1355.29" stroke="url(#paint16_radial_550_37)" stroke-opacity="0.7" stroke-width="1.90286"/>
</g>
<defs>
<filter id="filter0_f_550_37" x="-1277.61" y="-692.718" width="2749.05" height="1744.9" filterUnits="userSpaceOnUse" color-interpolation-filters="sRGB">
<feFlood flood-opacity="0" result="BackgroundImageFix"/>
<feBlend mode="normal" in="SourceGraphic" in2="BackgroundImageFix" result="shape"/>
<feGaussianBlur stdDeviation="103.678" result="effect1_foregroundBlur_550_37"/>
</filter>
<linearGradient id="paint0_linear_550_37" x1="0" y1="0" x2="1537.11" y2="659.74" gradientUnits="userSpaceOnUse">
<stop stop-color="#F4F8F6" stop-opacity="0.25"/>
<stop offset="0.49" stop-color="#F4F8F6" stop-opacity="0.5"/>
<stop offset="1" stop-color="#F4F8F6"/>
</linearGradient>
<linearGradient id="paint1_linear_550_37" x1="1437.09" y1="1088.21" x2="-208.319" y2="265.175" gradientUnits="userSpaceOnUse">
<stop stop-color="#56FFAB" stop-opacity="0.5"/>
<stop offset="0.525" stop-color="#74ECCC"/>
<stop offset="1" stop-color="#C0FFF0" stop-opacity="0.5"/>
</linearGradient>
<linearGradient id="paint2_linear_550_37" x1="296.057" y1="295.105" x2="296.057" y2="364.944" gradientUnits="userSpaceOnUse">
<stop stop-color="white" stop-opacity="0"/>
<stop offset="1" stop-color="white"/>
</linearGradient>
<radialGradient id="paint3_radial_550_37" cx="0" cy="0" r="1" gradientUnits="userSpaceOnUse" gradientTransform="translate(296.057 337.113) rotate(90) scale(26.115 30.1812)">
<stop stop-color="white"/>
<stop offset="1" stop-color="white" stop-opacity="0"/>
</radialGradient>
<linearGradient id="paint4_linear_550_37" x1="1144.06" y1="442.658" x2="1144.06" y2="512.497" gradientUnits="userSpaceOnUse">
<stop stop-color="white" stop-opacity="0"/>
<stop offset="1" stop-color="white"/>
</linearGradient>
<radialGradient id="paint5_radial_550_37" cx="0" cy="0" r="1" gradientUnits="userSpaceOnUse" gradientTransform="translate(1144.06 484.666) rotate(90) scale(26.115 30.1812)">
<stop stop-color="white"/>
<stop offset="1" stop-color="white" stop-opacity="0"/>
</radialGradient>
<linearGradient id="paint6_linear_550_37" x1="381.057" y1="73.2812" x2="381.057" y2="143.12" gradientUnits="userSpaceOnUse">
<stop stop-color="white" stop-opacity="0"/>
<stop offset="1" stop-color="white"/>
</linearGradient>
<radialGradient id="paint7_radial_550_37" cx="0" cy="0" r="1" gradientUnits="userSpaceOnUse" gradientTransform="translate(381.057 115.289) rotate(90) scale(26.115 30.1812)">
<stop stop-color="white"/>
<stop offset="1" stop-color="white" stop-opacity="0"/>
</radialGradient>
<linearGradient id="paint8_linear_550_37" x1="636.057" y1="221.824" x2="636.057" y2="291.663" gradientUnits="userSpaceOnUse">
<stop stop-color="white" stop-opacity="0"/>
<stop offset="1" stop-color="white"/>
</linearGradient>
<radialGradient id="paint9_radial_550_37" cx="0" cy="0" r="1" gradientUnits="userSpaceOnUse" gradientTransform="translate(636.057 263.832) rotate(90) scale(26.115 30.1812)">
<stop stop-color="white"/>
<stop offset="1" stop-color="white" stop-opacity="0"/>
</radialGradient>
<linearGradient id="paint10_linear_550_37" x1="889.057" y1="368.387" x2="889.057" y2="438.226" gradientUnits="userSpaceOnUse">
<stop stop-color="white" stop-opacity="0"/>
<stop offset="1" stop-color="white"/>
</linearGradient>
<radialGradient id="paint11_radial_550_37" cx="0" cy="0" r="1" gradientUnits="userSpaceOnUse" gradientTransform="translate(889.057 410.394) rotate(90) scale(26.115 30.1812)">
<stop stop-color="white"/>
<stop offset="1" stop-color="white" stop-opacity="0"/>
</radialGradient>
<linearGradient id="paint12_linear_550_37" x1="1228.06" y1="222.814" x2="1228.06" y2="292.653" gradientUnits="userSpaceOnUse">
<stop stop-color="white" stop-opacity="0"/>
<stop offset="1" stop-color="white"/>
</linearGradient>
<radialGradient id="paint13_radial_550_37" cx="0" cy="0" r="1" gradientUnits="userSpaceOnUse" gradientTransform="translate(1228.06 264.822) rotate(90) scale(26.115 30.1812)">
<stop stop-color="white"/>
<stop offset="1" stop-color="white" stop-opacity="0"/>
</radialGradient>
<linearGradient id="paint14_linear_550_37" x1="974.057" y1="147.553" x2="974.057" y2="217.392" gradientUnits="userSpaceOnUse">
<stop stop-color="white" stop-opacity="0"/>
<stop offset="1" stop-color="white"/>
</linearGradient>
<radialGradient id="paint15_radial_550_37" cx="0" cy="0" r="1" gradientUnits="userSpaceOnUse" gradientTransform="translate(974.057 189.561) rotate(90) scale(26.115 30.1812)">
<stop stop-color="white"/>
<stop offset="1" stop-color="white" stop-opacity="0"/>
</radialGradient>
<radialGradient id="paint16_radial_550_37" cx="0" cy="0" r="1" gradientUnits="userSpaceOnUse" gradientTransform="translate(720 1.3539e-05) rotate(90) scale(726.87 1198.03)">
<stop offset="0.0678606" stop-color="white" stop-opacity="0"/>
<stop offset="0.5" stop-color="white" stop-opacity="0.7"/>
<stop offset="1" stop-color="white" stop-opacity="0"/>
</radialGradient>
<clipPath id="clip0_550_37">
<rect width="1440" height="886" fill="white"/>
</clipPath>
</defs>
</svg>
