<svg width="1242" height="510" viewBox="0 0 1242 510" fill="none" xmlns="http://www.w3.org/2000/svg">
<g clip-path="url(#clip0_268_5978)">
<rect width="1242" height="510" rx="30" fill="url(#paint0_linear_268_5978)"/>
<g style="mix-blend-mode:luminosity" filter="url(#filter0_f_268_5978)">
<ellipse cx="621" cy="222" rx="310" ry="179" fill="#2BBE69"/>
</g>
<g clip-path="url(#clip1_268_5978)">
<mask id="mask0_268_5978" style="mask-type:alpha" maskUnits="userSpaceOnUse" x="0" y="0" width="1242" height="510">
<rect width="1242" height="510" fill="url(#paint1_radial_268_5978)"/>
</mask>
<g mask="url(#mask0_268_5978)">
<rect x="0.727053" y="0.727053" width="48.5459" height="48.5459" stroke="white" stroke-width="1.45411"/>
<rect x="49.273" y="0.727053" width="48.5459" height="48.5459" stroke="white" stroke-width="1.45411"/>
<rect x="97.8188" y="0.727053" width="48.5459" height="48.5459" stroke="white" stroke-width="1.45411"/>
<rect x="146.365" y="0.727053" width="48.5459" height="48.5459" stroke="white" stroke-width="1.45411"/>
<rect x="194.911" y="0.727053" width="48.5459" height="48.5459" stroke="white" stroke-width="1.45411"/>
<rect x="243.457" y="0.727053" width="48.5459" height="48.5459" stroke="white" stroke-width="1.45411"/>
<rect x="292.002" y="0.727053" width="48.5459" height="48.5459" stroke="white" stroke-width="1.45411"/>
<rect x="340.548" y="0.727053" width="48.5459" height="48.5459" stroke="white" stroke-width="1.45411"/>
<rect x="389.094" y="0.727053" width="48.5459" height="48.5459" stroke="white" stroke-width="1.45411"/>
<rect x="437.64" y="0.727053" width="48.5459" height="48.5459" stroke="white" stroke-width="1.45411"/>
<rect x="486.186" y="0.727053" width="48.5459" height="48.5459" stroke="white" stroke-width="1.45411"/>
<rect x="534.732" y="0.727053" width="48.5459" height="48.5459" stroke="white" stroke-width="1.45411"/>
<rect x="583.278" y="0.727053" width="48.5459" height="48.5459" stroke="white" stroke-width="1.45411"/>
<rect x="631.824" y="0.727053" width="48.5459" height="48.5459" stroke="white" stroke-width="1.45411"/>
<rect x="680.37" y="0.727053" width="48.5459" height="48.5459" stroke="white" stroke-width="1.45411"/>
<rect x="728.916" y="0.727053" width="48.5459" height="48.5459" stroke="white" stroke-width="1.45411"/>
<rect x="777.461" y="0.727053" width="48.5459" height="48.5459" stroke="white" stroke-width="1.45411"/>
<rect x="826.007" y="0.727053" width="48.5459" height="48.5459" stroke="white" stroke-width="1.45411"/>
<rect x="874.553" y="0.727053" width="48.5459" height="48.5459" stroke="white" stroke-width="1.45411"/>
<rect x="923.099" y="0.727053" width="48.5459" height="48.5459" stroke="white" stroke-width="1.45411"/>
<rect x="971.645" y="0.727053" width="48.5459" height="48.5459" stroke="white" stroke-width="1.45411"/>
<rect x="1020.19" y="0.727053" width="48.5459" height="48.5459" stroke="white" stroke-width="1.45411"/>
<rect x="1068.74" y="0.727053" width="48.5459" height="48.5459" stroke="white" stroke-width="1.45411"/>
<rect x="1117.28" y="0.727053" width="48.5459" height="48.5459" stroke="white" stroke-width="1.45411"/>
<rect x="1165.83" y="0.727053" width="48.5459" height="48.5459" stroke="white" stroke-width="1.45411"/>
<rect x="1214.37" y="0.727053" width="48.5459" height="48.5459" stroke="white" stroke-width="1.45411"/>
<rect x="0.727053" y="49.2271" width="48.5459" height="48.5459" stroke="white" stroke-width="1.45411"/>
<rect x="49.273" y="49.2271" width="48.5459" height="48.5459" stroke="white" stroke-width="1.45411"/>
<rect x="97.8188" y="49.2271" width="48.5459" height="48.5459" stroke="white" stroke-width="1.45411"/>
<rect x="146.365" y="49.2271" width="48.5459" height="48.5459" stroke="white" stroke-width="1.45411"/>
<rect x="194.911" y="49.2271" width="48.5459" height="48.5459" stroke="white" stroke-width="1.45411"/>
<rect x="243.457" y="49.2271" width="48.5459" height="48.5459" stroke="white" stroke-width="1.45411"/>
<rect x="292.002" y="49.2271" width="48.5459" height="48.5459" stroke="white" stroke-width="1.45411"/>
<rect x="340.548" y="49.2271" width="48.5459" height="48.5459" stroke="white" stroke-width="1.45411"/>
<rect x="389.094" y="49.2271" width="48.5459" height="48.5459" stroke="white" stroke-width="1.45411"/>
<rect x="437.64" y="49.2271" width="48.5459" height="48.5459" stroke="white" stroke-width="1.45411"/>
<rect x="486.186" y="49.2271" width="48.5459" height="48.5459" stroke="white" stroke-width="1.45411"/>
<rect x="534.732" y="49.2271" width="48.5459" height="48.5459" stroke="white" stroke-width="1.45411"/>
<rect x="583.278" y="49.2271" width="48.5459" height="48.5459" stroke="white" stroke-width="1.45411"/>
<rect x="631.824" y="49.2271" width="48.5459" height="48.5459" stroke="white" stroke-width="1.45411"/>
<rect x="680.37" y="49.2271" width="48.5459" height="48.5459" stroke="white" stroke-width="1.45411"/>
<rect x="728.916" y="49.2271" width="48.5459" height="48.5459" stroke="white" stroke-width="1.45411"/>
<rect x="777.461" y="49.2271" width="48.5459" height="48.5459" stroke="white" stroke-width="1.45411"/>
<rect x="826.007" y="49.2271" width="48.5459" height="48.5459" stroke="white" stroke-width="1.45411"/>
<rect x="874.553" y="49.2271" width="48.5459" height="48.5459" stroke="white" stroke-width="1.45411"/>
<rect x="923.099" y="49.2271" width="48.5459" height="48.5459" stroke="white" stroke-width="1.45411"/>
<rect x="971.645" y="49.2271" width="48.5459" height="48.5459" stroke="white" stroke-width="1.45411"/>
<rect x="1020.19" y="49.2271" width="48.5459" height="48.5459" stroke="white" stroke-width="1.45411"/>
<rect x="1068.74" y="49.2271" width="48.5459" height="48.5459" stroke="white" stroke-width="1.45411"/>
<rect x="1117.28" y="49.2271" width="48.5459" height="48.5459" stroke="white" stroke-width="1.45411"/>
<rect x="1165.83" y="49.2271" width="48.5459" height="48.5459" stroke="white" stroke-width="1.45411"/>
<rect x="1214.37" y="49.2271" width="48.5459" height="48.5459" stroke="white" stroke-width="1.45411"/>
<rect x="0.727053" y="97.7271" width="48.5459" height="48.5459" stroke="white" stroke-width="1.45411"/>
<rect x="49.273" y="97.7271" width="48.5459" height="48.5459" stroke="white" stroke-width="1.45411"/>
<rect x="97.8188" y="97.7271" width="48.5459" height="48.5459" stroke="white" stroke-width="1.45411"/>
<rect x="146.365" y="97.7271" width="48.5459" height="48.5459" stroke="white" stroke-width="1.45411"/>
<rect x="194.911" y="97.7271" width="48.5459" height="48.5459" stroke="white" stroke-width="1.45411"/>
<rect x="243.457" y="97.7271" width="48.5459" height="48.5459" stroke="white" stroke-width="1.45411"/>
<rect x="292.002" y="97.7271" width="48.5459" height="48.5459" stroke="white" stroke-width="1.45411"/>
<rect x="340.548" y="97.7271" width="48.5459" height="48.5459" stroke="white" stroke-width="1.45411"/>
<rect x="389.094" y="97.7271" width="48.5459" height="48.5459" stroke="white" stroke-width="1.45411"/>
<rect x="437.64" y="97.7271" width="48.5459" height="48.5459" stroke="white" stroke-width="1.45411"/>
<rect x="486.186" y="97.7271" width="48.5459" height="48.5459" stroke="white" stroke-width="1.45411"/>
<rect x="534.732" y="97.7271" width="48.5459" height="48.5459" stroke="white" stroke-width="1.45411"/>
<rect x="583.278" y="97.7271" width="48.5459" height="48.5459" stroke="white" stroke-width="1.45411"/>
<rect x="631.824" y="97.7271" width="48.5459" height="48.5459" stroke="white" stroke-width="1.45411"/>
<rect x="680.37" y="97.7271" width="48.5459" height="48.5459" stroke="white" stroke-width="1.45411"/>
<rect x="728.916" y="97.7271" width="48.5459" height="48.5459" stroke="white" stroke-width="1.45411"/>
<rect x="777.461" y="97.7271" width="48.5459" height="48.5459" stroke="white" stroke-width="1.45411"/>
<rect x="826.007" y="97.7271" width="48.5459" height="48.5459" stroke="white" stroke-width="1.45411"/>
<rect x="874.553" y="97.7271" width="48.5459" height="48.5459" stroke="white" stroke-width="1.45411"/>
<rect x="923.099" y="97.7271" width="48.5459" height="48.5459" stroke="white" stroke-width="1.45411"/>
<rect x="971.645" y="97.7271" width="48.5459" height="48.5459" stroke="white" stroke-width="1.45411"/>
<rect x="1020.19" y="97.7271" width="48.5459" height="48.5459" stroke="white" stroke-width="1.45411"/>
<rect x="1068.74" y="97.7271" width="48.5459" height="48.5459" stroke="white" stroke-width="1.45411"/>
<rect x="1117.28" y="97.7271" width="48.5459" height="48.5459" stroke="white" stroke-width="1.45411"/>
<rect x="1165.83" y="97.7271" width="48.5459" height="48.5459" stroke="white" stroke-width="1.45411"/>
<rect x="1214.37" y="97.7271" width="48.5459" height="48.5459" stroke="white" stroke-width="1.45411"/>
<rect x="0.727053" y="146.227" width="48.5459" height="48.5459" stroke="white" stroke-width="1.45411"/>
<rect x="49.273" y="146.227" width="48.5459" height="48.5459" stroke="white" stroke-width="1.45411"/>
<rect x="97.8188" y="146.227" width="48.5459" height="48.5459" stroke="white" stroke-width="1.45411"/>
<rect x="146.365" y="146.227" width="48.5459" height="48.5459" stroke="white" stroke-width="1.45411"/>
<rect x="194.911" y="146.227" width="48.5459" height="48.5459" stroke="white" stroke-width="1.45411"/>
<rect x="243.457" y="146.227" width="48.5459" height="48.5459" stroke="white" stroke-width="1.45411"/>
<rect x="292.002" y="146.227" width="48.5459" height="48.5459" stroke="white" stroke-width="1.45411"/>
<rect x="340.548" y="146.227" width="48.5459" height="48.5459" stroke="white" stroke-width="1.45411"/>
<rect x="389.094" y="146.227" width="48.5459" height="48.5459" stroke="white" stroke-width="1.45411"/>
<rect x="437.64" y="146.227" width="48.5459" height="48.5459" stroke="white" stroke-width="1.45411"/>
<rect x="486.186" y="146.227" width="48.5459" height="48.5459" stroke="white" stroke-width="1.45411"/>
<rect x="534.732" y="146.227" width="48.5459" height="48.5459" stroke="white" stroke-width="1.45411"/>
<rect x="583.278" y="146.227" width="48.5459" height="48.5459" stroke="white" stroke-width="1.45411"/>
<rect x="631.824" y="146.227" width="48.5459" height="48.5459" stroke="white" stroke-width="1.45411"/>
<rect x="680.37" y="146.227" width="48.5459" height="48.5459" stroke="white" stroke-width="1.45411"/>
<rect x="728.916" y="146.227" width="48.5459" height="48.5459" stroke="white" stroke-width="1.45411"/>
<rect x="777.461" y="146.227" width="48.5459" height="48.5459" stroke="white" stroke-width="1.45411"/>
<rect x="826.007" y="146.227" width="48.5459" height="48.5459" stroke="white" stroke-width="1.45411"/>
<rect x="874.553" y="146.227" width="48.5459" height="48.5459" stroke="white" stroke-width="1.45411"/>
<rect x="923.099" y="146.227" width="48.5459" height="48.5459" stroke="white" stroke-width="1.45411"/>
<rect x="971.645" y="146.227" width="48.5459" height="48.5459" stroke="white" stroke-width="1.45411"/>
<rect x="1020.19" y="146.227" width="48.5459" height="48.5459" stroke="white" stroke-width="1.45411"/>
<rect x="1068.74" y="146.227" width="48.5459" height="48.5459" stroke="white" stroke-width="1.45411"/>
<rect x="1117.28" y="146.227" width="48.5459" height="48.5459" stroke="white" stroke-width="1.45411"/>
<rect x="1165.83" y="146.227" width="48.5459" height="48.5459" stroke="white" stroke-width="1.45411"/>
<rect x="1214.37" y="146.227" width="48.5459" height="48.5459" stroke="white" stroke-width="1.45411"/>
<rect x="0.727053" y="194.727" width="48.5459" height="48.5459" stroke="white" stroke-width="1.45411"/>
<rect x="49.273" y="194.727" width="48.5459" height="48.5459" stroke="white" stroke-width="1.45411"/>
<rect x="97.8188" y="194.727" width="48.5459" height="48.5459" stroke="white" stroke-width="1.45411"/>
<rect x="146.365" y="194.727" width="48.5459" height="48.5459" stroke="white" stroke-width="1.45411"/>
<rect x="194.911" y="194.727" width="48.5459" height="48.5459" stroke="white" stroke-width="1.45411"/>
<rect x="243.457" y="194.727" width="48.5459" height="48.5459" stroke="white" stroke-width="1.45411"/>
<rect x="292.002" y="194.727" width="48.5459" height="48.5459" stroke="white" stroke-width="1.45411"/>
<rect x="340.548" y="194.727" width="48.5459" height="48.5459" stroke="white" stroke-width="1.45411"/>
<rect x="389.094" y="194.727" width="48.5459" height="48.5459" stroke="white" stroke-width="1.45411"/>
<rect x="437.64" y="194.727" width="48.5459" height="48.5459" stroke="white" stroke-width="1.45411"/>
<rect x="486.186" y="194.727" width="48.5459" height="48.5459" stroke="white" stroke-width="1.45411"/>
<rect x="534.732" y="194.727" width="48.5459" height="48.5459" stroke="white" stroke-width="1.45411"/>
<rect x="583.278" y="194.727" width="48.5459" height="48.5459" stroke="white" stroke-width="1.45411"/>
<rect x="631.824" y="194.727" width="48.5459" height="48.5459" stroke="white" stroke-width="1.45411"/>
<rect x="680.37" y="194.727" width="48.5459" height="48.5459" stroke="white" stroke-width="1.45411"/>
<rect x="728.916" y="194.727" width="48.5459" height="48.5459" stroke="white" stroke-width="1.45411"/>
<rect x="777.461" y="194.727" width="48.5459" height="48.5459" stroke="white" stroke-width="1.45411"/>
<rect x="826.007" y="194.727" width="48.5459" height="48.5459" stroke="white" stroke-width="1.45411"/>
<rect x="874.553" y="194.727" width="48.5459" height="48.5459" stroke="white" stroke-width="1.45411"/>
<rect x="923.099" y="194.727" width="48.5459" height="48.5459" stroke="white" stroke-width="1.45411"/>
<rect x="971.645" y="194.727" width="48.5459" height="48.5459" stroke="white" stroke-width="1.45411"/>
<rect x="1020.19" y="194.727" width="48.5459" height="48.5459" stroke="white" stroke-width="1.45411"/>
<rect x="1068.74" y="194.727" width="48.5459" height="48.5459" stroke="white" stroke-width="1.45411"/>
<rect x="1117.28" y="194.727" width="48.5459" height="48.5459" stroke="white" stroke-width="1.45411"/>
<rect x="1165.83" y="194.727" width="48.5459" height="48.5459" stroke="white" stroke-width="1.45411"/>
<rect x="1214.37" y="194.727" width="48.5459" height="48.5459" stroke="white" stroke-width="1.45411"/>
<rect x="0.727053" y="243.227" width="48.5459" height="48.5459" stroke="white" stroke-width="1.45411"/>
<rect x="49.273" y="243.227" width="48.5459" height="48.5459" stroke="white" stroke-width="1.45411"/>
<rect x="97.8188" y="243.227" width="48.5459" height="48.5459" stroke="white" stroke-width="1.45411"/>
<rect x="146.365" y="243.227" width="48.5459" height="48.5459" stroke="white" stroke-width="1.45411"/>
<rect x="194.911" y="243.227" width="48.5459" height="48.5459" stroke="white" stroke-width="1.45411"/>
<rect x="243.457" y="243.227" width="48.5459" height="48.5459" stroke="white" stroke-width="1.45411"/>
<rect x="292.002" y="243.227" width="48.5459" height="48.5459" stroke="white" stroke-width="1.45411"/>
<rect x="340.548" y="243.227" width="48.5459" height="48.5459" stroke="white" stroke-width="1.45411"/>
<rect x="389.094" y="243.227" width="48.5459" height="48.5459" stroke="white" stroke-width="1.45411"/>
<rect x="437.64" y="243.227" width="48.5459" height="48.5459" stroke="white" stroke-width="1.45411"/>
<rect x="486.186" y="243.227" width="48.5459" height="48.5459" stroke="white" stroke-width="1.45411"/>
<rect x="534.732" y="243.227" width="48.5459" height="48.5459" stroke="white" stroke-width="1.45411"/>
<rect x="583.278" y="243.227" width="48.5459" height="48.5459" stroke="white" stroke-width="1.45411"/>
<rect x="631.824" y="243.227" width="48.5459" height="48.5459" stroke="white" stroke-width="1.45411"/>
<rect x="680.37" y="243.227" width="48.5459" height="48.5459" stroke="white" stroke-width="1.45411"/>
<rect x="728.916" y="243.227" width="48.5459" height="48.5459" stroke="white" stroke-width="1.45411"/>
<rect x="777.461" y="243.227" width="48.5459" height="48.5459" stroke="white" stroke-width="1.45411"/>
<rect x="826.007" y="243.227" width="48.5459" height="48.5459" stroke="white" stroke-width="1.45411"/>
<rect x="874.553" y="243.227" width="48.5459" height="48.5459" stroke="white" stroke-width="1.45411"/>
<rect x="923.099" y="243.227" width="48.5459" height="48.5459" stroke="white" stroke-width="1.45411"/>
<rect x="971.645" y="243.227" width="48.5459" height="48.5459" stroke="white" stroke-width="1.45411"/>
<rect x="1020.19" y="243.227" width="48.5459" height="48.5459" stroke="white" stroke-width="1.45411"/>
<rect x="1068.74" y="243.227" width="48.5459" height="48.5459" stroke="white" stroke-width="1.45411"/>
<rect x="1117.28" y="243.227" width="48.5459" height="48.5459" stroke="white" stroke-width="1.45411"/>
<rect x="1165.83" y="243.227" width="48.5459" height="48.5459" stroke="white" stroke-width="1.45411"/>
<rect x="1214.37" y="243.227" width="48.5459" height="48.5459" stroke="white" stroke-width="1.45411"/>
<rect x="0.727053" y="291.727" width="48.5459" height="48.5459" stroke="white" stroke-width="1.45411"/>
<rect x="49.273" y="291.727" width="48.5459" height="48.5459" stroke="white" stroke-width="1.45411"/>
<rect x="97.8188" y="291.727" width="48.5459" height="48.5459" stroke="white" stroke-width="1.45411"/>
<rect x="146.365" y="291.727" width="48.5459" height="48.5459" stroke="white" stroke-width="1.45411"/>
<rect x="194.911" y="291.727" width="48.5459" height="48.5459" stroke="white" stroke-width="1.45411"/>
<rect x="243.457" y="291.727" width="48.5459" height="48.5459" stroke="white" stroke-width="1.45411"/>
<rect x="292.002" y="291.727" width="48.5459" height="48.5459" stroke="white" stroke-width="1.45411"/>
<rect x="340.548" y="291.727" width="48.5459" height="48.5459" stroke="white" stroke-width="1.45411"/>
<rect x="389.094" y="291.727" width="48.5459" height="48.5459" stroke="white" stroke-width="1.45411"/>
<rect x="437.64" y="291.727" width="48.5459" height="48.5459" stroke="white" stroke-width="1.45411"/>
<rect x="486.186" y="291.727" width="48.5459" height="48.5459" stroke="white" stroke-width="1.45411"/>
<rect x="534.732" y="291.727" width="48.5459" height="48.5459" stroke="white" stroke-width="1.45411"/>
<rect x="583.278" y="291.727" width="48.5459" height="48.5459" stroke="white" stroke-width="1.45411"/>
<rect x="631.824" y="291.727" width="48.5459" height="48.5459" stroke="white" stroke-width="1.45411"/>
<rect x="680.37" y="291.727" width="48.5459" height="48.5459" stroke="white" stroke-width="1.45411"/>
<rect x="728.916" y="291.727" width="48.5459" height="48.5459" stroke="white" stroke-width="1.45411"/>
<rect x="777.461" y="291.727" width="48.5459" height="48.5459" stroke="white" stroke-width="1.45411"/>
<rect x="826.007" y="291.727" width="48.5459" height="48.5459" stroke="white" stroke-width="1.45411"/>
<rect x="874.553" y="291.727" width="48.5459" height="48.5459" stroke="white" stroke-width="1.45411"/>
<rect x="923.099" y="291.727" width="48.5459" height="48.5459" stroke="white" stroke-width="1.45411"/>
<rect x="971.645" y="291.727" width="48.5459" height="48.5459" stroke="white" stroke-width="1.45411"/>
<rect x="1020.19" y="291.727" width="48.5459" height="48.5459" stroke="white" stroke-width="1.45411"/>
<rect x="1068.74" y="291.727" width="48.5459" height="48.5459" stroke="white" stroke-width="1.45411"/>
<rect x="1117.28" y="291.727" width="48.5459" height="48.5459" stroke="white" stroke-width="1.45411"/>
<rect x="1165.83" y="291.727" width="48.5459" height="48.5459" stroke="white" stroke-width="1.45411"/>
<rect x="1214.37" y="291.727" width="48.5459" height="48.5459" stroke="white" stroke-width="1.45411"/>
<rect x="0.727053" y="340.227" width="48.5459" height="48.5459" stroke="white" stroke-width="1.45411"/>
<rect x="49.273" y="340.227" width="48.5459" height="48.5459" stroke="white" stroke-width="1.45411"/>
<rect x="97.8188" y="340.227" width="48.5459" height="48.5459" stroke="white" stroke-width="1.45411"/>
<rect x="146.365" y="340.227" width="48.5459" height="48.5459" stroke="white" stroke-width="1.45411"/>
<rect x="194.911" y="340.227" width="48.5459" height="48.5459" stroke="white" stroke-width="1.45411"/>
<rect x="243.457" y="340.227" width="48.5459" height="48.5459" stroke="white" stroke-width="1.45411"/>
<rect x="292.002" y="340.227" width="48.5459" height="48.5459" stroke="white" stroke-width="1.45411"/>
<rect x="340.548" y="340.227" width="48.5459" height="48.5459" stroke="white" stroke-width="1.45411"/>
<rect x="389.094" y="340.227" width="48.5459" height="48.5459" stroke="white" stroke-width="1.45411"/>
<rect x="437.64" y="340.227" width="48.5459" height="48.5459" stroke="white" stroke-width="1.45411"/>
<rect x="486.186" y="340.227" width="48.5459" height="48.5459" stroke="white" stroke-width="1.45411"/>
<rect x="534.732" y="340.227" width="48.5459" height="48.5459" stroke="white" stroke-width="1.45411"/>
<rect x="583.278" y="340.227" width="48.5459" height="48.5459" stroke="white" stroke-width="1.45411"/>
<rect x="631.824" y="340.227" width="48.5459" height="48.5459" stroke="white" stroke-width="1.45411"/>
<rect x="680.37" y="340.227" width="48.5459" height="48.5459" stroke="white" stroke-width="1.45411"/>
<rect x="728.916" y="340.227" width="48.5459" height="48.5459" stroke="white" stroke-width="1.45411"/>
<rect x="777.461" y="340.227" width="48.5459" height="48.5459" stroke="white" stroke-width="1.45411"/>
<rect x="826.007" y="340.227" width="48.5459" height="48.5459" stroke="white" stroke-width="1.45411"/>
<rect x="874.553" y="340.227" width="48.5459" height="48.5459" stroke="white" stroke-width="1.45411"/>
<rect x="923.099" y="340.227" width="48.5459" height="48.5459" stroke="white" stroke-width="1.45411"/>
<rect x="971.645" y="340.227" width="48.5459" height="48.5459" stroke="white" stroke-width="1.45411"/>
<rect x="1020.19" y="340.227" width="48.5459" height="48.5459" stroke="white" stroke-width="1.45411"/>
<rect x="1068.74" y="340.227" width="48.5459" height="48.5459" stroke="white" stroke-width="1.45411"/>
<rect x="1117.28" y="340.227" width="48.5459" height="48.5459" stroke="white" stroke-width="1.45411"/>
<rect x="1165.83" y="340.227" width="48.5459" height="48.5459" stroke="white" stroke-width="1.45411"/>
<rect x="1214.37" y="340.227" width="48.5459" height="48.5459" stroke="white" stroke-width="1.45411"/>
<rect x="0.727053" y="388.727" width="48.5459" height="48.5459" stroke="white" stroke-width="1.45411"/>
<rect x="49.273" y="388.727" width="48.5459" height="48.5459" stroke="white" stroke-width="1.45411"/>
<rect x="97.8188" y="388.727" width="48.5459" height="48.5459" stroke="white" stroke-width="1.45411"/>
<rect x="146.365" y="388.727" width="48.5459" height="48.5459" stroke="white" stroke-width="1.45411"/>
<rect x="194.911" y="388.727" width="48.5459" height="48.5459" stroke="white" stroke-width="1.45411"/>
<rect x="243.457" y="388.727" width="48.5459" height="48.5459" stroke="white" stroke-width="1.45411"/>
<rect x="292.002" y="388.727" width="48.5459" height="48.5459" stroke="white" stroke-width="1.45411"/>
<rect x="340.548" y="388.727" width="48.5459" height="48.5459" stroke="white" stroke-width="1.45411"/>
<rect x="389.094" y="388.727" width="48.5459" height="48.5459" stroke="white" stroke-width="1.45411"/>
<rect x="437.64" y="388.727" width="48.5459" height="48.5459" stroke="white" stroke-width="1.45411"/>
<rect x="486.186" y="388.727" width="48.5459" height="48.5459" stroke="white" stroke-width="1.45411"/>
<rect x="534.732" y="388.727" width="48.5459" height="48.5459" stroke="white" stroke-width="1.45411"/>
<rect x="583.278" y="388.727" width="48.5459" height="48.5459" stroke="white" stroke-width="1.45411"/>
<rect x="631.824" y="388.727" width="48.5459" height="48.5459" stroke="white" stroke-width="1.45411"/>
<rect x="680.37" y="388.727" width="48.5459" height="48.5459" stroke="white" stroke-width="1.45411"/>
<rect x="728.916" y="388.727" width="48.5459" height="48.5459" stroke="white" stroke-width="1.45411"/>
<rect x="777.461" y="388.727" width="48.5459" height="48.5459" stroke="white" stroke-width="1.45411"/>
<rect x="826.007" y="388.727" width="48.5459" height="48.5459" stroke="white" stroke-width="1.45411"/>
<rect x="874.553" y="388.727" width="48.5459" height="48.5459" stroke="white" stroke-width="1.45411"/>
<rect x="923.099" y="388.727" width="48.5459" height="48.5459" stroke="white" stroke-width="1.45411"/>
<rect x="971.645" y="388.727" width="48.5459" height="48.5459" stroke="white" stroke-width="1.45411"/>
<rect x="1020.19" y="388.727" width="48.5459" height="48.5459" stroke="white" stroke-width="1.45411"/>
<rect x="1068.74" y="388.727" width="48.5459" height="48.5459" stroke="white" stroke-width="1.45411"/>
<rect x="1117.28" y="388.727" width="48.5459" height="48.5459" stroke="white" stroke-width="1.45411"/>
<rect x="1165.83" y="388.727" width="48.5459" height="48.5459" stroke="white" stroke-width="1.45411"/>
<rect x="1214.37" y="388.727" width="48.5459" height="48.5459" stroke="white" stroke-width="1.45411"/>
<rect x="0.727053" y="437.227" width="48.5459" height="48.5459" stroke="white" stroke-width="1.45411"/>
<rect x="49.273" y="437.227" width="48.5459" height="48.5459" stroke="white" stroke-width="1.45411"/>
<rect x="97.8188" y="437.227" width="48.5459" height="48.5459" stroke="white" stroke-width="1.45411"/>
<rect x="146.365" y="437.227" width="48.5459" height="48.5459" stroke="white" stroke-width="1.45411"/>
<rect x="194.911" y="437.227" width="48.5459" height="48.5459" stroke="white" stroke-width="1.45411"/>
<rect x="243.457" y="437.227" width="48.5459" height="48.5459" stroke="white" stroke-width="1.45411"/>
<rect x="292.002" y="437.227" width="48.5459" height="48.5459" stroke="white" stroke-width="1.45411"/>
<rect x="340.548" y="437.227" width="48.5459" height="48.5459" stroke="white" stroke-width="1.45411"/>
<rect x="389.094" y="437.227" width="48.5459" height="48.5459" stroke="white" stroke-width="1.45411"/>
<rect x="437.64" y="437.227" width="48.5459" height="48.5459" stroke="white" stroke-width="1.45411"/>
<rect x="486.186" y="437.227" width="48.5459" height="48.5459" stroke="white" stroke-width="1.45411"/>
<rect x="534.732" y="437.227" width="48.5459" height="48.5459" stroke="white" stroke-width="1.45411"/>
<rect x="583.278" y="437.227" width="48.5459" height="48.5459" stroke="white" stroke-width="1.45411"/>
<rect x="631.824" y="437.227" width="48.5459" height="48.5459" stroke="white" stroke-width="1.45411"/>
<rect x="680.37" y="437.227" width="48.5459" height="48.5459" stroke="white" stroke-width="1.45411"/>
<rect x="728.916" y="437.227" width="48.5459" height="48.5459" stroke="white" stroke-width="1.45411"/>
<rect x="777.461" y="437.227" width="48.5459" height="48.5459" stroke="white" stroke-width="1.45411"/>
<rect x="826.007" y="437.227" width="48.5459" height="48.5459" stroke="white" stroke-width="1.45411"/>
<rect x="874.553" y="437.227" width="48.5459" height="48.5459" stroke="white" stroke-width="1.45411"/>
<rect x="923.099" y="437.227" width="48.5459" height="48.5459" stroke="white" stroke-width="1.45411"/>
<rect x="971.645" y="437.227" width="48.5459" height="48.5459" stroke="white" stroke-width="1.45411"/>
<rect x="1020.19" y="437.227" width="48.5459" height="48.5459" stroke="white" stroke-width="1.45411"/>
<rect x="1068.74" y="437.227" width="48.5459" height="48.5459" stroke="white" stroke-width="1.45411"/>
<rect x="1117.28" y="437.227" width="48.5459" height="48.5459" stroke="white" stroke-width="1.45411"/>
<rect x="1165.83" y="437.227" width="48.5459" height="48.5459" stroke="white" stroke-width="1.45411"/>
<rect x="1214.37" y="437.227" width="48.5459" height="48.5459" stroke="white" stroke-width="1.45411"/>
<rect x="0.727053" y="485.727" width="48.5459" height="48.5459" stroke="white" stroke-width="1.45411"/>
<rect x="49.273" y="485.727" width="48.5459" height="48.5459" stroke="white" stroke-width="1.45411"/>
<rect x="97.8188" y="485.727" width="48.5459" height="48.5459" stroke="white" stroke-width="1.45411"/>
<rect x="146.365" y="485.727" width="48.5459" height="48.5459" stroke="white" stroke-width="1.45411"/>
<rect x="194.911" y="485.727" width="48.5459" height="48.5459" stroke="white" stroke-width="1.45411"/>
<rect x="243.457" y="485.727" width="48.5459" height="48.5459" stroke="white" stroke-width="1.45411"/>
<rect x="292.002" y="485.727" width="48.5459" height="48.5459" stroke="white" stroke-width="1.45411"/>
<rect x="340.548" y="485.727" width="48.5459" height="48.5459" stroke="white" stroke-width="1.45411"/>
<rect x="389.094" y="485.727" width="48.5459" height="48.5459" stroke="white" stroke-width="1.45411"/>
<rect x="437.64" y="485.727" width="48.5459" height="48.5459" stroke="white" stroke-width="1.45411"/>
<rect x="486.186" y="485.727" width="48.5459" height="48.5459" stroke="white" stroke-width="1.45411"/>
<rect x="534.732" y="485.727" width="48.5459" height="48.5459" stroke="white" stroke-width="1.45411"/>
<rect x="583.278" y="485.727" width="48.5459" height="48.5459" stroke="white" stroke-width="1.45411"/>
<rect x="631.824" y="485.727" width="48.5459" height="48.5459" stroke="white" stroke-width="1.45411"/>
<rect x="680.37" y="485.727" width="48.5459" height="48.5459" stroke="white" stroke-width="1.45411"/>
<rect x="728.916" y="485.727" width="48.5459" height="48.5459" stroke="white" stroke-width="1.45411"/>
<rect x="777.461" y="485.727" width="48.5459" height="48.5459" stroke="white" stroke-width="1.45411"/>
<rect x="826.007" y="485.727" width="48.5459" height="48.5459" stroke="white" stroke-width="1.45411"/>
<rect x="874.553" y="485.727" width="48.5459" height="48.5459" stroke="white" stroke-width="1.45411"/>
<rect x="923.099" y="485.727" width="48.5459" height="48.5459" stroke="white" stroke-width="1.45411"/>
<rect x="971.645" y="485.727" width="48.5459" height="48.5459" stroke="white" stroke-width="1.45411"/>
<rect x="1020.19" y="485.727" width="48.5459" height="48.5459" stroke="white" stroke-width="1.45411"/>
<rect x="1068.74" y="485.727" width="48.5459" height="48.5459" stroke="white" stroke-width="1.45411"/>
<rect x="1117.28" y="485.727" width="48.5459" height="48.5459" stroke="white" stroke-width="1.45411"/>
<rect x="1165.83" y="485.727" width="48.5459" height="48.5459" stroke="white" stroke-width="1.45411"/>
<rect x="1214.37" y="485.727" width="48.5459" height="48.5459" stroke="white" stroke-width="1.45411"/>
</g>
</g>
<g filter="url(#filter1_f_268_5978)">
<circle cx="1036" cy="258" r="295" fill="url(#paint2_radial_268_5978)" fill-opacity="0.75"/>
</g>
<g style="mix-blend-mode:screen" filter="url(#filter2_f_268_5978)">
<circle cx="56" cy="130" r="295" fill="url(#paint3_radial_268_5978)" fill-opacity="0.75"/>
</g>
<g style="mix-blend-mode:screen" filter="url(#filter3_f_268_5978)">
<circle cx="1158" cy="347" r="295" fill="url(#paint4_radial_268_5978)" fill-opacity="0.25"/>
</g>
<g style="mix-blend-mode:lighten" filter="url(#filter4_f_268_5978)">
<circle cx="605" cy="312" r="295" fill="url(#paint5_radial_268_5978)" fill-opacity="0.55"/>
</g>
<path fill-rule="evenodd" clip-rule="evenodd" d="M1356.62 130.771C1318.25 104.615 1272.85 90.6489 1226.39 90.7052H1221.15C1219.12 119.353 1212.88 147.547 1202.63 174.381C1257.69 180.465 1312.96 164.815 1356.62 130.771ZM1189.98 93.6319C1183.81 146.796 1163.9 195.646 1123.63 226.466L1108.81 238.023C1097.77 209.204 1082.14 182.354 1062.52 158.508C1097.08 123.984 1141.7 101.274 1189.98 93.6319ZM1185.35 452.224C1192.26 452.226 1199.17 452.689 1206.03 453.611L1233.34 460.083C1219.45 489.202 1210.64 520.469 1207.26 552.543C1157.06 548.456 1109.58 528.05 1072.09 494.448C1104.19 468.351 1143.98 453.515 1185.35 452.224ZM1082.89 328.333C1088.99 275.974 1074.31 223.311 1042 181.631C1013.64 219.193 997.488 264.529 995.709 311.537C1025.34 314.784 1054.32 322.473 1081.66 334.343L1082.89 328.333ZM996.943 346.201C1045.33 351.995 1089.58 376.3 1120.39 414.005L1130.42 432.805C1102.31 442.475 1075.91 456.517 1052.18 474.412C1020.98 438.381 1001.69 393.602 996.943 346.201ZM1454.3 283.945C1400.29 279.63 1346.28 264.22 1315.42 225.079L1298.6 202.58C1329.45 190.853 1357.94 173.68 1382.7 151.882C1420.68 186.666 1445.89 233.165 1454.3 283.945ZM1355.85 319.392C1348.75 371.169 1369.43 425.874 1403.68 470.717C1438.87 429.145 1458.12 376.442 1458 322.011V316.001C1424.7 313.863 1392.02 305.991 1361.41 292.732L1355.85 319.392ZM1238.89 553C1244.6 501.993 1262.35 457.767 1302 426.947L1330.86 409.071C1341.87 440.522 1358.26 469.825 1379.31 495.675C1340.34 530.087 1290.84 550.295 1238.89 553Z" fill="url(#paint6_linear_268_5978)"/>
<path fill-rule="evenodd" clip-rule="evenodd" d="M121.811 -45.467C83.1272 -71.8334 37.3686 -85.911 -9.4657 -85.8543H-14.754C-16.7997 -56.9765 -23.0887 -28.5564 -33.4189 -1.50706C22.0855 4.62523 77.7917 -11.1503 121.811 -45.467ZM-46.1722 -82.9043C-52.3938 -29.3134 -72.4584 19.928 -113.055 50.9951L-127.987 62.6453C-139.124 33.5955 -154.88 6.53009 -174.649 -17.5079C-139.812 -52.3085 -94.8381 -75.2011 -46.1722 -82.9043ZM-50.8378 278.566C-43.8669 278.567 -36.9039 279.034 -29.9953 279.964L-2.46452 286.488C-16.4592 315.84 -25.3484 347.357 -28.751 379.689C-79.3583 375.57 -127.219 354.999 -165.005 321.128C-132.652 294.821 -92.5373 279.866 -50.8378 278.566ZM-154.119 153.68C-147.968 100.901 -162.764 47.815 -195.338 5.80082C-223.922 43.6641 -240.207 89.3636 -242 136.749C-212.129 140.022 -182.922 147.772 -155.364 159.739L-154.119 153.68ZM-240.756 171.692C-191.984 177.531 -147.379 202.031 -116.323 240.039L-106.213 258.99C-134.546 268.738 -161.16 282.892 -185.072 300.931C-216.525 264.611 -235.973 219.472 -240.756 171.692ZM220.266 108.936C165.827 104.587 111.387 89.0533 80.2791 49.598L63.3252 26.919C94.4213 15.0973 123.135 -2.21343 148.095 -24.1864C186.385 10.8767 211.796 57.7492 220.266 108.936ZM121.031 144.667C113.876 196.86 134.719 252.004 169.249 297.207C204.713 255.301 224.117 202.176 224 147.308V141.25C190.432 139.094 157.491 131.159 126.631 117.794L121.031 144.667ZM3.13379 380.15C8.88881 328.734 26.7762 284.153 66.7502 253.085L95.8364 235.066C106.935 266.769 123.46 296.307 144.676 322.365C105.394 357.053 55.4992 377.423 3.13379 380.15Z" fill="url(#paint7_linear_268_5978)"/>
</g>
<defs>
<filter id="filter0_f_268_5978" x="111" y="-157" width="1020" height="758" filterUnits="userSpaceOnUse" color-interpolation-filters="sRGB">
<feFlood flood-opacity="0" result="BackgroundImageFix"/>
<feBlend mode="normal" in="SourceGraphic" in2="BackgroundImageFix" result="shape"/>
<feGaussianBlur stdDeviation="100" result="effect1_foregroundBlur_268_5978"/>
</filter>
<filter id="filter1_f_268_5978" x="541" y="-237" width="990" height="990" filterUnits="userSpaceOnUse" color-interpolation-filters="sRGB">
<feFlood flood-opacity="0" result="BackgroundImageFix"/>
<feBlend mode="normal" in="SourceGraphic" in2="BackgroundImageFix" result="shape"/>
<feGaussianBlur stdDeviation="100" result="effect1_foregroundBlur_268_5978"/>
</filter>
<filter id="filter2_f_268_5978" x="-439" y="-365" width="990" height="990" filterUnits="userSpaceOnUse" color-interpolation-filters="sRGB">
<feFlood flood-opacity="0" result="BackgroundImageFix"/>
<feBlend mode="normal" in="SourceGraphic" in2="BackgroundImageFix" result="shape"/>
<feGaussianBlur stdDeviation="100" result="effect1_foregroundBlur_268_5978"/>
</filter>
<filter id="filter3_f_268_5978" x="663" y="-148" width="990" height="990" filterUnits="userSpaceOnUse" color-interpolation-filters="sRGB">
<feFlood flood-opacity="0" result="BackgroundImageFix"/>
<feBlend mode="normal" in="SourceGraphic" in2="BackgroundImageFix" result="shape"/>
<feGaussianBlur stdDeviation="100" result="effect1_foregroundBlur_268_5978"/>
</filter>
<filter id="filter4_f_268_5978" x="110" y="-183" width="990" height="990" filterUnits="userSpaceOnUse" color-interpolation-filters="sRGB">
<feFlood flood-opacity="0" result="BackgroundImageFix"/>
<feBlend mode="normal" in="SourceGraphic" in2="BackgroundImageFix" result="shape"/>
<feGaussianBlur stdDeviation="100" result="effect1_foregroundBlur_268_5978"/>
</filter>
<linearGradient id="paint0_linear_268_5978" x1="0" y1="255" x2="1242" y2="255" gradientUnits="userSpaceOnUse">
<stop stop-color="#44EF91"/>
<stop offset="1" stop-color="#01DA63"/>
</linearGradient>
<radialGradient id="paint1_radial_268_5978" cx="0" cy="0" r="1" gradientUnits="userSpaceOnUse" gradientTransform="translate(621 255) rotate(90) scale(314.358 765.553)">
<stop stop-color="white" stop-opacity="0.2"/>
<stop offset="0.859961" stop-color="white" stop-opacity="0"/>
</radialGradient>
<radialGradient id="paint2_radial_268_5978" cx="0" cy="0" r="1" gradientUnits="userSpaceOnUse" gradientTransform="translate(1036 258) rotate(-90) scale(193.5)">
<stop stop-color="#0084FF"/>
<stop offset="1" stop-color="#BBDEFF"/>
</radialGradient>
<radialGradient id="paint3_radial_268_5978" cx="0" cy="0" r="1" gradientUnits="userSpaceOnUse" gradientTransform="translate(56 130) rotate(-90) scale(193.5)">
<stop stop-color="#0084FF"/>
<stop offset="1" stop-color="#BBDEFF"/>
</radialGradient>
<radialGradient id="paint4_radial_268_5978" cx="0" cy="0" r="1" gradientUnits="userSpaceOnUse" gradientTransform="translate(1240 432) rotate(-106.406) scale(290.321)">
<stop stop-color="#0084FF"/>
<stop offset="0.863975" stop-color="#BBDEFF"/>
</radialGradient>
<radialGradient id="paint5_radial_268_5978" cx="0" cy="0" r="1" gradientUnits="userSpaceOnUse" gradientTransform="translate(605 312) rotate(-90) scale(193.5)">
<stop stop-color="#0084FF"/>
<stop offset="1" stop-color="#BBDEFF"/>
</radialGradient>
<linearGradient id="paint6_linear_268_5978" x1="1226.85" y1="90.7051" x2="1226.85" y2="553" gradientUnits="userSpaceOnUse">
<stop stop-color="#2C675C" stop-opacity="0.05"/>
<stop offset="1" stop-color="#2C675C" stop-opacity="0.2"/>
</linearGradient>
<linearGradient id="paint7_linear_268_5978" x1="-8.99998" y1="-85.8545" x2="-8.99998" y2="380.15" gradientUnits="userSpaceOnUse">
<stop stop-color="#2C675C" stop-opacity="0.2"/>
<stop offset="1" stop-color="#2C675C" stop-opacity="0.05"/>
</linearGradient>
<clipPath id="clip0_268_5978">
<rect width="1242" height="510" rx="30" fill="white"/>
</clipPath>
<clipPath id="clip1_268_5978">
<rect width="1242" height="510" fill="white"/>
</clipPath>
</defs>
</svg>
