<svg width="497" height="485" viewBox="0 0 497 485" fill="none" xmlns="http://www.w3.org/2000/svg">
<ellipse cx="249" cy="248.121" rx="237" ry="236.5" fill="#E9FFF4"/>
<ellipse cx="249" cy="248.121" rx="222" ry="221.5" fill="white"/>
<path d="M155.526 362.664L214.212 292.109" stroke="url(#paint0_linear_691_126)" stroke-width="1.97816"/>
<path d="M342.133 362.664L283.447 290.791" stroke="url(#paint1_linear_691_126)" stroke-width="1.97816"/>
<path d="M398.84 198.477L299.273 232.105" stroke="url(#paint2_linear_691_126)" stroke-width="1.97816"/>
<path d="M100.798 198.476L196.409 231.445" stroke="url(#paint3_linear_691_126)" stroke-width="1.97816"/>
<path d="M249.159 198.477V101.547" stroke="url(#paint4_linear_691_126)" stroke-width="1.97816"/>
<path d="M249.252 454.866C247.054 454.849 244.831 454.834 242.648 454.766L242.716 452.564C244.876 452.631 247.086 452.661 249.252 452.663C251.428 452.663 253.646 452.628 255.846 452.557L255.917 454.757C253.693 454.829 251.451 454.866 249.252 454.866ZM229.408 453.936C225.023 453.52 220.595 452.958 216.247 452.264L216.594 450.09C220.896 450.776 225.277 451.333 229.615 451.744L229.408 453.936ZM269.155 453.912L268.945 451.72C273.282 451.305 277.662 450.742 281.964 450.05L282.315 452.224C277.966 452.925 273.539 453.492 269.155 453.912ZM203.219 449.751C198.926 448.778 194.607 447.651 190.381 446.402L191.006 444.29C195.186 445.525 199.459 446.64 203.707 447.602L203.219 449.751ZM295.339 449.696L294.849 447.549C299.107 446.578 303.379 445.459 307.547 444.221L308.174 446.333C303.961 447.584 299.642 448.715 295.339 449.696ZM177.784 442.233C173.641 440.712 169.496 439.036 165.465 437.252L166.356 435.239C170.344 437.002 174.445 438.661 178.543 440.166L177.784 442.233ZM320.765 442.147L320.003 440.08C324.076 438.58 328.163 436.923 332.148 435.155L333.041 437.168C329.012 438.955 324.882 440.631 320.765 442.147ZM153.496 431.488C149.598 429.453 145.705 427.259 141.926 424.968L143.068 423.084C146.807 425.352 150.658 427.521 154.515 429.535L153.496 431.488ZM344.976 431.407L343.957 429.455C347.805 427.443 351.647 425.274 355.376 423.008L356.52 424.89C352.751 427.18 348.867 429.372 344.976 431.407ZM130.8 417.722C127.19 415.202 123.611 412.529 120.163 409.781L121.536 408.058C124.948 410.779 128.489 413.422 132.061 415.915L130.8 417.722ZM367.627 417.643L366.365 415.839C369.936 413.342 373.473 410.699 376.875 407.981L378.25 409.702C374.81 412.449 371.237 415.12 367.627 417.643ZM110.055 401.176C106.791 398.213 103.582 395.108 100.519 391.949L102.1 390.416C105.131 393.541 108.306 396.613 111.536 399.545L110.055 401.176ZM388.347 401.099L386.865 399.469C390.087 396.543 393.26 393.469 396.296 390.336L397.877 391.868C394.81 395.035 391.603 398.141 388.347 401.099ZM91.5904 382.137C88.7324 378.786 85.9459 375.3 83.3073 371.777L85.0705 370.457C87.6811 373.943 90.438 377.392 93.266 380.707L91.5904 382.137ZM406.803 382.046L405.128 380.617C407.955 377.3 410.712 373.846 413.322 370.355L415.086 371.674C412.448 375.203 409.662 378.692 406.803 382.046ZM75.7033 360.911C73.2937 357.221 70.975 353.411 68.8112 349.585L70.7287 348.501C72.8689 352.286 75.1634 356.056 77.5477 359.706L75.7033 360.911ZM422.693 360.791L420.847 359.589C423.233 355.931 425.527 352.154 427.668 348.361L429.587 349.443C427.423 353.278 425.103 357.096 422.693 360.791ZM62.6607 337.843C60.7442 333.879 58.9337 329.805 57.2796 325.734L59.3198 324.906C60.9566 328.932 62.7478 332.963 64.6438 336.884L62.6607 337.843ZM435.739 337.671L433.756 336.714C435.651 332.787 437.443 328.745 439.082 324.699L441.123 325.525C439.467 329.615 437.656 333.702 435.739 337.671ZM52.6821 313.287C51.2888 309.104 50.016 304.825 48.8986 300.568L51.0291 300.009C52.1341 304.219 53.3935 308.453 54.7717 312.591L52.6821 313.287ZM445.712 313.054L443.621 312.361C444.991 308.229 446.246 303.993 447.349 299.774L449.48 300.331C448.365 304.597 447.097 308.877 445.712 313.054ZM45.9438 287.635C45.1023 283.313 44.3903 278.907 43.8273 274.538L46.0116 274.256C46.5686 278.579 47.2731 282.938 48.1055 287.213L45.9438 287.635ZM452.42 287.393L450.258 286.975C451.084 282.702 451.784 278.341 452.336 274.014L454.521 274.294C453.963 278.666 453.255 283.074 452.42 287.393ZM42.554 261.333C42.2717 256.943 42.1259 252.481 42.1211 248.071L44.3236 248.069C44.3285 252.433 44.4726 256.848 44.7522 261.191L42.554 261.333ZM455.779 261.087L453.581 260.947C453.855 256.608 453.994 252.193 453.994 247.828L453.993 247.345H456.195L456.197 247.82C456.197 252.239 456.056 256.7 455.779 261.087ZM44.7215 234.948L42.5233 234.813C42.7964 230.414 43.2143 225.97 43.7655 221.604L45.9508 221.879C45.405 226.2 44.9915 230.597 44.7215 234.948ZM453.551 234.225C453.265 229.872 452.836 225.477 452.275 221.162L454.459 220.878C455.025 225.239 455.46 229.681 455.749 234.081L453.551 234.225ZM48.0135 208.918L45.8508 208.502C46.6816 204.179 47.6657 199.825 48.7744 195.561L50.906 196.114C49.809 200.334 48.8357 204.641 48.0135 208.918ZM450.164 208.207C449.326 203.928 448.336 199.624 447.226 195.414L449.356 194.853C450.478 199.108 451.478 203.458 452.326 207.784L450.164 208.207ZM54.6195 183.524L52.5277 182.834C53.9102 178.648 55.4492 174.45 57.1027 170.356L59.145 171.181C57.5092 175.231 55.9869 179.384 54.6195 183.524ZM443.471 182.837C442.088 178.703 440.553 174.562 438.909 170.529L440.948 169.698C442.61 173.775 444.162 177.96 445.559 182.138L443.471 182.837ZM64.4578 159.157L62.4725 158.202C64.383 154.23 66.449 150.267 68.6122 146.424L70.5319 147.504C68.3912 151.307 66.3479 155.227 64.4578 159.157ZM433.571 158.556C431.674 154.645 429.623 150.739 427.472 146.947L429.389 145.861C431.562 149.693 433.636 153.642 435.552 157.596L433.571 158.556ZM77.3396 136.268L75.493 135.066C77.895 131.374 80.4498 127.71 83.0857 124.175L84.8516 125.491C82.2436 128.989 79.7158 132.614 77.3396 136.268ZM420.64 135.749C418.257 132.109 415.722 128.495 413.104 125.008L414.866 123.686C417.511 127.211 420.074 130.864 422.483 134.543L420.64 135.749ZM93.0348 115.22L91.357 113.794C94.2097 110.438 97.2086 107.13 100.27 103.963L101.855 105.493C98.825 108.627 95.8578 111.9 93.0348 115.22ZM404.896 114.767C402.065 111.456 399.088 108.192 396.051 105.067L397.629 103.532C400.7 106.69 403.708 109.989 406.57 113.335L404.896 114.767ZM111.274 96.3477L109.791 94.7195C113.05 91.7507 116.444 88.8518 119.878 86.104L121.255 87.8237C117.857 90.5424 114.499 93.4107 111.274 96.3477ZM386.603 95.9482C383.373 93.0246 380.006 90.165 376.592 87.4494L377.965 85.7255C381.414 88.4706 384.818 91.3603 388.08 94.3157L386.603 95.9482ZM131.756 79.954L130.492 78.1505C134.096 75.6248 137.83 73.183 141.591 70.8923L142.736 72.7732C139.016 75.0398 135.322 77.4558 131.756 79.954ZM366.06 79.6034C362.474 77.1079 358.768 74.6999 355.044 72.4463L356.184 70.5621C359.948 72.8394 363.695 75.2731 367.318 77.7956L366.06 79.6034ZM154.149 66.3119L153.126 64.361C157.02 62.3187 161.034 60.3754 165.054 58.5853L165.95 60.5975C161.972 62.3682 158.002 64.2911 154.149 66.3119ZM343.589 66.0097C339.721 63.9964 335.735 62.0827 331.742 60.3211L332.631 58.3057C336.667 60.0861 340.696 62.0208 344.606 64.0556L343.589 66.0097ZM178.089 55.6568L177.325 53.5908C181.454 52.0632 185.689 50.65 189.911 49.3912L190.54 51.5023C186.363 52.7471 182.174 54.1453 178.089 55.6568ZM319.549 55.4068C315.455 53.9092 311.261 52.5262 307.083 51.2969L307.704 49.1836C311.928 50.4263 316.167 51.8244 320.306 53.3387L319.549 55.4068ZM203.233 48.1604L202.742 46.0138C207.027 45.0319 211.408 44.1763 215.763 43.4692L216.116 45.6438C211.807 46.3428 207.473 47.1892 203.233 48.1604ZM294.377 48.0001C290.13 47.043 285.793 46.2117 281.486 45.5287L281.831 43.3531C286.184 44.0435 290.568 44.884 294.861 45.8514L294.377 48.0001ZM229.133 43.958L228.92 41.7662C233.293 41.342 237.747 41.0521 242.158 40.9053L242.231 43.1068C237.866 43.252 233.46 43.5386 229.133 43.958ZM268.462 43.8898C264.129 43.4848 259.721 43.2138 255.362 43.0842L255.427 40.8828C259.833 41.014 264.288 41.2877 268.667 41.6969L268.462 43.8898Z" fill="#2BBE69"/>
<path d="M249.159 304.638C280.478 304.638 305.867 279.249 305.867 247.931C305.867 216.612 280.478 191.224 249.159 191.224C217.841 191.224 192.452 216.612 192.452 247.931C192.452 279.249 217.841 304.638 249.159 304.638Z" fill="#27332D"/>
<path d="M256.45 238.001C255.832 238.001 255.233 238.216 254.756 238.608C254.278 239.001 253.952 239.546 253.831 240.152C253.711 240.759 253.805 241.388 254.096 241.933C254.388 242.478 254.859 242.904 255.43 243.141C256.002 243.377 256.637 243.408 257.228 243.228C257.819 243.049 258.33 242.669 258.673 242.155C259.016 241.641 259.171 241.024 259.11 240.409C259.049 239.794 258.777 239.219 258.34 238.783C258.091 238.535 257.797 238.338 257.473 238.204C257.148 238.07 256.801 238.001 256.45 238.001Z" fill="#E6E6E6"/>
<path d="M271.322 227.32V227.311C271.237 226.94 271.051 226.6 270.783 226.329C270.515 226.059 270.177 225.868 269.807 225.78C266.825 225.052 262.133 225.828 256.933 227.91C251.933 229.853 247.359 232.75 243.464 236.439C242.4 237.497 241.412 238.628 240.506 239.825C238.506 239.686 236.501 240.009 234.644 240.767C228.865 243.31 227.215 249.818 226.776 252.491C226.712 252.87 226.737 253.259 226.848 253.628C226.96 253.996 227.155 254.334 227.418 254.615C227.681 254.896 228.006 255.112 228.366 255.247C228.727 255.382 229.114 255.432 229.497 255.393H229.51L235.947 254.69C235.955 254.772 235.964 254.848 235.971 254.917C236.054 255.701 236.404 256.433 236.962 256.99L240.104 260.134C240.66 260.693 241.392 261.043 242.177 261.126L242.392 261.149L241.691 267.578V267.591C241.658 267.918 241.688 268.249 241.782 268.564C241.876 268.878 242.031 269.172 242.238 269.427C242.446 269.682 242.701 269.893 242.99 270.05C243.279 270.206 243.596 270.304 243.923 270.338C244 270.346 244.077 270.35 244.154 270.351C244.294 270.351 244.433 270.34 244.57 270.317C247.257 269.884 253.763 268.254 256.299 262.444C257.051 260.594 257.374 258.598 257.245 256.605C258.446 255.702 259.582 254.713 260.643 253.648C264.329 249.789 267.229 245.251 269.181 240.284C271.252 235.144 272.031 230.417 271.322 227.32ZM260.607 244.823C259.784 245.646 258.737 246.207 257.596 246.434C256.455 246.662 255.272 246.546 254.197 246.101C253.122 245.657 252.203 244.903 251.556 243.936C250.909 242.969 250.564 241.832 250.563 240.669C250.563 239.506 250.907 238.368 251.553 237.401C252.199 236.433 253.117 235.679 254.191 235.233C255.266 234.787 256.449 234.67 257.59 234.896C258.731 235.123 259.779 235.682 260.602 236.505L260.607 236.509C261.709 237.595 262.335 239.074 262.347 240.622C262.359 242.169 261.755 243.658 260.669 244.761L260.607 244.823Z" fill="#E6E6E6"/>
<path d="M239.743 260.987C239.356 260.939 238.964 261.034 238.642 261.254C238.003 261.691 237.36 262.124 236.712 262.545C236.43 262.726 236.096 262.808 235.762 262.776C235.429 262.744 235.116 262.601 234.874 262.371C234.631 262.14 234.473 261.834 234.426 261.503C234.378 261.171 234.443 260.833 234.61 260.543L235.826 258.442C236 258.187 236.096 257.888 236.105 257.58C236.113 257.272 236.032 256.969 235.872 256.705C235.712 256.442 235.479 256.231 235.202 256.097C234.924 255.962 234.614 255.911 234.308 255.948C232.959 256.119 231.704 256.734 230.742 257.696C230.376 258.063 229.262 259.178 228.663 263.427C228.492 264.647 228.384 265.876 228.34 267.107C228.335 267.317 228.371 267.526 228.446 267.723C228.522 267.919 228.635 268.099 228.78 268.251C228.925 268.403 229.098 268.526 229.291 268.611C229.483 268.697 229.69 268.744 229.9 268.749C229.914 268.749 229.928 268.749 229.942 268.749H229.982C231.214 268.706 232.443 268.599 233.665 268.429C237.916 267.829 239.03 266.714 239.397 266.347C240.363 265.385 240.977 264.125 241.137 262.77C241.189 262.349 241.071 261.924 240.809 261.59C240.548 261.256 240.164 261.039 239.743 260.987Z" fill="#E6E6E6"/>
<path d="M300.561 52.4922C300.561 80.9365 277.502 103.995 249.058 103.995C220.613 103.995 197.555 80.9365 197.555 52.4922C197.555 24.0478 220.613 0.989079 249.058 0.989079C277.502 0.989079 300.561 24.0478 300.561 52.4922Z" fill="white" stroke="#2BBE69" stroke-width="1.97816"/>
<path d="M268.465 48.2366H253.612C252.262 48.2366 250.966 47.7001 250.011 46.7451C249.056 45.7901 248.52 44.4948 248.52 43.1442V28.2915C248.52 28.2358 248.509 28.1806 248.488 28.1291C248.466 28.0777 248.435 28.0309 248.396 27.9915C248.356 27.9521 248.309 27.9208 248.258 27.8995C248.206 27.8782 248.151 27.8672 248.096 27.8672H238.335C236.534 27.8672 234.807 28.5825 233.534 29.8559C232.261 31.1292 231.545 32.8562 231.545 34.657V68.6059C231.545 70.4067 232.261 72.1337 233.534 73.407C234.807 74.6804 236.534 75.3957 238.335 75.3957H262.1C263.9 75.3957 265.627 74.6804 266.901 73.407C268.174 72.1337 268.889 70.4067 268.889 68.6059V48.6609C268.889 48.6052 268.878 48.55 268.857 48.4985C268.836 48.447 268.804 48.4003 268.765 48.3609C268.726 48.3215 268.679 48.2902 268.627 48.2689C268.576 48.2475 268.521 48.2366 268.465 48.2366ZM258.705 65.211H241.73C241.28 65.211 240.848 65.0322 240.53 64.7139C240.211 64.3955 240.033 63.9638 240.033 63.5136C240.033 63.0634 240.211 62.6317 240.53 62.3133C240.848 61.995 241.28 61.8161 241.73 61.8161H258.705C259.155 61.8161 259.587 61.995 259.905 62.3133C260.223 62.6317 260.402 63.0634 260.402 63.5136C260.402 63.9638 260.223 64.3955 259.905 64.7139C259.587 65.0322 259.155 65.211 258.705 65.211ZM258.705 56.7238H241.73C241.28 56.7238 240.848 56.545 240.53 56.2266C240.211 55.9083 240.033 55.4766 240.033 55.0264C240.033 54.5762 240.211 54.1444 240.53 53.8261C240.848 53.5077 241.28 53.3289 241.73 53.3289H258.705C259.155 53.3289 259.587 53.5077 259.905 53.8261C260.223 54.1444 260.402 54.5762 260.402 55.0264C260.402 55.4766 260.223 55.9083 259.905 56.2266C259.587 56.545 259.155 56.7238 258.705 56.7238Z" fill="#2BBE69"/>
<path d="M267.533 44.4817L252.276 29.2248C252.247 29.1953 252.209 29.1752 252.168 29.1671C252.127 29.159 252.084 29.1632 252.046 29.1792C252.007 29.1952 251.974 29.2222 251.951 29.257C251.927 29.2917 251.915 29.3325 251.915 29.3744V43.146C251.915 43.5962 252.093 44.0279 252.412 44.3463C252.73 44.6646 253.162 44.8434 253.612 44.8434H267.384C267.425 44.8433 267.466 44.8307 267.501 44.8074C267.536 44.7841 267.563 44.751 267.579 44.7123C267.595 44.6737 267.599 44.6311 267.591 44.5901C267.583 44.5491 267.563 44.5114 267.533 44.4817Z" fill="#2BBE69"/>
<path d="M427.882 401.167C427.882 429.611 404.823 452.67 376.379 452.67C347.935 452.67 324.876 429.611 324.876 401.167C324.876 372.723 347.935 349.664 376.379 349.664C404.823 349.664 427.882 372.723 427.882 401.167Z" fill="white" stroke="#2BBE69" stroke-width="1.97816"/>
<path fill-rule="evenodd" clip-rule="evenodd" d="M399.499 390.465V414.921C399.499 414.921 383.193 424.058 377.645 427.166V402.71L399.499 390.469V390.465ZM352.143 414.921L373.997 427.166V402.71L352.143 390.469V414.926V414.921ZM353.99 387.395L375.817 399.618L397.645 387.395L375.817 375.167L353.99 387.395Z" fill="#2BBE69"/>
<path d="M173.239 401.167C173.239 429.611 150.181 452.67 121.736 452.67C93.2919 452.67 70.2332 429.611 70.2332 401.167C70.2332 372.723 93.2919 349.664 121.736 349.664C150.181 349.664 173.239 372.723 173.239 401.167Z" fill="white" stroke="#2BBE69" stroke-width="1.97816"/>
<path d="M107.489 423.65H104.497C103.902 423.65 103.331 423.414 102.911 422.993C102.49 422.572 102.253 422.001 102.253 421.406V407.943C102.253 407.348 102.49 406.777 102.911 406.356C103.331 405.936 103.902 405.699 104.497 405.699H107.489C108.084 405.699 108.655 405.936 109.076 406.356C109.496 406.777 109.733 407.348 109.733 407.943V421.406C109.733 422.001 109.496 422.572 109.076 422.993C108.655 423.414 108.084 423.65 107.489 423.65Z" fill="#2BBE69"/>
<path d="M128.431 423.65H125.439C124.844 423.65 124.273 423.413 123.853 422.992C123.432 422.572 123.195 422.001 123.195 421.406V398.967C123.195 398.372 123.432 397.802 123.853 397.381C124.273 396.96 124.844 396.724 125.439 396.724H128.431C129.026 396.724 129.597 396.96 130.018 397.381C130.438 397.802 130.675 398.372 130.675 398.967V421.406C130.675 422.001 130.438 422.572 130.018 422.992C129.597 423.413 129.026 423.65 128.431 423.65Z" fill="#2BBE69"/>
<path d="M138.902 423.65H135.91C135.315 423.65 134.745 423.414 134.324 422.993C133.903 422.572 133.667 422.001 133.667 421.406V388.497C133.667 387.902 133.903 387.331 134.324 386.91C134.745 386.489 135.315 386.253 135.91 386.253H138.902C139.497 386.253 140.068 386.489 140.489 386.91C140.91 387.331 141.146 387.902 141.146 388.497V421.406C141.146 422.001 140.91 422.572 140.489 422.993C140.068 423.414 139.497 423.65 138.902 423.65Z" fill="#2BBE69"/>
<path d="M117.96 423.65H114.968C114.373 423.65 113.802 423.414 113.381 422.993C112.961 422.572 112.724 422.001 112.724 421.406V381.017C112.724 380.422 112.961 379.851 113.381 379.431C113.802 379.01 114.373 378.773 114.968 378.773H117.96C118.555 378.773 119.126 379.01 119.546 379.431C119.967 379.851 120.204 380.422 120.204 381.017V421.406C120.204 421.701 120.146 421.993 120.033 422.265C119.92 422.537 119.755 422.785 119.546 422.993C119.338 423.201 119.091 423.367 118.818 423.479C118.546 423.592 118.254 423.65 117.96 423.65Z" fill="#2BBE69"/>
<path d="M103.995 182.262C103.995 210.706 80.9361 233.765 52.4917 233.765C24.0473 233.765 0.988591 210.706 0.988591 182.262C0.988591 153.817 24.0473 130.759 52.4917 130.759C80.9361 130.759 103.995 153.817 103.995 182.262Z" fill="white" stroke="#2BBE69" stroke-width="1.97816"/>
<path d="M61.1107 177.507H61.1091C60.9578 177.507 60.8099 177.462 60.6841 177.378C60.5583 177.294 60.4603 177.174 60.4024 177.035C60.3446 176.895 60.3294 176.741 60.3589 176.593C60.3884 176.444 60.4613 176.308 60.5682 176.201C60.5682 176.201 60.5682 176.201 60.5682 176.201L65.3458 171.423L66.2783 170.491L65.3458 169.558L60.5682 164.781L60.5682 164.781C60.4248 164.637 60.3442 164.443 60.3442 164.24C60.3442 164.037 60.4248 163.843 60.5682 163.699C60.7116 163.556 60.9062 163.475 61.109 163.475C61.3118 163.475 61.5064 163.556 61.6498 163.699L61.6498 163.699L67.9009 169.95L67.9009 169.95C67.9719 170.021 68.0283 170.105 68.0667 170.198C68.1051 170.291 68.1249 170.39 68.1249 170.491C68.1249 170.591 68.1051 170.691 68.0667 170.784C68.0283 170.876 67.9719 170.961 67.9009 171.032L67.9009 171.032L61.6498 177.283L61.6486 177.284C61.578 177.355 61.4942 177.411 61.4019 177.449C61.3096 177.487 61.2107 177.507 61.1107 177.507ZM62.577 162.772L62.5824 162.767L62.577 162.772Z" fill="white" stroke="#2BBE69" stroke-width="2.63765"/>
<path d="M25.8446 183.789L27.0631 183.285C27.1015 183.378 27.1579 183.462 27.2289 183.533C27.2998 183.604 27.3841 183.66 27.477 183.699C27.5698 183.737 27.6693 183.757 27.7697 183.757H27.7698C27.8702 183.757 27.9697 183.737 28.0625 183.699M25.8446 183.789L28.5671 184.917M25.8446 183.789L27.0631 183.285C27.0246 183.192 27.0049 183.092 27.0049 182.992V182.992V180.912C27.0203 177.951 28.2031 175.115 30.2965 173.021C32.3898 170.926 35.2246 169.742 38.1856 169.725M25.8446 183.789L38.1819 168.406M28.0625 183.699L28.5671 184.917M28.0625 183.699C28.0625 183.699 28.0624 183.699 28.0624 183.699L28.5671 184.917M28.0625 183.699C28.1552 183.66 28.2395 183.604 28.3106 183.533L29.1714 184.394L28.3106 183.533C28.3816 183.462 28.4379 183.377 28.4764 183.285C28.5148 183.192 28.5346 183.092 28.5346 182.992V182.992V180.915V180.908H28.5346C28.5478 178.353 29.5681 175.906 31.3739 174.099C33.1798 172.292 35.6255 171.27 38.1803 171.255L38.1881 171.255V171.255H65.2759C65.4788 171.255 65.6733 171.174 65.8168 171.031C65.9602 170.887 66.0408 170.693 66.0408 170.49C66.0408 170.287 65.9602 170.093 65.8168 169.949C65.6733 169.806 65.4788 169.725 65.2759 169.725H38.1856M28.5671 184.917C28.8199 184.812 29.0496 184.659 29.2431 184.465C29.4366 184.272 29.5901 184.042 29.6948 183.789C29.7995 183.537 29.8534 183.266 29.8534 182.992V180.915C29.8648 178.707 30.7464 176.593 32.3068 175.031C33.8672 173.47 35.9806 172.587 38.1881 172.574H65.2759C65.8286 172.574 66.3586 172.354 66.7493 171.963C67.1401 171.573 67.3596 171.043 67.3596 170.49C67.3596 169.937 67.1401 169.407 66.7493 169.017C66.3586 168.626 65.8286 168.406 65.2759 168.406H38.1819M38.1856 169.725C38.1868 169.725 38.1879 169.725 38.1891 169.725L38.1819 168.406M38.1856 169.725H38.1819V168.406" fill="white" stroke="#2BBE69" stroke-width="2.63765"/>
<path d="M44.4397 200.427L44.4381 200.427C44.3381 200.427 44.2391 200.408 44.1469 200.37C44.0546 200.331 43.9707 200.275 43.9001 200.204L43.8989 200.203L37.6479 193.952L37.6478 193.952C37.5768 193.881 37.5204 193.797 37.482 193.704C37.4436 193.611 37.4238 193.512 37.4238 193.411C37.4238 193.311 37.4436 193.212 37.482 193.119C37.5205 193.026 37.5768 192.942 37.6478 192.871L37.6479 192.871L43.8981 186.62C43.8982 186.62 43.8982 186.62 43.8983 186.62C44.0418 186.477 44.2361 186.397 44.4387 186.397C44.6414 186.397 44.8358 186.478 44.9792 186.621C45.1225 186.764 45.2031 186.959 45.2032 187.161C45.2033 187.364 45.123 187.558 44.98 187.702C44.9799 187.702 44.9798 187.702 44.9797 187.702L40.203 192.479L39.2705 193.411L40.203 194.344L44.9805 199.122C45.0875 199.229 45.1603 199.365 45.1898 199.513C45.2193 199.662 45.2042 199.815 45.1463 199.955C45.0884 200.095 44.9903 200.214 44.8646 200.298L45.564 201.345L44.8646 200.298C44.7388 200.382 44.591 200.427 44.4397 200.427Z" fill="white" stroke="#2BBE69" stroke-width="2.63765"/>
<path d="M67.3594 192.646L67.3672 192.646C69.922 192.631 72.3677 191.609 74.1736 189.802C75.9794 187.994 76.9997 185.548 77.0129 182.993V182.986V180.909C77.0129 180.706 77.0935 180.511 77.237 180.368C77.3804 180.225 77.5749 180.144 77.7778 180.144C77.9807 180.144 78.1752 180.225 78.3186 180.368C78.4621 180.511 78.5427 180.706 78.5427 180.909V182.989C78.5273 185.95 77.3445 188.786 75.2511 190.88C73.1577 192.975 70.3229 194.159 67.3618 194.176L40.2716 194.176C40.0688 194.176 39.8743 194.095 39.7308 193.952L38.7983 194.884L39.7308 193.952C39.5874 193.808 39.5068 193.614 39.5068 193.411C39.5068 193.208 39.5874 193.014 39.7308 192.87C39.8743 192.727 40.0688 192.646 40.2716 192.646L67.3594 192.646Z" fill="white" stroke="#2BBE69" stroke-width="2.63765"/>
<path d="M496.011 182.263C496.011 210.707 472.952 233.766 444.508 233.766C416.063 233.766 393.005 210.707 393.005 182.263C393.005 153.818 416.063 130.76 444.508 130.76C472.952 130.76 496.011 153.818 496.011 182.263Z" fill="white" stroke="#2BBE69" stroke-width="1.97816"/>
<path d="M465.252 161.371H424.471C422.395 161.374 420.714 163.06 420.712 165.138V171.052C420.714 173.13 422.395 174.816 424.471 174.819H465.252C467.328 174.816 469.009 173.13 469.011 171.052V165.138C469.009 163.06 467.328 161.374 465.252 161.371ZM435.179 168.714H426.297C425.956 168.714 425.678 168.438 425.678 168.094C425.678 167.752 425.956 167.474 426.297 167.474H435.179C435.523 167.474 435.798 167.752 435.798 168.094C435.798 168.438 435.523 168.714 435.179 168.714ZM441.321 169.637L441.323 169.639C441.323 169.981 441.045 170.26 440.704 170.26C440.36 170.26 440.085 169.981 440.085 169.639V166.551C440.085 166.209 440.36 165.93 440.704 165.93C441.045 165.93 441.323 166.209 441.323 166.551L441.321 169.637ZM446.872 169.637L446.874 169.639C446.874 169.981 446.596 170.26 446.255 170.26C445.911 170.26 445.636 169.981 445.636 169.639V166.551C445.636 166.209 445.911 165.93 446.255 165.93C446.596 165.93 446.874 166.209 446.874 166.551L446.872 169.637ZM452.423 169.637L452.425 169.639C452.425 169.981 452.147 170.26 451.806 170.26C451.465 170.26 451.187 169.981 451.187 169.639V166.551C451.187 166.209 451.465 165.93 451.806 165.93C452.147 165.93 452.425 166.209 452.425 166.551L452.423 169.637ZM460.799 171.345C459.486 171.345 458.303 170.553 457.802 169.339C457.299 168.123 457.577 166.725 458.506 165.797C459.433 164.867 460.828 164.588 462.042 165.092C463.254 165.596 464.045 166.781 464.045 168.094C464.045 168.956 463.704 169.785 463.095 170.393C462.485 171.003 461.66 171.345 460.799 171.345Z" fill="#2BBE69"/>
<path d="M465.252 176.059H424.471C422.395 176.061 420.714 177.745 420.712 179.823V185.739C420.714 187.818 422.395 189.502 424.471 189.504H465.252C467.328 189.502 469.009 187.818 469.011 185.739V179.823C469.009 177.745 467.328 176.061 465.252 176.059ZM435.179 183.402H426.297C425.956 183.402 425.678 183.123 425.678 182.781C425.678 182.44 425.956 182.161 426.297 182.161H435.179C435.523 182.161 435.798 182.44 435.798 182.781C435.798 183.123 435.523 183.402 435.179 183.402ZM441.321 184.325H441.323C441.323 184.669 441.045 184.945 440.704 184.945C440.36 184.945 440.085 184.669 440.085 184.325V181.238C440.085 180.894 440.36 180.618 440.704 180.618C441.045 180.618 441.323 180.894 441.323 181.238L441.321 184.325ZM446.872 184.325H446.874C446.874 184.669 446.596 184.945 446.255 184.945C445.911 184.945 445.636 184.669 445.636 184.325V181.238C445.636 180.894 445.911 180.618 446.255 180.618C446.596 180.618 446.874 180.894 446.874 181.238L446.872 184.325ZM452.423 184.325H452.425C452.425 184.669 452.147 184.945 451.806 184.945C451.465 184.945 451.187 184.669 451.187 184.325V181.238C451.187 180.894 451.465 180.618 451.806 180.618C452.147 180.618 452.425 180.894 452.425 181.238L452.423 184.325ZM460.799 186.032C459.486 186.032 458.303 185.24 457.802 184.024C457.299 182.81 457.577 181.413 458.506 180.482C459.433 179.554 460.828 179.276 462.042 179.777C463.254 180.281 464.045 181.466 464.045 182.781C464.045 183.644 463.704 184.47 463.095 185.08C462.485 185.691 461.66 186.032 460.799 186.032Z" fill="#2BBE69"/>
<path d="M465.252 190.744H424.471C422.395 190.747 420.714 192.433 420.712 194.511V200.425C420.714 202.503 422.395 204.189 424.471 204.192H465.252C467.328 204.189 469.009 202.503 469.011 200.425V194.511C469.009 192.433 467.328 190.747 465.252 190.744ZM435.179 198.09H426.297C425.956 198.09 425.678 197.811 425.678 197.469C425.678 197.125 425.956 196.849 426.297 196.849H435.179C435.523 196.849 435.798 197.125 435.798 197.469C435.798 197.811 435.523 198.09 435.179 198.09ZM441.321 199.013H441.323C441.323 199.354 441.045 199.633 440.704 199.633C440.36 199.633 440.085 199.354 440.085 199.013V195.924C440.085 195.582 440.36 195.304 440.704 195.304C441.045 195.304 441.323 195.582 441.323 195.924L441.321 199.013ZM446.872 199.013H446.874C446.874 199.354 446.596 199.633 446.255 199.633C445.911 199.633 445.636 199.354 445.636 199.013V195.924C445.636 195.582 445.911 195.304 446.255 195.304C446.596 195.304 446.874 195.582 446.874 195.924L446.872 199.013ZM452.423 199.013H452.425C452.425 199.354 452.147 199.633 451.806 199.633C451.465 199.633 451.187 199.354 451.187 199.013V195.924C451.187 195.582 451.465 195.304 451.806 195.304C452.147 195.304 452.425 195.582 452.425 195.924L452.423 199.013ZM460.799 200.718C459.486 200.718 458.303 199.926 457.802 198.712C457.299 197.496 457.577 196.098 458.506 195.17C459.433 194.24 460.828 193.962 462.042 194.465C463.254 194.969 464.045 196.154 464.045 197.469C464.045 198.329 463.704 199.158 463.095 199.766C462.485 200.377 461.66 200.718 460.799 200.718Z" fill="#2BBE69"/>
<defs>
<linearGradient id="paint0_linear_691_126" x1="155.526" y1="362.664" x2="214.871" y2="292.769" gradientUnits="userSpaceOnUse">
<stop stop-color="#2BBE69"/>
<stop offset="1" stop-color="#27332D"/>
</linearGradient>
<linearGradient id="paint1_linear_691_126" x1="342.792" y1="362.664" x2="283.447" y2="291.45" gradientUnits="userSpaceOnUse">
<stop stop-color="#2BBE69"/>
<stop offset="1" stop-color="#27332D"/>
</linearGradient>
<linearGradient id="paint2_linear_691_126" x1="399.5" y1="199.136" x2="299.273" y2="232.105" gradientUnits="userSpaceOnUse">
<stop stop-color="#2BBE69"/>
<stop offset="1" stop-color="#27332D"/>
</linearGradient>
<linearGradient id="paint3_linear_691_126" x1="101.457" y1="199.135" x2="196.409" y2="232.105" gradientUnits="userSpaceOnUse">
<stop stop-color="#2BBE69"/>
<stop offset="1" stop-color="#27332D"/>
</linearGradient>
<linearGradient id="paint4_linear_691_126" x1="249.659" y1="101.547" x2="249.659" y2="198.477" gradientUnits="userSpaceOnUse">
<stop stop-color="#2BBE69"/>
<stop offset="1" stop-color="#27332D"/>
</linearGradient>
</defs>
</svg>
