<svg width="1440" height="467" viewBox="0 0 1440 467" fill="none" xmlns="http://www.w3.org/2000/svg">
<rect width="1440" height="467" fill="url(#paint0_linear_268_5207)"/>
<mask id="mask0_268_5207" style="mask-type:alpha" maskUnits="userSpaceOnUse" x="0" y="0" width="1440" height="467">
<rect width="1440" height="467" fill="url(#paint1_radial_268_5207)"/>
</mask>
<g mask="url(#mask0_268_5207)">
<rect x="0.727053" y="0.727053" width="58.5459" height="58.5459" stroke="#27332D" stroke-width="1.45411"/>
<rect x="59.273" y="0.727053" width="58.5459" height="58.5459" stroke="#27332D" stroke-width="1.45411"/>
<rect x="117.819" y="0.727053" width="58.5459" height="58.5459" stroke="#27332D" stroke-width="1.45411"/>
<rect x="176.365" y="0.727053" width="58.5459" height="58.5459" stroke="#27332D" stroke-width="1.45411"/>
<rect x="234.911" y="0.727053" width="58.5459" height="58.5459" stroke="#27332D" stroke-width="1.45411"/>
<rect x="293.457" y="0.727053" width="58.5459" height="58.5459" stroke="#27332D" stroke-width="1.45411"/>
<rect x="352.002" y="0.727053" width="58.5459" height="58.5459" stroke="#27332D" stroke-width="1.45411"/>
<rect x="410.548" y="0.727053" width="58.5459" height="58.5459" stroke="#27332D" stroke-width="1.45411"/>
<rect x="469.094" y="0.727053" width="58.5459" height="58.5459" stroke="#27332D" stroke-width="1.45411"/>
<rect x="527.64" y="0.727053" width="58.5459" height="58.5459" stroke="#27332D" stroke-width="1.45411"/>
<rect x="586.186" y="0.727053" width="58.5459" height="58.5459" stroke="#27332D" stroke-width="1.45411"/>
<rect x="644.732" y="0.727053" width="58.5459" height="58.5459" stroke="#27332D" stroke-width="1.45411"/>
<rect x="703.278" y="0.727053" width="58.5459" height="58.5459" stroke="#27332D" stroke-width="1.45411"/>
<rect x="761.824" y="0.727053" width="58.5459" height="58.5459" stroke="#27332D" stroke-width="1.45411"/>
<rect x="820.37" y="0.727053" width="58.5459" height="58.5459" stroke="#27332D" stroke-width="1.45411"/>
<rect x="878.916" y="0.727053" width="58.5459" height="58.5459" stroke="#27332D" stroke-width="1.45411"/>
<rect x="937.461" y="0.727053" width="58.5459" height="58.5459" stroke="#27332D" stroke-width="1.45411"/>
<rect x="996.007" y="0.727053" width="58.5459" height="58.5459" stroke="#27332D" stroke-width="1.45411"/>
<rect x="1054.55" y="0.727053" width="58.5459" height="58.5459" stroke="#27332D" stroke-width="1.45411"/>
<rect x="1113.1" y="0.727053" width="58.5459" height="58.5459" stroke="#27332D" stroke-width="1.45411"/>
<rect x="1171.65" y="0.727053" width="58.5459" height="58.5459" stroke="#27332D" stroke-width="1.45411"/>
<rect x="1230.19" y="0.727053" width="58.5459" height="58.5459" stroke="#27332D" stroke-width="1.45411"/>
<rect x="1288.74" y="0.727053" width="58.5459" height="58.5459" stroke="#27332D" stroke-width="1.45411"/>
<rect x="1347.28" y="0.727053" width="58.5459" height="58.5459" stroke="#27332D" stroke-width="1.45411"/>
<rect x="1405.83" y="0.727053" width="58.5459" height="58.5459" stroke="#27332D" stroke-width="1.45411"/>
<rect x="0.727053" y="59.2271" width="58.5459" height="58.5459" stroke="#27332D" stroke-width="1.45411"/>
<rect x="59.273" y="59.2271" width="58.5459" height="58.5459" stroke="#27332D" stroke-width="1.45411"/>
<rect x="117.819" y="59.2271" width="58.5459" height="58.5459" stroke="#27332D" stroke-width="1.45411"/>
<rect x="176.365" y="59.2271" width="58.5459" height="58.5459" stroke="#27332D" stroke-width="1.45411"/>
<rect x="234.911" y="59.2271" width="58.5459" height="58.5459" stroke="#27332D" stroke-width="1.45411"/>
<rect x="293.457" y="59.2271" width="58.5459" height="58.5459" stroke="#27332D" stroke-width="1.45411"/>
<rect x="352.002" y="59.2271" width="58.5459" height="58.5459" stroke="#27332D" stroke-width="1.45411"/>
<rect x="410.548" y="59.2271" width="58.5459" height="58.5459" stroke="#27332D" stroke-width="1.45411"/>
<rect x="469.094" y="59.2271" width="58.5459" height="58.5459" stroke="#27332D" stroke-width="1.45411"/>
<rect x="527.64" y="59.2271" width="58.5459" height="58.5459" stroke="#27332D" stroke-width="1.45411"/>
<rect x="586.186" y="59.2271" width="58.5459" height="58.5459" stroke="#27332D" stroke-width="1.45411"/>
<rect x="644.732" y="59.2271" width="58.5459" height="58.5459" stroke="#27332D" stroke-width="1.45411"/>
<rect x="703.278" y="59.2271" width="58.5459" height="58.5459" stroke="#27332D" stroke-width="1.45411"/>
<rect x="761.824" y="59.2271" width="58.5459" height="58.5459" stroke="#27332D" stroke-width="1.45411"/>
<rect x="820.37" y="59.2271" width="58.5459" height="58.5459" stroke="#27332D" stroke-width="1.45411"/>
<rect x="878.916" y="59.2271" width="58.5459" height="58.5459" stroke="#27332D" stroke-width="1.45411"/>
<rect x="937.461" y="59.2271" width="58.5459" height="58.5459" stroke="#27332D" stroke-width="1.45411"/>
<rect x="996.007" y="59.2271" width="58.5459" height="58.5459" stroke="#27332D" stroke-width="1.45411"/>
<rect x="1054.55" y="59.2271" width="58.5459" height="58.5459" stroke="#27332D" stroke-width="1.45411"/>
<rect x="1113.1" y="59.2271" width="58.5459" height="58.5459" stroke="#27332D" stroke-width="1.45411"/>
<rect x="1171.65" y="59.2271" width="58.5459" height="58.5459" stroke="#27332D" stroke-width="1.45411"/>
<rect x="1230.19" y="59.2271" width="58.5459" height="58.5459" stroke="#27332D" stroke-width="1.45411"/>
<rect x="1288.74" y="59.2271" width="58.5459" height="58.5459" stroke="#27332D" stroke-width="1.45411"/>
<rect x="1347.28" y="59.2271" width="58.5459" height="58.5459" stroke="#27332D" stroke-width="1.45411"/>
<rect x="1405.83" y="59.2271" width="58.5459" height="58.5459" stroke="#27332D" stroke-width="1.45411"/>
<rect x="0.727053" y="117.727" width="58.5459" height="58.5459" stroke="#27332D" stroke-width="1.45411"/>
<rect x="59.273" y="117.727" width="58.5459" height="58.5459" stroke="#27332D" stroke-width="1.45411"/>
<rect x="117.819" y="117.727" width="58.5459" height="58.5459" stroke="#27332D" stroke-width="1.45411"/>
<rect x="176.365" y="117.727" width="58.5459" height="58.5459" stroke="#27332D" stroke-width="1.45411"/>
<rect x="234.911" y="117.727" width="58.5459" height="58.5459" stroke="#27332D" stroke-width="1.45411"/>
<rect x="293.457" y="117.727" width="58.5459" height="58.5459" stroke="#27332D" stroke-width="1.45411"/>
<rect x="352.002" y="117.727" width="58.5459" height="58.5459" stroke="#27332D" stroke-width="1.45411"/>
<rect x="410.548" y="117.727" width="58.5459" height="58.5459" stroke="#27332D" stroke-width="1.45411"/>
<rect x="469.094" y="117.727" width="58.5459" height="58.5459" stroke="#27332D" stroke-width="1.45411"/>
<rect x="527.64" y="117.727" width="58.5459" height="58.5459" stroke="#27332D" stroke-width="1.45411"/>
<rect x="586.186" y="117.727" width="58.5459" height="58.5459" stroke="#27332D" stroke-width="1.45411"/>
<rect x="644.732" y="117.727" width="58.5459" height="58.5459" stroke="#27332D" stroke-width="1.45411"/>
<rect x="703.278" y="117.727" width="58.5459" height="58.5459" stroke="#27332D" stroke-width="1.45411"/>
<rect x="761.824" y="117.727" width="58.5459" height="58.5459" stroke="#27332D" stroke-width="1.45411"/>
<rect x="820.37" y="117.727" width="58.5459" height="58.5459" stroke="#27332D" stroke-width="1.45411"/>
<rect x="878.916" y="117.727" width="58.5459" height="58.5459" stroke="#27332D" stroke-width="1.45411"/>
<rect x="937.461" y="117.727" width="58.5459" height="58.5459" stroke="#27332D" stroke-width="1.45411"/>
<rect x="996.007" y="117.727" width="58.5459" height="58.5459" stroke="#27332D" stroke-width="1.45411"/>
<rect x="1054.55" y="117.727" width="58.5459" height="58.5459" stroke="#27332D" stroke-width="1.45411"/>
<rect x="1113.1" y="117.727" width="58.5459" height="58.5459" stroke="#27332D" stroke-width="1.45411"/>
<rect x="1171.65" y="117.727" width="58.5459" height="58.5459" stroke="#27332D" stroke-width="1.45411"/>
<rect x="1230.19" y="117.727" width="58.5459" height="58.5459" stroke="#27332D" stroke-width="1.45411"/>
<rect x="1288.74" y="117.727" width="58.5459" height="58.5459" stroke="#27332D" stroke-width="1.45411"/>
<rect x="1347.28" y="117.727" width="58.5459" height="58.5459" stroke="#27332D" stroke-width="1.45411"/>
<rect x="1405.83" y="117.727" width="58.5459" height="58.5459" stroke="#27332D" stroke-width="1.45411"/>
<rect x="0.727053" y="176.227" width="58.5459" height="58.5459" stroke="#27332D" stroke-width="1.45411"/>
<rect x="59.273" y="176.227" width="58.5459" height="58.5459" stroke="#27332D" stroke-width="1.45411"/>
<rect x="117.819" y="176.227" width="58.5459" height="58.5459" stroke="#27332D" stroke-width="1.45411"/>
<rect x="176.365" y="176.227" width="58.5459" height="58.5459" stroke="#27332D" stroke-width="1.45411"/>
<rect x="234.911" y="176.227" width="58.5459" height="58.5459" stroke="#27332D" stroke-width="1.45411"/>
<rect x="293.457" y="176.227" width="58.5459" height="58.5459" stroke="#27332D" stroke-width="1.45411"/>
<rect x="352.002" y="176.227" width="58.5459" height="58.5459" stroke="#27332D" stroke-width="1.45411"/>
<rect x="410.548" y="176.227" width="58.5459" height="58.5459" stroke="#27332D" stroke-width="1.45411"/>
<rect x="469.094" y="176.227" width="58.5459" height="58.5459" stroke="#27332D" stroke-width="1.45411"/>
<rect x="527.64" y="176.227" width="58.5459" height="58.5459" stroke="#27332D" stroke-width="1.45411"/>
<rect x="586.186" y="176.227" width="58.5459" height="58.5459" stroke="#27332D" stroke-width="1.45411"/>
<rect x="644.732" y="176.227" width="58.5459" height="58.5459" stroke="#27332D" stroke-width="1.45411"/>
<rect x="703.278" y="176.227" width="58.5459" height="58.5459" stroke="#27332D" stroke-width="1.45411"/>
<rect x="761.824" y="176.227" width="58.5459" height="58.5459" stroke="#27332D" stroke-width="1.45411"/>
<rect x="820.37" y="176.227" width="58.5459" height="58.5459" stroke="#27332D" stroke-width="1.45411"/>
<rect x="878.916" y="176.227" width="58.5459" height="58.5459" stroke="#27332D" stroke-width="1.45411"/>
<rect x="937.461" y="176.227" width="58.5459" height="58.5459" stroke="#27332D" stroke-width="1.45411"/>
<rect x="996.007" y="176.227" width="58.5459" height="58.5459" stroke="#27332D" stroke-width="1.45411"/>
<rect x="1054.55" y="176.227" width="58.5459" height="58.5459" stroke="#27332D" stroke-width="1.45411"/>
<rect x="1113.1" y="176.227" width="58.5459" height="58.5459" stroke="#27332D" stroke-width="1.45411"/>
<rect x="1171.65" y="176.227" width="58.5459" height="58.5459" stroke="#27332D" stroke-width="1.45411"/>
<rect x="1230.19" y="176.227" width="58.5459" height="58.5459" stroke="#27332D" stroke-width="1.45411"/>
<rect x="1288.74" y="176.227" width="58.5459" height="58.5459" stroke="#27332D" stroke-width="1.45411"/>
<rect x="1347.28" y="176.227" width="58.5459" height="58.5459" stroke="#27332D" stroke-width="1.45411"/>
<rect x="1405.83" y="176.227" width="58.5459" height="58.5459" stroke="#27332D" stroke-width="1.45411"/>
<rect x="0.727053" y="234.727" width="58.5459" height="58.5459" stroke="#27332D" stroke-width="1.45411"/>
<rect x="59.273" y="234.727" width="58.5459" height="58.5459" stroke="#27332D" stroke-width="1.45411"/>
<rect x="117.819" y="234.727" width="58.5459" height="58.5459" stroke="#27332D" stroke-width="1.45411"/>
<rect x="176.365" y="234.727" width="58.5459" height="58.5459" stroke="#27332D" stroke-width="1.45411"/>
<rect x="234.911" y="234.727" width="58.5459" height="58.5459" stroke="#27332D" stroke-width="1.45411"/>
<rect x="293.457" y="234.727" width="58.5459" height="58.5459" stroke="#27332D" stroke-width="1.45411"/>
<rect x="352.002" y="234.727" width="58.5459" height="58.5459" stroke="#27332D" stroke-width="1.45411"/>
<rect x="410.548" y="234.727" width="58.5459" height="58.5459" stroke="#27332D" stroke-width="1.45411"/>
<rect x="469.094" y="234.727" width="58.5459" height="58.5459" stroke="#27332D" stroke-width="1.45411"/>
<rect x="527.64" y="234.727" width="58.5459" height="58.5459" stroke="#27332D" stroke-width="1.45411"/>
<rect x="586.186" y="234.727" width="58.5459" height="58.5459" stroke="#27332D" stroke-width="1.45411"/>
<rect x="644.732" y="234.727" width="58.5459" height="58.5459" stroke="#27332D" stroke-width="1.45411"/>
<rect x="703.278" y="234.727" width="58.5459" height="58.5459" stroke="#27332D" stroke-width="1.45411"/>
<rect x="761.824" y="234.727" width="58.5459" height="58.5459" stroke="#27332D" stroke-width="1.45411"/>
<rect x="820.37" y="234.727" width="58.5459" height="58.5459" stroke="#27332D" stroke-width="1.45411"/>
<rect x="878.916" y="234.727" width="58.5459" height="58.5459" stroke="#27332D" stroke-width="1.45411"/>
<rect x="937.461" y="234.727" width="58.5459" height="58.5459" stroke="#27332D" stroke-width="1.45411"/>
<rect x="996.007" y="234.727" width="58.5459" height="58.5459" stroke="#27332D" stroke-width="1.45411"/>
<rect x="1054.55" y="234.727" width="58.5459" height="58.5459" stroke="#27332D" stroke-width="1.45411"/>
<rect x="1113.1" y="234.727" width="58.5459" height="58.5459" stroke="#27332D" stroke-width="1.45411"/>
<rect x="1171.65" y="234.727" width="58.5459" height="58.5459" stroke="#27332D" stroke-width="1.45411"/>
<rect x="1230.19" y="234.727" width="58.5459" height="58.5459" stroke="#27332D" stroke-width="1.45411"/>
<rect x="1288.74" y="234.727" width="58.5459" height="58.5459" stroke="#27332D" stroke-width="1.45411"/>
<rect x="1347.28" y="234.727" width="58.5459" height="58.5459" stroke="#27332D" stroke-width="1.45411"/>
<rect x="1405.83" y="234.727" width="58.5459" height="58.5459" stroke="#27332D" stroke-width="1.45411"/>
<rect x="0.727053" y="293.227" width="58.5459" height="58.5459" stroke="#27332D" stroke-width="1.45411"/>
<rect x="59.273" y="293.227" width="58.5459" height="58.5459" stroke="#27332D" stroke-width="1.45411"/>
<rect x="117.819" y="293.227" width="58.5459" height="58.5459" stroke="#27332D" stroke-width="1.45411"/>
<rect x="176.365" y="293.227" width="58.5459" height="58.5459" stroke="#27332D" stroke-width="1.45411"/>
<rect x="234.911" y="293.227" width="58.5459" height="58.5459" stroke="#27332D" stroke-width="1.45411"/>
<rect x="293.457" y="293.227" width="58.5459" height="58.5459" stroke="#27332D" stroke-width="1.45411"/>
<rect x="352.002" y="293.227" width="58.5459" height="58.5459" stroke="#27332D" stroke-width="1.45411"/>
<rect x="410.548" y="293.227" width="58.5459" height="58.5459" stroke="#27332D" stroke-width="1.45411"/>
<rect x="469.094" y="293.227" width="58.5459" height="58.5459" stroke="#27332D" stroke-width="1.45411"/>
<rect x="527.64" y="293.227" width="58.5459" height="58.5459" stroke="#27332D" stroke-width="1.45411"/>
<rect x="586.186" y="293.227" width="58.5459" height="58.5459" stroke="#27332D" stroke-width="1.45411"/>
<rect x="644.732" y="293.227" width="58.5459" height="58.5459" stroke="#27332D" stroke-width="1.45411"/>
<rect x="703.278" y="293.227" width="58.5459" height="58.5459" stroke="#27332D" stroke-width="1.45411"/>
<rect x="761.824" y="293.227" width="58.5459" height="58.5459" stroke="#27332D" stroke-width="1.45411"/>
<rect x="820.37" y="293.227" width="58.5459" height="58.5459" stroke="#27332D" stroke-width="1.45411"/>
<rect x="878.916" y="293.227" width="58.5459" height="58.5459" stroke="#27332D" stroke-width="1.45411"/>
<rect x="937.461" y="293.227" width="58.5459" height="58.5459" stroke="#27332D" stroke-width="1.45411"/>
<rect x="996.007" y="293.227" width="58.5459" height="58.5459" stroke="#27332D" stroke-width="1.45411"/>
<rect x="1054.55" y="293.227" width="58.5459" height="58.5459" stroke="#27332D" stroke-width="1.45411"/>
<rect x="1113.1" y="293.227" width="58.5459" height="58.5459" stroke="#27332D" stroke-width="1.45411"/>
<rect x="1171.65" y="293.227" width="58.5459" height="58.5459" stroke="#27332D" stroke-width="1.45411"/>
<rect x="1230.19" y="293.227" width="58.5459" height="58.5459" stroke="#27332D" stroke-width="1.45411"/>
<rect x="1288.74" y="293.227" width="58.5459" height="58.5459" stroke="#27332D" stroke-width="1.45411"/>
<rect x="1347.28" y="293.227" width="58.5459" height="58.5459" stroke="#27332D" stroke-width="1.45411"/>
<rect x="1405.83" y="293.227" width="58.5459" height="58.5459" stroke="#27332D" stroke-width="1.45411"/>
<rect x="0.727053" y="351.727" width="58.5459" height="58.5459" stroke="#27332D" stroke-width="1.45411"/>
<rect x="59.273" y="351.727" width="58.5459" height="58.5459" stroke="#27332D" stroke-width="1.45411"/>
<rect x="117.819" y="351.727" width="58.5459" height="58.5459" stroke="#27332D" stroke-width="1.45411"/>
<rect x="176.365" y="351.727" width="58.5459" height="58.5459" stroke="#27332D" stroke-width="1.45411"/>
<rect x="234.911" y="351.727" width="58.5459" height="58.5459" stroke="#27332D" stroke-width="1.45411"/>
<rect x="293.457" y="351.727" width="58.5459" height="58.5459" stroke="#27332D" stroke-width="1.45411"/>
<rect x="352.002" y="351.727" width="58.5459" height="58.5459" stroke="#27332D" stroke-width="1.45411"/>
<rect x="410.548" y="351.727" width="58.5459" height="58.5459" stroke="#27332D" stroke-width="1.45411"/>
<rect x="469.094" y="351.727" width="58.5459" height="58.5459" stroke="#27332D" stroke-width="1.45411"/>
<rect x="527.64" y="351.727" width="58.5459" height="58.5459" stroke="#27332D" stroke-width="1.45411"/>
<rect x="586.186" y="351.727" width="58.5459" height="58.5459" stroke="#27332D" stroke-width="1.45411"/>
<rect x="644.732" y="351.727" width="58.5459" height="58.5459" stroke="#27332D" stroke-width="1.45411"/>
<rect x="703.278" y="351.727" width="58.5459" height="58.5459" stroke="#27332D" stroke-width="1.45411"/>
<rect x="761.824" y="351.727" width="58.5459" height="58.5459" stroke="#27332D" stroke-width="1.45411"/>
<rect x="820.37" y="351.727" width="58.5459" height="58.5459" stroke="#27332D" stroke-width="1.45411"/>
<rect x="878.916" y="351.727" width="58.5459" height="58.5459" stroke="#27332D" stroke-width="1.45411"/>
<rect x="937.461" y="351.727" width="58.5459" height="58.5459" stroke="#27332D" stroke-width="1.45411"/>
<rect x="996.007" y="351.727" width="58.5459" height="58.5459" stroke="#27332D" stroke-width="1.45411"/>
<rect x="1054.55" y="351.727" width="58.5459" height="58.5459" stroke="#27332D" stroke-width="1.45411"/>
<rect x="1113.1" y="351.727" width="58.5459" height="58.5459" stroke="#27332D" stroke-width="1.45411"/>
<rect x="1171.65" y="351.727" width="58.5459" height="58.5459" stroke="#27332D" stroke-width="1.45411"/>
<rect x="1230.19" y="351.727" width="58.5459" height="58.5459" stroke="#27332D" stroke-width="1.45411"/>
<rect x="1288.74" y="351.727" width="58.5459" height="58.5459" stroke="#27332D" stroke-width="1.45411"/>
<rect x="1347.28" y="351.727" width="58.5459" height="58.5459" stroke="#27332D" stroke-width="1.45411"/>
<rect x="1405.83" y="351.727" width="58.5459" height="58.5459" stroke="#27332D" stroke-width="1.45411"/>
<rect x="0.727053" y="410.227" width="58.5459" height="58.5459" stroke="#27332D" stroke-width="1.45411"/>
<rect x="59.273" y="410.227" width="58.5459" height="58.5459" stroke="#27332D" stroke-width="1.45411"/>
<rect x="117.819" y="410.227" width="58.5459" height="58.5459" stroke="#27332D" stroke-width="1.45411"/>
<rect x="176.365" y="410.227" width="58.5459" height="58.5459" stroke="#27332D" stroke-width="1.45411"/>
<rect x="234.911" y="410.227" width="58.5459" height="58.5459" stroke="#27332D" stroke-width="1.45411"/>
<rect x="293.457" y="410.227" width="58.5459" height="58.5459" stroke="#27332D" stroke-width="1.45411"/>
<rect x="352.002" y="410.227" width="58.5459" height="58.5459" stroke="#27332D" stroke-width="1.45411"/>
<rect x="410.548" y="410.227" width="58.5459" height="58.5459" stroke="#27332D" stroke-width="1.45411"/>
<rect x="469.094" y="410.227" width="58.5459" height="58.5459" stroke="#27332D" stroke-width="1.45411"/>
<rect x="527.64" y="410.227" width="58.5459" height="58.5459" stroke="#27332D" stroke-width="1.45411"/>
<rect x="586.186" y="410.227" width="58.5459" height="58.5459" stroke="#27332D" stroke-width="1.45411"/>
<rect x="644.732" y="410.227" width="58.5459" height="58.5459" stroke="#27332D" stroke-width="1.45411"/>
<rect x="703.278" y="410.227" width="58.5459" height="58.5459" stroke="#27332D" stroke-width="1.45411"/>
<rect x="761.824" y="410.227" width="58.5459" height="58.5459" stroke="#27332D" stroke-width="1.45411"/>
<rect x="820.37" y="410.227" width="58.5459" height="58.5459" stroke="#27332D" stroke-width="1.45411"/>
<rect x="878.916" y="410.227" width="58.5459" height="58.5459" stroke="#27332D" stroke-width="1.45411"/>
<rect x="937.461" y="410.227" width="58.5459" height="58.5459" stroke="#27332D" stroke-width="1.45411"/>
<rect x="996.007" y="410.227" width="58.5459" height="58.5459" stroke="#27332D" stroke-width="1.45411"/>
<rect x="1054.55" y="410.227" width="58.5459" height="58.5459" stroke="#27332D" stroke-width="1.45411"/>
<rect x="1113.1" y="410.227" width="58.5459" height="58.5459" stroke="#27332D" stroke-width="1.45411"/>
<rect x="1171.65" y="410.227" width="58.5459" height="58.5459" stroke="#27332D" stroke-width="1.45411"/>
<rect x="1230.19" y="410.227" width="58.5459" height="58.5459" stroke="#27332D" stroke-width="1.45411"/>
<rect x="1288.74" y="410.227" width="58.5459" height="58.5459" stroke="#27332D" stroke-width="1.45411"/>
<rect x="1347.28" y="410.227" width="58.5459" height="58.5459" stroke="#27332D" stroke-width="1.45411"/>
<rect x="1405.83" y="410.227" width="58.5459" height="58.5459" stroke="#27332D" stroke-width="1.45411"/>
</g>
<defs>
<linearGradient id="paint0_linear_268_5207" x1="720" y1="0" x2="720" y2="467" gradientUnits="userSpaceOnUse">
<stop stop-color="#F4F8F6"/>
<stop offset="1" stop-color="white"/>
</linearGradient>
<radialGradient id="paint1_radial_268_5207" cx="0" cy="0" r="1" gradientUnits="userSpaceOnUse" gradientTransform="translate(720 233.5) rotate(90) scale(287.853 887.598)">
<stop stop-color="#27332D" stop-opacity="0.07"/>
<stop offset="0.8" stop-color="#27332D" stop-opacity="0"/>
</radialGradient>
</defs>
</svg>
