<svg width="23" height="23" viewBox="0 0 23 23" fill="none" xmlns="http://www.w3.org/2000/svg">
<path d="M22.2927 1.90664L20.6731 3.53686C20.4557 3.25102 20.2113 2.97041 19.9398 2.6961C19.6673 2.42178 19.3885 2.17572 19.1045 1.95689L20.7241 0.326674C21.1568 -0.108891 21.86 -0.108891 22.2927 0.326674C22.7265 0.763285 22.7265 1.47003 22.2927 1.90664Z" fill="white"/>
<path d="M19.1547 3.48484C17.7276 2.04831 16.1464 1.54051 14.6474 1.59076C13.1943 1.63893 11.8993 2.20433 10.9505 2.76553L10.8912 2.80113C10.5489 3.00321 10.1672 3.22833 9.87696 3.48798C9.50457 3.82199 9.23098 4.25023 9.15818 4.83132C9.07808 5.4543 9.28196 5.95896 9.56907 6.3715C9.80416 6.70969 10.1454 7.05209 10.4751 7.38397L15.282 12.2224C15.6107 12.5543 15.9519 12.8977 16.2878 13.1343C16.6977 13.4233 17.1991 13.6275 17.818 13.5479C18.3943 13.4736 18.8208 13.1992 19.1526 12.8244C19.4106 12.5323 19.6342 12.148 19.835 11.8036L19.8693 11.7439C20.4269 10.7879 20.9896 9.48437 21.0375 8.02267C21.0863 6.5139 20.583 4.92261 19.1547 3.48484Z" fill="white"/>
<path d="M3.46223 19.2795C2.03505 17.8429 1.53056 16.2514 1.58049 14.7426C1.62834 13.2799 2.19006 11.9764 2.7476 11.0214L2.78297 10.9617C2.98373 10.6172 3.20739 10.233 3.46535 9.94087C3.79718 9.56604 4.22264 9.29066 4.79994 9.21738C5.41886 9.13675 5.92024 9.34197 6.3301 9.63096C6.66608 9.86759 7.00625 10.211 7.33597 10.5429L12.1429 15.3813C12.4726 15.7122 12.8138 16.0556 13.0489 16.3938C13.336 16.8063 13.5388 17.311 13.4598 17.934C13.3859 18.514 13.1134 18.9433 12.741 19.2773C12.4508 19.537 12.069 19.7621 11.7268 19.9642L11.6675 19.9987C10.7178 20.5599 9.42269 21.1264 7.97051 21.1745C6.47156 21.2237 4.89064 20.717 3.46223 19.2795Z" fill="white"/>
<path d="M9.73788 9.80335C10.1717 9.36778 10.1717 8.66 9.73788 8.22443C9.30516 7.78782 8.60198 7.78782 8.16925 8.22443L7.36621 9.03273C7.6377 9.26832 7.89257 9.52483 8.10164 9.73529L8.95357 10.5939L9.73788 9.80335Z" fill="white"/>
<path d="M12.9457 14.6099C13.1558 14.8204 13.4107 15.0759 13.6447 15.3502L14.4477 14.5419C14.8805 14.1053 14.8805 13.3985 14.4477 12.9619C14.014 12.5264 13.3118 12.5264 12.8781 12.9619L12.0938 13.7524L12.9457 14.6099Z" fill="white"/>
<path d="M1.94415 19.229C2.16156 19.5148 2.40601 19.7955 2.67854 20.0698C2.95107 20.343 3.22985 20.5891 3.51383 20.8079L1.89422 22.4381C1.46045 22.8748 0.758314 22.8748 0.324547 22.4381C-0.108182 22.0026 -0.108182 21.2948 0.324547 20.8592L1.94415 19.229Z" fill="white"/>
</svg>
