<svg width="578" height="360" viewBox="0 0 578 360" fill="none" xmlns="http://www.w3.org/2000/svg">
<path d="M125 358.862C125 359.493 125.346 360 125.776 360H452.855C453.289 360 453.631 359.493 453.631 358.862C453.631 358.231 453.285 357.725 452.855 357.725H125.776C125.346 357.725 125 358.232 125 358.862Z" fill="#D6D6D6"/>
<path d="M235.051 355.52H221.231V357.957H235.051V355.52Z" fill="#79758E"/>
<path d="M357.398 355.519H343.578V357.956H357.398V355.519Z" fill="#79758E"/>
<path d="M309.131 326.615C308.362 331.269 305.964 335.499 302.366 338.55C298.768 341.602 294.203 343.277 289.484 343.277C284.765 343.277 280.2 341.602 276.602 338.55C273.004 335.499 270.606 331.269 269.837 326.615H219.571V355.518H359.399V326.615H309.131Z" fill="#E1E1E1"/>
<path d="M359.804 346.89H219.978V350.681H359.804V346.89Z" fill="#27332D"/>
<path d="M570.205 326.461H7.7951C5.72842 326.459 3.74704 325.637 2.28567 324.176C0.824303 322.715 0.00229759 320.735 0 318.668L0 7.7936C0.00210615 5.72738 0.824027 3.74638 2.28541 2.28527C3.7468 0.824167 5.72829 0.00229728 7.7951 0H570.205C572.272 0.00248793 574.253 0.824319 575.714 2.28523C577.175 3.74614 577.997 5.72684 578 7.79288V318.668C577.997 320.734 577.175 322.715 575.714 324.176C574.253 325.637 572.272 326.459 570.205 326.461Z" fill="#27332D"/>
<path d="M564.5 13.002H14.1396V313.457H564.5V13.002Z" fill="white"/>
<path d="M498.785 56.2725H217.33C214.134 56.2725 211.543 59.2997 211.543 63.034V257.314C211.543 261.048 214.134 264.075 217.33 264.075H498.785C501.981 264.075 504.572 261.048 504.572 257.314V63.034C504.572 59.2997 501.981 56.2725 498.785 56.2725Z" fill="#F2F2F2"/>
<path d="M498.392 61.582H217.013V258.364H498.392V61.582Z" fill="white"/>
<path d="M176.208 56H79.7919C76.5931 56 74 59.08 74 62.8793V147.121C74 150.92 76.5931 154 79.7919 154H176.208C179.407 154 182 150.92 182 147.121V62.8793C182 59.08 179.407 56 176.208 56Z" fill="#F2F2F2"/>
<path d="M173 61H83C81.3431 61 80 62.3431 80 64V146C80 147.657 81.3431 149 83 149H173C174.657 149 176 147.657 176 146V64C176 62.3431 174.657 61 173 61Z" fill="white"/>
<path d="M176.208 168H79.7919C76.5931 168 74 171.017 74 174.739V257.261C74 260.983 76.5931 264 79.7919 264H176.208C179.407 264 182 260.983 182 257.261V174.739C182 171.017 179.407 168 176.208 168Z" fill="#F2F2F2"/>
<path d="M173 173H83C81.3431 173 80 174.343 80 176V256C80 257.657 81.3431 259 83 259H173C174.657 259 176 257.657 176 256V176C176 174.343 174.657 173 173 173Z" fill="white"/>
<path d="M141.792 77.7588H107.8C106.647 77.7601 105.543 78.2184 104.728 79.033C103.913 79.8477 103.454 80.9522 103.453 82.1043V122.004C103.454 123.157 103.913 124.261 104.728 125.076C105.543 125.89 106.647 126.349 107.8 126.35H141.791C142.943 126.349 144.048 125.89 144.863 125.076C145.678 124.261 146.136 123.157 146.137 122.004V82.1043C146.136 80.9525 145.678 79.8482 144.863 79.0336C144.049 78.2189 142.944 77.7605 141.792 77.7588Z" fill="#E6E6E6"/>
<path d="M141.793 79.0088H107.802C106.981 79.0097 106.194 79.3361 105.614 79.9162C105.034 80.4963 104.708 81.2828 104.707 82.1032V122.003C104.708 122.824 105.034 123.61 105.614 124.19C106.194 124.771 106.981 125.097 107.802 125.098H141.793C142.613 125.097 143.4 124.771 143.98 124.19C144.561 123.61 144.887 122.824 144.888 122.003V82.1032C144.887 81.2828 144.561 80.4963 143.98 79.9162C143.4 79.3361 142.613 79.0097 141.793 79.0088Z" fill="white"/>
<path d="M145.362 131.205C149.745 131.205 153.297 127.653 153.297 123.272C153.297 118.891 149.745 115.34 145.362 115.34C140.98 115.34 137.428 118.891 137.428 123.272C137.428 127.653 140.98 131.205 145.362 131.205Z" fill="#2BBE69"/>
<path d="M149.158 122.236H146.398V119.477C146.398 119.203 146.289 118.94 146.095 118.745C145.901 118.551 145.638 118.442 145.363 118.442C145.089 118.442 144.825 118.551 144.631 118.745C144.437 118.94 144.328 119.203 144.328 119.477V122.236H141.568C141.294 122.236 141.031 122.345 140.836 122.539C140.642 122.733 140.533 122.997 140.533 123.271C140.533 123.545 140.642 123.809 140.836 124.003C141.031 124.197 141.294 124.306 141.568 124.306H144.328V127.065C144.328 127.339 144.437 127.602 144.631 127.796C144.825 127.991 145.089 128.1 145.363 128.1C145.638 128.1 145.901 127.991 146.095 127.796C146.289 127.602 146.398 127.339 146.398 127.065V124.306H149.158C149.433 124.306 149.696 124.197 149.89 124.003C150.084 123.809 150.193 123.545 150.193 123.271C150.193 122.997 150.084 122.733 149.89 122.539C149.696 122.345 149.433 122.236 149.158 122.236Z" fill="white"/>
<path d="M136.676 100.934H119.488C119.296 100.934 119.112 100.857 118.976 100.722C118.84 100.586 118.764 100.402 118.764 100.21C118.764 100.019 118.84 99.8347 118.976 99.6991C119.112 99.5635 119.296 99.4873 119.488 99.4873H136.676C136.868 99.4873 137.052 99.5635 137.188 99.6991C137.324 99.8347 137.4 100.019 137.4 100.21C137.4 100.402 137.324 100.586 137.188 100.722C137.052 100.857 136.868 100.934 136.676 100.934Z" fill="#E6E6E6"/>
<path d="M139.661 103.376H119.486C119.294 103.376 119.11 103.3 118.975 103.164C118.839 103.029 118.763 102.845 118.763 102.653C118.763 102.461 118.839 102.277 118.975 102.142C119.11 102.006 119.294 101.93 119.486 101.93H139.661C139.853 101.93 140.037 102.006 140.173 102.142C140.308 102.277 140.384 102.461 140.384 102.653C140.384 102.845 140.308 103.029 140.173 103.164C140.037 103.3 139.853 103.376 139.661 103.376Z" fill="#E6E6E6"/>
<path d="M136.675 111.878H119.486C119.294 111.878 119.11 111.802 118.975 111.666C118.839 111.531 118.763 111.347 118.763 111.155C118.763 110.963 118.839 110.779 118.975 110.643C119.11 110.508 119.294 110.432 119.486 110.432H136.675C136.867 110.432 137.051 110.508 137.186 110.643C137.322 110.779 137.398 110.963 137.398 111.155C137.398 111.347 137.322 111.531 137.186 111.666C137.051 111.802 136.867 111.878 136.675 111.878Z" fill="#E6E6E6"/>
<path d="M139.661 114.322H119.486C119.294 114.322 119.11 114.246 118.975 114.11C118.839 113.975 118.763 113.791 118.763 113.599C118.763 113.407 118.839 113.223 118.975 113.088C119.11 112.952 119.294 112.876 119.486 112.876H139.661C139.853 112.876 140.037 112.952 140.173 113.088C140.308 113.223 140.384 113.407 140.384 113.599C140.384 113.791 140.308 113.975 140.173 114.11C140.037 114.246 139.853 114.322 139.661 114.322Z" fill="#E6E6E6"/>
<path d="M115.636 104.485H109.553C109.461 104.485 109.373 104.449 109.308 104.383C109.243 104.318 109.206 104.23 109.206 104.138V98.7251C109.206 98.633 109.243 98.5447 109.308 98.4796C109.373 98.4145 109.461 98.3779 109.553 98.3779H115.636C115.728 98.3779 115.817 98.4145 115.882 98.4796C115.947 98.5447 115.983 98.633 115.983 98.7251V104.138C115.983 104.23 115.947 104.318 115.882 104.383C115.817 104.449 115.728 104.485 115.636 104.485Z" fill="#E6E6E6"/>
<path d="M115.636 115.43H109.553C109.461 115.43 109.373 115.393 109.308 115.328C109.243 115.263 109.206 115.175 109.206 115.083V109.668C109.206 109.576 109.243 109.488 109.308 109.423C109.373 109.358 109.461 109.321 109.553 109.321H115.636C115.728 109.321 115.817 109.358 115.882 109.423C115.947 109.488 115.983 109.576 115.983 109.668V115.081C115.984 115.127 115.975 115.172 115.957 115.215C115.94 115.257 115.914 115.295 115.882 115.328C115.85 115.36 115.812 115.386 115.769 115.403C115.727 115.421 115.682 115.43 115.636 115.43Z" fill="#E6E6E6"/>
<path d="M136.694 88.7491H124.024C123.832 88.7491 123.648 88.6729 123.513 88.5373C123.377 88.4017 123.301 88.2177 123.301 88.0259C123.301 87.8341 123.377 87.6502 123.513 87.5146C123.648 87.3789 123.832 87.3027 124.024 87.3027H136.697C136.889 87.3027 137.073 87.3789 137.208 87.5146C137.344 87.6502 137.42 87.8341 137.42 88.0259C137.42 88.2177 137.344 88.4017 137.208 88.5373C137.073 88.6729 136.889 88.7491 136.697 88.7491H136.694Z" fill="#2BBE69"/>
<path d="M139.68 91.1915H124.024C123.832 91.1915 123.648 91.1153 123.513 90.9797C123.377 90.844 123.301 90.6601 123.301 90.4683C123.301 90.2765 123.377 90.0926 123.513 89.9569C123.648 89.8213 123.832 89.7451 124.024 89.7451H139.682C139.874 89.7451 140.058 89.8213 140.194 89.9569C140.33 90.0926 140.406 90.2765 140.406 90.4683C140.406 90.6601 140.33 90.844 140.194 90.9797C140.058 91.1153 139.874 91.1915 139.682 91.1915H139.68Z" fill="#2BBE69"/>
<path d="M121.218 94.1509H109.535C109.443 94.1509 109.355 94.1143 109.29 94.0492C109.225 93.9841 109.188 93.8958 109.188 93.8038V84.6919C109.188 84.5998 109.225 84.5115 109.29 84.4464C109.355 84.3813 109.443 84.3447 109.535 84.3447H121.218C121.31 84.3447 121.398 84.3813 121.463 84.4464C121.528 84.5115 121.565 84.5998 121.565 84.6919V93.8038C121.565 93.8958 121.528 93.9841 121.463 94.0492C121.398 94.1143 121.31 94.1509 121.218 94.1509Z" fill="#2BBE69"/>
<path d="M397.939 200.799H323.671C322.736 200.798 321.839 200.426 321.178 199.765C320.517 199.103 320.145 198.206 320.145 197.271V96.4815C320.146 95.5469 320.518 94.6508 321.179 93.9899C321.84 93.329 322.737 92.9572 323.671 92.9561H397.939C398.874 92.9572 399.77 93.329 400.431 93.9899C401.092 94.6508 401.464 95.5469 401.466 96.4815V197.271C401.465 198.206 401.094 199.103 400.432 199.765C399.771 200.426 398.874 200.798 397.939 200.799Z" fill="#F2F2F2"/>
<path d="M345.016 132.787C344.853 132.799 344.696 132.854 344.562 132.946C345.246 132.904 345.925 132.809 346.595 132.664L345.016 132.787Z" fill="#27332D"/>
<path d="M343.663 105.021C340.543 105.021 337.51 106.052 335.035 107.952C332.56 109.852 330.781 112.516 329.976 115.53C329.17 118.544 329.382 121.739 330.579 124.62C331.776 127.501 333.89 129.907 336.595 131.464C337.312 131.879 338.066 132.23 338.846 132.512L338.979 132.557C340.484 133.085 342.068 133.354 343.663 133.353C343.972 133.353 344.28 133.342 344.584 133.319C345.287 133.276 345.985 133.179 346.673 133.03C347.057 132.946 347.435 132.846 347.792 132.737C347.879 132.712 347.961 132.687 348.05 132.658C351.257 131.614 353.987 129.46 355.748 126.584C357.509 123.708 358.187 120.298 357.658 116.967C357.129 113.636 355.43 110.603 352.864 108.413C350.299 106.223 347.037 105.02 343.663 105.02V105.021ZM351.884 129.799C350.661 130.742 349.285 131.467 347.816 131.943L347.574 132.02C347.235 132.125 346.878 132.216 346.511 132.295C345.86 132.437 345.199 132.53 344.534 132.571C344.245 132.591 343.956 132.601 343.662 132.601C342.152 132.602 340.652 132.348 339.227 131.849L339.102 131.806C338.326 131.527 337.578 131.175 336.868 130.756C334.396 129.301 332.456 127.091 331.332 124.452C330.209 121.813 329.963 118.883 330.629 116.094C331.294 113.304 332.838 110.801 335.032 108.954C337.226 107.106 339.955 106.01 342.818 105.828C345.681 105.646 348.527 106.386 350.938 107.941C353.349 109.495 355.197 111.782 356.212 114.465C357.226 117.148 357.353 120.085 356.574 122.845C355.795 125.605 354.151 128.043 351.883 129.8L351.884 129.799Z" fill="#CCCCCC"/>
<path d="M383.563 119.131H362.548C362.107 119.131 361.684 118.956 361.372 118.644C361.06 118.332 360.884 117.909 360.884 117.468C360.884 117.027 361.06 116.604 361.372 116.292C361.684 115.98 362.107 115.805 362.548 115.805H383.563C384.004 115.805 384.427 115.98 384.739 116.292C385.051 116.604 385.227 117.027 385.227 117.468C385.227 117.909 385.051 118.332 384.739 118.644C384.427 118.956 384.004 119.131 383.563 119.131Z" fill="#E6E6E6"/>
<path d="M390.42 124.741H362.548C362.107 124.741 361.684 124.565 361.372 124.253C361.06 123.942 360.884 123.518 360.884 123.077C360.884 122.636 361.06 122.213 361.372 121.901C361.684 121.589 362.107 121.414 362.548 121.414H390.421C390.862 121.414 391.286 121.589 391.598 121.901C391.91 122.213 392.085 122.636 392.085 123.077C392.085 123.518 391.91 123.942 391.598 124.253C391.286 124.565 390.862 124.741 390.42 124.741Z" fill="#E6E6E6"/>
<path d="M383.53 146.257H331.19C330.749 146.257 330.326 146.082 330.014 145.77C329.702 145.458 329.526 145.035 329.526 144.594C329.526 144.153 329.702 143.73 330.014 143.418C330.326 143.106 330.749 142.931 331.19 142.931H383.53C383.971 142.931 384.394 143.106 384.706 143.418C385.019 143.73 385.194 144.153 385.194 144.594C385.194 145.035 385.019 145.458 384.706 145.77C384.394 146.082 383.971 146.257 383.53 146.257Z" fill="#E6E6E6"/>
<path d="M390.388 151.867H331.19C330.749 151.867 330.326 151.691 330.014 151.379C329.702 151.068 329.526 150.644 329.526 150.203C329.526 149.762 329.702 149.339 330.014 149.027C330.326 148.715 330.749 148.54 331.19 148.54H390.388C390.83 148.54 391.253 148.715 391.565 149.027C391.877 149.339 392.052 149.762 392.052 150.203C392.052 150.644 391.877 151.068 391.565 151.379C391.253 151.691 390.83 151.867 390.388 151.867H390.388Z" fill="#E6E6E6"/>
<path d="M428.921 132.147C428.99 131.515 428.862 130.878 428.555 130.322C428.249 129.765 427.779 129.317 427.208 129.037L369.972 101.071C369.237 100.711 368.389 100.658 367.615 100.924C366.841 101.189 366.204 101.751 365.844 102.486L344.372 146.397C344.014 147.133 343.962 147.981 344.228 148.754C344.493 149.528 345.055 150.165 345.79 150.525L403.027 178.492C403.762 178.85 404.61 178.902 405.384 178.636C406.158 178.371 406.795 177.809 407.156 177.074L428.623 133.164C428.781 132.845 428.882 132.501 428.921 132.147Z" fill="white"/>
<path d="M428.921 132.147C428.99 131.515 428.862 130.878 428.555 130.322C428.249 129.765 427.779 129.317 427.208 129.037L369.972 101.071C369.237 100.711 368.389 100.658 367.615 100.924C366.841 101.189 366.204 101.751 365.844 102.486L344.372 146.397C344.014 147.133 343.962 147.981 344.228 148.754C344.493 149.528 345.055 150.165 345.79 150.525L403.027 178.492C403.762 178.85 404.61 178.902 405.384 178.636C406.158 178.371 406.795 177.809 407.156 177.074L428.623 133.164C428.781 132.845 428.882 132.501 428.921 132.147ZM406.832 176.914C406.514 177.562 405.952 178.058 405.269 178.292C404.586 178.527 403.838 178.481 403.189 178.165L345.953 150.198C345.305 149.88 344.809 149.319 344.574 148.636C344.34 147.953 344.386 147.205 344.702 146.556L366.169 102.646C366.487 101.998 367.049 101.503 367.732 101.268C368.415 101.034 369.163 101.08 369.812 101.396L427.048 129.362C427.697 129.68 428.192 130.242 428.427 130.925C428.661 131.608 428.615 132.355 428.299 133.004L406.832 176.914Z" fill="#3F3D56"/>
<path d="M422.676 134.146L407.686 164.808C407.586 165.013 407.409 165.169 407.194 165.243C406.978 165.317 406.742 165.303 406.537 165.203L354.473 139.764C354.436 139.746 354.4 139.725 354.367 139.701C354.196 139.585 354.073 139.411 354.02 139.212C353.967 139.013 353.987 138.801 354.077 138.616L369.067 107.953C369.167 107.749 369.345 107.592 369.56 107.518C369.775 107.444 370.011 107.459 370.216 107.559L422.28 132.998C422.485 133.098 422.641 133.275 422.716 133.491C422.79 133.706 422.775 133.942 422.675 134.147L422.676 134.146Z" fill="#E6E6E6"/>
<path d="M376.967 132.587C381.132 132.587 384.507 129.212 384.507 125.049C384.507 120.886 381.132 117.512 376.967 117.512C372.803 117.512 369.428 120.886 369.428 125.049C369.428 129.212 372.803 132.587 376.967 132.587Z" fill="#2BBE69"/>
<path d="M388.008 156.3L354.776 140.063C354.734 140.042 354.694 140.018 354.657 139.99L383.68 120.453C383.859 120.331 384.067 120.258 384.283 120.242C384.499 120.226 384.716 120.267 384.911 120.363C385.106 120.458 385.272 120.603 385.392 120.783C385.512 120.964 385.582 121.173 385.596 121.389L387.214 144.807L387.293 145.928L388.008 156.3Z" fill="#27332D"/>
<path opacity="0.2" d="M388.009 156.3L376.663 150.756L386.187 145.39L386.873 145.003L387.216 144.81L387.294 145.93L388.009 156.3Z" fill="#27332D"/>
<path d="M406.512 165.34L377.77 151.296L387.294 145.93L387.979 145.543L400.39 138.549C400.597 138.451 400.823 138.397 401.052 138.392C401.281 138.387 401.508 138.429 401.72 138.518C401.931 138.606 402.122 138.737 402.279 138.904C402.436 139.07 402.557 139.268 402.633 139.484C402.65 139.544 402.664 139.604 402.673 139.666L406.512 165.34Z" fill="#27332D"/>
<path d="M419.99 223.459H294.148C291.917 223.457 289.778 222.57 288.2 220.992C286.622 219.415 285.735 217.276 285.732 215.046V145.956C285.735 143.726 286.622 141.587 288.2 140.01C289.778 138.433 291.917 137.545 294.148 137.543H309.577C311.671 137.541 313.689 138.321 315.237 139.731L331.969 151.675C333.06 152.672 334.485 153.224 335.962 153.223H420.772C421.887 153.223 422.991 153.444 424.02 153.875C425.049 154.305 425.982 154.935 426.765 155.729C427.548 156.524 428.165 157.465 428.581 158.5C428.997 159.534 429.203 160.641 429.187 161.756L428.405 215.167C428.365 217.374 427.461 219.478 425.888 221.028C424.315 222.578 422.198 223.45 419.99 223.459Z" fill="#2BBE69"/>
<path d="M344.159 128.315H344.172C346.488 128.189 348.669 127.187 350.273 125.513C351.876 123.838 352.783 121.617 352.809 119.299C352.835 116.981 351.978 114.739 350.412 113.03C348.846 111.32 346.688 110.269 344.376 110.091C344.348 110.089 344.319 110.093 344.292 110.102C344.265 110.112 344.24 110.126 344.219 110.145C344.198 110.165 344.181 110.188 344.17 110.214C344.158 110.24 344.152 110.268 344.151 110.297L343.952 128.107C343.951 128.134 343.957 128.162 343.967 128.187C343.977 128.213 343.992 128.236 344.011 128.255C344.031 128.275 344.053 128.291 344.079 128.301C344.104 128.312 344.131 128.318 344.159 128.318V128.315Z" fill="#2BBE69"/>
<path d="M336.995 113.032C337.066 113.033 337.134 113.062 337.183 113.113L343.316 119.383C343.341 119.408 343.36 119.438 343.374 119.47C343.387 119.503 343.393 119.538 343.393 119.573L343.297 128.095C343.297 128.132 343.289 128.168 343.274 128.201C343.259 128.234 343.238 128.264 343.211 128.289C343.184 128.314 343.152 128.334 343.117 128.346C343.082 128.359 343.045 128.364 343.008 128.361C341.302 128.234 339.666 127.634 338.283 126.629C336.9 125.623 335.825 124.252 335.178 122.669C334.532 121.086 334.34 119.354 334.624 117.668C334.909 115.982 335.657 114.409 336.787 113.125C336.811 113.097 336.841 113.075 336.875 113.059C336.908 113.043 336.945 113.035 336.982 113.034L336.995 113.032Z" fill="#E6E6E6"/>
<path d="M343.23 110.015C343.298 110.015 343.364 110.041 343.414 110.087C343.44 110.113 343.461 110.143 343.475 110.177C343.49 110.211 343.497 110.247 343.496 110.283L343.41 117.973C343.41 118.026 343.393 118.078 343.363 118.121C343.334 118.165 343.291 118.199 343.242 118.219C343.193 118.239 343.139 118.243 343.087 118.232C343.035 118.221 342.988 118.195 342.951 118.157L337.598 112.686C337.572 112.66 337.552 112.629 337.539 112.595C337.526 112.561 337.52 112.525 337.522 112.489C337.523 112.452 337.532 112.417 337.547 112.384C337.563 112.351 337.585 112.321 337.612 112.297C339.169 110.928 341.142 110.123 343.213 110.014L343.23 110.015Z" fill="#27332D"/>
<path d="M128 218C121.386 218 116 212.617 116 206C116 199.383 121.383 194 128 194C134.617 194 140 199.383 140 206C140 212.617 134.617 218 128 218ZM128 197.031C123.159 197.031 119.221 201.054 119.221 205.999C119.221 210.944 123.159 214.967 128 214.967C132.841 214.967 136.779 210.944 136.779 205.999C136.779 201.055 132.84 197.032 128 197.032V197.031Z" fill="#2BBE69"/>
<path d="M138.822 237.384H117.193C115.286 237.382 113.458 236.624 112.109 235.276C110.761 233.928 110.002 232.1 110 230.194V211.987C110.002 210.682 110.521 209.43 111.444 208.507C112.367 207.584 113.619 207.065 114.925 207.063H141.088C142.394 207.065 143.645 207.584 144.569 208.507C145.492 209.43 146.011 210.681 146.013 211.987V230.193C146.01 232.099 145.252 233.927 143.904 235.275C142.556 236.623 140.729 237.381 138.822 237.384Z" fill="#2BBE69"/>
<path d="M132.224 219.128C132.224 218.379 132.025 217.643 131.647 216.997C131.268 216.35 130.725 215.816 130.071 215.45C129.418 215.083 128.679 214.898 127.93 214.912C127.181 214.926 126.449 215.14 125.81 215.53C125.171 215.921 124.647 216.476 124.294 217.136C123.94 217.796 123.769 218.539 123.798 219.287C123.827 220.035 124.055 220.763 124.458 221.394C124.862 222.025 125.426 222.537 126.094 222.877V229.469H129.928V222.877C130.619 222.524 131.199 221.987 131.604 221.326C132.009 220.664 132.224 219.903 132.224 219.128Z" fill="white"/>
</svg>
