<svg width="578" height="354" viewBox="0 0 578 354" fill="none" xmlns="http://www.w3.org/2000/svg">
<g clip-path="url(#clip0_417_185)">
<path d="M564.822 354H14.1758C10.4176 353.995 6.81478 352.579 4.15736 350.061C1.49993 347.543 0.00485409 344.129 0 340.568V18.8417C0.00308992 16.2324 1.09839 13.7309 3.04561 11.8858C4.99282 10.0408 7.63293 9.00293 10.3867 9H568.433C571.235 9.00293 573.921 10.0587 575.902 11.9358C577.883 13.8128 578.997 16.3579 579 19.0124V340.566C578.995 344.127 577.5 347.541 574.843 350.059C572.185 352.577 568.582 353.994 564.824 353.998L564.822 354Z" fill="#F2F2F2"/>
<path d="M549.167 339H28.833C21.205 339 15 333.646 15 327.065V50.8516C15 45.9713 19.5986 42 25.2506 42H552.579C558.329 42 563 46.0359 563 50.9973V327.065C563.001 333.646 556.795 339 549.167 339Z" fill="white"/>
<path d="M578.755 27.4256H0.000488281V14.212C0.00578479 10.443 1.50625 6.82988 4.17268 4.16552C6.83912 1.50115 10.4538 0.00308606 14.2236 0H564.532C568.301 0.00308606 571.916 1.50115 574.582 4.16552C577.249 6.82988 578.749 10.443 578.755 14.212L578.755 27.4256Z" fill="#27332D"/>
<path d="M25.849 17.4125C27.881 17.4125 29.5282 15.7656 29.5282 13.7341C29.5282 11.7026 27.881 10.0557 25.849 10.0557C23.8171 10.0557 22.1699 11.7026 22.1699 13.7341C22.1699 15.7656 23.8171 17.4125 25.849 17.4125Z" fill="white"/>
<path d="M39.8144 17.4125C41.8463 17.4125 43.4935 15.7656 43.4935 13.7341C43.4935 11.7026 41.8463 10.0557 39.8144 10.0557C37.7825 10.0557 36.1353 11.7026 36.1353 13.7341C36.1353 15.7656 37.7825 17.4125 39.8144 17.4125Z" fill="white"/>
<path d="M53.7778 17.4125C55.8097 17.4125 57.4569 15.7656 57.4569 13.7341C57.4569 11.7026 55.8097 10.0557 53.7778 10.0557C51.7458 10.0557 50.0986 11.7026 50.0986 13.7341C50.0986 15.7656 51.7458 17.4125 53.7778 17.4125Z" fill="white"/>
<path d="M517.012 84H402.029C398.214 84 395.122 87.0908 395.122 90.9036V175.442C395.122 179.255 398.214 182.346 402.029 182.346H517.012C520.827 182.346 523.919 179.255 523.919 175.442V90.9036C523.919 87.0908 520.827 84 517.012 84Z" fill="#F2F2F2"/>
<path d="M517.519 88.8877H401.522V177.46H517.519V88.8877Z" fill="white"/>
<path d="M461.557 154.589H461.603C469.455 154.178 476.855 150.793 482.299 145.123C487.743 139.453 490.822 131.924 490.91 124.066C490.998 116.208 488.088 108.612 482.773 102.822C477.457 97.0316 470.134 93.4824 462.294 92.8957C462.197 92.8881 462.099 92.9006 462.007 92.9324C461.916 92.9641 461.831 93.0145 461.76 93.0804C461.689 93.1452 461.632 93.2241 461.593 93.312C461.553 93.3999 461.533 93.495 461.532 93.5913L460.856 153.876C460.854 154.063 460.927 154.244 461.058 154.377C461.19 154.511 461.369 154.588 461.556 154.59L461.557 154.589Z" fill="#090814"/>
<path d="M437.302 102.86C437.543 102.863 437.773 102.961 437.941 103.133L458.705 124.357C458.789 124.442 458.855 124.543 458.899 124.653C458.944 124.764 458.966 124.882 458.964 125.001L458.64 153.848C458.639 153.971 458.613 154.094 458.562 154.207C458.512 154.32 458.438 154.421 458.347 154.504C458.255 154.589 458.147 154.654 458.029 154.695C457.911 154.736 457.786 154.752 457.661 154.743C451.888 154.311 446.35 152.278 441.668 148.873C436.987 145.469 433.349 140.827 431.162 135.469C428.975 130.112 428.326 124.251 429.289 118.545C430.251 112.839 432.786 107.514 436.61 103.169C436.692 103.076 436.793 103 436.907 102.947C437.02 102.894 437.143 102.865 437.268 102.861L437.302 102.86Z" fill="#E6E6E6"/>
<path d="M458.417 92.6445C458.649 92.6472 458.871 92.7379 459.039 92.8982C459.128 92.9836 459.2 93.0867 459.248 93.2009C459.296 93.3151 459.319 93.438 459.318 93.5618L459.026 119.588C459.023 119.767 458.968 119.942 458.867 120.09C458.766 120.237 458.623 120.352 458.457 120.418C458.29 120.485 458.108 120.501 457.933 120.464C457.757 120.427 457.597 120.339 457.472 120.211L439.352 101.691C439.266 101.603 439.199 101.498 439.155 101.383C439.11 101.268 439.09 101.146 439.094 101.023C439.099 100.9 439.129 100.779 439.181 100.668C439.234 100.556 439.309 100.457 439.401 100.376C444.671 95.7395 451.352 93.0156 458.363 92.6445H458.417Z" fill="#2BBE69"/>
<path d="M449.083 167.087C449.07 168.186 448.733 169.255 448.112 170.162C447.492 171.068 446.616 171.77 445.596 172.179C444.577 172.588 443.458 172.685 442.383 172.459C441.308 172.233 440.324 171.693 439.556 170.908C438.788 170.122 438.27 169.127 438.068 168.048C437.865 166.968 437.988 165.853 438.42 164.844C438.852 163.834 439.573 162.975 440.494 162.375C441.414 161.775 442.492 161.462 443.591 161.474C445.064 161.491 446.47 162.091 447.5 163.144C448.53 164.197 449.099 165.615 449.083 167.087Z" fill="#2BBE69"/>
<path d="M464.953 167.264C464.941 168.362 464.603 169.432 463.982 170.338C463.362 171.245 462.486 171.947 461.466 172.356C460.447 172.764 459.329 172.862 458.253 172.636C457.178 172.409 456.194 171.87 455.426 171.084C454.658 170.299 454.14 169.304 453.938 168.225C453.735 167.145 453.858 166.03 454.29 165.02C454.722 164.011 455.443 163.151 456.364 162.552C457.284 161.952 458.362 161.638 459.461 161.651C460.934 161.667 462.34 162.268 463.37 163.321C464.4 164.373 464.969 165.792 464.953 167.264Z" fill="#090814"/>
<path d="M480.822 167.442C480.81 168.54 480.472 169.61 479.852 170.516C479.231 171.422 478.356 172.124 477.336 172.533C476.316 172.942 475.198 173.04 474.123 172.813C473.048 172.587 472.064 172.047 471.296 171.262C470.528 170.477 470.01 169.482 469.807 168.402C469.605 167.323 469.728 166.208 470.159 165.198C470.591 164.188 471.313 163.329 472.234 162.729C473.154 162.13 474.232 161.816 475.33 161.828C476.803 161.845 478.209 162.446 479.239 163.499C480.269 164.551 480.839 165.97 480.822 167.442Z" fill="#E6E6E6"/>
<path d="M515.656 197.824H400.673C396.859 197.824 393.766 200.915 393.766 204.728V289.266C393.766 293.079 396.859 296.17 400.673 296.17H515.656C519.471 296.17 522.564 293.079 522.564 289.266V204.728C522.564 200.915 519.471 197.824 515.656 197.824Z" fill="#F2F2F2"/>
<path d="M516.163 202.712H400.166V291.284H516.163V202.712Z" fill="white"/>
<path d="M419.847 231.821C422.507 231.821 424.663 229.666 424.663 227.008C424.663 224.349 422.507 222.194 419.847 222.194C417.187 222.194 415.031 224.349 415.031 227.008C415.031 229.666 417.187 231.821 419.847 231.821Z" fill="#090814"/>
<path d="M497.232 223.261C498.098 223.261 498.929 223.605 499.542 224.217C500.154 224.83 500.498 225.66 500.498 226.526C500.498 227.392 500.154 228.222 499.542 228.834C498.929 229.446 498.098 229.79 497.232 229.79H446.577C445.711 229.79 444.88 229.446 444.267 228.834C443.655 228.222 443.311 227.392 443.311 226.526C443.311 225.66 443.655 224.83 444.267 224.217C444.88 223.605 445.711 223.261 446.577 223.261H497.232ZM497.232 222.461H446.577C446.038 222.454 445.503 222.553 445.003 222.754C444.502 222.954 444.047 223.252 443.663 223.631C443.279 224.009 442.974 224.459 442.766 224.956C442.558 225.453 442.451 225.987 442.451 226.525C442.451 227.064 442.558 227.598 442.766 228.094C442.974 228.591 443.279 229.042 443.663 229.42C444.047 229.798 444.502 230.097 445.003 230.297C445.503 230.498 446.038 230.597 446.577 230.589H497.232C497.771 230.597 498.306 230.498 498.806 230.297C499.307 230.097 499.762 229.798 500.146 229.42C500.53 229.042 500.835 228.591 501.043 228.094C501.251 227.598 501.358 227.064 501.358 226.525C501.358 225.987 501.251 225.453 501.043 224.956C500.835 224.459 500.53 224.009 500.146 223.631C499.762 223.252 499.307 222.954 498.806 222.754C498.306 222.553 497.771 222.454 497.232 222.461Z" fill="#3F3D56"/>
<path d="M477.244 230.591H439.112C438.044 230.575 437.025 230.14 436.275 229.38C435.525 228.619 435.104 227.595 435.104 226.527C435.104 225.459 435.525 224.434 436.275 223.674C437.025 222.913 438.044 222.478 439.112 222.463H477.244C478.312 222.478 479.331 222.913 480.081 223.674C480.831 224.434 481.251 225.459 481.251 226.527C481.251 227.595 480.831 228.619 480.081 229.38C479.331 230.14 478.312 230.575 477.244 230.591Z" fill="#2BBE69"/>
<path d="M419.847 251.811C422.507 251.811 424.663 249.656 424.663 246.997C424.663 244.339 422.507 242.184 419.847 242.184C417.187 242.184 415.031 244.339 415.031 246.997C415.031 249.656 417.187 251.811 419.847 251.811Z" fill="#090814"/>
<path d="M497.232 243.252C498.098 243.252 498.929 243.596 499.541 244.208C500.154 244.82 500.498 245.65 500.498 246.516C500.498 247.382 500.154 248.212 499.541 248.824C498.929 249.437 498.098 249.781 497.232 249.781H446.577C445.71 249.781 444.88 249.437 444.267 248.824C443.655 248.212 443.31 247.382 443.31 246.516C443.31 245.65 443.655 244.82 444.267 244.208C444.88 243.596 445.71 243.252 446.577 243.252H497.232ZM497.232 242.452H446.577C445.509 242.467 444.489 242.902 443.74 243.663C442.99 244.423 442.569 245.448 442.569 246.516C442.569 247.583 442.99 248.608 443.74 249.369C444.489 250.129 445.509 250.564 446.577 250.58H497.232C497.771 250.588 498.306 250.488 498.806 250.288C499.306 250.087 499.762 249.789 500.146 249.411C500.529 249.032 500.834 248.582 501.042 248.085C501.25 247.588 501.358 247.054 501.358 246.516C501.358 245.977 501.25 245.444 501.042 244.947C500.834 244.45 500.529 243.999 500.146 243.621C499.762 243.243 499.306 242.945 498.806 242.744C498.306 242.543 497.771 242.444 497.232 242.452Z" fill="#3F3D56"/>
<path d="M491.644 250.58H439.112C438.044 250.565 437.025 250.13 436.275 249.369C435.525 248.609 435.104 247.584 435.104 246.516C435.104 245.448 435.525 244.424 436.275 243.663C437.025 242.903 438.044 242.468 439.112 242.452H491.644C492.712 242.468 493.731 242.903 494.481 243.663C495.231 244.424 495.651 245.448 495.651 246.516C495.651 247.584 495.231 248.609 494.481 249.369C493.731 250.13 492.712 250.565 491.644 250.58Z" fill="#2BBE69"/>
<path d="M419.847 271.799C422.507 271.799 424.663 269.644 424.663 266.985C424.663 264.327 422.507 262.172 419.847 262.172C417.187 262.172 415.031 264.327 415.031 266.985C415.031 269.644 417.187 271.799 419.847 271.799Z" fill="#090814"/>
<path d="M497.232 263.24C498.098 263.24 498.929 263.584 499.541 264.196C500.154 264.808 500.498 265.639 500.498 266.504C500.498 267.37 500.154 268.201 499.541 268.813C498.929 269.425 498.098 269.769 497.232 269.769H446.577C445.71 269.769 444.88 269.425 444.267 268.813C443.655 268.201 443.31 267.37 443.31 266.504C443.31 265.639 443.655 264.808 444.267 264.196C444.88 263.584 445.71 263.24 446.577 263.24H497.232ZM497.232 262.44H446.577C445.509 262.455 444.489 262.89 443.74 263.651C442.99 264.411 442.569 265.436 442.569 266.504C442.569 267.572 442.99 268.596 443.74 269.357C444.489 270.117 445.509 270.552 446.577 270.568H497.232C497.771 270.576 498.306 270.477 498.806 270.276C499.306 270.075 499.762 269.777 500.146 269.399C500.529 269.021 500.834 268.57 501.042 268.073C501.25 267.576 501.358 267.043 501.358 266.504C501.358 265.965 501.25 265.432 501.042 264.935C500.834 264.438 500.529 263.987 500.146 263.609C499.762 263.231 499.306 262.933 498.806 262.732C498.306 262.531 497.771 262.432 497.232 262.44Z" fill="#3F3D56"/>
<path d="M460.445 270.571H439.112C438.044 270.556 437.025 270.121 436.275 269.36C435.525 268.6 435.104 267.575 435.104 266.507C435.104 265.44 435.525 264.415 436.275 263.654C437.025 262.894 438.044 262.459 439.112 262.443H460.445C461.513 262.459 462.532 262.894 463.282 263.654C464.032 264.415 464.452 265.44 464.452 266.507C464.452 267.575 464.032 268.6 463.282 269.36C462.532 270.121 461.513 270.556 460.445 270.571Z" fill="#2BBE69"/>
<path d="M361.799 86H60.2012C56.7764 86 54 89.0884 54 92.8981V291.102C54 294.912 56.7764 298 60.2012 298H361.799C365.224 298 368 294.912 368 291.102V92.8981C368 89.0884 365.224 86 361.799 86Z" fill="#F2F2F2"/>
<path d="M362 92H60V291H362V92Z" fill="white"/>
<path d="M331.648 253.235H86.8215C86.6184 253.235 86.4236 253.155 86.28 253.011C86.1364 252.868 86.0557 252.673 86.0557 252.47V135.187C86.0557 134.984 86.1364 134.789 86.2801 134.645C86.4238 134.502 86.6187 134.421 86.8219 134.421C87.0252 134.421 87.2201 134.502 87.3638 134.645C87.5075 134.789 87.5882 134.984 87.5882 135.187V251.705H331.648C331.852 251.705 332.046 251.785 332.19 251.929C332.334 252.073 332.415 252.267 332.415 252.47C332.415 252.674 332.334 252.868 332.19 253.012C332.046 253.156 331.852 253.236 331.648 253.236V253.235Z" fill="#090814"/>
<path d="M139.13 244.811H116.862C116.259 244.811 115.681 244.571 115.255 244.145C114.828 243.719 114.589 243.141 114.588 242.538V211.858C114.589 211.255 114.828 210.678 115.255 210.251C115.681 209.825 116.259 209.586 116.862 209.585H139.13C139.733 209.586 140.311 209.825 140.738 210.251C141.164 210.678 141.404 211.255 141.404 211.858V242.538C141.404 243.141 141.164 243.719 140.738 244.145C140.311 244.571 139.733 244.811 139.13 244.811Z" fill="#2BBE69"/>
<path d="M179.743 244.811H157.467C156.864 244.81 156.286 244.571 155.86 244.145C155.433 243.718 155.194 243.141 155.193 242.538V182.757C155.194 182.155 155.433 181.577 155.86 181.151C156.286 180.725 156.864 180.485 157.467 180.484H179.743C180.346 180.485 180.924 180.725 181.35 181.151C181.777 181.577 182.016 182.155 182.017 182.757V242.538C182.016 243.141 181.777 243.718 181.35 244.145C180.924 244.571 180.346 244.81 179.743 244.811Z" fill="#E6E6E6"/>
<path d="M220.347 244.811H198.079C197.476 244.811 196.898 244.571 196.472 244.145C196.045 243.719 195.805 243.141 195.805 242.538V211.858C195.805 211.255 196.045 210.678 196.472 210.251C196.898 209.825 197.476 209.586 198.079 209.585H220.347C220.95 209.586 221.528 209.825 221.954 210.251C222.381 210.678 222.62 211.255 222.621 211.858V242.538C222.62 243.141 222.381 243.719 221.954 244.145C221.528 244.571 220.95 244.811 220.347 244.811Z" fill="#2BBE69"/>
<path d="M260.955 244.812H238.687C238.098 244.824 237.528 244.603 237.102 244.196C236.675 243.789 236.428 243.23 236.413 242.642V171.168C236.428 170.579 236.675 170.02 237.102 169.613C237.528 169.206 238.098 168.985 238.687 168.998H260.955C261.545 168.985 262.115 169.206 262.541 169.613C262.967 170.02 263.215 170.579 263.23 171.168V242.641C263.215 243.23 262.967 243.789 262.541 244.195C262.115 244.602 261.545 244.824 260.955 244.811V244.812Z" fill="#E6E6E6"/>
<path d="M301.563 244.811H279.295C278.692 244.81 278.114 244.571 277.688 244.145C277.261 243.718 277.022 243.141 277.021 242.538V150.595C277.022 149.993 277.261 149.415 277.688 148.989C278.114 148.563 278.692 148.323 279.295 148.322H301.563C302.166 148.323 302.744 148.563 303.171 148.989C303.597 149.415 303.837 149.993 303.837 150.595V242.539C303.837 243.141 303.597 243.719 303.17 244.145C302.744 244.571 302.166 244.81 301.563 244.811Z" fill="#2BBE69"/>
<path d="M127.995 200.394C130.534 200.394 132.592 198.337 132.592 195.799C132.592 193.262 130.534 191.205 127.995 191.205C125.456 191.205 123.398 193.262 123.398 195.799C123.398 198.337 125.456 200.394 127.995 200.394Z" fill="#090814"/>
<path d="M168.604 170.529C171.143 170.529 173.201 168.473 173.201 165.935C173.201 163.398 171.143 161.341 168.604 161.341C166.065 161.341 164.007 163.398 164.007 165.935C164.007 168.473 166.065 170.529 168.604 170.529Z" fill="#090814"/>
<path d="M209.212 200.394C211.751 200.394 213.809 198.337 213.809 195.799C213.809 193.262 211.751 191.205 209.212 191.205C206.674 191.205 204.616 193.262 204.616 195.799C204.616 198.337 206.674 200.394 209.212 200.394Z" fill="#090814"/>
<path d="M249.821 155.98C252.36 155.98 254.418 153.923 254.418 151.385C254.418 148.848 252.36 146.791 249.821 146.791C247.283 146.791 245.225 148.848 245.225 151.385C245.225 153.923 247.283 155.98 249.821 155.98Z" fill="#090814"/>
<path d="M290.429 139.131C292.968 139.131 295.026 137.074 295.026 134.537C295.026 131.999 292.968 129.942 290.429 129.942C287.891 129.942 285.833 131.999 285.833 134.537C285.833 137.074 287.891 139.131 290.429 139.131Z" fill="#090814"/>
<path d="M209.31 196.831L168.606 166.358L128.457 196.414L127.539 195.188L168.606 164.443L209.117 194.771L249.375 150.74L249.536 150.674L290.144 134.321L290.718 135.742L250.271 152.03L209.31 196.831Z" fill="#090814"/>
</g>
<defs>
<clipPath id="clip0_417_185">
<rect width="578" height="354" fill="white"/>
</clipPath>
</defs>
</svg>
