<svg width="53" height="65" viewBox="0 0 53 65" fill="none" xmlns="http://www.w3.org/2000/svg">
<path d="M43.6321 31.2259C43.4096 30.9243 43.3111 30.6196 43.3111 30.242V26.7347C43.3111 25.097 42.3035 23.7131 40.743 23.2052L37.4025 22.1166C37.0401 21.9992 36.789 21.8183 36.5634 21.5072L34.4974 18.6729C33.5344 17.3461 31.9007 16.8193 30.3401 17.3239L26.9996 18.4062C26.6404 18.5236 26.3194 18.5236 25.9603 18.4062L22.6197 17.3239C21.0623 16.8192 19.4286 17.3461 18.4656 18.6696L16.3996 21.5071C16.1803 21.8087 15.9197 21.9991 15.5573 22.1165L12.2168 23.202C10.6562 23.7067 9.64867 25.0937 9.64867 26.7315V30.2387C9.64867 30.6164 9.55014 30.9211 9.32765 31.2258L7.26167 34.0633C6.29861 35.3868 6.29861 37.1008 7.26167 38.4243L9.32765 41.265C9.55014 41.5666 9.64867 41.8713 9.64867 42.2489V45.7562C9.64867 47.3939 10.6562 48.7778 12.2168 49.2856L12.2486 49.2952L7.99584 56.6461C7.7066 57.1507 7.7225 57.7633 8.03716 58.249C8.34546 58.7346 8.89851 59.0044 9.48329 58.9536L15.7797 58.3505L18.4019 64.0859C18.6371 64.6159 19.1456 64.9682 19.7336 64.9968C19.7622 65 19.7908 65 19.8194 65C20.3725 65 20.8619 64.7175 21.1543 64.2287L26.4845 55.0113L31.8115 64.2255C32.1007 64.7333 32.6474 65.0285 33.2323 64.9967C33.8171 64.965 34.3257 64.6159 34.5576 64.0953L37.1862 58.3473L43.4889 58.9503C44.0674 59.0011 44.6173 58.7313 44.9351 58.2457C45.2466 57.7601 45.2593 57.1475 44.97 56.6397L40.7205 49.2919L40.7491 49.2824C42.3097 48.7777 43.3172 47.3907 43.3172 45.7529V42.2457C43.3172 41.868 43.4157 41.5633 43.6382 41.2586L45.7042 38.4211C46.6672 37.0976 46.6672 35.3836 45.7042 34.0601L43.6382 31.2194L43.6321 31.2259ZM19.864 62.4004L17.4866 57.2046C17.2164 56.6016 16.5903 56.2366 15.9323 56.3L10.2303 56.8459L14.2223 49.9426L15.5572 50.3774C15.9196 50.4948 16.1802 50.6821 16.3995 50.9868L18.4655 53.8212C19.4317 55.1479 21.0622 55.678 22.6197 55.1733L24.3709 54.6052L19.864 62.4004ZM42.7297 56.846L37.0277 56.3C36.3666 56.2397 35.7595 56.5889 35.4734 57.1983L33.096 62.3972L28.5922 54.6052L30.3403 55.1733C30.7312 55.3003 31.1285 55.3637 31.5194 55.3637C32.6795 55.3637 33.776 54.8178 34.4976 53.8244L36.5636 50.9869C36.7861 50.679 37.0372 50.4981 37.4026 50.3775L38.7375 49.9426L42.7297 56.846ZM44.0519 37.2338L41.9891 40.0713C41.5092 40.7252 41.2803 41.4393 41.2803 42.2519V45.7591C41.2803 46.5113 40.8354 47.1239 40.117 47.3556L36.7765 48.441C36.0042 48.6918 35.3939 49.1329 34.9204 49.7867L32.8544 52.6211C32.4158 53.2242 31.6784 53.4622 30.9728 53.2337L27.6323 52.145C26.8599 51.8943 26.1098 51.8943 25.3343 52.145L21.9938 53.2337C21.2787 53.4654 20.5572 53.2305 20.1154 52.6179L18.0526 49.7836C17.5758 49.1266 16.9688 48.6853 16.1932 48.4346L12.8527 47.346C12.1344 47.1143 11.6894 46.5017 11.6894 45.7495V42.2423C11.6894 41.4297 11.4574 40.7156 10.9806 40.0618L8.91462 37.2211C8.47282 36.6117 8.47282 35.8562 8.91462 35.2468L10.9774 32.4093C11.4574 31.7555 11.6862 31.0413 11.6862 30.2288V26.7216C11.6862 25.9693 12.1312 25.3568 12.8495 25.1251L16.19 24.0396C16.9655 23.7889 17.5758 23.3477 18.0494 22.6939L20.1154 19.8596C20.4459 19.4057 20.9291 19.1613 21.4503 19.1613C21.6283 19.1613 21.8126 19.1898 21.997 19.2502L25.3375 20.3325C26.1098 20.5832 26.8599 20.5832 27.6355 20.3325L30.976 19.2502C31.6943 19.0185 32.4157 19.2502 32.8576 19.8596L34.9204 22.6939C35.3971 23.3509 36.0042 23.7921 36.7765 24.0429L40.117 25.1315C40.8353 25.3632 41.2803 25.9758 41.2803 26.728V30.2352C41.2803 31.0477 41.5123 31.7619 41.9891 32.4157L44.0551 35.2564C44.4969 35.8658 44.4969 36.6212 44.0551 37.2306L44.0519 37.2338ZM21.6598 10.1472L21.0241 14.559C20.9701 14.9335 21.129 15.3049 21.4341 15.5239C21.7393 15.7461 22.1429 15.781 22.4799 15.6127L26.4815 13.6449L30.4831 15.6127C30.6261 15.6826 30.7787 15.7175 30.9313 15.7175C31.141 15.7175 31.3508 15.6508 31.5288 15.5239C31.8339 15.3017 31.9928 14.9303 31.9388 14.5558L31.2999 10.144L34.4116 6.951C34.6754 6.68121 34.7676 6.28763 34.65 5.92899C34.5324 5.57033 34.2272 5.3069 33.8554 5.24341L29.4629 4.48484L27.381 0.542749C27.2062 0.20948 26.8598 0 26.4815 0C26.1032 0 25.7568 0.20948 25.582 0.542749L23.5001 4.48484L19.1045 5.24341C18.7326 5.30689 18.4275 5.57033 18.3099 5.92899C18.1923 6.28765 18.2844 6.68122 18.5483 6.951L21.6599 10.144L21.6598 10.1472ZM24.3424 6.40505C24.6539 6.35109 24.9209 6.15747 25.0702 5.87817L26.4846 3.19932L27.899 5.87817C28.0452 6.15747 28.3154 6.35109 28.6269 6.40505L31.6114 6.91922L29.4978 9.09023C29.2784 9.31558 29.1736 9.62981 29.2212 9.94405L29.6535 12.9403L26.936 11.6041C26.6531 11.4644 26.3194 11.4644 26.0365 11.6041L23.3158 12.9403L23.748 9.94088C23.7925 9.62983 23.6908 9.31561 23.4715 9.08707L21.3578 6.91606L24.3455 6.40188L24.3424 6.40505ZM12.2204 19.6274C12.3634 19.6972 12.516 19.7322 12.6685 19.7322C12.8815 19.7322 13.0912 19.6655 13.2661 19.5385C13.5712 19.3164 13.7269 18.945 13.6761 18.5705L13.0372 14.165L16.1488 10.972C16.4127 10.7022 16.5048 10.3086 16.3872 9.94999C16.2696 9.59133 15.9645 9.32789 15.5926 9.26442L11.2001 8.50585L9.12146 4.56375C8.94665 4.23048 8.6002 4.021 8.22194 4.021C7.84369 4.021 7.49728 4.23048 7.32244 4.56375L5.24059 8.50585L0.844914 9.26442C0.473044 9.3279 0.167918 9.59133 0.0503189 9.94999C-0.0672805 10.3087 0.0248923 10.7022 0.288699 10.972L3.40033 14.165L2.76465 18.5737C2.71061 18.9482 2.86954 19.3195 3.17466 19.5385C3.47979 19.7607 3.88344 19.7956 4.22039 19.6274L8.222 17.6627L12.2236 19.6274L12.2204 19.6274ZM5.04993 16.9549L5.48219 13.9587C5.52669 13.6476 5.42498 13.3302 5.20567 13.1049L3.09201 10.9339L6.07972 10.4197C6.3912 10.3657 6.65818 10.1721 6.80756 9.89281L8.22196 7.21396L9.63636 9.89281C9.78257 10.1721 10.0527 10.3657 10.3642 10.4197L13.3487 10.9339L11.2351 13.1049C11.0158 13.3302 10.9109 13.6445 10.9586 13.9587L11.3908 16.9549L8.67008 15.6187C8.3872 15.479 8.05665 15.479 7.77375 15.6187L5.053 16.9549H5.04993ZM52.9131 9.94997C52.7955 9.59131 52.4904 9.32787 52.1185 9.26439L47.7228 8.50582L45.6473 4.56373C45.4725 4.23046 45.1261 4.02098 44.7478 4.02098C44.3696 4.02098 44.0231 4.23046 43.8483 4.56373L41.7696 8.50582L37.374 9.26439C37.0021 9.32787 36.697 9.59131 36.5794 9.94997C36.4618 10.3086 36.5539 10.7022 36.8177 10.972L39.9294 14.165L39.2905 18.5705C39.2365 18.945 39.3954 19.3164 39.7005 19.5385C39.8785 19.6655 40.0883 19.7321 40.2981 19.7321C40.4506 19.7321 40.6032 19.6972 40.7462 19.6274L44.751 17.6627L48.7526 19.6274C49.0895 19.7924 49.4932 19.7575 49.7983 19.5385C50.1035 19.3163 50.2592 18.945 50.2084 18.5705L49.5695 14.165L52.6811 10.972C52.9449 10.7022 53.0371 10.3086 52.9195 9.94996L52.9131 9.94997ZM47.7578 13.108C47.5385 13.3334 47.4336 13.6476 47.4813 13.9619L47.9135 16.9581L45.1928 15.6219C44.9099 15.4822 44.5793 15.4822 44.2964 15.6219L41.5725 16.9581L42.0048 13.9619C42.0493 13.6508 41.9476 13.3334 41.7283 13.108L39.6146 10.937L42.6023 10.4229C42.9138 10.3689 43.1808 10.1753 43.3302 9.89598L44.7446 7.21713L46.1558 9.89281C46.302 10.1721 46.5722 10.3689 46.8836 10.4197L49.8713 10.9339L47.7577 13.1049L47.7578 13.108Z" fill="url(#paint0_linear_612_4090)"/>
<path d="M26.5029 24C19.6112 24 14 29.6053 14 36.4971C14 43.3888 19.611 49 26.5029 49C33.3948 49 39 43.389 39 36.4971C39 29.6051 33.3947 24 26.5029 24ZM27.3874 43.2653V44.658C27.3874 45.1462 26.9911 45.5424 26.5029 45.5424C26.0148 45.5424 25.6185 45.1462 25.6185 44.658V43.2682C24.4325 42.9925 23.4304 42.1655 22.9365 41.0169C22.747 40.5689 22.9537 40.0463 23.4017 39.8568C23.8525 39.6673 24.3723 39.874 24.5618 40.3248C24.892 41.1002 25.653 41.5998 26.4972 41.5998C27.6573 41.5998 28.6021 40.6551 28.6021 39.4921C28.6021 38.3291 27.6602 37.3844 26.4972 37.3844C24.3608 37.3844 22.6178 35.647 22.6178 33.5135C22.6178 31.6786 23.8985 30.1365 25.6099 29.7374V28.3419C25.6099 27.8537 26.0062 27.4574 26.4943 27.4574C26.9825 27.4574 27.3788 27.8537 27.3788 28.3419V29.7374C28.5619 30.0131 29.5612 30.8344 30.0579 31.9801C30.2503 32.4281 30.0464 32.9507 29.5956 33.1431C29.1476 33.3383 28.625 33.1316 28.4326 32.6808C28.0995 31.9054 27.3357 31.4058 26.4943 31.4058C25.3342 31.4058 24.3866 32.3505 24.3866 33.5135C24.3866 34.6736 25.3342 35.6155 26.4943 35.6155C28.6307 35.6155 30.3681 37.3557 30.3681 39.495C30.3767 41.3242 29.0988 42.8661 27.3874 43.2653Z" fill="url(#paint1_linear_612_4090)"/>
<defs>
<linearGradient id="paint0_linear_612_4090" x1="26.4849" y1="0" x2="26.4849" y2="65" gradientUnits="userSpaceOnUse">
<stop stop-color="#DADADA"/>
<stop offset="1" stop-color="#6B6B6B"/>
</linearGradient>
<linearGradient id="paint1_linear_612_4090" x1="26.4849" y1="0" x2="26.4849" y2="65" gradientUnits="userSpaceOnUse">
<stop stop-color="#DADADA"/>
<stop offset="1" stop-color="#6B6B6B"/>
</linearGradient>
</defs>
</svg>
