<svg width="50" height="66" viewBox="0 0 50 66" fill="none" xmlns="http://www.w3.org/2000/svg">
<path fill-rule="evenodd" clip-rule="evenodd" d="M31.1083 20.1005C31.0847 20.0401 31.0637 19.9744 31.0454 19.9114L30.5398 18.3639C30.2595 17.5049 30.2673 16.6168 30.5293 15.8051C30.7939 14.9933 31.3047 14.2708 32.0382 13.7401L34.7601 11.7645C34.9514 11.6252 35.085 11.444 35.1479 11.2469C35.2133 11.0473 35.2133 10.8213 35.14 10.598C35.0666 10.3747 34.9357 10.1908 34.7654 10.0673C34.5925 9.94122 34.3777 9.87292 34.1445 9.87292L30.7834 9.87817C29.877 9.8808 29.0387 9.59969 28.355 9.10056C27.6686 8.6014 27.142 7.88417 26.8617 7.01718L25.8295 3.81205C25.7561 3.58611 25.6252 3.40484 25.4575 3.28136C25.2951 3.16314 25.0803 3.09483 24.8366 3.09483C24.593 3.09483 24.3808 3.16051 24.2158 3.28136C24.0481 3.40484 23.9171 3.58612 23.8438 3.81205L22.8116 7.01718C22.5313 7.88417 22.0047 8.60139 21.3183 9.10056C20.6372 9.5971 19.7963 9.87817 18.8925 9.87817L15.5314 9.87292C15.2956 9.87292 15.0834 9.94385 14.9105 10.0673C14.7402 10.1908 14.6092 10.3747 14.5359 10.598C14.4625 10.8213 14.4625 11.0473 14.528 11.2469C14.5935 11.444 14.7245 11.6252 14.9157 11.7645L17.6376 13.7401C18.3685 14.2708 18.882 14.9959 19.1466 15.8051C19.4086 16.6168 19.419 17.5048 19.1361 18.3639L18.6305 19.9114C18.6148 19.977 18.5912 20.0401 18.5676 20.1005L18.0908 21.5665C18.0175 21.795 18.0175 22.0236 18.0804 22.2233C18.1432 22.4177 18.2742 22.599 18.4655 22.7382C18.6593 22.8801 18.8767 22.951 19.0837 22.951C19.2933 22.951 19.5081 22.8801 19.6993 22.7408L22.4134 20.7547C23.1469 20.2161 23.9931 19.9482 24.8366 19.9482C25.6802 19.9482 26.5237 20.2161 27.2599 20.7547L29.9739 22.7408C30.1625 22.8801 30.3773 22.951 30.5895 22.951C30.7965 22.951 31.0113 22.8801 31.2052 22.7382C31.3964 22.599 31.53 22.4203 31.5903 22.2233C31.6557 22.0236 31.6557 21.795 31.5798 21.5665L31.103 20.1005H31.1083ZM11.746 30.0416H37.9354V23.3843C37.9354 22.7486 37.6761 22.1706 37.2569 21.7502C36.8378 21.3299 36.264 21.0698 35.6275 21.0698H34.6293C34.776 21.7791 34.7315 22.4964 34.5193 23.161C34.2547 23.9754 33.7439 24.7006 33.0156 25.2312C32.29 25.7593 31.4464 26.0247 30.595 26.022C29.7488 26.022 28.9027 25.7541 28.177 25.2207L25.4629 23.2346C25.2769 23.1006 25.0621 23.0297 24.8447 23.0297C24.6298 23.0297 24.4124 23.098 24.2264 23.2346L21.5124 25.2207C20.7841 25.7541 19.9405 26.0194 19.0944 26.022C18.243 26.022 17.3994 25.7593 16.6737 25.2312C15.9455 24.7006 15.432 23.9754 15.17 23.161C14.9552 22.4964 14.9133 21.7791 15.0574 21.0698H14.0592C13.4253 21.0698 12.8489 21.3299 12.4298 21.7502C12.0106 22.1706 11.7513 22.7486 11.7513 23.3843V30.0416H11.746ZM17.0771 55.3492H19.8279V52.1362C17.3863 51.3323 15.1962 49.9582 13.4174 48.1744C10.727 45.4763 8.97178 41.8377 8.70459 37.8049L5.54263 36.9564C3.59622 36.4336 2.03482 35.1726 1.06815 33.5516L1.01052 33.4596C0.0516959 31.794 -0.278396 29.7684 0.253426 27.7771C0.777368 25.8225 2.0348 24.254 3.64857 23.2846L3.74026 23.2268C5.22299 22.3677 6.99397 22.013 8.7701 22.3257C8.9823 21.2591 9.50889 20.3054 10.2476 19.5645C11.2221 18.5872 12.5686 17.9803 14.0541 17.9803H16.0319L16.2179 17.4076C16.2913 17.1816 16.2913 16.9531 16.2284 16.7534C16.1629 16.5537 16.0319 16.3725 15.8381 16.2306L13.1162 14.255C12.3853 13.7243 11.8718 13.0018 11.6098 12.1926C11.3479 11.3861 11.3374 10.4981 11.6177 9.63639C11.898 8.77465 12.4246 8.06275 13.111 7.56095C13.7947 7.06442 14.633 6.78334 15.5368 6.78596L18.8979 6.79122C19.1311 6.79122 19.3485 6.72028 19.5214 6.59418C19.6917 6.46807 19.8253 6.2868 19.896 6.06874L20.9282 2.86361C21.2033 2.00455 21.7298 1.28996 22.4188 0.788169C23.1104 0.283752 23.9487 0 24.8421 0C25.738 0 26.5737 0.283738 27.2653 0.788169C27.9543 1.28996 28.4809 2.00193 28.756 2.86361L29.7882 6.06874C29.8589 6.28942 29.9925 6.47333 30.1628 6.59418C30.3383 6.72028 30.5531 6.79122 30.7863 6.79122L34.1473 6.78596C35.0512 6.78334 35.8895 7.06444 36.5732 7.56095C37.2595 8.06012 37.7888 8.77471 38.0665 9.63377C38.3468 10.4954 38.3363 11.3835 38.0743 12.19C37.8097 12.9992 37.2989 13.7243 36.568 14.2523L33.8461 16.228C33.6522 16.3672 33.5213 16.5511 33.4558 16.7508C33.3903 16.9504 33.3903 17.1764 33.4662 17.405L33.6522 17.9777H35.6301C37.1155 17.9777 38.4621 18.5819 39.4366 19.5619C40.1753 20.3028 40.6993 21.2564 40.9141 22.3231C42.6876 22.0104 44.4612 22.3651 45.9439 23.2242L46.0356 23.282C47.652 24.2514 48.9094 25.8172 49.4307 27.7744C49.9625 29.7658 49.6325 31.7967 48.6737 33.457L48.616 33.5489C47.6493 35.1699 46.0854 36.431 44.1389 36.9538L40.977 37.8023C40.7097 41.8324 38.9546 45.4735 36.2641 48.1718C34.4854 49.9556 32.2952 51.3297 29.8563 52.1336V55.3466H32.607C34.3937 55.3466 36.0179 56.0795 37.1941 57.2592C38.3704 58.4388 39.0986 60.065 39.0986 61.8593V64.3157C39.0986 65.1669 38.4097 65.8605 37.5582 65.8605H12.1233C11.2745 65.8605 10.5829 65.1696 10.5829 64.3157V61.8593C10.5829 60.0676 11.3138 58.4388 12.4874 57.2592C13.6636 56.0796 15.2879 55.3466 17.0745 55.3466L17.0771 55.3492ZM22.906 55.3492H26.7779V52.8219C26.1413 52.898 25.4968 52.9401 24.8419 52.9401C24.1871 52.9401 23.5426 52.9007 22.906 52.8219V55.3492ZM32.6069 58.4361H17.0801C16.1423 58.4361 15.2882 58.8223 14.6699 59.4423C14.0491 60.0649 13.6666 60.9188 13.6666 61.8593V62.771H36.0232V61.8593C36.0232 60.9188 35.6381 60.0623 35.0199 59.4423C34.399 58.8197 33.5476 58.4361 32.6097 58.4361H32.6069ZM8.67086 34.6047V25.462C8.63156 25.4515 8.58965 25.441 8.55035 25.4278C7.40294 25.1388 6.23978 25.3359 5.28618 25.8928L5.21283 25.9323C4.28808 26.4892 3.56767 27.3851 3.24804 28.499C3.23494 28.5463 3.22446 28.5936 3.20874 28.6409C2.92057 29.7915 3.11705 30.958 3.67243 31.9143L3.71173 31.9879C4.27759 32.931 5.19708 33.6693 6.34194 33.974L8.67089 34.5993L8.67086 34.6047ZM41.0161 25.462V34.6047L43.3451 33.9795C44.4898 33.6721 45.4068 32.9365 45.9753 31.9933L46.0146 31.9198C46.5647 30.9608 46.7638 29.7943 46.4782 28.6463C46.4651 28.599 46.4494 28.5543 46.4389 28.5044C46.122 27.3878 45.3989 26.4946 44.4742 25.9377L44.4008 25.8983C43.4446 25.3466 42.2814 25.1469 41.1366 25.4333C41.0973 25.4464 41.0554 25.4569 41.0161 25.4674L41.0161 25.462Z" fill="url(#paint0_linear_612_4038)"/>
<defs>
<linearGradient id="paint0_linear_612_4038" x1="24.8421" y1="0" x2="24.8421" y2="65.8605" gradientUnits="userSpaceOnUse">
<stop stop-color="#DADADA"/>
<stop offset="1" stop-color="#6B6B6B"/>
</linearGradient>
</defs>
</svg>
