<svg width="16" height="16" viewBox="0 0 16 16" fill="none" xmlns="http://www.w3.org/2000/svg">
<path fill-rule="evenodd" clip-rule="evenodd" d="M3.64497 12.7051C3.6401 12.6954 3.63524 12.6857 3.63037 12.6711C3.48924 12.9619 3.19726 13.2332 2.81281 13.398C3.0172 13.1024 3.05613 12.8843 2.92474 12.7438C2.51595 13.3204 2.07311 13.5869 1.60593 13.5433C2.1899 13.0588 1.61079 11.7263 2.57922 11.5276C1.5378 11.0964 0.326052 12.0994 0 13.616C0.496378 13.1121 0.910026 12.9619 1.22635 13.1605C0.257922 14.1636 -0.097329 15.1133 0.165459 16C0.95869 14.5706 4.27761 15.4718 3.64497 12.7051ZM5.31416 12.9037L2.66681 10.3356C2.61815 10.2872 2.54029 10.2872 2.49162 10.3356L2.34563 10.4858C2.2191 10.6167 2.2191 10.8299 2.35049 10.9558L4.69612 13.2332C4.82752 13.3641 5.04164 13.3592 5.16817 13.2284L5.31416 13.083C5.36283 13.0297 5.36283 12.9522 5.31416 12.9037ZM10.2195 10.8444L10.2341 11.9831C10.2439 12.6566 9.87889 13.2429 9.27058 13.5336L7.20234 14.527C7.09528 14.5803 6.97849 14.5754 6.87629 14.5124C6.7741 14.4494 6.7157 14.3477 6.7157 14.2265L6.69623 13.1605C6.74003 13.1412 6.7887 13.1169 6.82763 13.0927C7.96638 12.4337 9.12459 11.6827 10.2195 10.8444ZM4.58906 5.37383L3.46978 5.38352C2.78848 5.39322 2.20937 5.76632 1.93198 6.3817L0.983023 8.46041C0.934358 8.57186 0.944091 8.68815 1.00735 8.78506C1.07549 8.88682 1.17768 8.94496 1.29934 8.94012L2.34563 8.93043C2.36509 8.88682 2.38456 8.84321 2.40889 8.7996C3.0464 7.65122 3.76663 6.48345 4.58906 5.37383ZM5.66455 12.7099L2.81767 9.94313C2.61328 9.74447 2.56462 9.4392 2.70575 9.18724C6.05873 3.12068 9.95675 0.0583277 14.3998 0.000181782C14.6626 -0.00466371 14.8913 0.0874006 15.0811 0.271529C15.2709 0.455658 15.3682 0.678551 15.3682 0.940207C15.4169 5.36414 12.4386 9.31807 6.43345 12.8068C6.18039 12.9522 5.8738 12.9134 5.66455 12.7099ZM12.3316 3.07222C11.5773 2.34056 10.3655 2.35509 9.6307 3.10614C8.891 3.85719 8.9056 5.06372 9.6599 5.80024C10.4191 6.53191 11.6308 6.51737 12.3656 5.76632C13.1053 5.01527 13.0907 3.80874 12.3316 3.07222Z" fill="white"/>
<circle cx="11" cy="4.5" r="1" fill="white"/>
</svg>
