<svg width="18" height="16" viewBox="0 0 18 16" fill="none" xmlns="http://www.w3.org/2000/svg">
<path d="M16.8538 7.59148C13.5495 6.6789 12.9146 6.04396 12.0027 2.74043C11.9512 2.55453 11.7822 2.42578 11.5891 2.42578C11.396 2.42578 11.227 2.55454 11.1755 2.74043C10.2637 6.04389 9.62874 6.67883 6.32441 7.59148C6.13852 7.64299 6.00977 7.81198 6.00977 8.00512C6.00977 8.19826 6.13853 8.36726 6.32441 8.41876C9.6287 9.33055 10.2628 9.96549 11.1755 13.2698C11.227 13.4557 11.396 13.5845 11.5891 13.5845C11.7822 13.5845 11.9512 13.4557 12.0027 13.2698C12.9153 9.96553 13.5495 9.33141 16.8538 8.41876C17.0397 8.36726 17.1684 8.19826 17.1684 8.00512C17.1684 7.81198 17.0397 7.64299 16.8538 7.59148Z" fill="white"/>
<path d="M3.04692 2.98189C4.52279 3.38955 4.78328 3.65011 5.19044 5.12541C5.22826 5.26189 5.35292 5.35641 5.49412 5.35641C5.63533 5.35641 5.76058 5.26188 5.79781 5.12541C6.20488 3.65013 6.46544 3.38951 7.94133 2.98189C8.07781 2.94407 8.17233 2.82 8.17233 2.67821C8.17233 2.53641 8.0778 2.41234 7.94133 2.37453C6.46545 1.96686 6.20497 1.7063 5.79781 0.231005C5.76058 0.0945256 5.63592 0 5.49412 0C5.35233 0 5.22826 0.0945316 5.19044 0.231005C4.78278 1.70688 4.52222 1.96691 3.04692 2.37453C2.91044 2.41234 2.81592 2.53641 2.81592 2.67821C2.81592 2.82 2.91045 2.94407 3.04692 2.98189Z" fill="white"/>
<path d="M7.41099 11.7242C5.27605 11.1352 4.86566 10.7247 4.27646 8.59053C4.22495 8.40463 4.05596 8.27588 3.86282 8.27588C3.66968 8.27588 3.50068 8.40464 3.44918 8.59053C2.8601 10.7246 2.44967 11.1352 0.314648 11.7242C0.128752 11.7757 0 11.9447 0 12.1379C0 12.331 0.12876 12.5 0.314648 12.5515C2.44959 13.1414 2.85997 13.551 3.44918 15.6852C3.50068 15.8711 3.66968 15.9999 3.86282 15.9999C4.05596 15.9999 4.22495 15.8711 4.27646 15.6852C4.86554 13.5503 5.27596 13.1405 7.41099 12.5515C7.59689 12.5 7.72564 12.331 7.72564 12.1379C7.72564 11.9447 7.59607 11.7757 7.41099 11.7242Z" fill="white"/>
</svg>
