<svg width="238" height="177" viewBox="0 0 238 177" fill="none" xmlns="http://www.w3.org/2000/svg">
<g clip-path="url(#clip0_348_241)">
<rect width="238" height="177" rx="24" fill="url(#paint0_linear_348_241)"/>
<path d="M309 -250.824L309 -285L270 -285M309 -250.824L270 -250.824M309 -250.824L309 -216.647M270 -250.824L270 -285M270 -250.824L270 -216.647M270 -250.824L231 -250.824M270 -285L231 -285M309 -216.647L270 -216.647M309 -216.647L309 -182.471M270 -216.647L270 -182.471M270 -216.647L231 -216.647M309 -182.471L270 -182.471M309 -182.471L309 -148.294M270 -182.471L270 -148.294M270 -182.471L231 -182.471M309 -148.294L270 -148.294M309 -148.294L309 -114.118M270 -148.294L270 -114.118M270 -148.294L231 -148.294M309 -114.118L270 -114.118M309 -114.118L309 -79.9412M270 -114.118L270 -79.9412M270 -114.118L231 -114.118M309 -79.9412L270 -79.9412M309 -79.9412L309 -45.7647M270 -79.9412L270 -45.7647M270 -79.9412L231 -79.9412M309 -45.7647L270 -45.7647M309 -45.7647L309 -11.5882M270 -45.7647L270 -11.5882M270 -45.7647L231 -45.7647M309 -11.5882L270 -11.5882M309 -11.5882L309 22.5882M270 -11.5882L270 22.5882M270 -11.5882L231 -11.5882M309 22.5882L270 22.5882M309 22.5882L309 56.7647M270 22.5882L270 56.7647M270 22.5882L231 22.5882M309 56.7647L270 56.7647M309 56.7647L309 90.9412M270 56.7647L270 90.9412M270 56.7647L231 56.7647M309 90.9412L270 90.9412M309 90.9412L309 125.118M270 90.9412L270 125.118M270 90.9412L231 90.9412M309 125.118L270 125.118M309 125.118L309 159.294M270 125.118L270 159.294M270 125.118L231 125.118M309 159.294L270 159.294M309 159.294L309 193.471M270 159.294L270 193.471M270 159.294L231 159.294M309 193.471L270 193.471M309 193.471L309 227.647M270 193.471L270 227.647M270 193.471L231 193.471M309 227.647L270 227.647M309 227.647L309 261.824M270 227.647L270 261.824M270 227.647L231 227.647M309 261.824L270 261.824M309 261.824L309 296L270 296M270 261.824L270 296M270 261.824L231 261.824M270 296L231 296M231 -250.824L231 -285M231 -250.824L231 -216.647M231 -250.824L192 -250.824M231 -285L192 -285M231 -216.647L231 -182.471M231 -216.647L192 -216.647M231 -182.471L231 -148.294M231 -182.471L192 -182.471M231 -148.294L231 -114.118M231 -148.294L192 -148.294M231 -114.118L231 -79.9412M231 -114.118L192 -114.118M231 -79.9412L231 -45.7647M231 -79.9412L192 -79.9412M231 -45.7647L231 -11.5882M231 -45.7647L192 -45.7647M231 -11.5882L231 22.5882M231 -11.5882L192 -11.5882M231 22.5882L231 56.7647M231 22.5882L192 22.5882M231 56.7647L231 90.9412M231 56.7647L192 56.7647M231 90.9412L231 125.118M231 90.9412L192 90.9412M231 125.118L231 159.294M231 125.118L192 125.118M231 159.294L231 193.471M231 159.294L192 159.294M231 193.471L231 227.647M231 193.471L192 193.471M231 227.647L231 261.824M231 227.647L192 227.647M231 261.824L231 296M231 261.824L192 261.824M231 296L192 296M192 -250.824L192 -285M192 -250.824L192 -216.647M192 -250.824L153 -250.824M192 -285L153 -285M192 -216.647L192 -182.471M192 -216.647L153 -216.647M192 -182.471L192 -148.294M192 -182.471L153 -182.471M192 -148.294L192 -114.118M192 -148.294L153 -148.294M192 -114.118L192 -79.9412M192 -114.118L153 -114.118M192 -79.9412L192 -45.7647M192 -79.9412L153 -79.9412M192 -45.7647L192 -11.5882M192 -45.7647L153 -45.7647M192 -11.5882L192 22.5882M192 -11.5882L153 -11.5882M192 22.5882L192 56.7647M192 22.5882L153 22.5882M192 56.7647L192 90.9412M192 56.7647L153 56.7647M192 90.9412L192 125.118M192 90.9412L153 90.9412M192 125.118L192 159.294M192 125.118L153 125.118M192 159.294L192 193.471M192 159.294L153 159.294M192 193.471L192 227.647M192 193.471L153 193.471M192 227.647L192 261.824M192 227.647L153 227.647M192 261.824L192 296M192 261.824L153 261.824M192 296L153 296M153 -250.824L153 -285M153 -250.824L153 -216.647M153 -250.824L114 -250.824M153 -285L114 -285M153 -216.647L153 -182.471M153 -216.647L114 -216.647M153 -182.471L153 -148.294M153 -182.471L114 -182.471M153 -148.294L153 -114.118M153 -148.294L114 -148.294M153 -114.118L153 -79.9412M153 -114.118L114 -114.118M153 -79.9412L153 -45.7647M153 -79.9412L114 -79.9412M153 -45.7647L153 -11.5882M153 -45.7647L114 -45.7647M153 -11.5882L153 22.5882M153 -11.5882L114 -11.5882M153 22.5882L153 56.7647M153 22.5882L114 22.5882M153 56.7647L153 90.9412M153 56.7647L114 56.7647M153 90.9412L153 125.118M153 90.9412L114 90.9412M153 125.118L153 159.294M153 125.118L114 125.118M153 159.294L153 193.471M153 159.294L114 159.294M153 193.471L153 227.647M153 193.471L114 193.471M153 227.647L153 261.824M153 227.647L114 227.647M153 261.824L153 296M153 261.824L114 261.824M153 296L114 296M114 -250.824L114 -285M114 -250.824L114 -216.647M114 -250.824L75 -250.824M114 -285L75 -285M114 -216.647L114 -182.471M114 -216.647L75 -216.647M114 -182.471L114 -148.294M114 -182.471L75 -182.471M114 -148.294L114 -114.118M114 -148.294L75 -148.294M114 -114.118L114 -79.9412M114 -114.118L75 -114.118M114 -79.9412L114 -45.7647M114 -79.9412L75 -79.9412M114 -45.7647L114 -11.5882M114 -45.7647L75 -45.7647M114 -11.5882L114 22.5882M114 -11.5882L75 -11.5882M114 22.5882L114 56.7647M114 22.5882L75 22.5882M114 56.7647L114 90.9412M114 56.7647L75 56.7647M114 90.9412L114 125.118M114 90.9412L75 90.9412M114 125.118L114 159.294M114 125.118L75 125.118M114 159.294L114 193.471M114 159.294L75 159.294M114 193.471L114 227.647M114 193.471L75 193.471M114 227.647L114 261.824M114 227.647L75 227.647M114 261.824L114 296M114 261.824L75 261.824M114 296L75 296M75 -250.824L75 -285M75 -250.824L75 -216.647M75 -250.824L36 -250.824M75 -285L36 -285M75 -216.647L75 -182.471M75 -216.647L36 -216.647M75 -182.471L75 -148.294M75 -182.471L36 -182.471M75 -148.294L75 -114.118M75 -148.294L36 -148.294M75 -114.118L75 -79.9412M75 -114.118L36 -114.118M75 -79.9412L75 -45.7647M75 -79.9412L36 -79.9412M75 -45.7647L75 -11.5882M75 -45.7647L36 -45.7647M75 -11.5882L75 22.5882M75 -11.5882L36 -11.5882M75 22.5882L75 56.7647M75 22.5882L36 22.5882M75 56.7647L75 90.9412M75 56.7647L36 56.7647M75 90.9412L75 125.118M75 90.9412L36 90.9412M75 125.118L75 159.294M75 125.118L36 125.118M75 159.294L75 193.471M75 159.294L36 159.294M75 193.471L75 227.647M75 193.471L36 193.471M75 227.647L75 261.824M75 227.647L36 227.647M75 261.824L75 296M75 261.824L36 261.824M75 296L36 296M36 -250.824L36 -285M36 -250.824L36 -216.647M36 -250.824L-2.99998 -250.824M36 -285L-2.99998 -285M36 -216.647L36 -182.471M36 -216.647L-2.99998 -216.647M36 -182.471L36 -148.294M36 -182.471L-2.99999 -182.471M36 -148.294L36 -114.118M36 -148.294L-2.99999 -148.294M36 -114.118L36 -79.9412M36 -114.118L-2.99999 -114.118M36 -79.9412L36 -45.7647M36 -79.9412L-2.99999 -79.9412M36 -45.7647L36 -11.5882M36 -45.7647L-2.99999 -45.7647M36 -11.5882L36 22.5882M36 -11.5882L-2.99999 -11.5882M36 22.5882L36 56.7647M36 22.5882L-2.99999 22.5882M36 56.7647L36 90.9412M36 56.7647L-3 56.7647M36 90.9412L36 125.118M36 90.9412L-3 90.9412M36 125.118L36 159.294M36 125.118L-3 125.118M36 159.294L36 193.471M36 159.294L-3 159.294M36 193.471L36 227.647M36 193.471L-3 193.471M36 227.647L36 261.824M36 227.647L-3 227.647M36 261.824L36 296M36 261.824L-3.00001 261.824M36 296L-3.00001 296M-2.99998 -250.824L-2.99998 -285M-2.99998 -250.824L-2.99998 -216.647M-2.99998 -250.824L-42 -250.824M-2.99998 -285L-42 -285M-2.99998 -216.647L-2.99999 -182.471M-2.99998 -216.647L-42 -216.647M-2.99999 -182.471L-2.99999 -148.294M-2.99999 -182.471L-42 -182.471M-2.99999 -148.294L-2.99999 -114.118M-2.99999 -148.294L-42 -148.294M-2.99999 -114.118L-2.99999 -79.9412M-2.99999 -114.118L-42 -114.118M-2.99999 -79.9412L-2.99999 -45.7647M-2.99999 -79.9412L-42 -79.9412M-2.99999 -45.7647L-2.99999 -11.5882M-2.99999 -45.7647L-42 -45.7647M-2.99999 -11.5882L-2.99999 22.5882M-2.99999 -11.5882L-42 -11.5882M-2.99999 22.5882L-3 56.7647M-2.99999 22.5882L-42 22.5882M-3 56.7647L-3 90.9412M-3 56.7647L-42 56.7647M-3 90.9412L-3 125.118M-3 90.9412L-42 90.9412M-3 125.118L-3 159.294M-3 125.118L-42 125.118M-3 159.294L-3 193.471M-3 159.294L-42 159.294M-3 193.471L-3 227.647M-3 193.471L-42 193.471M-3 227.647L-3.00001 261.824M-3 227.647L-42 227.647M-3.00001 261.824L-3.00001 296M-3.00001 261.824L-42 261.824M-3.00001 296L-42 296M-42 -250.824L-42 -285M-42 -250.824L-42 -216.647M-42 -250.824L-81 -250.824M-42 -285L-81 -285M-42 -216.647L-42 -182.471M-42 -216.647L-81 -216.647M-42 -182.471L-42 -148.294M-42 -182.471L-81 -182.471M-42 -148.294L-42 -114.118M-42 -148.294L-81 -148.294M-42 -114.118L-42 -79.9412M-42 -114.118L-81 -114.118M-42 -79.9412L-42 -45.7647M-42 -79.9412L-81 -79.9412M-42 -45.7647L-42 -11.5882M-42 -45.7647L-81 -45.7647M-42 -11.5882L-42 22.5882M-42 -11.5882L-81 -11.5883M-42 22.5882L-42 56.7647M-42 22.5882L-81 22.5882M-42 56.7647L-42 90.9412M-42 56.7647L-81 56.7647M-42 90.9412L-42 125.118M-42 90.9412L-81 90.9412M-42 125.118L-42 159.294M-42 125.118L-81 125.118M-42 159.294L-42 193.471M-42 159.294L-81 159.294M-42 193.471L-42 227.647M-42 193.471L-81 193.471M-42 227.647L-42 261.824M-42 227.647L-81 227.647M-42 261.824L-42 296M-42 261.824L-81 261.824M-42 296L-81 296M-81 -250.824L-81 -285M-81 -250.824L-81 -216.647M-81 -250.824L-120 -250.824M-81 -285L-120 -285M-81 -216.647L-81 -182.471M-81 -216.647L-120 -216.647M-81 -182.471L-81 -148.294M-81 -182.471L-120 -182.471M-81 -148.294L-81 -114.118M-81 -148.294L-120 -148.294M-81 -114.118L-81 -79.9412M-81 -114.118L-120 -114.118M-81 -79.9412L-81 -45.7647M-81 -79.9412L-120 -79.9412M-81 -45.7647L-81 -11.5883M-81 -45.7647L-120 -45.7647M-81 -11.5883L-81 22.5882M-81 -11.5883L-120 -11.5883M-81 22.5882L-81 56.7647M-81 22.5882L-120 22.5882M-81 56.7647L-81 90.9412M-81 56.7647L-120 56.7647M-81 90.9412L-81 125.118M-81 90.9412L-120 90.9412M-81 125.118L-81 159.294M-81 125.118L-120 125.118M-81 159.294L-81 193.471M-81 159.294L-120 159.294M-81 193.471L-81 227.647M-81 193.471L-120 193.471M-81 227.647L-81 261.824M-81 227.647L-120 227.647M-81 261.824L-81 296M-81 261.824L-120 261.824M-81 296L-120 296M-120 -250.824L-120 -285M-120 -250.824L-120 -216.647M-120 -250.824L-159 -250.824M-120 -285L-159 -285L-159 -250.824M-120 -216.647L-120 -182.471M-120 -216.647L-159 -216.647M-120 -182.471L-120 -148.294M-120 -182.471L-159 -182.471M-120 -148.294L-120 -114.118M-120 -148.294L-159 -148.294M-120 -114.118L-120 -79.9412M-120 -114.118L-159 -114.118M-120 -79.9412L-120 -45.7647M-120 -79.9412L-159 -79.9412M-120 -45.7647L-120 -11.5883M-120 -45.7647L-159 -45.7647M-120 -11.5883L-120 22.5882M-120 -11.5883L-159 -11.5883M-120 22.5882L-120 56.7647M-120 22.5882L-159 22.5882M-120 56.7647L-120 90.9412M-120 56.7647L-159 56.7647M-120 90.9412L-120 125.118M-120 90.9412L-159 90.9412M-120 125.118L-120 159.294M-120 125.118L-159 125.118M-120 159.294L-120 193.471M-120 159.294L-159 159.294M-120 193.471L-120 227.647M-120 193.471L-159 193.471M-120 227.647L-120 261.824M-120 227.647L-159 227.647M-120 261.824L-120 296M-120 261.824L-159 261.824M-120 296L-159 296L-159 261.824M-159 -250.824L-159 -216.647M-159 -216.647L-159 -182.471M-159 -182.471L-159 -148.294M-159 -148.294L-159 -114.118M-159 -114.118L-159 -79.9412M-159 -79.9412L-159 -45.7647M-159 -45.7647L-159 -11.5883M-159 -11.5883L-159 22.5882M-159 22.5882L-159 56.7647M-159 56.7647L-159 90.9412M-159 90.9412L-159 125.118M-159 125.118L-159 159.294M-159 159.294L-159 193.471M-159 193.471L-159 227.647M-159 227.647L-159 261.824" stroke="url(#paint1_linear_348_241)"/>
</g>
<defs>
<linearGradient id="paint0_linear_348_241" x1="119" y1="0" x2="119" y2="177" gradientUnits="userSpaceOnUse">
<stop stop-color="white" stop-opacity="0"/>
<stop offset="1" stop-color="#01DA63" stop-opacity="0.3"/>
</linearGradient>
<linearGradient id="paint1_linear_348_241" x1="113.5" y1="17" x2="113.5" y2="176.5" gradientUnits="userSpaceOnUse">
<stop stop-color="white" stop-opacity="0"/>
<stop offset="1" stop-color="white" stop-opacity="0.9"/>
</linearGradient>
<clipPath id="clip0_348_241">
<rect width="177" height="238" fill="white" transform="translate(238) rotate(90)"/>
</clipPath>
</defs>
</svg>
