<svg width="80" height="65" viewBox="0 0 80 65" fill="none" xmlns="http://www.w3.org/2000/svg">
<path fill-rule="evenodd" clip-rule="evenodd" d="M34.4987 61.8312C33.3272 61.9672 32.1372 62.0369 30.9304 62.0369C13.894 62.0369 0 48.1035 0 31.0189C0 13.9334 13.894 0 30.9304 0C41.9013 0 51.5703 5.77726 57.0628 14.4542L60.522 9.72645C60.7561 9.40603 61.1249 9.21095 61.521 9.1986C61.9171 9.18536 62.2974 9.3566 62.5517 9.66113L79.699 30.2068C80.0212 30.5925 80.0907 31.1301 79.8786 31.5856C79.6665 32.0402 79.2114 32.3315 78.7097 32.3315H72.5104C72.263 43.547 68.8038 51.7879 63.8236 57.1759C55.9071 65.7398 44.115 67.1998 34.6334 61.9177C34.5859 61.8913 34.541 61.8621 34.4987 61.8312ZM55.4133 16.7095C50.485 8.27441 41.3494 2.58807 30.9304 2.58807C15.3156 2.58807 2.58076 15.3589 2.58076 31.0189C2.58076 46.678 15.3156 59.4488 30.9304 59.4488C33.4548 59.4488 35.9036 59.1152 38.2352 58.4902C46.1421 55.4705 49.8354 49.9263 51.551 44.0537C47.2344 50.9078 39.6145 55.4581 30.9304 55.4581C17.4677 55.4581 6.56017 44.5198 6.56017 31.0189C6.56017 17.5171 17.4677 6.57875 30.9304 6.57875C40.5422 6.57875 48.8505 12.1539 52.8184 20.2562L55.4133 16.7095ZM52.682 32.3315H46.5311C46.0444 32.3315 45.5999 32.0578 45.3798 31.6227C45.1607 31.1875 45.2029 30.6658 45.4907 30.2721L51.0668 22.65C47.7934 14.7331 40.0115 9.16682 30.9304 9.16682C18.8936 9.16682 9.14005 18.9471 9.14005 31.0189C9.14005 43.0898 18.8936 52.871 30.9304 52.871C42.5289 52.871 52.006 43.7915 52.682 32.3315ZM55.5973 31.0374C55.5973 40.9316 54.4327 55.316 38.8452 61.0289C46.6949 63.9885 55.6712 62.1887 61.9312 55.4167C66.7468 50.207 69.9437 42.1012 69.9437 31.0374C69.9437 30.3233 70.5211 29.7434 71.2341 29.7434H75.9476L61.6293 12.5882C58.5275 16.8278 49.0785 29.7434 49.0785 29.7434H54.3078C55.0198 29.7434 55.5973 30.3233 55.5973 31.0374ZM44.842 43.1392C45.3455 43.6441 45.3455 44.4641 44.842 44.9691C44.3386 45.474 43.5208 45.474 43.0174 44.9691L41.6055 43.5541C41.102 43.0483 41.102 42.2283 41.6055 41.7234C42.109 41.2185 42.9267 41.2185 43.4302 41.7234L44.842 43.1392ZM43.0174 17.0679C43.5208 16.5629 44.3386 16.5629 44.842 17.0679C45.3455 17.5728 45.3455 18.3928 44.842 18.8977L43.4302 20.3135C42.9267 20.8184 42.109 20.8184 41.6055 20.3135C41.102 19.8086 41.102 18.9886 41.6055 18.4837L43.0174 17.0679ZM18.8443 44.9691C18.3408 45.474 17.5231 45.474 17.0196 44.9691C16.5162 44.4641 16.5162 43.6441 17.0196 43.1392L18.4306 41.7234C18.935 41.2185 19.7527 41.2185 20.2562 41.7234C20.7596 42.2283 20.7596 43.0483 20.2562 43.5541L18.8443 44.9691ZM29.64 12.5908C29.64 11.8767 30.2183 11.2968 30.9304 11.2968C31.6425 11.2968 32.2208 11.8767 32.2208 12.5908V14.5857C32.2208 15.2998 31.6425 15.8797 30.9304 15.8797C30.2183 15.8797 29.64 15.2998 29.64 14.5857V12.5908ZM29.64 22.2625C29.64 21.5484 30.2183 20.9694 30.9304 20.9694C31.6425 20.9694 32.2208 21.5484 32.2208 22.2625V30.2712L37.4096 33.2751C38.0266 33.6317 38.2387 34.4235 37.8823 35.0422C37.5266 35.661 36.7362 35.8728 36.1201 35.5162L30.2861 32.139C29.8865 31.9078 29.64 31.4805 29.64 31.0189V22.2625ZM17.0196 18.8977C16.5162 18.3928 16.5162 17.5728 17.0196 17.0679C17.5231 16.5629 18.3408 16.5629 18.8443 17.0679L20.2562 18.4837C20.7596 18.9886 20.7596 19.8086 20.2562 20.3135C19.7527 20.8184 18.935 20.8184 18.4306 20.3135L17.0196 18.8977ZM32.2208 49.4461C32.2208 50.1602 31.6425 50.7401 30.9304 50.7401C30.2183 50.7401 29.64 50.1602 29.64 49.4461V47.4512C29.64 46.7371 30.2183 46.1572 30.9304 46.1572C31.6425 46.1572 32.2208 46.7371 32.2208 47.4512V49.4461ZM12.5552 32.3129C11.8432 32.3129 11.2649 31.733 11.2649 31.0189C11.2649 30.3048 11.8432 29.7249 12.5552 29.7249H14.5445C15.2566 29.7249 15.8349 30.3048 15.8349 31.0189C15.8349 31.733 15.2566 32.3129 14.5445 32.3129H12.5552Z" fill="url(#paint0_linear_612_4097)"/>
<path d="M66.0144 25.7319C65.6937 25.2574 65.1938 24.8617 64.5287 24.5551C64.0784 24.3512 63.2426 24.1099 62.0463 23.8394C60.8807 23.5762 60.1563 23.3209 59.8907 23.0797C59.6294 22.8464 59.5034 22.5576 59.5034 22.1967C59.5034 21.7771 59.6863 21.4266 60.0638 21.1255C60.4444 20.8214 61.0691 20.6669 61.9233 20.6669C62.7774 20.6669 63.363 20.8373 63.7735 21.1731C64.1051 21.4449 64.2875 21.8089 64.3866 22.1246C64.5096 22.513 64.8767 22.7719 65.2842 22.7414C65.8061 22.7023 66.1604 22.1966 66.0215 21.6928C65.9377 21.3863 65.8055 21.0461 65.6005 20.7334C65.2493 20.1997 64.7415 19.7899 64.0911 19.5163C63.6621 19.3356 63.1831 19.2159 62.6636 19.1548V18.6626C62.6636 18.2968 62.3662 18 61.9997 18C61.6332 18 61.3358 18.2968 61.3358 18.6626V19.1298C60.7754 19.1768 60.2528 19.2983 59.7749 19.4956C59.1423 19.757 58.6528 20.1453 58.3212 20.6528C57.9901 21.1591 57.8231 21.7111 57.8231 22.2931C57.8231 22.825 57.9614 23.3136 58.2337 23.7435C58.5053 24.1716 58.9202 24.5349 59.4684 24.8213C59.8912 25.0455 60.6022 25.2751 61.643 25.5242C62.652 25.7661 63.3109 25.9462 63.6035 26.0592C64.0422 26.2259 64.3592 26.4317 64.5452 26.6705C64.7299 26.9081 64.8205 27.1792 64.8205 27.4998C64.8205 27.8205 64.7232 28.1056 64.5311 28.3707C64.3383 28.6375 64.0355 28.8531 63.6329 29.0082C63.2211 29.1682 62.7383 29.2482 62.1968 29.2482C61.5868 29.2482 61.0324 29.1414 60.5466 28.9301C60.0681 28.7224 59.7114 28.4476 59.4875 28.1154C59.3302 27.8821 59.2262 27.6067 59.1583 27.3594C59.0518 26.9728 58.6902 26.7127 58.2894 26.7475L58.2533 26.7511C57.7571 26.7945 57.4108 27.2641 57.5203 27.7484C57.6096 28.1435 57.7644 28.6052 58.0312 29.0107C58.4301 29.6177 58.9869 30.0775 59.6869 30.378C60.1574 30.5802 60.7118 30.7139 61.3364 30.7792V31.3374C61.3364 31.7032 61.6338 32 62.0003 32C62.3668 32 62.6642 31.7032 62.6642 31.3374V30.8134C63.3171 30.7719 63.9197 30.6278 64.4588 30.3817C65.1129 30.083 65.6214 29.6574 65.972 29.1169C66.3226 28.5765 66.5 27.9908 66.5 27.379C66.5 26.767 66.3372 26.2052 66.0148 25.7288L66.0144 25.7319Z" fill="url(#paint1_linear_612_4097)"/>
<defs>
<linearGradient id="paint0_linear_612_4097" x1="40" y1="0" x2="40" y2="65" gradientUnits="userSpaceOnUse">
<stop stop-color="#DADADA"/>
<stop offset="1" stop-color="#6B6B6B"/>
</linearGradient>
<linearGradient id="paint1_linear_612_4097" x1="40" y1="0" x2="40" y2="65" gradientUnits="userSpaceOnUse">
<stop stop-color="#DADADA"/>
<stop offset="1" stop-color="#6B6B6B"/>
</linearGradient>
</defs>
</svg>
