<svg width="585" height="214" viewBox="0 0 585 214" fill="none" xmlns="http://www.w3.org/2000/svg">
<path d="M107.25 69.45V53.7C107.25 50.85 106.35 48.15 104.85 45.75C103.35 43.35 101.1 41.55 98.4 40.5L0 0V8.7L87.6 44.7C88.5 45.15 89.25 45.75 89.55 46.65C89.85 47.55 89.85 48.6 89.55 49.5C89.4 49.95 89.1 50.4 88.8 50.7C88.5 51 88.05 51.3 87.6 51.45L0 87.6V123L52.8 101.25L87.45 115.5C87.9 115.65 88.35 115.95 88.65 116.25C88.95 116.55 89.25 117 89.4 117.45C89.55 117.9 89.7 118.35 89.7 118.8C89.7 119.25 89.55 119.7 89.4 120.15C89.25 120.6 88.95 121.05 88.65 121.35C88.35 121.65 87.9 121.95 87.45 122.1L0 158.1V213.9L98.25 173.55C100.8 172.5 103.05 170.7 104.7 168.3C106.2 165.9 107.1 163.2 107.1 160.35V124.05C107.1 121.2 106.2 118.5 104.7 116.1C103.2 113.7 100.95 111.9 98.25 110.85L63.45 96.45L98.25 82.2C100.95 81.15 103.2 79.35 104.7 77.1C106.5 75 107.25 72.3 107.25 69.45Z" fill="white"/>
<path d="M167.75 54.4502L174.05 78.0002L180.2 54.4502H186.05L176.9 86.4002H171.95L164.9 60.7502L158.15 86.4002H153.2L144.05 54.4502H149.9L156.05 78.0002L162.35 54.4502H167.75Z" fill="white"/>
<path d="M203 82.35C204.8 82.5 206.6 82.05 208.25 81.15C209.75 80.25 211.1 78.75 211.7 77.1H217.25C215.75 82.65 210.65 87.15 203 87.15C192.95 87.15 187.25 79.95 187.25 70.5C187.25 60.45 194 54 202.7 54C212.45 54 218.3 62.25 217.55 72.3H193.1C193.1 73.65 193.25 75 193.7 76.2C194.15 77.4 194.9 78.6 195.8 79.5C196.7 80.4 197.75 81.15 198.95 81.75C200.45 82.2 201.8 82.35 203 82.35ZM212 67.5C211.7 65.1 210.65 63 209 61.5C207.2 60 204.95 59.1 202.7 59.1C200.3 59.1 198.05 60 196.4 61.5C194.6 63 193.55 65.25 193.4 67.5H212Z" fill="white"/>
<path d="M228.799 59.55C229.849 57.75 231.349 56.25 233.299 55.35C235.099 54.3 237.199 53.85 239.299 54C246.649 54 252.949 60.15 252.949 70.65C252.949 81.15 246.649 87.3 239.299 87.3C237.199 87.45 235.099 87 233.299 85.95C231.499 84.9 229.849 83.55 228.799 81.75V86.55H223.399V43.5H228.799V59.55ZM246.949 70.5C246.949 62.85 243.349 58.5 237.799 58.5C232.999 58.5 228.499 62.1 228.499 70.5C228.499 78.9 232.999 82.5 237.799 82.5C243.349 82.5 246.949 78.15 246.949 70.5Z" fill="white"/>
<path d="M269.3 66.1501H268.4V61.2001H269.15C276.65 61.2001 280.55 59.1001 280.55 54.0001C280.55 49.3501 276.8 46.9501 272.15 46.9501C270.95 46.8001 269.75 46.9501 268.7 47.4001C267.65 47.7001 266.6 48.3001 265.7 49.2001C264.8 49.9501 264.05 51.0001 263.6 52.0501C263.15 53.1001 262.85 54.3001 262.85 55.5001H257.3C257.9 47.8501 263.3 42.6001 272.45 42.6001C279.95 42.6001 286.4 45.6001 286.4 53.5501C286.4 55.8001 285.8 57.9001 284.45 59.7001C283.25 61.5001 281.45 62.8501 279.35 63.6001C285.8 65.5501 287.6 69.9001 287.6 74.4001C287.6 83.1001 280.25 87.3001 272 87.3001C261.95 87.3001 257.3 81.0001 256.7 73.8001H262.25C262.85 79.0501 266 82.8001 272 82.8001C277.7 82.8001 281.75 79.8001 281.75 74.5501C281.75 68.1001 276.2 66.1501 269.3 66.1501Z" fill="white"/>
<path d="M318.199 43.3501H321.049V47.8501H318.349C315.499 47.8501 315.049 48.4501 315.049 51.7501V54.3001H321.049V58.6501H315.049V86.2501H309.649V58.6501H305.149V54.3001H309.649V52.0501C309.649 45.4501 310.999 43.3501 318.199 43.3501Z" fill="white"/>
<path d="M338.3 87.15C330.95 87.15 323 82.05 323 70.5C323 58.95 330.8 54 338.3 54C345.8 54 353.6 59.1 353.6 70.65C353.6 82.2 345.65 87.15 338.3 87.15ZM347.9 70.5C347.9 61.95 343.25 58.65 338.3 58.65C333.35 58.65 328.7 61.8 328.7 70.5C328.7 79.2 333.35 82.35 338.3 82.35C343.1 82.35 347.9 78.75 347.9 70.5Z" fill="white"/>
<path d="M369.2 87.1498C361.85 87.1498 359 82.1998 359 74.8498V54.4498H364.4V73.1998C364.4 78.1498 365.3 82.3498 371.15 82.3498C376.25 82.3498 379.25 78.7498 379.25 71.8498V54.2998H384.65V86.2498H379.25V81.5998C378.2 83.3998 376.7 84.7498 375.05 85.6498C373.25 86.8498 371.15 87.2998 369.2 87.1498Z" fill="white"/>
<path d="M407.9 54.0002C415.7 54.0002 418.4 58.9502 418.4 66.3002V86.5502H413V67.9502C413 63.0002 412.1 58.8002 405.95 58.8002C400.7 58.8002 397.55 62.4002 397.55 69.3002V86.7002H392.3V54.7502H397.7V59.5502C398.75 57.7502 400.25 56.4002 402.05 55.5002C403.85 54.6002 405.95 53.8502 407.9 54.0002Z" fill="white"/>
<path d="M453.35 43.3502V86.4002H447.95V81.6002C446.9 83.4002 445.4 84.9002 443.45 85.8002C441.65 86.8502 439.55 87.3002 437.45 87.1502C430.1 87.1502 423.8 81.1502 423.8 70.5002C423.8 60.0002 430.1 53.8502 437.45 53.8502C439.55 53.7002 441.65 54.1502 443.45 55.2002C445.25 56.2502 446.9 57.6002 447.95 59.4002V43.2002L453.35 43.3502ZM429.65 70.5002C429.65 78.1502 433.25 82.5002 438.8 82.5002C443.6 82.5002 448.1 78.9002 448.1 70.5002C448.1 62.1002 443.6 58.5002 438.8 58.5002C433.25 58.5002 429.65 63.0002 429.65 70.5002Z" fill="white"/>
<path d="M480.65 66.7502V66.0002C480.65 60.1502 477.35 58.2002 473.45 58.2002C468.95 58.2002 466.4 60.6002 466.1 64.5002H460.55C461.15 57.6002 467.15 53.7002 473.45 53.7002C482.3 53.7002 486.2 57.9002 486.2 66.9002V74.2502C486.05 78.3002 486.35 82.3502 487.1 86.2502H481.7C481.4 84.7502 481.4 83.2502 481.25 81.9002C479.3 85.2002 476 87.0002 470.3 87.0002C464.3 87.0002 459.35 83.7002 459.35 77.8502C458.9 70.5002 467.45 68.2502 480.65 66.7502ZM464.9 77.8502C464.9 80.8502 467.15 82.9502 471.05 82.9502C476.15 82.9502 480.95 80.7002 480.95 73.0502V71.1002C471.2 72.0002 464.9 73.5002 464.9 77.8502Z" fill="white"/>
<path d="M499.85 46.5V54.45H505.85V58.8H499.85V77.7C499.85 81 500.15 81.9 503.15 81.9H505.85V86.4H501.95C495.8 86.4 494.45 85.05 494.45 78.45V58.8H489.35V54.45H494.45V46.5H499.85Z" fill="white"/>
<path d="M516.5 49.9501H511.1V43.3501H516.5V49.9501ZM516.5 86.4001H511.1V54.4501H516.5V86.4001Z" fill="white"/>
<path d="M537.5 87.1501C530 87.1501 522.2 82.0501 522.2 70.5001C522.2 58.9501 530.15 53.8501 537.5 53.8501C545 53.8501 552.8 58.9501 552.8 70.5001C552.8 82.0501 545 87.1501 537.5 87.1501ZM547.1 70.5001C547.1 61.9501 542.45 58.6501 537.5 58.6501C532.55 58.6501 527.9 61.8001 527.9 70.5001C527.9 79.2001 532.55 82.3501 537.5 82.3501C542.45 82.3501 547.1 78.7501 547.1 70.5001Z" fill="white"/>
<path d="M574.399 54C582.199 54 584.899 58.95 584.899 66.3V86.55H579.499V67.95C579.499 63 578.599 58.8 572.449 58.8C567.199 58.8 564.049 62.4 564.049 69.3V86.7H558.649V54.75H564.049V59.55C565.099 57.75 566.599 56.4 568.399 55.35C570.199 54.15 572.299 53.85 574.399 54Z" fill="white"/>
<path d="M174.8 120.6V148.2C174.8 154.8 173.6 157.35 171.8 159.45C170.3 160.95 168.65 162 166.7 162.75C164.75 163.5 162.8 163.8 160.7 163.65C153.5 163.65 148.55 160.35 147.65 153.9H153.35C154.1 156.75 155.75 159 160.7 159C161.9 159.15 163.1 158.85 164.15 158.55C165.35 158.1 166.25 157.5 167.15 156.6C168.35 155.4 169.25 153.9 169.25 149.55V146.55C168.2 148.35 166.7 149.85 164.9 150.75C163.1 151.8 161 152.1 159.05 152.1C152 152.1 145.55 146.4 145.55 136.2C145.55 126 152 120.3 159.05 120.3C161.15 120.15 163.1 120.6 164.9 121.65C166.7 122.7 168.2 124.05 169.1 125.85V120.75H174.8V120.6ZM151.55 136.05C151.55 143.4 155.3 147.45 160.55 147.45C165.35 147.45 169.55 144.15 169.55 136.05C169.55 127.95 165.35 124.65 160.55 124.65C155.3 124.65 151.55 128.7 151.55 136.05Z" fill="white"/>
<path d="M195.2 126C190.25 126 187.7 128.85 187.7 135.75V152.55H182.3V120.6H187.55V126.15C188.3 124.35 189.65 123 191.15 121.95C192.8 120.9 194.6 120.45 196.55 120.45C197.15 120.45 197.6 120.45 198.2 120.45V126.15C197.3 126 196.25 126 195.2 126Z" fill="white"/>
<path d="M222.05 132.9V132C222.05 126.15 218.75 124.2 214.85 124.2C210.35 124.2 207.8 126.6 207.5 130.5H201.95C202.55 123.6 208.55 119.7 214.85 119.7C223.7 119.7 227.6 123.9 227.6 132.9V140.25C227.45 144.3 227.75 148.35 228.5 152.25H223.1C222.8 150.75 222.65 149.4 222.65 147.9C220.7 151.2 217.4 153 211.7 153C205.7 153 200.75 149.7 200.75 143.85C200.45 136.5 208.85 134.4 222.05 132.9ZM206.45 144C206.45 147 208.7 149.1 212.6 149.1C217.7 149.1 222.5 146.85 222.5 139.2V137.25C212.6 138.15 206.45 139.5 206.45 144Z" fill="white"/>
<path d="M250.399 120C258.049 120 260.899 124.95 260.899 132.3V152.55H255.499V133.95C255.499 129 254.599 124.8 248.449 124.8C243.199 124.8 240.049 128.4 240.049 135.3V152.7H234.649V120.75H240.049V125.55C241.099 123.75 242.599 122.4 244.399 121.35C246.199 120.3 248.299 119.85 250.399 120Z" fill="white"/>
<path d="M274.85 112.5V120.45H280.85V124.8H274.85V143.7C274.85 147 275.15 147.9 278.15 147.9H280.85V152.4H276.95C270.8 152.4 269.45 151.05 269.45 144.45V124.95H264.35V120.6H269.45V112.5H274.85Z" fill="white"/>
<path d="M296.9 124.65C293.75 124.65 290.15 125.7 290.15 128.7C290.15 131.25 291.95 132.45 295.1 133.05L299.6 133.95C305.45 135.15 310.55 137.25 310.55 143.4C310.55 149.55 304.85 153.3 297.5 153.3C289.1 153.3 284.3 147.75 283.85 142.2H289.55C289.85 144.15 290.75 145.95 292.25 147.15C293.75 148.35 295.7 148.95 297.65 148.8C301.7 148.8 305 147 305 144C305 141 302 139.35 298.55 138.75L293.75 137.85C289.4 136.95 284.75 135 284.75 129C284.75 123.3 290.45 120.15 297.5 120.15C304.55 120.15 309.05 124.05 310.1 130.05H304.4C303.65 126.15 300.65 124.65 296.9 124.65Z" fill="white"/>
<path d="M336.65 125.55C337.7 123.75 339.2 122.25 341.15 121.2C342.95 120.15 345.05 119.7 347.15 119.85C354.5 119.85 360.8 126 360.8 136.5C360.8 147 354.5 153.15 347.15 153.15C345.05 153.3 342.95 152.85 341.15 151.8C339.35 150.75 337.7 149.4 336.65 147.45V162.6H331.25V120.3H336.65V125.55ZM354.8 136.65C354.8 129 351.2 124.65 345.65 124.65C340.85 124.65 336.35 128.25 336.35 136.65C336.35 145.05 340.85 148.65 345.65 148.65C351.2 148.65 354.8 144.3 354.8 136.65Z" fill="white"/>
<path d="M379.25 126C374.3 126 371.75 128.85 371.75 135.75V152.55H366.35V120.6H371.6V126.15C372.35 124.35 373.7 123 375.2 121.95C376.85 120.9 378.65 120.45 380.6 120.45C381.2 120.45 381.65 120.45 382.25 120.45V126.15C381.35 126 380.3 126 379.25 126Z" fill="white"/>
<path d="M399.65 153.3C392.15 153.3 384.35 148.2 384.35 136.65C384.35 125.1 392.3 120 399.65 120C407.15 120 414.95 125.1 414.95 136.65C414.95 148.2 407.15 153.3 399.65 153.3ZM409.25 136.65C409.25 128.1 404.6 124.8 399.65 124.8C394.85 124.8 390.05 127.95 390.05 136.65C390.05 145.35 394.7 148.5 399.65 148.5C404.6 148.5 409.25 144.9 409.25 136.65Z" fill="white"/>
<path d="M447.95 120.6V148.2C447.95 154.8 446.75 157.35 444.95 159.45C443.45 160.95 441.8 162 439.85 162.75C437.9 163.5 435.95 163.8 433.85 163.65C426.65 163.65 421.7 160.35 420.65 153.9H426.5C427.25 156.75 428.9 159 433.85 159C435.05 159.15 436.25 158.85 437.3 158.55C438.5 158.1 439.4 157.5 440.3 156.6C441.5 155.4 442.4 153.9 442.4 149.55V146.55C441.35 148.35 439.85 149.85 438.05 150.75C436.25 151.8 434.15 152.1 432.2 152.1C425.15 152.1 418.7 146.4 418.7 136.2C418.7 126 425.15 120.3 432.2 120.3C434.3 120.15 436.25 120.6 438.05 121.65C439.85 122.7 441.35 124.05 442.25 126V120.9H447.95V120.6ZM424.7 136.05C424.7 143.4 428.45 147.45 433.7 147.45C438.5 147.45 442.7 144.15 442.7 136.05C442.7 127.95 438.5 124.65 433.7 124.65C428.45 124.65 424.7 128.7 424.7 136.05Z" fill="white"/>
<path d="M468.35 126C463.4 126 460.85 128.85 460.85 135.75V152.55H455.45V120.6H460.7V126.15C461.45 124.35 462.8 123 464.3 121.95C465.95 120.9 467.75 120.45 469.7 120.45C470.3 120.45 470.75 120.45 471.35 120.45V126.15C470.45 126 469.4 126 468.35 126Z" fill="white"/>
<path d="M495.199 132.9V132C495.199 126.15 491.899 124.2 487.999 124.2C483.499 124.2 480.949 126.6 480.649 130.5H475.099C475.699 123.6 481.699 119.7 487.999 119.7C496.849 119.7 500.749 123.9 500.749 132.9V140.25C500.599 144.3 500.899 148.35 501.649 152.25H496.249C495.949 150.75 495.949 149.4 495.799 147.9C493.849 151.2 490.549 153 484.849 153C478.849 153 473.899 149.7 473.899 143.85C473.599 136.5 481.999 134.4 495.199 132.9ZM479.449 144C479.449 147 481.699 149.1 485.599 149.1C490.699 149.1 495.499 146.85 495.499 139.2V137.25C485.749 138.15 479.449 139.5 479.449 144Z" fill="white"/>
<path d="M507.8 152.55V120.6H513.2V125.4C514.1 123.75 515.6 122.25 517.25 121.35C518.9 120.45 520.85 120 522.8 120C527.75 120 530.6 122.1 531.95 125.7C533.15 123.9 534.65 122.4 536.6 121.35C538.55 120.3 540.65 119.85 542.75 120C550.25 120 553.1 124.95 553.1 132.3V152.4H547.7V133.95C547.7 129 546.8 124.8 540.95 124.8C536.3 124.8 533.15 128.4 533.15 135.3V152.7H527.75V134.1C527.75 129.15 526.85 124.95 521 124.95C516.35 124.95 513.35 128.55 513.35 135.45V152.85H507.8V152.55Z" fill="white"/>
</svg>
